G04 #@! TF.GenerationSoftware,KiCad,Pcbnew,5.1.5+dfsg1-2build2*
G04 #@! TF.CreationDate,2021-09-05T22:16:52+01:00*
G04 #@! TF.ProjectId,pak_breakout,70616b5f-6272-4656-916b-6f75742e6b69,rev?*
G04 #@! TF.SameCoordinates,Original*
G04 #@! TF.FileFunction,Paste,Bot*
G04 #@! TF.FilePolarity,Positive*
%FSLAX46Y46*%
G04 Gerber Fmt 4.6, Leading zero omitted, Abs format (unit mm)*
G04 Created by KiCad (PCBNEW 5.1.5+dfsg1-2build2) date 2021-09-05 22:16:52*
%MOMM*%
%LPD*%
G04 APERTURE LIST*
%ADD10C,0.100000*%
G04 APERTURE END LIST*
D10*
G36*
X347661142Y-241363174D02*
G01*
X347684803Y-241366684D01*
X347708007Y-241372496D01*
X347730529Y-241380554D01*
X347752153Y-241390782D01*
X347772670Y-241403079D01*
X347791883Y-241417329D01*
X347809607Y-241433393D01*
X347825671Y-241451117D01*
X347839921Y-241470330D01*
X347852218Y-241490847D01*
X347862446Y-241512471D01*
X347870504Y-241534993D01*
X347876316Y-241558197D01*
X347879826Y-241581858D01*
X347881000Y-241605750D01*
X347881000Y-242518250D01*
X347879826Y-242542142D01*
X347876316Y-242565803D01*
X347870504Y-242589007D01*
X347862446Y-242611529D01*
X347852218Y-242633153D01*
X347839921Y-242653670D01*
X347825671Y-242672883D01*
X347809607Y-242690607D01*
X347791883Y-242706671D01*
X347772670Y-242720921D01*
X347752153Y-242733218D01*
X347730529Y-242743446D01*
X347708007Y-242751504D01*
X347684803Y-242757316D01*
X347661142Y-242760826D01*
X347637250Y-242762000D01*
X347149750Y-242762000D01*
X347125858Y-242760826D01*
X347102197Y-242757316D01*
X347078993Y-242751504D01*
X347056471Y-242743446D01*
X347034847Y-242733218D01*
X347014330Y-242720921D01*
X346995117Y-242706671D01*
X346977393Y-242690607D01*
X346961329Y-242672883D01*
X346947079Y-242653670D01*
X346934782Y-242633153D01*
X346924554Y-242611529D01*
X346916496Y-242589007D01*
X346910684Y-242565803D01*
X346907174Y-242542142D01*
X346906000Y-242518250D01*
X346906000Y-241605750D01*
X346907174Y-241581858D01*
X346910684Y-241558197D01*
X346916496Y-241534993D01*
X346924554Y-241512471D01*
X346934782Y-241490847D01*
X346947079Y-241470330D01*
X346961329Y-241451117D01*
X346977393Y-241433393D01*
X346995117Y-241417329D01*
X347014330Y-241403079D01*
X347034847Y-241390782D01*
X347056471Y-241380554D01*
X347078993Y-241372496D01*
X347102197Y-241366684D01*
X347125858Y-241363174D01*
X347149750Y-241362000D01*
X347637250Y-241362000D01*
X347661142Y-241363174D01*
G37*
G36*
X345786142Y-241363174D02*
G01*
X345809803Y-241366684D01*
X345833007Y-241372496D01*
X345855529Y-241380554D01*
X345877153Y-241390782D01*
X345897670Y-241403079D01*
X345916883Y-241417329D01*
X345934607Y-241433393D01*
X345950671Y-241451117D01*
X345964921Y-241470330D01*
X345977218Y-241490847D01*
X345987446Y-241512471D01*
X345995504Y-241534993D01*
X346001316Y-241558197D01*
X346004826Y-241581858D01*
X346006000Y-241605750D01*
X346006000Y-242518250D01*
X346004826Y-242542142D01*
X346001316Y-242565803D01*
X345995504Y-242589007D01*
X345987446Y-242611529D01*
X345977218Y-242633153D01*
X345964921Y-242653670D01*
X345950671Y-242672883D01*
X345934607Y-242690607D01*
X345916883Y-242706671D01*
X345897670Y-242720921D01*
X345877153Y-242733218D01*
X345855529Y-242743446D01*
X345833007Y-242751504D01*
X345809803Y-242757316D01*
X345786142Y-242760826D01*
X345762250Y-242762000D01*
X345274750Y-242762000D01*
X345250858Y-242760826D01*
X345227197Y-242757316D01*
X345203993Y-242751504D01*
X345181471Y-242743446D01*
X345159847Y-242733218D01*
X345139330Y-242720921D01*
X345120117Y-242706671D01*
X345102393Y-242690607D01*
X345086329Y-242672883D01*
X345072079Y-242653670D01*
X345059782Y-242633153D01*
X345049554Y-242611529D01*
X345041496Y-242589007D01*
X345035684Y-242565803D01*
X345032174Y-242542142D01*
X345031000Y-242518250D01*
X345031000Y-241605750D01*
X345032174Y-241581858D01*
X345035684Y-241558197D01*
X345041496Y-241534993D01*
X345049554Y-241512471D01*
X345059782Y-241490847D01*
X345072079Y-241470330D01*
X345086329Y-241451117D01*
X345102393Y-241433393D01*
X345120117Y-241417329D01*
X345139330Y-241403079D01*
X345159847Y-241390782D01*
X345181471Y-241380554D01*
X345203993Y-241372496D01*
X345227197Y-241366684D01*
X345250858Y-241363174D01*
X345274750Y-241362000D01*
X345762250Y-241362000D01*
X345786142Y-241363174D01*
G37*
G36*
X339787142Y-241363174D02*
G01*
X339810803Y-241366684D01*
X339834007Y-241372496D01*
X339856529Y-241380554D01*
X339878153Y-241390782D01*
X339898670Y-241403079D01*
X339917883Y-241417329D01*
X339935607Y-241433393D01*
X339951671Y-241451117D01*
X339965921Y-241470330D01*
X339978218Y-241490847D01*
X339988446Y-241512471D01*
X339996504Y-241534993D01*
X340002316Y-241558197D01*
X340005826Y-241581858D01*
X340007000Y-241605750D01*
X340007000Y-242518250D01*
X340005826Y-242542142D01*
X340002316Y-242565803D01*
X339996504Y-242589007D01*
X339988446Y-242611529D01*
X339978218Y-242633153D01*
X339965921Y-242653670D01*
X339951671Y-242672883D01*
X339935607Y-242690607D01*
X339917883Y-242706671D01*
X339898670Y-242720921D01*
X339878153Y-242733218D01*
X339856529Y-242743446D01*
X339834007Y-242751504D01*
X339810803Y-242757316D01*
X339787142Y-242760826D01*
X339763250Y-242762000D01*
X339275750Y-242762000D01*
X339251858Y-242760826D01*
X339228197Y-242757316D01*
X339204993Y-242751504D01*
X339182471Y-242743446D01*
X339160847Y-242733218D01*
X339140330Y-242720921D01*
X339121117Y-242706671D01*
X339103393Y-242690607D01*
X339087329Y-242672883D01*
X339073079Y-242653670D01*
X339060782Y-242633153D01*
X339050554Y-242611529D01*
X339042496Y-242589007D01*
X339036684Y-242565803D01*
X339033174Y-242542142D01*
X339032000Y-242518250D01*
X339032000Y-241605750D01*
X339033174Y-241581858D01*
X339036684Y-241558197D01*
X339042496Y-241534993D01*
X339050554Y-241512471D01*
X339060782Y-241490847D01*
X339073079Y-241470330D01*
X339087329Y-241451117D01*
X339103393Y-241433393D01*
X339121117Y-241417329D01*
X339140330Y-241403079D01*
X339160847Y-241390782D01*
X339182471Y-241380554D01*
X339204993Y-241372496D01*
X339228197Y-241366684D01*
X339251858Y-241363174D01*
X339275750Y-241362000D01*
X339763250Y-241362000D01*
X339787142Y-241363174D01*
G37*
G36*
X337912142Y-241363174D02*
G01*
X337935803Y-241366684D01*
X337959007Y-241372496D01*
X337981529Y-241380554D01*
X338003153Y-241390782D01*
X338023670Y-241403079D01*
X338042883Y-241417329D01*
X338060607Y-241433393D01*
X338076671Y-241451117D01*
X338090921Y-241470330D01*
X338103218Y-241490847D01*
X338113446Y-241512471D01*
X338121504Y-241534993D01*
X338127316Y-241558197D01*
X338130826Y-241581858D01*
X338132000Y-241605750D01*
X338132000Y-242518250D01*
X338130826Y-242542142D01*
X338127316Y-242565803D01*
X338121504Y-242589007D01*
X338113446Y-242611529D01*
X338103218Y-242633153D01*
X338090921Y-242653670D01*
X338076671Y-242672883D01*
X338060607Y-242690607D01*
X338042883Y-242706671D01*
X338023670Y-242720921D01*
X338003153Y-242733218D01*
X337981529Y-242743446D01*
X337959007Y-242751504D01*
X337935803Y-242757316D01*
X337912142Y-242760826D01*
X337888250Y-242762000D01*
X337400750Y-242762000D01*
X337376858Y-242760826D01*
X337353197Y-242757316D01*
X337329993Y-242751504D01*
X337307471Y-242743446D01*
X337285847Y-242733218D01*
X337265330Y-242720921D01*
X337246117Y-242706671D01*
X337228393Y-242690607D01*
X337212329Y-242672883D01*
X337198079Y-242653670D01*
X337185782Y-242633153D01*
X337175554Y-242611529D01*
X337167496Y-242589007D01*
X337161684Y-242565803D01*
X337158174Y-242542142D01*
X337157000Y-242518250D01*
X337157000Y-241605750D01*
X337158174Y-241581858D01*
X337161684Y-241558197D01*
X337167496Y-241534993D01*
X337175554Y-241512471D01*
X337185782Y-241490847D01*
X337198079Y-241470330D01*
X337212329Y-241451117D01*
X337228393Y-241433393D01*
X337246117Y-241417329D01*
X337265330Y-241403079D01*
X337285847Y-241390782D01*
X337307471Y-241380554D01*
X337329993Y-241372496D01*
X337353197Y-241366684D01*
X337376858Y-241363174D01*
X337400750Y-241362000D01*
X337888250Y-241362000D01*
X337912142Y-241363174D01*
G37*
G36*
X339405142Y-228101174D02*
G01*
X339428803Y-228104684D01*
X339452007Y-228110496D01*
X339474529Y-228118554D01*
X339496153Y-228128782D01*
X339516670Y-228141079D01*
X339535883Y-228155329D01*
X339553607Y-228171393D01*
X339569671Y-228189117D01*
X339583921Y-228208330D01*
X339596218Y-228228847D01*
X339606446Y-228250471D01*
X339614504Y-228272993D01*
X339620316Y-228296197D01*
X339623826Y-228319858D01*
X339625000Y-228343750D01*
X339625000Y-229256250D01*
X339623826Y-229280142D01*
X339620316Y-229303803D01*
X339614504Y-229327007D01*
X339606446Y-229349529D01*
X339596218Y-229371153D01*
X339583921Y-229391670D01*
X339569671Y-229410883D01*
X339553607Y-229428607D01*
X339535883Y-229444671D01*
X339516670Y-229458921D01*
X339496153Y-229471218D01*
X339474529Y-229481446D01*
X339452007Y-229489504D01*
X339428803Y-229495316D01*
X339405142Y-229498826D01*
X339381250Y-229500000D01*
X338893750Y-229500000D01*
X338869858Y-229498826D01*
X338846197Y-229495316D01*
X338822993Y-229489504D01*
X338800471Y-229481446D01*
X338778847Y-229471218D01*
X338758330Y-229458921D01*
X338739117Y-229444671D01*
X338721393Y-229428607D01*
X338705329Y-229410883D01*
X338691079Y-229391670D01*
X338678782Y-229371153D01*
X338668554Y-229349529D01*
X338660496Y-229327007D01*
X338654684Y-229303803D01*
X338651174Y-229280142D01*
X338650000Y-229256250D01*
X338650000Y-228343750D01*
X338651174Y-228319858D01*
X338654684Y-228296197D01*
X338660496Y-228272993D01*
X338668554Y-228250471D01*
X338678782Y-228228847D01*
X338691079Y-228208330D01*
X338705329Y-228189117D01*
X338721393Y-228171393D01*
X338739117Y-228155329D01*
X338758330Y-228141079D01*
X338778847Y-228128782D01*
X338800471Y-228118554D01*
X338822993Y-228110496D01*
X338846197Y-228104684D01*
X338869858Y-228101174D01*
X338893750Y-228100000D01*
X339381250Y-228100000D01*
X339405142Y-228101174D01*
G37*
G36*
X337530142Y-228101174D02*
G01*
X337553803Y-228104684D01*
X337577007Y-228110496D01*
X337599529Y-228118554D01*
X337621153Y-228128782D01*
X337641670Y-228141079D01*
X337660883Y-228155329D01*
X337678607Y-228171393D01*
X337694671Y-228189117D01*
X337708921Y-228208330D01*
X337721218Y-228228847D01*
X337731446Y-228250471D01*
X337739504Y-228272993D01*
X337745316Y-228296197D01*
X337748826Y-228319858D01*
X337750000Y-228343750D01*
X337750000Y-229256250D01*
X337748826Y-229280142D01*
X337745316Y-229303803D01*
X337739504Y-229327007D01*
X337731446Y-229349529D01*
X337721218Y-229371153D01*
X337708921Y-229391670D01*
X337694671Y-229410883D01*
X337678607Y-229428607D01*
X337660883Y-229444671D01*
X337641670Y-229458921D01*
X337621153Y-229471218D01*
X337599529Y-229481446D01*
X337577007Y-229489504D01*
X337553803Y-229495316D01*
X337530142Y-229498826D01*
X337506250Y-229500000D01*
X337018750Y-229500000D01*
X336994858Y-229498826D01*
X336971197Y-229495316D01*
X336947993Y-229489504D01*
X336925471Y-229481446D01*
X336903847Y-229471218D01*
X336883330Y-229458921D01*
X336864117Y-229444671D01*
X336846393Y-229428607D01*
X336830329Y-229410883D01*
X336816079Y-229391670D01*
X336803782Y-229371153D01*
X336793554Y-229349529D01*
X336785496Y-229327007D01*
X336779684Y-229303803D01*
X336776174Y-229280142D01*
X336775000Y-229256250D01*
X336775000Y-228343750D01*
X336776174Y-228319858D01*
X336779684Y-228296197D01*
X336785496Y-228272993D01*
X336793554Y-228250471D01*
X336803782Y-228228847D01*
X336816079Y-228208330D01*
X336830329Y-228189117D01*
X336846393Y-228171393D01*
X336864117Y-228155329D01*
X336883330Y-228141079D01*
X336903847Y-228128782D01*
X336925471Y-228118554D01*
X336947993Y-228110496D01*
X336971197Y-228104684D01*
X336994858Y-228101174D01*
X337018750Y-228100000D01*
X337506250Y-228100000D01*
X337530142Y-228101174D01*
G37*
M02*
