G04 #@! TF.GenerationSoftware,KiCad,Pcbnew,5.1.5+dfsg1-2build2*
G04 #@! TF.CreationDate,2021-06-10T21:02:59+01:00*
G04 #@! TF.ProjectId,pak_breakout,70616b5f-6272-4656-916b-6f75742e6b69,rev?*
G04 #@! TF.SameCoordinates,Original*
G04 #@! TF.FileFunction,Legend,Bot*
G04 #@! TF.FilePolarity,Positive*
%FSLAX46Y46*%
G04 Gerber Fmt 4.6, Leading zero omitted, Abs format (unit mm)*
G04 Created by KiCad (PCBNEW 5.1.5+dfsg1-2build2) date 2021-06-10 21:02:59*
%MOMM*%
%LPD*%
G04 APERTURE LIST*
%ADD10C,0.120000*%
%ADD11C,0.150000*%
G04 APERTURE END LIST*
D10*
X341380578Y-229818000D02*
X340863422Y-229818000D01*
X341380578Y-228398000D02*
X340863422Y-228398000D01*
X341126578Y-240232000D02*
X340609422Y-240232000D01*
X341126578Y-238812000D02*
X340609422Y-238812000D01*
X341380578Y-243534000D02*
X340863422Y-243534000D01*
X341380578Y-242114000D02*
X340863422Y-242114000D01*
X341380578Y-232612000D02*
X340863422Y-232612000D01*
X341380578Y-231192000D02*
X340863422Y-231192000D01*
X401710000Y-271741422D02*
X401710000Y-272258578D01*
X400290000Y-271741422D02*
X400290000Y-272258578D01*
X396290000Y-272258578D02*
X396290000Y-271741422D01*
X397710000Y-272258578D02*
X397710000Y-271741422D01*
X404290000Y-272258578D02*
X404290000Y-271741422D01*
X405710000Y-272258578D02*
X405710000Y-271741422D01*
X400258578Y-264710000D02*
X399741422Y-264710000D01*
X400258578Y-263290000D02*
X399741422Y-263290000D01*
D11*
X344590666Y-229465142D02*
X344638285Y-229512761D01*
X344781142Y-229560380D01*
X344876380Y-229560380D01*
X345019238Y-229512761D01*
X345114476Y-229417523D01*
X345162095Y-229322285D01*
X345209714Y-229131809D01*
X345209714Y-228988952D01*
X345162095Y-228798476D01*
X345114476Y-228703238D01*
X345019238Y-228608000D01*
X344876380Y-228560380D01*
X344781142Y-228560380D01*
X344638285Y-228608000D01*
X344590666Y-228655619D01*
X343685904Y-228560380D02*
X344162095Y-228560380D01*
X344209714Y-229036571D01*
X344162095Y-228988952D01*
X344066857Y-228941333D01*
X343828761Y-228941333D01*
X343733523Y-228988952D01*
X343685904Y-229036571D01*
X343638285Y-229131809D01*
X343638285Y-229369904D01*
X343685904Y-229465142D01*
X343733523Y-229512761D01*
X343828761Y-229560380D01*
X344066857Y-229560380D01*
X344162095Y-229512761D01*
X344209714Y-229465142D01*
X344590666Y-239879142D02*
X344638285Y-239926761D01*
X344781142Y-239974380D01*
X344876380Y-239974380D01*
X345019238Y-239926761D01*
X345114476Y-239831523D01*
X345162095Y-239736285D01*
X345209714Y-239545809D01*
X345209714Y-239402952D01*
X345162095Y-239212476D01*
X345114476Y-239117238D01*
X345019238Y-239022000D01*
X344876380Y-238974380D01*
X344781142Y-238974380D01*
X344638285Y-239022000D01*
X344590666Y-239069619D01*
X343733523Y-239307714D02*
X343733523Y-239974380D01*
X343971619Y-238926761D02*
X344209714Y-239641047D01*
X343590666Y-239641047D01*
X344590666Y-243181142D02*
X344638285Y-243228761D01*
X344781142Y-243276380D01*
X344876380Y-243276380D01*
X345019238Y-243228761D01*
X345114476Y-243133523D01*
X345162095Y-243038285D01*
X345209714Y-242847809D01*
X345209714Y-242704952D01*
X345162095Y-242514476D01*
X345114476Y-242419238D01*
X345019238Y-242324000D01*
X344876380Y-242276380D01*
X344781142Y-242276380D01*
X344638285Y-242324000D01*
X344590666Y-242371619D01*
X344257333Y-242276380D02*
X343638285Y-242276380D01*
X343971619Y-242657333D01*
X343828761Y-242657333D01*
X343733523Y-242704952D01*
X343685904Y-242752571D01*
X343638285Y-242847809D01*
X343638285Y-243085904D01*
X343685904Y-243181142D01*
X343733523Y-243228761D01*
X343828761Y-243276380D01*
X344114476Y-243276380D01*
X344209714Y-243228761D01*
X344257333Y-243181142D01*
X344336666Y-232259142D02*
X344384285Y-232306761D01*
X344527142Y-232354380D01*
X344622380Y-232354380D01*
X344765238Y-232306761D01*
X344860476Y-232211523D01*
X344908095Y-232116285D01*
X344955714Y-231925809D01*
X344955714Y-231782952D01*
X344908095Y-231592476D01*
X344860476Y-231497238D01*
X344765238Y-231402000D01*
X344622380Y-231354380D01*
X344527142Y-231354380D01*
X344384285Y-231402000D01*
X344336666Y-231449619D01*
X343955714Y-231449619D02*
X343908095Y-231402000D01*
X343812857Y-231354380D01*
X343574761Y-231354380D01*
X343479523Y-231402000D01*
X343431904Y-231449619D01*
X343384285Y-231544857D01*
X343384285Y-231640095D01*
X343431904Y-231782952D01*
X344003333Y-232354380D01*
X343384285Y-232354380D01*
X401264380Y-276439333D02*
X400788190Y-276106000D01*
X401264380Y-275867904D02*
X400264380Y-275867904D01*
X400264380Y-276248857D01*
X400312000Y-276344095D01*
X400359619Y-276391714D01*
X400454857Y-276439333D01*
X400597714Y-276439333D01*
X400692952Y-276391714D01*
X400740571Y-276344095D01*
X400788190Y-276248857D01*
X400788190Y-275867904D01*
X401264380Y-276915523D02*
X401264380Y-277106000D01*
X401216761Y-277201238D01*
X401169142Y-277248857D01*
X401026285Y-277344095D01*
X400835809Y-277391714D01*
X400454857Y-277391714D01*
X400359619Y-277344095D01*
X400312000Y-277296476D01*
X400264380Y-277201238D01*
X400264380Y-277010761D01*
X400312000Y-276915523D01*
X400359619Y-276867904D01*
X400454857Y-276820285D01*
X400692952Y-276820285D01*
X400788190Y-276867904D01*
X400835809Y-276915523D01*
X400883428Y-277010761D01*
X400883428Y-277201238D01*
X400835809Y-277296476D01*
X400788190Y-277344095D01*
X400692952Y-277391714D01*
X397454380Y-275423333D02*
X396978190Y-275090000D01*
X397454380Y-274851904D02*
X396454380Y-274851904D01*
X396454380Y-275232857D01*
X396502000Y-275328095D01*
X396549619Y-275375714D01*
X396644857Y-275423333D01*
X396787714Y-275423333D01*
X396882952Y-275375714D01*
X396930571Y-275328095D01*
X396978190Y-275232857D01*
X396978190Y-274851904D01*
X396882952Y-275994761D02*
X396835333Y-275899523D01*
X396787714Y-275851904D01*
X396692476Y-275804285D01*
X396644857Y-275804285D01*
X396549619Y-275851904D01*
X396502000Y-275899523D01*
X396454380Y-275994761D01*
X396454380Y-276185238D01*
X396502000Y-276280476D01*
X396549619Y-276328095D01*
X396644857Y-276375714D01*
X396692476Y-276375714D01*
X396787714Y-276328095D01*
X396835333Y-276280476D01*
X396882952Y-276185238D01*
X396882952Y-275994761D01*
X396930571Y-275899523D01*
X396978190Y-275851904D01*
X397073428Y-275804285D01*
X397263904Y-275804285D01*
X397359142Y-275851904D01*
X397406761Y-275899523D01*
X397454380Y-275994761D01*
X397454380Y-276185238D01*
X397406761Y-276280476D01*
X397359142Y-276328095D01*
X397263904Y-276375714D01*
X397073428Y-276375714D01*
X396978190Y-276328095D01*
X396930571Y-276280476D01*
X396882952Y-276185238D01*
X404423619Y-276010666D02*
X404899809Y-276344000D01*
X404423619Y-276582095D02*
X405423619Y-276582095D01*
X405423619Y-276201142D01*
X405376000Y-276105904D01*
X405328380Y-276058285D01*
X405233142Y-276010666D01*
X405090285Y-276010666D01*
X404995047Y-276058285D01*
X404947428Y-276105904D01*
X404899809Y-276201142D01*
X404899809Y-276582095D01*
X405423619Y-275153523D02*
X405423619Y-275344000D01*
X405376000Y-275439238D01*
X405328380Y-275486857D01*
X405185523Y-275582095D01*
X404995047Y-275629714D01*
X404614095Y-275629714D01*
X404518857Y-275582095D01*
X404471238Y-275534476D01*
X404423619Y-275439238D01*
X404423619Y-275248761D01*
X404471238Y-275153523D01*
X404518857Y-275105904D01*
X404614095Y-275058285D01*
X404852190Y-275058285D01*
X404947428Y-275105904D01*
X404995047Y-275153523D01*
X405042666Y-275248761D01*
X405042666Y-275439238D01*
X404995047Y-275534476D01*
X404947428Y-275582095D01*
X404852190Y-275629714D01*
X400166666Y-262707142D02*
X400214285Y-262754761D01*
X400357142Y-262802380D01*
X400452380Y-262802380D01*
X400595238Y-262754761D01*
X400690476Y-262659523D01*
X400738095Y-262564285D01*
X400785714Y-262373809D01*
X400785714Y-262230952D01*
X400738095Y-262040476D01*
X400690476Y-261945238D01*
X400595238Y-261850000D01*
X400452380Y-261802380D01*
X400357142Y-261802380D01*
X400214285Y-261850000D01*
X400166666Y-261897619D01*
X399214285Y-262802380D02*
X399785714Y-262802380D01*
X399500000Y-262802380D02*
X399500000Y-261802380D01*
X399595238Y-261945238D01*
X399690476Y-262040476D01*
X399785714Y-262088095D01*
M02*
