G04 #@! TF.GenerationSoftware,KiCad,Pcbnew,5.1.5+dfsg1-2build2*
G04 #@! TF.CreationDate,2021-09-05T22:16:52+01:00*
G04 #@! TF.ProjectId,pak_breakout,70616b5f-6272-4656-916b-6f75742e6b69,rev?*
G04 #@! TF.SameCoordinates,Original*
G04 #@! TF.FileFunction,Legend,Bot*
G04 #@! TF.FilePolarity,Positive*
%FSLAX46Y46*%
G04 Gerber Fmt 4.6, Leading zero omitted, Abs format (unit mm)*
G04 Created by KiCad (PCBNEW 5.1.5+dfsg1-2build2) date 2021-09-05 22:16:52*
%MOMM*%
%LPD*%
G04 APERTURE LIST*
%ADD10C,0.150000*%
%ADD11C,0.120000*%
G04 APERTURE END LIST*
D10*
X421949571Y-196159428D02*
X421997190Y-196302285D01*
X422044809Y-196349904D01*
X422140047Y-196397523D01*
X422282904Y-196397523D01*
X422378142Y-196349904D01*
X422425761Y-196302285D01*
X422473380Y-196207047D01*
X422473380Y-195826095D01*
X421473380Y-195826095D01*
X421473380Y-196159428D01*
X421521000Y-196254666D01*
X421568619Y-196302285D01*
X421663857Y-196349904D01*
X421759095Y-196349904D01*
X421854333Y-196302285D01*
X421901952Y-196254666D01*
X421949571Y-196159428D01*
X421949571Y-195826095D01*
X421695571Y-192349428D02*
X421743190Y-192492285D01*
X421790809Y-192539904D01*
X421886047Y-192587523D01*
X422028904Y-192587523D01*
X422124142Y-192539904D01*
X422171761Y-192492285D01*
X422219380Y-192397047D01*
X422219380Y-192016095D01*
X421219380Y-192016095D01*
X421219380Y-192349428D01*
X421267000Y-192444666D01*
X421314619Y-192492285D01*
X421409857Y-192539904D01*
X421505095Y-192539904D01*
X421600333Y-192492285D01*
X421647952Y-192444666D01*
X421695571Y-192349428D01*
X421695571Y-192016095D01*
X426680333Y-192516095D02*
X426680333Y-192039904D01*
X426394619Y-192611333D02*
X427394619Y-192278000D01*
X426394619Y-191944666D01*
X426680333Y-196326095D02*
X426680333Y-195849904D01*
X426394619Y-196421333D02*
X427394619Y-196088000D01*
X426394619Y-195754666D01*
X420438095Y-198052380D02*
X419819047Y-198052380D01*
X420152380Y-198433333D01*
X420009523Y-198433333D01*
X419914285Y-198480952D01*
X419866666Y-198528571D01*
X419819047Y-198623809D01*
X419819047Y-198861904D01*
X419866666Y-198957142D01*
X419914285Y-199004761D01*
X420009523Y-199052380D01*
X420295238Y-199052380D01*
X420390476Y-199004761D01*
X420438095Y-198957142D01*
X419533333Y-198052380D02*
X419200000Y-199052380D01*
X418866666Y-198052380D01*
X418628571Y-198052380D02*
X418009523Y-198052380D01*
X418342857Y-198433333D01*
X418200000Y-198433333D01*
X418104761Y-198480952D01*
X418057142Y-198528571D01*
X418009523Y-198623809D01*
X418009523Y-198861904D01*
X418057142Y-198957142D01*
X418104761Y-199004761D01*
X418200000Y-199052380D01*
X418485714Y-199052380D01*
X418580952Y-199004761D01*
X418628571Y-198957142D01*
X425561904Y-186700000D02*
X425657142Y-186652380D01*
X425800000Y-186652380D01*
X425942857Y-186700000D01*
X426038095Y-186795238D01*
X426085714Y-186890476D01*
X426133333Y-187080952D01*
X426133333Y-187223809D01*
X426085714Y-187414285D01*
X426038095Y-187509523D01*
X425942857Y-187604761D01*
X425800000Y-187652380D01*
X425704761Y-187652380D01*
X425561904Y-187604761D01*
X425514285Y-187557142D01*
X425514285Y-187223809D01*
X425704761Y-187223809D01*
X425085714Y-187652380D02*
X425085714Y-186652380D01*
X424514285Y-187652380D01*
X424514285Y-186652380D01*
X424038095Y-187652380D02*
X424038095Y-186652380D01*
X423800000Y-186652380D01*
X423657142Y-186700000D01*
X423561904Y-186795238D01*
X423514285Y-186890476D01*
X423466666Y-187080952D01*
X423466666Y-187223809D01*
X423514285Y-187414285D01*
X423561904Y-187509523D01*
X423657142Y-187604761D01*
X423800000Y-187652380D01*
X424038095Y-187652380D01*
D11*
X346197422Y-241352000D02*
X346714578Y-241352000D01*
X346197422Y-242772000D02*
X346714578Y-242772000D01*
X338323422Y-241352000D02*
X338840578Y-241352000D01*
X338323422Y-242772000D02*
X338840578Y-242772000D01*
X337941422Y-228090000D02*
X338458578Y-228090000D01*
X337941422Y-229510000D02*
X338458578Y-229510000D01*
X424350000Y-198900000D02*
X424350000Y-197500000D01*
X423650000Y-196800000D02*
X423050000Y-196800000D01*
X422350000Y-197500000D02*
X422350000Y-198900000D01*
X423050000Y-199600000D02*
X423650000Y-199600000D01*
X423650000Y-199600000D02*
G75*
G03X424350000Y-198900000I0J700000D01*
G01*
X422350000Y-198900000D02*
G75*
G03X423050000Y-199600000I700000J0D01*
G01*
X423050000Y-196800000D02*
G75*
G03X422350000Y-197500000I0J-700000D01*
G01*
X424350000Y-197500000D02*
G75*
G03X423650000Y-196800000I-700000J0D01*
G01*
X424900000Y-197500000D02*
X424900000Y-198900000D01*
X425600000Y-199600000D02*
X426200000Y-199600000D01*
X426900000Y-198900000D02*
X426900000Y-197500000D01*
X426200000Y-196800000D02*
X425600000Y-196800000D01*
X425600000Y-196800000D02*
G75*
G03X424900000Y-197500000I0J-700000D01*
G01*
X426900000Y-197500000D02*
G75*
G03X426200000Y-196800000I-700000J0D01*
G01*
X426200000Y-199600000D02*
G75*
G03X426900000Y-198900000I0J700000D01*
G01*
X424900000Y-198900000D02*
G75*
G03X425600000Y-199600000I700000J0D01*
G01*
X424400000Y-190650000D02*
X424400000Y-189250000D01*
X423700000Y-188550000D02*
X423100000Y-188550000D01*
X422400000Y-189250000D02*
X422400000Y-190650000D01*
X423100000Y-191350000D02*
X423700000Y-191350000D01*
X423700000Y-191350000D02*
G75*
G03X424400000Y-190650000I0J700000D01*
G01*
X422400000Y-190650000D02*
G75*
G03X423100000Y-191350000I700000J0D01*
G01*
X423100000Y-188550000D02*
G75*
G03X422400000Y-189250000I0J-700000D01*
G01*
X424400000Y-189250000D02*
G75*
G03X423700000Y-188550000I-700000J0D01*
G01*
X426900000Y-190650000D02*
X426900000Y-189250000D01*
X426200000Y-188550000D02*
X425600000Y-188550000D01*
X424900000Y-189250000D02*
X424900000Y-190650000D01*
X425600000Y-191350000D02*
X426200000Y-191350000D01*
X426200000Y-191350000D02*
G75*
G03X426900000Y-190650000I0J700000D01*
G01*
X424900000Y-190650000D02*
G75*
G03X425600000Y-191350000I700000J0D01*
G01*
X425600000Y-188550000D02*
G75*
G03X424900000Y-189250000I0J-700000D01*
G01*
X426900000Y-189250000D02*
G75*
G03X426200000Y-188550000I-700000J0D01*
G01*
D10*
X346622666Y-244164380D02*
X346956000Y-243688190D01*
X347194095Y-244164380D02*
X347194095Y-243164380D01*
X346813142Y-243164380D01*
X346717904Y-243212000D01*
X346670285Y-243259619D01*
X346622666Y-243354857D01*
X346622666Y-243497714D01*
X346670285Y-243592952D01*
X346717904Y-243640571D01*
X346813142Y-243688190D01*
X347194095Y-243688190D01*
X346241714Y-243259619D02*
X346194095Y-243212000D01*
X346098857Y-243164380D01*
X345860761Y-243164380D01*
X345765523Y-243212000D01*
X345717904Y-243259619D01*
X345670285Y-243354857D01*
X345670285Y-243450095D01*
X345717904Y-243592952D01*
X346289333Y-244164380D01*
X345670285Y-244164380D01*
X338748666Y-244164380D02*
X339082000Y-243688190D01*
X339320095Y-244164380D02*
X339320095Y-243164380D01*
X338939142Y-243164380D01*
X338843904Y-243212000D01*
X338796285Y-243259619D01*
X338748666Y-243354857D01*
X338748666Y-243497714D01*
X338796285Y-243592952D01*
X338843904Y-243640571D01*
X338939142Y-243688190D01*
X339320095Y-243688190D01*
X337796285Y-244164380D02*
X338367714Y-244164380D01*
X338082000Y-244164380D02*
X338082000Y-243164380D01*
X338177238Y-243307238D01*
X338272476Y-243402476D01*
X338367714Y-243450095D01*
X338366666Y-230807142D02*
X338414285Y-230854761D01*
X338557142Y-230902380D01*
X338652380Y-230902380D01*
X338795238Y-230854761D01*
X338890476Y-230759523D01*
X338938095Y-230664285D01*
X338985714Y-230473809D01*
X338985714Y-230330952D01*
X338938095Y-230140476D01*
X338890476Y-230045238D01*
X338795238Y-229950000D01*
X338652380Y-229902380D01*
X338557142Y-229902380D01*
X338414285Y-229950000D01*
X338366666Y-229997619D01*
X337985714Y-229997619D02*
X337938095Y-229950000D01*
X337842857Y-229902380D01*
X337604761Y-229902380D01*
X337509523Y-229950000D01*
X337461904Y-229997619D01*
X337414285Y-230092857D01*
X337414285Y-230188095D01*
X337461904Y-230330952D01*
X338033333Y-230902380D01*
X337414285Y-230902380D01*
X422452380Y-201166666D02*
X423166666Y-201166666D01*
X423309523Y-201119047D01*
X423404761Y-201023809D01*
X423452380Y-200880952D01*
X423452380Y-200785714D01*
X423452380Y-201642857D02*
X422452380Y-201642857D01*
X422452380Y-202023809D01*
X422500000Y-202119047D01*
X422547619Y-202166666D01*
X422642857Y-202214285D01*
X422785714Y-202214285D01*
X422880952Y-202166666D01*
X422928571Y-202119047D01*
X422976190Y-202023809D01*
X422976190Y-201642857D01*
X422785714Y-203071428D02*
X423452380Y-203071428D01*
X422404761Y-202833333D02*
X423119047Y-202595238D01*
X423119047Y-203214285D01*
X425252380Y-200966666D02*
X425966666Y-200966666D01*
X426109523Y-200919047D01*
X426204761Y-200823809D01*
X426252380Y-200680952D01*
X426252380Y-200585714D01*
X426252380Y-201442857D02*
X425252380Y-201442857D01*
X425252380Y-201823809D01*
X425300000Y-201919047D01*
X425347619Y-201966666D01*
X425442857Y-202014285D01*
X425585714Y-202014285D01*
X425680952Y-201966666D01*
X425728571Y-201919047D01*
X425776190Y-201823809D01*
X425776190Y-201442857D01*
X425252380Y-202347619D02*
X425252380Y-202966666D01*
X425633333Y-202633333D01*
X425633333Y-202776190D01*
X425680952Y-202871428D01*
X425728571Y-202919047D01*
X425823809Y-202966666D01*
X426061904Y-202966666D01*
X426157142Y-202919047D01*
X426204761Y-202871428D01*
X426252380Y-202776190D01*
X426252380Y-202490476D01*
X426204761Y-202395238D01*
X426157142Y-202347619D01*
X420052380Y-188166666D02*
X420766666Y-188166666D01*
X420909523Y-188119047D01*
X421004761Y-188023809D01*
X421052380Y-187880952D01*
X421052380Y-187785714D01*
X421052380Y-188642857D02*
X420052380Y-188642857D01*
X420052380Y-189023809D01*
X420100000Y-189119047D01*
X420147619Y-189166666D01*
X420242857Y-189214285D01*
X420385714Y-189214285D01*
X420480952Y-189166666D01*
X420528571Y-189119047D01*
X420576190Y-189023809D01*
X420576190Y-188642857D01*
X420147619Y-189595238D02*
X420100000Y-189642857D01*
X420052380Y-189738095D01*
X420052380Y-189976190D01*
X420100000Y-190071428D01*
X420147619Y-190119047D01*
X420242857Y-190166666D01*
X420338095Y-190166666D01*
X420480952Y-190119047D01*
X421052380Y-189547619D01*
X421052380Y-190166666D01*
X428252380Y-188566666D02*
X428966666Y-188566666D01*
X429109523Y-188519047D01*
X429204761Y-188423809D01*
X429252380Y-188280952D01*
X429252380Y-188185714D01*
X429252380Y-189042857D02*
X428252380Y-189042857D01*
X428252380Y-189423809D01*
X428300000Y-189519047D01*
X428347619Y-189566666D01*
X428442857Y-189614285D01*
X428585714Y-189614285D01*
X428680952Y-189566666D01*
X428728571Y-189519047D01*
X428776190Y-189423809D01*
X428776190Y-189042857D01*
X429252380Y-190566666D02*
X429252380Y-189995238D01*
X429252380Y-190280952D02*
X428252380Y-190280952D01*
X428395238Y-190185714D01*
X428490476Y-190090476D01*
X428538095Y-189995238D01*
M02*
