G04 #@! TF.GenerationSoftware,KiCad,Pcbnew,5.1.5+dfsg1-2build2*
G04 #@! TF.CreationDate,2021-06-10T21:02:59+01:00*
G04 #@! TF.ProjectId,pak_breakout,70616b5f-6272-4656-916b-6f75742e6b69,rev?*
G04 #@! TF.SameCoordinates,Original*
G04 #@! TF.FileFunction,Legend,Top*
G04 #@! TF.FilePolarity,Positive*
%FSLAX46Y46*%
G04 Gerber Fmt 4.6, Leading zero omitted, Abs format (unit mm)*
G04 Created by KiCad (PCBNEW 5.1.5+dfsg1-2build2) date 2021-06-10 21:02:59*
%MOMM*%
%LPD*%
G04 APERTURE LIST*
%ADD10C,0.150000*%
%ADD11C,0.120000*%
G04 APERTURE END LIST*
D10*
X384104476Y-194921142D02*
X384056857Y-194968761D01*
X383914000Y-195016380D01*
X383818761Y-195016380D01*
X383675904Y-194968761D01*
X383580666Y-194873523D01*
X383533047Y-194778285D01*
X383485428Y-194587809D01*
X383485428Y-194444952D01*
X383533047Y-194254476D01*
X383580666Y-194159238D01*
X383675904Y-194064000D01*
X383818761Y-194016380D01*
X383914000Y-194016380D01*
X384056857Y-194064000D01*
X384104476Y-194111619D01*
X384675904Y-195016380D02*
X384580666Y-194968761D01*
X384533047Y-194921142D01*
X384485428Y-194825904D01*
X384485428Y-194540190D01*
X384533047Y-194444952D01*
X384580666Y-194397333D01*
X384675904Y-194349714D01*
X384818761Y-194349714D01*
X384914000Y-194397333D01*
X384961619Y-194444952D01*
X385009238Y-194540190D01*
X385009238Y-194825904D01*
X384961619Y-194921142D01*
X384914000Y-194968761D01*
X384818761Y-195016380D01*
X384675904Y-195016380D01*
X385437809Y-194349714D02*
X385437809Y-195016380D01*
X385437809Y-194444952D02*
X385485428Y-194397333D01*
X385580666Y-194349714D01*
X385723523Y-194349714D01*
X385818761Y-194397333D01*
X385866380Y-194492571D01*
X385866380Y-195016380D01*
X386342571Y-194349714D02*
X386342571Y-195016380D01*
X386342571Y-194444952D02*
X386390190Y-194397333D01*
X386485428Y-194349714D01*
X386628285Y-194349714D01*
X386723523Y-194397333D01*
X386771142Y-194492571D01*
X386771142Y-195016380D01*
X387628285Y-194968761D02*
X387533047Y-195016380D01*
X387342571Y-195016380D01*
X387247333Y-194968761D01*
X387199714Y-194873523D01*
X387199714Y-194492571D01*
X387247333Y-194397333D01*
X387342571Y-194349714D01*
X387533047Y-194349714D01*
X387628285Y-194397333D01*
X387675904Y-194492571D01*
X387675904Y-194587809D01*
X387199714Y-194683047D01*
X388533047Y-194968761D02*
X388437809Y-195016380D01*
X388247333Y-195016380D01*
X388152095Y-194968761D01*
X388104476Y-194921142D01*
X388056857Y-194825904D01*
X388056857Y-194540190D01*
X388104476Y-194444952D01*
X388152095Y-194397333D01*
X388247333Y-194349714D01*
X388437809Y-194349714D01*
X388533047Y-194397333D01*
X388818761Y-194349714D02*
X389199714Y-194349714D01*
X388961619Y-194016380D02*
X388961619Y-194873523D01*
X389009238Y-194968761D01*
X389104476Y-195016380D01*
X389199714Y-195016380D01*
X390152095Y-194016380D02*
X390485428Y-195016380D01*
X390818761Y-194016380D01*
X391723523Y-194921142D02*
X391675904Y-194968761D01*
X391533047Y-195016380D01*
X391437809Y-195016380D01*
X391294952Y-194968761D01*
X391199714Y-194873523D01*
X391152095Y-194778285D01*
X391104476Y-194587809D01*
X391104476Y-194444952D01*
X391152095Y-194254476D01*
X391199714Y-194159238D01*
X391294952Y-194064000D01*
X391437809Y-194016380D01*
X391533047Y-194016380D01*
X391675904Y-194064000D01*
X391723523Y-194111619D01*
X392723523Y-194921142D02*
X392675904Y-194968761D01*
X392533047Y-195016380D01*
X392437809Y-195016380D01*
X392294952Y-194968761D01*
X392199714Y-194873523D01*
X392152095Y-194778285D01*
X392104476Y-194587809D01*
X392104476Y-194444952D01*
X392152095Y-194254476D01*
X392199714Y-194159238D01*
X392294952Y-194064000D01*
X392437809Y-194016380D01*
X392533047Y-194016380D01*
X392675904Y-194064000D01*
X392723523Y-194111619D01*
X393771142Y-194349714D02*
X394152095Y-194349714D01*
X393914000Y-194016380D02*
X393914000Y-194873523D01*
X393961619Y-194968761D01*
X394056857Y-195016380D01*
X394152095Y-195016380D01*
X394628285Y-195016380D02*
X394533047Y-194968761D01*
X394485428Y-194921142D01*
X394437809Y-194825904D01*
X394437809Y-194540190D01*
X394485428Y-194444952D01*
X394533047Y-194397333D01*
X394628285Y-194349714D01*
X394771142Y-194349714D01*
X394866380Y-194397333D01*
X394914000Y-194444952D01*
X394961619Y-194540190D01*
X394961619Y-194825904D01*
X394914000Y-194921142D01*
X394866380Y-194968761D01*
X394771142Y-195016380D01*
X394628285Y-195016380D01*
X396009238Y-194016380D02*
X396342571Y-195016380D01*
X396675904Y-194016380D01*
X396961619Y-194968761D02*
X397104476Y-195016380D01*
X397342571Y-195016380D01*
X397437809Y-194968761D01*
X397485428Y-194921142D01*
X397533047Y-194825904D01*
X397533047Y-194730666D01*
X397485428Y-194635428D01*
X397437809Y-194587809D01*
X397342571Y-194540190D01*
X397152095Y-194492571D01*
X397056857Y-194444952D01*
X397009238Y-194397333D01*
X396961619Y-194302095D01*
X396961619Y-194206857D01*
X397009238Y-194111619D01*
X397056857Y-194064000D01*
X397152095Y-194016380D01*
X397390190Y-194016380D01*
X397533047Y-194064000D01*
X398152095Y-194540190D02*
X398152095Y-195016380D01*
X397818761Y-194016380D02*
X398152095Y-194540190D01*
X398485428Y-194016380D01*
X398771142Y-194968761D02*
X398914000Y-195016380D01*
X399152095Y-195016380D01*
X399247333Y-194968761D01*
X399294952Y-194921142D01*
X399342571Y-194825904D01*
X399342571Y-194730666D01*
X399294952Y-194635428D01*
X399247333Y-194587809D01*
X399152095Y-194540190D01*
X398961619Y-194492571D01*
X398866380Y-194444952D01*
X398818761Y-194397333D01*
X398771142Y-194302095D01*
X398771142Y-194206857D01*
X398818761Y-194111619D01*
X398866380Y-194064000D01*
X398961619Y-194016380D01*
X399199714Y-194016380D01*
X399342571Y-194064000D01*
X376001595Y-271027380D02*
X376001595Y-270027380D01*
X376382547Y-270027380D01*
X376477785Y-270075000D01*
X376525404Y-270122619D01*
X376573023Y-270217857D01*
X376573023Y-270360714D01*
X376525404Y-270455952D01*
X376477785Y-270503571D01*
X376382547Y-270551190D01*
X376001595Y-270551190D01*
X376953976Y-270979761D02*
X377049214Y-271027380D01*
X377239690Y-271027380D01*
X377334928Y-270979761D01*
X377382547Y-270884523D01*
X377382547Y-270836904D01*
X377334928Y-270741666D01*
X377239690Y-270694047D01*
X377096833Y-270694047D01*
X377001595Y-270646428D01*
X376953976Y-270551190D01*
X376953976Y-270503571D01*
X377001595Y-270408333D01*
X377096833Y-270360714D01*
X377239690Y-270360714D01*
X377334928Y-270408333D01*
X377811119Y-271027380D02*
X377811119Y-270360714D01*
X377811119Y-270027380D02*
X377763500Y-270075000D01*
X377811119Y-270122619D01*
X377858738Y-270075000D01*
X377811119Y-270027380D01*
X377811119Y-270122619D01*
X378430166Y-271027380D02*
X378334928Y-270979761D01*
X378287309Y-270932142D01*
X378239690Y-270836904D01*
X378239690Y-270551190D01*
X378287309Y-270455952D01*
X378334928Y-270408333D01*
X378430166Y-270360714D01*
X378573023Y-270360714D01*
X378668261Y-270408333D01*
X378715880Y-270455952D01*
X378763500Y-270551190D01*
X378763500Y-270836904D01*
X378715880Y-270932142D01*
X378668261Y-270979761D01*
X378573023Y-271027380D01*
X378430166Y-271027380D01*
X379192071Y-270360714D02*
X379192071Y-271027380D01*
X379192071Y-270455952D02*
X379239690Y-270408333D01*
X379334928Y-270360714D01*
X379477785Y-270360714D01*
X379573023Y-270408333D01*
X379620642Y-270503571D01*
X379620642Y-271027380D01*
X380858738Y-271027380D02*
X380858738Y-270027380D01*
X381096833Y-270027380D01*
X381239690Y-270075000D01*
X381334928Y-270170238D01*
X381382547Y-270265476D01*
X381430166Y-270455952D01*
X381430166Y-270598809D01*
X381382547Y-270789285D01*
X381334928Y-270884523D01*
X381239690Y-270979761D01*
X381096833Y-271027380D01*
X380858738Y-271027380D01*
X382287309Y-271027380D02*
X382287309Y-270503571D01*
X382239690Y-270408333D01*
X382144452Y-270360714D01*
X381953976Y-270360714D01*
X381858738Y-270408333D01*
X382287309Y-270979761D02*
X382192071Y-271027380D01*
X381953976Y-271027380D01*
X381858738Y-270979761D01*
X381811119Y-270884523D01*
X381811119Y-270789285D01*
X381858738Y-270694047D01*
X381953976Y-270646428D01*
X382192071Y-270646428D01*
X382287309Y-270598809D01*
X382620642Y-270360714D02*
X383001595Y-270360714D01*
X382763500Y-270027380D02*
X382763500Y-270884523D01*
X382811119Y-270979761D01*
X382906357Y-271027380D01*
X383001595Y-271027380D01*
X383763500Y-271027380D02*
X383763500Y-270503571D01*
X383715880Y-270408333D01*
X383620642Y-270360714D01*
X383430166Y-270360714D01*
X383334928Y-270408333D01*
X383763500Y-270979761D02*
X383668261Y-271027380D01*
X383430166Y-271027380D01*
X383334928Y-270979761D01*
X383287309Y-270884523D01*
X383287309Y-270789285D01*
X383334928Y-270694047D01*
X383430166Y-270646428D01*
X383668261Y-270646428D01*
X383763500Y-270598809D01*
X384239690Y-270360714D02*
X384239690Y-271360714D01*
X384239690Y-270408333D02*
X384334928Y-270360714D01*
X384525404Y-270360714D01*
X384620642Y-270408333D01*
X384668261Y-270455952D01*
X384715880Y-270551190D01*
X384715880Y-270836904D01*
X384668261Y-270932142D01*
X384620642Y-270979761D01*
X384525404Y-271027380D01*
X384334928Y-271027380D01*
X384239690Y-270979761D01*
X385573023Y-271027380D02*
X385573023Y-270503571D01*
X385525404Y-270408333D01*
X385430166Y-270360714D01*
X385239690Y-270360714D01*
X385144452Y-270408333D01*
X385573023Y-270979761D02*
X385477785Y-271027380D01*
X385239690Y-271027380D01*
X385144452Y-270979761D01*
X385096833Y-270884523D01*
X385096833Y-270789285D01*
X385144452Y-270694047D01*
X385239690Y-270646428D01*
X385477785Y-270646428D01*
X385573023Y-270598809D01*
X386049214Y-271027380D02*
X386049214Y-270027380D01*
X386144452Y-270646428D02*
X386430166Y-271027380D01*
X386430166Y-270360714D02*
X386049214Y-270741666D01*
X388144452Y-270075000D02*
X388049214Y-270027380D01*
X387906357Y-270027380D01*
X387763500Y-270075000D01*
X387668261Y-270170238D01*
X387620642Y-270265476D01*
X387573023Y-270455952D01*
X387573023Y-270598809D01*
X387620642Y-270789285D01*
X387668261Y-270884523D01*
X387763500Y-270979761D01*
X387906357Y-271027380D01*
X388001595Y-271027380D01*
X388144452Y-270979761D01*
X388192071Y-270932142D01*
X388192071Y-270598809D01*
X388001595Y-270598809D01*
X389049214Y-271027380D02*
X389049214Y-270503571D01*
X389001595Y-270408333D01*
X388906357Y-270360714D01*
X388715880Y-270360714D01*
X388620642Y-270408333D01*
X389049214Y-270979761D02*
X388953976Y-271027380D01*
X388715880Y-271027380D01*
X388620642Y-270979761D01*
X388573023Y-270884523D01*
X388573023Y-270789285D01*
X388620642Y-270694047D01*
X388715880Y-270646428D01*
X388953976Y-270646428D01*
X389049214Y-270598809D01*
X389953976Y-271027380D02*
X389953976Y-270027380D01*
X389953976Y-270979761D02*
X389858738Y-271027380D01*
X389668261Y-271027380D01*
X389573023Y-270979761D01*
X389525404Y-270932142D01*
X389477785Y-270836904D01*
X389477785Y-270551190D01*
X389525404Y-270455952D01*
X389573023Y-270408333D01*
X389668261Y-270360714D01*
X389858738Y-270360714D01*
X389953976Y-270408333D01*
X390858738Y-270360714D02*
X390858738Y-271170238D01*
X390811119Y-271265476D01*
X390763500Y-271313095D01*
X390668261Y-271360714D01*
X390525404Y-271360714D01*
X390430166Y-271313095D01*
X390858738Y-270979761D02*
X390763500Y-271027380D01*
X390573023Y-271027380D01*
X390477785Y-270979761D01*
X390430166Y-270932142D01*
X390382547Y-270836904D01*
X390382547Y-270551190D01*
X390430166Y-270455952D01*
X390477785Y-270408333D01*
X390573023Y-270360714D01*
X390763500Y-270360714D01*
X390858738Y-270408333D01*
X391715880Y-270979761D02*
X391620642Y-271027380D01*
X391430166Y-271027380D01*
X391334928Y-270979761D01*
X391287309Y-270884523D01*
X391287309Y-270503571D01*
X391334928Y-270408333D01*
X391430166Y-270360714D01*
X391620642Y-270360714D01*
X391715880Y-270408333D01*
X391763500Y-270503571D01*
X391763500Y-270598809D01*
X391287309Y-270694047D01*
X392049214Y-270360714D02*
X392430166Y-270360714D01*
X392192071Y-270027380D02*
X392192071Y-270884523D01*
X392239690Y-270979761D01*
X392334928Y-271027380D01*
X392430166Y-271027380D01*
X375858738Y-271677380D02*
X376192071Y-272677380D01*
X376525404Y-271677380D01*
X377382547Y-272677380D02*
X376811119Y-272677380D01*
X377096833Y-272677380D02*
X377096833Y-271677380D01*
X377001595Y-271820238D01*
X376906357Y-271915476D01*
X376811119Y-271963095D01*
X377811119Y-272582142D02*
X377858738Y-272629761D01*
X377811119Y-272677380D01*
X377763500Y-272629761D01*
X377811119Y-272582142D01*
X377811119Y-272677380D01*
X378477785Y-271677380D02*
X378573023Y-271677380D01*
X378668261Y-271725000D01*
X378715880Y-271772619D01*
X378763500Y-271867857D01*
X378811119Y-272058333D01*
X378811119Y-272296428D01*
X378763500Y-272486904D01*
X378715880Y-272582142D01*
X378668261Y-272629761D01*
X378573023Y-272677380D01*
X378477785Y-272677380D01*
X378382547Y-272629761D01*
X378334928Y-272582142D01*
X378287309Y-272486904D01*
X378239690Y-272296428D01*
X378239690Y-272058333D01*
X378287309Y-271867857D01*
X378334928Y-271772619D01*
X378382547Y-271725000D01*
X378477785Y-271677380D01*
X376001595Y-274327380D02*
X376001595Y-273660714D01*
X376001595Y-273755952D02*
X376049214Y-273708333D01*
X376144452Y-273660714D01*
X376287309Y-273660714D01*
X376382547Y-273708333D01*
X376430166Y-273803571D01*
X376430166Y-274327380D01*
X376430166Y-273803571D02*
X376477785Y-273708333D01*
X376573023Y-273660714D01*
X376715880Y-273660714D01*
X376811119Y-273708333D01*
X376858738Y-273803571D01*
X376858738Y-274327380D01*
X377715880Y-274279761D02*
X377620642Y-274327380D01*
X377430166Y-274327380D01*
X377334928Y-274279761D01*
X377287309Y-274184523D01*
X377287309Y-273803571D01*
X377334928Y-273708333D01*
X377430166Y-273660714D01*
X377620642Y-273660714D01*
X377715880Y-273708333D01*
X377763500Y-273803571D01*
X377763500Y-273898809D01*
X377287309Y-273994047D01*
X378192071Y-273660714D02*
X378192071Y-274327380D01*
X378192071Y-273755952D02*
X378239690Y-273708333D01*
X378334928Y-273660714D01*
X378477785Y-273660714D01*
X378573023Y-273708333D01*
X378620642Y-273803571D01*
X378620642Y-274327380D01*
X379525404Y-274327380D02*
X379525404Y-273803571D01*
X379477785Y-273708333D01*
X379382547Y-273660714D01*
X379192071Y-273660714D01*
X379096833Y-273708333D01*
X379525404Y-274279761D02*
X379430166Y-274327380D01*
X379192071Y-274327380D01*
X379096833Y-274279761D01*
X379049214Y-274184523D01*
X379049214Y-274089285D01*
X379096833Y-273994047D01*
X379192071Y-273946428D01*
X379430166Y-273946428D01*
X379525404Y-273898809D01*
X380430166Y-274327380D02*
X380430166Y-273327380D01*
X380430166Y-274279761D02*
X380334928Y-274327380D01*
X380144452Y-274327380D01*
X380049214Y-274279761D01*
X380001595Y-274232142D01*
X379953976Y-274136904D01*
X379953976Y-273851190D01*
X380001595Y-273755952D01*
X380049214Y-273708333D01*
X380144452Y-273660714D01*
X380334928Y-273660714D01*
X380430166Y-273708333D01*
X381334928Y-273660714D02*
X381334928Y-274327380D01*
X380906357Y-273660714D02*
X380906357Y-274184523D01*
X380953976Y-274279761D01*
X381049214Y-274327380D01*
X381192071Y-274327380D01*
X381287309Y-274279761D01*
X381334928Y-274232142D01*
X382192071Y-274279761D02*
X382096833Y-274327380D01*
X381906357Y-274327380D01*
X381811119Y-274279761D01*
X381763500Y-274184523D01*
X381763500Y-273803571D01*
X381811119Y-273708333D01*
X381906357Y-273660714D01*
X382096833Y-273660714D01*
X382192071Y-273708333D01*
X382239690Y-273803571D01*
X382239690Y-273898809D01*
X381763500Y-273994047D01*
X383287309Y-273851190D02*
X383239690Y-273803571D01*
X383144452Y-273755952D01*
X383049214Y-273755952D01*
X382953976Y-273803571D01*
X382906357Y-273851190D01*
X382858738Y-273946428D01*
X382858738Y-274041666D01*
X382906357Y-274136904D01*
X382953976Y-274184523D01*
X383049214Y-274232142D01*
X383144452Y-274232142D01*
X383239690Y-274184523D01*
X383287309Y-274136904D01*
X383287309Y-273755952D02*
X383287309Y-274136904D01*
X383334928Y-274184523D01*
X383382547Y-274184523D01*
X383477785Y-274136904D01*
X383525404Y-274041666D01*
X383525404Y-273803571D01*
X383430166Y-273660714D01*
X383287309Y-273565476D01*
X383096833Y-273517857D01*
X382906357Y-273565476D01*
X382763500Y-273660714D01*
X382668261Y-273803571D01*
X382620642Y-273994047D01*
X382668261Y-274184523D01*
X382763500Y-274327380D01*
X382906357Y-274422619D01*
X383096833Y-274470238D01*
X383287309Y-274422619D01*
X383430166Y-274327380D01*
X384382547Y-273660714D02*
X384382547Y-274470238D01*
X384334928Y-274565476D01*
X384287309Y-274613095D01*
X384192071Y-274660714D01*
X384049214Y-274660714D01*
X383953976Y-274613095D01*
X384382547Y-274279761D02*
X384287309Y-274327380D01*
X384096833Y-274327380D01*
X384001595Y-274279761D01*
X383953976Y-274232142D01*
X383906357Y-274136904D01*
X383906357Y-273851190D01*
X383953976Y-273755952D01*
X384001595Y-273708333D01*
X384096833Y-273660714D01*
X384287309Y-273660714D01*
X384382547Y-273708333D01*
X384858738Y-274327380D02*
X384858738Y-273660714D01*
X384858738Y-273755952D02*
X384906357Y-273708333D01*
X385001595Y-273660714D01*
X385144452Y-273660714D01*
X385239690Y-273708333D01*
X385287309Y-273803571D01*
X385287309Y-274327380D01*
X385287309Y-273803571D02*
X385334928Y-273708333D01*
X385430166Y-273660714D01*
X385573023Y-273660714D01*
X385668261Y-273708333D01*
X385715880Y-273803571D01*
X385715880Y-274327380D01*
X386620642Y-274327380D02*
X386620642Y-273803571D01*
X386573023Y-273708333D01*
X386477785Y-273660714D01*
X386287309Y-273660714D01*
X386192071Y-273708333D01*
X386620642Y-274279761D02*
X386525404Y-274327380D01*
X386287309Y-274327380D01*
X386192071Y-274279761D01*
X386144452Y-274184523D01*
X386144452Y-274089285D01*
X386192071Y-273994047D01*
X386287309Y-273946428D01*
X386525404Y-273946428D01*
X386620642Y-273898809D01*
X387096833Y-274327380D02*
X387096833Y-273660714D01*
X387096833Y-273327380D02*
X387049214Y-273375000D01*
X387096833Y-273422619D01*
X387144452Y-273375000D01*
X387096833Y-273327380D01*
X387096833Y-273422619D01*
X387715880Y-274327380D02*
X387620642Y-274279761D01*
X387573023Y-274184523D01*
X387573023Y-273327380D01*
X388096833Y-274232142D02*
X388144452Y-274279761D01*
X388096833Y-274327380D01*
X388049214Y-274279761D01*
X388096833Y-274232142D01*
X388096833Y-274327380D01*
X389001595Y-274279761D02*
X388906357Y-274327380D01*
X388715880Y-274327380D01*
X388620642Y-274279761D01*
X388573023Y-274232142D01*
X388525404Y-274136904D01*
X388525404Y-273851190D01*
X388573023Y-273755952D01*
X388620642Y-273708333D01*
X388715880Y-273660714D01*
X388906357Y-273660714D01*
X389001595Y-273708333D01*
X389573023Y-274327380D02*
X389477785Y-274279761D01*
X389430166Y-274232142D01*
X389382547Y-274136904D01*
X389382547Y-273851190D01*
X389430166Y-273755952D01*
X389477785Y-273708333D01*
X389573023Y-273660714D01*
X389715880Y-273660714D01*
X389811119Y-273708333D01*
X389858738Y-273755952D01*
X389906357Y-273851190D01*
X389906357Y-274136904D01*
X389858738Y-274232142D01*
X389811119Y-274279761D01*
X389715880Y-274327380D01*
X389573023Y-274327380D01*
X390334928Y-274327380D02*
X390334928Y-273660714D01*
X390334928Y-273755952D02*
X390382547Y-273708333D01*
X390477785Y-273660714D01*
X390620642Y-273660714D01*
X390715880Y-273708333D01*
X390763500Y-273803571D01*
X390763500Y-274327380D01*
X390763500Y-273803571D02*
X390811119Y-273708333D01*
X390906357Y-273660714D01*
X391049214Y-273660714D01*
X391144452Y-273708333D01*
X391192071Y-273803571D01*
X391192071Y-274327380D01*
X376287309Y-274977380D02*
X376287309Y-275691666D01*
X376239690Y-275834523D01*
X376144452Y-275929761D01*
X376001595Y-275977380D01*
X375906357Y-275977380D01*
X377192071Y-275310714D02*
X377192071Y-275977380D01*
X376763500Y-275310714D02*
X376763500Y-275834523D01*
X376811119Y-275929761D01*
X376906357Y-275977380D01*
X377049214Y-275977380D01*
X377144452Y-275929761D01*
X377192071Y-275882142D01*
X377668261Y-275310714D02*
X377668261Y-275977380D01*
X377668261Y-275405952D02*
X377715880Y-275358333D01*
X377811119Y-275310714D01*
X377953976Y-275310714D01*
X378049214Y-275358333D01*
X378096833Y-275453571D01*
X378096833Y-275977380D01*
X378953976Y-275929761D02*
X378858738Y-275977380D01*
X378668261Y-275977380D01*
X378573023Y-275929761D01*
X378525404Y-275834523D01*
X378525404Y-275453571D01*
X378573023Y-275358333D01*
X378668261Y-275310714D01*
X378858738Y-275310714D01*
X378953976Y-275358333D01*
X379001595Y-275453571D01*
X379001595Y-275548809D01*
X378525404Y-275644047D01*
X380144452Y-275072619D02*
X380192071Y-275025000D01*
X380287309Y-274977380D01*
X380525404Y-274977380D01*
X380620642Y-275025000D01*
X380668261Y-275072619D01*
X380715880Y-275167857D01*
X380715880Y-275263095D01*
X380668261Y-275405952D01*
X380096833Y-275977380D01*
X380715880Y-275977380D01*
X381334928Y-274977380D02*
X381430166Y-274977380D01*
X381525404Y-275025000D01*
X381573023Y-275072619D01*
X381620642Y-275167857D01*
X381668261Y-275358333D01*
X381668261Y-275596428D01*
X381620642Y-275786904D01*
X381573023Y-275882142D01*
X381525404Y-275929761D01*
X381430166Y-275977380D01*
X381334928Y-275977380D01*
X381239690Y-275929761D01*
X381192071Y-275882142D01*
X381144452Y-275786904D01*
X381096833Y-275596428D01*
X381096833Y-275358333D01*
X381144452Y-275167857D01*
X381192071Y-275072619D01*
X381239690Y-275025000D01*
X381334928Y-274977380D01*
X382049214Y-275072619D02*
X382096833Y-275025000D01*
X382192071Y-274977380D01*
X382430166Y-274977380D01*
X382525404Y-275025000D01*
X382573023Y-275072619D01*
X382620642Y-275167857D01*
X382620642Y-275263095D01*
X382573023Y-275405952D01*
X382001595Y-275977380D01*
X382620642Y-275977380D01*
X383573023Y-275977380D02*
X383001595Y-275977380D01*
X383287309Y-275977380D02*
X383287309Y-274977380D01*
X383192071Y-275120238D01*
X383096833Y-275215476D01*
X383001595Y-275263095D01*
D11*
X412000000Y-191000000D02*
X427000000Y-191000000D01*
X412000000Y-221000000D02*
X412000000Y-191000000D01*
X442000000Y-221000000D02*
X412000000Y-221000000D01*
X442000000Y-191000000D02*
X442000000Y-221000000D01*
X427000000Y-191000000D02*
X442000000Y-191000000D01*
X348540000Y-237485422D02*
X348540000Y-238002578D01*
X349960000Y-237485422D02*
X349960000Y-238002578D01*
X337053422Y-237438000D02*
X337570578Y-237438000D01*
X337053422Y-236018000D02*
X337570578Y-236018000D01*
X439200000Y-238220000D02*
X439200000Y-240940000D01*
X439200000Y-247800000D02*
X439200000Y-250520000D01*
X426900000Y-245940000D02*
X426900000Y-242800000D01*
X426900000Y-250520000D02*
X426900000Y-247800000D01*
X437729050Y-244410000D02*
G75*
G03X437729050Y-244410000I-4579050J0D01*
G01*
X426900000Y-240940000D02*
X426900000Y-238220000D01*
X439200000Y-250520000D02*
X426900000Y-250520000D01*
X439200000Y-242800000D02*
X439200000Y-245940000D01*
X426900000Y-238220000D02*
X439200000Y-238220000D01*
X394522000Y-204022000D02*
X393192000Y-204022000D01*
X394522000Y-202692000D02*
X394522000Y-204022000D01*
X394522000Y-201422000D02*
X391862000Y-201422000D01*
X391862000Y-201422000D02*
X391862000Y-198822000D01*
X394522000Y-201422000D02*
X394522000Y-198822000D01*
X394522000Y-198822000D02*
X391862000Y-198822000D01*
X402046000Y-201406000D02*
X398146000Y-201406000D01*
X402046000Y-199406000D02*
X398146000Y-199406000D01*
X402046000Y-201406000D02*
X402046000Y-199406000D01*
X327270000Y-246570000D02*
X326000000Y-246570000D01*
X327270000Y-245300000D02*
X327270000Y-246570000D01*
X321962929Y-245680000D02*
X322417071Y-245680000D01*
X321962929Y-244920000D02*
X322417071Y-244920000D01*
X322417071Y-227140000D02*
X322020000Y-227140000D01*
X322417071Y-227900000D02*
X322020000Y-227900000D01*
X313360000Y-227140000D02*
X319360000Y-227140000D01*
X313360000Y-227900000D02*
X313360000Y-227140000D01*
X319360000Y-227900000D02*
X313360000Y-227900000D01*
X322020000Y-228790000D02*
X319360000Y-228790000D01*
X321962929Y-243140000D02*
X322417071Y-243140000D01*
X321962929Y-242380000D02*
X322417071Y-242380000D01*
X322417071Y-229680000D02*
X322020000Y-229680000D01*
X322417071Y-230440000D02*
X322020000Y-230440000D01*
X313360000Y-229680000D02*
X319360000Y-229680000D01*
X313360000Y-230440000D02*
X313360000Y-229680000D01*
X319360000Y-230440000D02*
X313360000Y-230440000D01*
X322020000Y-231330000D02*
X319360000Y-231330000D01*
X321962929Y-240600000D02*
X322417071Y-240600000D01*
X321962929Y-239840000D02*
X322417071Y-239840000D01*
X322417071Y-232220000D02*
X322020000Y-232220000D01*
X322417071Y-232980000D02*
X322020000Y-232980000D01*
X313360000Y-232220000D02*
X319360000Y-232220000D01*
X313360000Y-232980000D02*
X313360000Y-232220000D01*
X319360000Y-232980000D02*
X313360000Y-232980000D01*
X322020000Y-233870000D02*
X319360000Y-233870000D01*
X321962929Y-238060000D02*
X322417071Y-238060000D01*
X321962929Y-237300000D02*
X322417071Y-237300000D01*
X322417071Y-234760000D02*
X322020000Y-234760000D01*
X322417071Y-235520000D02*
X322020000Y-235520000D01*
X313360000Y-234760000D02*
X319360000Y-234760000D01*
X313360000Y-235520000D02*
X313360000Y-234760000D01*
X319360000Y-235520000D02*
X313360000Y-235520000D01*
X322020000Y-236410000D02*
X319360000Y-236410000D01*
X321962929Y-235520000D02*
X322417071Y-235520000D01*
X321962929Y-234760000D02*
X322417071Y-234760000D01*
X322417071Y-237300000D02*
X322020000Y-237300000D01*
X322417071Y-238060000D02*
X322020000Y-238060000D01*
X313360000Y-237300000D02*
X319360000Y-237300000D01*
X313360000Y-238060000D02*
X313360000Y-237300000D01*
X319360000Y-238060000D02*
X313360000Y-238060000D01*
X322020000Y-238950000D02*
X319360000Y-238950000D01*
X321962929Y-232980000D02*
X322417071Y-232980000D01*
X321962929Y-232220000D02*
X322417071Y-232220000D01*
X322417071Y-239840000D02*
X322020000Y-239840000D01*
X322417071Y-240600000D02*
X322020000Y-240600000D01*
X313360000Y-239840000D02*
X319360000Y-239840000D01*
X313360000Y-240600000D02*
X313360000Y-239840000D01*
X319360000Y-240600000D02*
X313360000Y-240600000D01*
X322020000Y-241490000D02*
X319360000Y-241490000D01*
X321962929Y-230440000D02*
X322417071Y-230440000D01*
X321962929Y-229680000D02*
X322417071Y-229680000D01*
X322417071Y-242380000D02*
X322020000Y-242380000D01*
X322417071Y-243140000D02*
X322020000Y-243140000D01*
X313360000Y-242380000D02*
X319360000Y-242380000D01*
X313360000Y-243140000D02*
X313360000Y-242380000D01*
X319360000Y-243140000D02*
X313360000Y-243140000D01*
X322020000Y-244030000D02*
X319360000Y-244030000D01*
X322030000Y-227900000D02*
X322417071Y-227900000D01*
X322030000Y-227140000D02*
X322417071Y-227140000D01*
X322417071Y-244920000D02*
X322020000Y-244920000D01*
X322417071Y-245680000D02*
X322020000Y-245680000D01*
X319360000Y-245020000D02*
X313360000Y-245020000D01*
X319360000Y-245140000D02*
X313360000Y-245140000D01*
X319360000Y-245260000D02*
X313360000Y-245260000D01*
X319360000Y-245380000D02*
X313360000Y-245380000D01*
X319360000Y-245500000D02*
X313360000Y-245500000D01*
X319360000Y-245620000D02*
X313360000Y-245620000D01*
X313360000Y-244920000D02*
X319360000Y-244920000D01*
X313360000Y-245680000D02*
X313360000Y-244920000D01*
X319360000Y-245680000D02*
X313360000Y-245680000D01*
X319360000Y-246630000D02*
X322020000Y-246630000D01*
X319360000Y-226190000D02*
X319360000Y-246630000D01*
X322020000Y-226190000D02*
X319360000Y-226190000D01*
X322020000Y-246630000D02*
X322020000Y-226190000D01*
X382500000Y-210500000D02*
X403500000Y-210500000D01*
X389300000Y-261500000D02*
X382500000Y-261500000D01*
X382500000Y-213167000D02*
X385507000Y-213167000D01*
X385507000Y-213167000D02*
X385507000Y-210500000D01*
X382500000Y-210500000D02*
X382500000Y-210800000D01*
X382500000Y-212900000D02*
X382500000Y-213300000D01*
X382500000Y-215500000D02*
X382500000Y-215900000D01*
X382500000Y-218000000D02*
X382500000Y-218400000D01*
X382500000Y-220600000D02*
X382500000Y-221000000D01*
X382500000Y-223100000D02*
X382500000Y-223500000D01*
X382500000Y-225600000D02*
X382500000Y-226000000D01*
X382500000Y-228200000D02*
X382500000Y-228600000D01*
X382500000Y-230700000D02*
X382500000Y-231100000D01*
X382500000Y-233300000D02*
X382500000Y-233700000D01*
X382500000Y-235800000D02*
X382500000Y-236200000D01*
X382500000Y-238300000D02*
X382500000Y-238700000D01*
X382500000Y-240900000D02*
X382500000Y-241300000D01*
X382500000Y-243400000D02*
X382500000Y-243800000D01*
X382500000Y-246000000D02*
X382500000Y-246400000D01*
X382500000Y-248500000D02*
X382500000Y-248900000D01*
X382500000Y-251100000D02*
X382500000Y-251500000D01*
X382500000Y-253600000D02*
X382500000Y-254000000D01*
X382500000Y-256100000D02*
X382500000Y-256500000D01*
X382500000Y-258700000D02*
X382500000Y-259100000D01*
X403500000Y-225600000D02*
X403500000Y-226000000D01*
X403500000Y-230700000D02*
X403500000Y-231100000D01*
X403500000Y-238300000D02*
X403500000Y-238700000D01*
X403500000Y-246000000D02*
X403500000Y-246400000D01*
X403500000Y-215500000D02*
X403500000Y-215900000D01*
X403500000Y-212900000D02*
X403500000Y-213300000D01*
X403500000Y-220600000D02*
X403500000Y-221000000D01*
X403500000Y-253600000D02*
X403500000Y-254000000D01*
X403500000Y-258700000D02*
X403500000Y-259100000D01*
X403500000Y-256100000D02*
X403500000Y-256500000D01*
X403500000Y-240900000D02*
X403500000Y-241300000D01*
X403500000Y-235800000D02*
X403500000Y-236200000D01*
X403500000Y-223100000D02*
X403500000Y-223500000D01*
X403500000Y-228200000D02*
X403500000Y-228600000D01*
X403500000Y-248500000D02*
X403500000Y-248900000D01*
X403500000Y-233300000D02*
X403500000Y-233700000D01*
X403500000Y-210500000D02*
X403500000Y-210800000D01*
X403500000Y-218000000D02*
X403500000Y-218400000D01*
X403500000Y-243400000D02*
X403500000Y-243800000D01*
X403500000Y-251100000D02*
X403500000Y-251500000D01*
X403500000Y-261500000D02*
X396700000Y-261500000D01*
X391500000Y-261500000D02*
X391900000Y-261500000D01*
X394100000Y-261500000D02*
X394500000Y-261500000D01*
D10*
X394650000Y-281300000D02*
X402000000Y-281300000D01*
X402000000Y-281300000D02*
X403350000Y-281350000D01*
X403350000Y-281350000D02*
X404500000Y-281500000D01*
X404500000Y-281500000D02*
X405600000Y-281700000D01*
X405600000Y-281700000D02*
X406650000Y-282000000D01*
X404800000Y-268000000D02*
X404800000Y-266700000D01*
X394650000Y-276200000D02*
X394650000Y-269000000D01*
X394650000Y-279000000D02*
X394650000Y-281300000D01*
X406650000Y-282000000D02*
X409350000Y-282000000D01*
X409350000Y-282000000D02*
X409350000Y-279000000D01*
X409350000Y-269000000D02*
X409350000Y-276200000D01*
X404350000Y-268600000D02*
X404050000Y-268600000D01*
X404050000Y-268600000D02*
X404050000Y-268900000D01*
X404050000Y-268900000D02*
X404350000Y-268900000D01*
X404350000Y-268900000D02*
X404350000Y-268600000D01*
X404800000Y-268000000D02*
X407800000Y-268000000D01*
D11*
X439200000Y-268700000D02*
X439200000Y-271420000D01*
X439200000Y-278280000D02*
X439200000Y-281000000D01*
X426900000Y-276420000D02*
X426900000Y-273280000D01*
X426900000Y-281000000D02*
X426900000Y-278280000D01*
X437729050Y-274890000D02*
G75*
G03X437729050Y-274890000I-4579050J0D01*
G01*
X426900000Y-271420000D02*
X426900000Y-268700000D01*
X439200000Y-281000000D02*
X426900000Y-281000000D01*
X439200000Y-273280000D02*
X439200000Y-276420000D01*
X426900000Y-268700000D02*
X439200000Y-268700000D01*
X439200000Y-253460000D02*
X439200000Y-256180000D01*
X439200000Y-263040000D02*
X439200000Y-265760000D01*
X426900000Y-261180000D02*
X426900000Y-258040000D01*
X426900000Y-265760000D02*
X426900000Y-263040000D01*
X437729050Y-259650000D02*
G75*
G03X437729050Y-259650000I-4579050J0D01*
G01*
X426900000Y-256180000D02*
X426900000Y-253460000D01*
X439200000Y-265760000D02*
X426900000Y-265760000D01*
X439200000Y-258040000D02*
X439200000Y-261180000D01*
X426900000Y-253460000D02*
X439200000Y-253460000D01*
X439200000Y-222980000D02*
X439200000Y-225700000D01*
X439200000Y-232560000D02*
X439200000Y-235280000D01*
X426900000Y-230700000D02*
X426900000Y-227560000D01*
X426900000Y-235280000D02*
X426900000Y-232560000D01*
X437729050Y-229170000D02*
G75*
G03X437729050Y-229170000I-4579050J0D01*
G01*
X426900000Y-225700000D02*
X426900000Y-222980000D01*
X439200000Y-235280000D02*
X426900000Y-235280000D01*
X439200000Y-227560000D02*
X439200000Y-230700000D01*
X426900000Y-222980000D02*
X439200000Y-222980000D01*
X426969422Y-200710000D02*
X427486578Y-200710000D01*
X426969422Y-199290000D02*
X427486578Y-199290000D01*
X429763422Y-204710000D02*
X430280578Y-204710000D01*
X429763422Y-203290000D02*
X430280578Y-203290000D01*
X419803922Y-272998000D02*
X420321078Y-272998000D01*
X419803922Y-271578000D02*
X420321078Y-271578000D01*
X419741422Y-257758000D02*
X420258578Y-257758000D01*
X419741422Y-256338000D02*
X420258578Y-256338000D01*
X419803922Y-242518000D02*
X420321078Y-242518000D01*
X419803922Y-241098000D02*
X420321078Y-241098000D01*
X419935922Y-227278000D02*
X420453078Y-227278000D01*
X419935922Y-225858000D02*
X420453078Y-225858000D01*
X432330000Y-192670000D02*
X432330000Y-194000000D01*
X431000000Y-192670000D02*
X432330000Y-192670000D01*
X429730000Y-192670000D02*
X429730000Y-195330000D01*
X429730000Y-195330000D02*
X422050000Y-195330000D01*
X429730000Y-192670000D02*
X422050000Y-192670000D01*
X422050000Y-192670000D02*
X422050000Y-195330000D01*
D10*
X344850000Y-244850000D02*
X338875000Y-244850000D01*
X343325000Y-237950000D02*
X338875000Y-237950000D01*
X344850000Y-235450000D02*
X338875000Y-235450000D01*
X343325000Y-228550000D02*
X338875000Y-228550000D01*
X351655142Y-237434380D02*
X351321809Y-236958190D01*
X351083714Y-237434380D02*
X351083714Y-236434380D01*
X351464666Y-236434380D01*
X351559904Y-236482000D01*
X351607523Y-236529619D01*
X351655142Y-236624857D01*
X351655142Y-236767714D01*
X351607523Y-236862952D01*
X351559904Y-236910571D01*
X351464666Y-236958190D01*
X351083714Y-236958190D01*
X352607523Y-237434380D02*
X352036095Y-237434380D01*
X352321809Y-237434380D02*
X352321809Y-236434380D01*
X352226571Y-236577238D01*
X352131333Y-236672476D01*
X352036095Y-236720095D01*
X353559904Y-237434380D02*
X352988476Y-237434380D01*
X353274190Y-237434380D02*
X353274190Y-236434380D01*
X353178952Y-236577238D01*
X353083714Y-236672476D01*
X352988476Y-236720095D01*
X333113142Y-237180380D02*
X332779809Y-236704190D01*
X332541714Y-237180380D02*
X332541714Y-236180380D01*
X332922666Y-236180380D01*
X333017904Y-236228000D01*
X333065523Y-236275619D01*
X333113142Y-236370857D01*
X333113142Y-236513714D01*
X333065523Y-236608952D01*
X333017904Y-236656571D01*
X332922666Y-236704190D01*
X332541714Y-236704190D01*
X334065523Y-237180380D02*
X333494095Y-237180380D01*
X333779809Y-237180380D02*
X333779809Y-236180380D01*
X333684571Y-236323238D01*
X333589333Y-236418476D01*
X333494095Y-236466095D01*
X334684571Y-236180380D02*
X334779809Y-236180380D01*
X334875047Y-236228000D01*
X334922666Y-236275619D01*
X334970285Y-236370857D01*
X335017904Y-236561333D01*
X335017904Y-236799428D01*
X334970285Y-236989904D01*
X334922666Y-237085142D01*
X334875047Y-237132761D01*
X334779809Y-237180380D01*
X334684571Y-237180380D01*
X334589333Y-237132761D01*
X334541714Y-237085142D01*
X334494095Y-236989904D01*
X334446476Y-236799428D01*
X334446476Y-236561333D01*
X334494095Y-236370857D01*
X334541714Y-236275619D01*
X334589333Y-236228000D01*
X334684571Y-236180380D01*
X431546666Y-237614761D02*
X431689523Y-237662380D01*
X431927619Y-237662380D01*
X432022857Y-237614761D01*
X432070476Y-237567142D01*
X432118095Y-237471904D01*
X432118095Y-237376666D01*
X432070476Y-237281428D01*
X432022857Y-237233809D01*
X431927619Y-237186190D01*
X431737142Y-237138571D01*
X431641904Y-237090952D01*
X431594285Y-237043333D01*
X431546666Y-236948095D01*
X431546666Y-236852857D01*
X431594285Y-236757619D01*
X431641904Y-236710000D01*
X431737142Y-236662380D01*
X431975238Y-236662380D01*
X432118095Y-236710000D01*
X432451428Y-236662380D02*
X432689523Y-237662380D01*
X432880000Y-236948095D01*
X433070476Y-237662380D01*
X433308571Y-236662380D01*
X433641904Y-236757619D02*
X433689523Y-236710000D01*
X433784761Y-236662380D01*
X434022857Y-236662380D01*
X434118095Y-236710000D01*
X434165714Y-236757619D01*
X434213333Y-236852857D01*
X434213333Y-236948095D01*
X434165714Y-237090952D01*
X433594285Y-237662380D01*
X434213333Y-237662380D01*
X389302666Y-199604380D02*
X389302666Y-200318666D01*
X389255047Y-200461523D01*
X389159809Y-200556761D01*
X389016952Y-200604380D01*
X388921714Y-200604380D01*
X390207428Y-199937714D02*
X390207428Y-200604380D01*
X389969333Y-199556761D02*
X389731238Y-200271047D01*
X390350285Y-200271047D01*
X399057904Y-202858380D02*
X399057904Y-201858380D01*
X399296000Y-201858380D01*
X399438857Y-201906000D01*
X399534095Y-202001238D01*
X399581714Y-202096476D01*
X399629333Y-202286952D01*
X399629333Y-202429809D01*
X399581714Y-202620285D01*
X399534095Y-202715523D01*
X399438857Y-202810761D01*
X399296000Y-202858380D01*
X399057904Y-202858380D01*
X400581714Y-202858380D02*
X400010285Y-202858380D01*
X400296000Y-202858380D02*
X400296000Y-201858380D01*
X400200761Y-202001238D01*
X400105523Y-202096476D01*
X400010285Y-202144095D01*
X328850666Y-236434380D02*
X328850666Y-237148666D01*
X328803047Y-237291523D01*
X328707809Y-237386761D01*
X328564952Y-237434380D01*
X328469714Y-237434380D01*
X329850666Y-237434380D02*
X329279238Y-237434380D01*
X329564952Y-237434380D02*
X329564952Y-236434380D01*
X329469714Y-236577238D01*
X329374476Y-236672476D01*
X329279238Y-236720095D01*
X390906095Y-207986380D02*
X390906095Y-208795904D01*
X390953714Y-208891142D01*
X391001333Y-208938761D01*
X391096571Y-208986380D01*
X391287047Y-208986380D01*
X391382285Y-208938761D01*
X391429904Y-208891142D01*
X391477523Y-208795904D01*
X391477523Y-207986380D01*
X391858476Y-207986380D02*
X392477523Y-207986380D01*
X392144190Y-208367333D01*
X392287047Y-208367333D01*
X392382285Y-208414952D01*
X392429904Y-208462571D01*
X392477523Y-208557809D01*
X392477523Y-208795904D01*
X392429904Y-208891142D01*
X392382285Y-208938761D01*
X392287047Y-208986380D01*
X392001333Y-208986380D01*
X391906095Y-208938761D01*
X391858476Y-208891142D01*
X396904761Y-262523809D02*
X397019047Y-262561904D01*
X397209523Y-262561904D01*
X397285714Y-262523809D01*
X397323809Y-262485714D01*
X397361904Y-262409523D01*
X397361904Y-262333333D01*
X397323809Y-262257142D01*
X397285714Y-262219047D01*
X397209523Y-262180952D01*
X397057142Y-262142857D01*
X396980952Y-262104761D01*
X396942857Y-262066666D01*
X396904761Y-261990476D01*
X396904761Y-261914285D01*
X396942857Y-261838095D01*
X396980952Y-261800000D01*
X397057142Y-261761904D01*
X397247619Y-261761904D01*
X397361904Y-261800000D01*
X397628571Y-261761904D02*
X397819047Y-262561904D01*
X397971428Y-261990476D01*
X398123809Y-262561904D01*
X398314285Y-261761904D01*
X398619047Y-262561904D02*
X398619047Y-261761904D01*
X398809523Y-261761904D01*
X398923809Y-261800000D01*
X399000000Y-261876190D01*
X399038095Y-261952380D01*
X399076190Y-262104761D01*
X399076190Y-262219047D01*
X399038095Y-262371428D01*
X399000000Y-262447619D01*
X398923809Y-262523809D01*
X398809523Y-262561904D01*
X398619047Y-262561904D01*
X399419047Y-262561904D02*
X399419047Y-261761904D01*
X399952380Y-261761904D02*
X400104761Y-261761904D01*
X400180952Y-261800000D01*
X400257142Y-261876190D01*
X400295238Y-262028571D01*
X400295238Y-262295238D01*
X400257142Y-262447619D01*
X400180952Y-262523809D01*
X400104761Y-262561904D01*
X399952380Y-262561904D01*
X399876190Y-262523809D01*
X399800000Y-262447619D01*
X399761904Y-262295238D01*
X399761904Y-262028571D01*
X399800000Y-261876190D01*
X399876190Y-261800000D01*
X399952380Y-261761904D01*
X385490476Y-262523809D02*
X385604761Y-262561904D01*
X385795238Y-262561904D01*
X385871428Y-262523809D01*
X385909523Y-262485714D01*
X385947619Y-262409523D01*
X385947619Y-262333333D01*
X385909523Y-262257142D01*
X385871428Y-262219047D01*
X385795238Y-262180952D01*
X385642857Y-262142857D01*
X385566666Y-262104761D01*
X385528571Y-262066666D01*
X385490476Y-261990476D01*
X385490476Y-261914285D01*
X385528571Y-261838095D01*
X385566666Y-261800000D01*
X385642857Y-261761904D01*
X385833333Y-261761904D01*
X385947619Y-261800000D01*
X386214285Y-261761904D02*
X386404761Y-262561904D01*
X386557142Y-261990476D01*
X386709523Y-262561904D01*
X386900000Y-261761904D01*
X387661904Y-262485714D02*
X387623809Y-262523809D01*
X387509523Y-262561904D01*
X387433333Y-262561904D01*
X387319047Y-262523809D01*
X387242857Y-262447619D01*
X387204761Y-262371428D01*
X387166666Y-262219047D01*
X387166666Y-262104761D01*
X387204761Y-261952380D01*
X387242857Y-261876190D01*
X387319047Y-261800000D01*
X387433333Y-261761904D01*
X387509523Y-261761904D01*
X387623809Y-261800000D01*
X387661904Y-261838095D01*
X388385714Y-262561904D02*
X388004761Y-262561904D01*
X388004761Y-261761904D01*
X388652380Y-262561904D02*
X388652380Y-261761904D01*
X389109523Y-262561904D02*
X388766666Y-262104761D01*
X389109523Y-261761904D02*
X388652380Y-262219047D01*
X405151597Y-230740964D02*
X405420971Y-230471590D01*
X405259346Y-230956463D02*
X404882223Y-230202216D01*
X405636470Y-230579340D01*
X405582595Y-229555719D02*
X405501783Y-229582656D01*
X405420971Y-229663468D01*
X405367096Y-229771218D01*
X405367096Y-229878967D01*
X405394033Y-229959780D01*
X405474845Y-230094467D01*
X405555658Y-230175279D01*
X405690345Y-230256091D01*
X405771157Y-230283028D01*
X405878906Y-230283028D01*
X405986656Y-230229154D01*
X406040531Y-230175279D01*
X406094406Y-230067529D01*
X406094406Y-230013654D01*
X405905844Y-229825093D01*
X405798094Y-229932842D01*
X406390717Y-229825093D02*
X405825032Y-229259407D01*
X406713966Y-229501844D01*
X406148280Y-228936158D01*
X406983340Y-229232470D02*
X406417654Y-228666784D01*
X406552341Y-228532097D01*
X406660091Y-228478223D01*
X406767841Y-228478223D01*
X406848653Y-228505160D01*
X406983340Y-228585972D01*
X407064152Y-228666784D01*
X407144964Y-228801471D01*
X407171902Y-228882284D01*
X407171902Y-228990033D01*
X407118027Y-229097783D01*
X406983340Y-229232470D01*
X405086158Y-217098155D02*
X405005346Y-217125093D01*
X404924534Y-217205905D01*
X404870659Y-217313654D01*
X404870659Y-217421404D01*
X404897597Y-217502216D01*
X404978409Y-217636903D01*
X405059221Y-217717715D01*
X405193908Y-217798528D01*
X405274720Y-217825465D01*
X405382470Y-217825465D01*
X405490219Y-217771590D01*
X405544094Y-217717715D01*
X405597969Y-217609966D01*
X405597969Y-217556091D01*
X405409407Y-217367529D01*
X405301658Y-217475279D01*
X405894280Y-217367529D02*
X405328595Y-216801844D01*
X406217529Y-217044280D01*
X405651844Y-216478595D01*
X406486903Y-216774906D02*
X405921218Y-216209221D01*
X406055905Y-216074534D01*
X406163654Y-216020659D01*
X406271404Y-216020659D01*
X406352216Y-216047597D01*
X406486903Y-216128409D01*
X406567715Y-216209221D01*
X406648528Y-216343908D01*
X406675465Y-216424720D01*
X406675465Y-216532470D01*
X406621590Y-216640219D01*
X406486903Y-216774906D01*
X405086158Y-242498155D02*
X405005346Y-242525093D01*
X404924534Y-242605905D01*
X404870659Y-242713654D01*
X404870659Y-242821404D01*
X404897597Y-242902216D01*
X404978409Y-243036903D01*
X405059221Y-243117715D01*
X405193908Y-243198528D01*
X405274720Y-243225465D01*
X405382470Y-243225465D01*
X405490219Y-243171590D01*
X405544094Y-243117715D01*
X405597969Y-243009966D01*
X405597969Y-242956091D01*
X405409407Y-242767529D01*
X405301658Y-242875279D01*
X405894280Y-242767529D02*
X405328595Y-242201844D01*
X406217529Y-242444280D01*
X405651844Y-241878595D01*
X406486903Y-242174906D02*
X405921218Y-241609221D01*
X406055905Y-241474534D01*
X406163654Y-241420659D01*
X406271404Y-241420659D01*
X406352216Y-241447597D01*
X406486903Y-241528409D01*
X406567715Y-241609221D01*
X406648528Y-241743908D01*
X406675465Y-241824720D01*
X406675465Y-241932470D01*
X406621590Y-242040219D01*
X406486903Y-242174906D01*
X405086158Y-255198155D02*
X405005346Y-255225093D01*
X404924534Y-255305905D01*
X404870659Y-255413654D01*
X404870659Y-255521404D01*
X404897597Y-255602216D01*
X404978409Y-255736903D01*
X405059221Y-255817715D01*
X405193908Y-255898528D01*
X405274720Y-255925465D01*
X405382470Y-255925465D01*
X405490219Y-255871590D01*
X405544094Y-255817715D01*
X405597969Y-255709966D01*
X405597969Y-255656091D01*
X405409407Y-255467529D01*
X405301658Y-255575279D01*
X405894280Y-255467529D02*
X405328595Y-254901844D01*
X406217529Y-255144280D01*
X405651844Y-254578595D01*
X406486903Y-254874906D02*
X405921218Y-254309221D01*
X406055905Y-254174534D01*
X406163654Y-254120659D01*
X406271404Y-254120659D01*
X406352216Y-254147597D01*
X406486903Y-254228409D01*
X406567715Y-254309221D01*
X406648528Y-254443908D01*
X406675465Y-254524720D01*
X406675465Y-254632470D01*
X406621590Y-254740219D01*
X406486903Y-254874906D01*
X379486158Y-255198155D02*
X379405346Y-255225093D01*
X379324534Y-255305905D01*
X379270659Y-255413654D01*
X379270659Y-255521404D01*
X379297597Y-255602216D01*
X379378409Y-255736903D01*
X379459221Y-255817715D01*
X379593908Y-255898528D01*
X379674720Y-255925465D01*
X379782470Y-255925465D01*
X379890219Y-255871590D01*
X379944094Y-255817715D01*
X379997969Y-255709966D01*
X379997969Y-255656091D01*
X379809407Y-255467529D01*
X379701658Y-255575279D01*
X380294280Y-255467529D02*
X379728595Y-254901844D01*
X380617529Y-255144280D01*
X380051844Y-254578595D01*
X380886903Y-254874906D02*
X380321218Y-254309221D01*
X380455905Y-254174534D01*
X380563654Y-254120659D01*
X380671404Y-254120659D01*
X380752216Y-254147597D01*
X380886903Y-254228409D01*
X380967715Y-254309221D01*
X381048528Y-254443908D01*
X381075465Y-254524720D01*
X381075465Y-254632470D01*
X381021590Y-254740219D01*
X380886903Y-254874906D01*
X379486158Y-242498155D02*
X379405346Y-242525093D01*
X379324534Y-242605905D01*
X379270659Y-242713654D01*
X379270659Y-242821404D01*
X379297597Y-242902216D01*
X379378409Y-243036903D01*
X379459221Y-243117715D01*
X379593908Y-243198528D01*
X379674720Y-243225465D01*
X379782470Y-243225465D01*
X379890219Y-243171590D01*
X379944094Y-243117715D01*
X379997969Y-243009966D01*
X379997969Y-242956091D01*
X379809407Y-242767529D01*
X379701658Y-242875279D01*
X380294280Y-242767529D02*
X379728595Y-242201844D01*
X380617529Y-242444280D01*
X380051844Y-241878595D01*
X380886903Y-242174906D02*
X380321218Y-241609221D01*
X380455905Y-241474534D01*
X380563654Y-241420659D01*
X380671404Y-241420659D01*
X380752216Y-241447597D01*
X380886903Y-241528409D01*
X380967715Y-241609221D01*
X381048528Y-241743908D01*
X381075465Y-241824720D01*
X381075465Y-241932470D01*
X381021590Y-242040219D01*
X380886903Y-242174906D01*
X379486158Y-229798155D02*
X379405346Y-229825093D01*
X379324534Y-229905905D01*
X379270659Y-230013654D01*
X379270659Y-230121404D01*
X379297597Y-230202216D01*
X379378409Y-230336903D01*
X379459221Y-230417715D01*
X379593908Y-230498528D01*
X379674720Y-230525465D01*
X379782470Y-230525465D01*
X379890219Y-230471590D01*
X379944094Y-230417715D01*
X379997969Y-230309966D01*
X379997969Y-230256091D01*
X379809407Y-230067529D01*
X379701658Y-230175279D01*
X380294280Y-230067529D02*
X379728595Y-229501844D01*
X380617529Y-229744280D01*
X380051844Y-229178595D01*
X380886903Y-229474906D02*
X380321218Y-228909221D01*
X380455905Y-228774534D01*
X380563654Y-228720659D01*
X380671404Y-228720659D01*
X380752216Y-228747597D01*
X380886903Y-228828409D01*
X380967715Y-228909221D01*
X381048528Y-229043908D01*
X381075465Y-229124720D01*
X381075465Y-229232470D01*
X381021590Y-229340219D01*
X380886903Y-229474906D01*
X379486158Y-217098155D02*
X379405346Y-217125093D01*
X379324534Y-217205905D01*
X379270659Y-217313654D01*
X379270659Y-217421404D01*
X379297597Y-217502216D01*
X379378409Y-217636903D01*
X379459221Y-217717715D01*
X379593908Y-217798528D01*
X379674720Y-217825465D01*
X379782470Y-217825465D01*
X379890219Y-217771590D01*
X379944094Y-217717715D01*
X379997969Y-217609966D01*
X379997969Y-217556091D01*
X379809407Y-217367529D01*
X379701658Y-217475279D01*
X380294280Y-217367529D02*
X379728595Y-216801844D01*
X380617529Y-217044280D01*
X380051844Y-216478595D01*
X380886903Y-216774906D02*
X380321218Y-216209221D01*
X380455905Y-216074534D01*
X380563654Y-216020659D01*
X380671404Y-216020659D01*
X380752216Y-216047597D01*
X380886903Y-216128409D01*
X380967715Y-216209221D01*
X381048528Y-216343908D01*
X381075465Y-216424720D01*
X381075465Y-216532470D01*
X381021590Y-216640219D01*
X380886903Y-216774906D01*
X404953129Y-212527309D02*
X405707377Y-212904433D01*
X405330253Y-212150186D01*
X405976751Y-212042436D02*
X406084500Y-211988561D01*
X406138375Y-211988561D01*
X406219187Y-212015499D01*
X406300000Y-212096311D01*
X406326937Y-212177123D01*
X406326937Y-212230998D01*
X406300000Y-212311810D01*
X406084500Y-212527309D01*
X405518815Y-211961624D01*
X405707377Y-211773062D01*
X405788189Y-211746125D01*
X405842064Y-211746125D01*
X405922876Y-211773062D01*
X405976751Y-211826937D01*
X406003688Y-211907749D01*
X406003688Y-211961624D01*
X405976751Y-212042436D01*
X405788189Y-212230998D01*
X406084500Y-211395938D02*
X406542436Y-211853874D01*
X406623248Y-211880812D01*
X406677123Y-211880812D01*
X406757935Y-211853874D01*
X406865685Y-211746125D01*
X406892622Y-211665312D01*
X406892622Y-211611438D01*
X406865685Y-211530625D01*
X406407749Y-211072690D01*
X407188934Y-211369001D02*
X407296683Y-211315126D01*
X407431370Y-211180439D01*
X407458308Y-211099627D01*
X407458308Y-211045752D01*
X407431370Y-210964940D01*
X407377496Y-210911065D01*
X407296683Y-210884128D01*
X407242809Y-210884128D01*
X407161996Y-210911065D01*
X407027309Y-210991877D01*
X406946497Y-211018815D01*
X406892622Y-211018815D01*
X406811810Y-210991877D01*
X406757935Y-210938003D01*
X406730998Y-210857190D01*
X406730998Y-210803316D01*
X406757935Y-210722503D01*
X406892622Y-210587816D01*
X407000372Y-210533942D01*
X404920473Y-215069966D02*
X405674720Y-215447089D01*
X405297597Y-214692842D01*
X405997969Y-215069966D02*
X406105719Y-215016091D01*
X406240406Y-214881404D01*
X406267343Y-214800592D01*
X406267343Y-214746717D01*
X406240406Y-214665905D01*
X406186531Y-214612030D01*
X406105719Y-214585093D01*
X406051844Y-214585093D01*
X405971032Y-214612030D01*
X405836345Y-214692842D01*
X405755532Y-214719780D01*
X405701658Y-214719780D01*
X405620845Y-214692842D01*
X405566971Y-214638967D01*
X405540033Y-214558155D01*
X405540033Y-214504280D01*
X405566971Y-214423468D01*
X405701658Y-214288781D01*
X405809407Y-214234906D01*
X406428967Y-214154094D02*
X406698341Y-214423468D01*
X405944094Y-214046345D02*
X406428967Y-214154094D01*
X406321218Y-213669221D01*
X407021590Y-214046345D02*
X407129340Y-213992470D01*
X407264027Y-213857783D01*
X407290964Y-213776971D01*
X407290964Y-213723096D01*
X407264027Y-213642284D01*
X407210152Y-213588409D01*
X407129340Y-213561471D01*
X407075465Y-213561471D01*
X406994653Y-213588409D01*
X406859966Y-213669221D01*
X406779154Y-213696158D01*
X406725279Y-213696158D01*
X406644467Y-213669221D01*
X406590592Y-213615346D01*
X406563654Y-213534534D01*
X406563654Y-213480659D01*
X406590592Y-213399847D01*
X406725279Y-213265160D01*
X406833028Y-213211285D01*
X404922131Y-219958308D02*
X405272317Y-219608122D01*
X405299255Y-220012183D01*
X405380067Y-219931370D01*
X405460879Y-219904433D01*
X405514754Y-219904433D01*
X405595566Y-219931370D01*
X405730253Y-220066057D01*
X405757190Y-220146870D01*
X405757190Y-220200744D01*
X405730253Y-220281557D01*
X405568629Y-220443181D01*
X405487816Y-220470118D01*
X405433942Y-220470118D01*
X405433942Y-219446497D02*
X406188189Y-219823621D01*
X405811065Y-219069374D01*
X405945752Y-218934687D02*
X406295938Y-218584500D01*
X406322876Y-218988561D01*
X406403688Y-218907749D01*
X406484500Y-218880812D01*
X406538375Y-218880812D01*
X406619187Y-218907749D01*
X406753874Y-219042436D01*
X406780812Y-219123248D01*
X406780812Y-219177123D01*
X406753874Y-219257935D01*
X406592250Y-219419560D01*
X406511438Y-219446497D01*
X406457563Y-219446497D01*
X407023248Y-219096311D02*
X407454247Y-218665312D01*
X407238748Y-218180439D02*
X407427309Y-217991877D01*
X407804433Y-218207377D02*
X407535059Y-218476751D01*
X406969374Y-217911065D01*
X407238748Y-217641691D01*
X408046870Y-217964940D02*
X407481184Y-217399255D01*
X408370118Y-217641691D01*
X407804433Y-217076006D01*
X404889847Y-222490592D02*
X405240033Y-222140406D01*
X405266971Y-222544467D01*
X405347783Y-222463654D01*
X405428595Y-222436717D01*
X405482470Y-222436717D01*
X405563282Y-222463654D01*
X405697969Y-222598341D01*
X405724906Y-222679154D01*
X405724906Y-222733028D01*
X405697969Y-222813841D01*
X405536345Y-222975465D01*
X405455532Y-223002402D01*
X405401658Y-223002402D01*
X405401658Y-221978781D02*
X406155905Y-222355905D01*
X405778781Y-221601658D01*
X405913468Y-221466971D02*
X406263654Y-221116784D01*
X406290592Y-221520845D01*
X406371404Y-221440033D01*
X406452216Y-221413096D01*
X406506091Y-221413096D01*
X406586903Y-221440033D01*
X406721590Y-221574720D01*
X406748528Y-221655532D01*
X406748528Y-221709407D01*
X406721590Y-221790219D01*
X406559966Y-221951844D01*
X406479154Y-221978781D01*
X406425279Y-221978781D01*
X405154788Y-225533773D02*
X405424162Y-225264399D01*
X405262537Y-225749272D02*
X404885414Y-224995025D01*
X405639661Y-225372149D01*
X405828223Y-225183587D02*
X405262537Y-224617902D01*
X405397224Y-224483215D01*
X405504974Y-224429340D01*
X405612723Y-224429340D01*
X405693536Y-224456277D01*
X405828223Y-224537089D01*
X405909035Y-224617902D01*
X405989847Y-224752589D01*
X406016784Y-224833401D01*
X406016784Y-224941150D01*
X405962910Y-225048900D01*
X405828223Y-225183587D01*
X406663282Y-224240778D02*
X406663282Y-224294653D01*
X406609407Y-224402402D01*
X406555532Y-224456277D01*
X406447783Y-224510152D01*
X406340033Y-224510152D01*
X406259221Y-224483215D01*
X406124534Y-224402402D01*
X406043722Y-224321590D01*
X405962910Y-224186903D01*
X405935972Y-224106091D01*
X405935972Y-223998341D01*
X405989847Y-223890592D01*
X406043722Y-223836717D01*
X406151471Y-223782842D01*
X406205346Y-223782842D01*
X406878781Y-224240778D02*
X407309780Y-223809780D01*
X406744094Y-223136345D02*
X407498341Y-223513468D01*
X407121218Y-222759221D01*
X408198714Y-222813096D02*
X407740778Y-222732284D01*
X407875465Y-223136345D02*
X407309780Y-222570659D01*
X407525279Y-222355160D01*
X407606091Y-222328223D01*
X407659966Y-222328223D01*
X407740778Y-222355160D01*
X407821590Y-222435972D01*
X407848528Y-222516784D01*
X407848528Y-222570659D01*
X407821590Y-222651471D01*
X407606091Y-222866971D01*
X408144839Y-222274348D02*
X408333401Y-222085786D01*
X408710524Y-222301285D02*
X408441150Y-222570659D01*
X407875465Y-222004974D01*
X408144839Y-221735600D01*
X408845211Y-221573975D02*
X408656650Y-221762537D01*
X408952961Y-222058849D02*
X408387276Y-221493163D01*
X408656650Y-221223789D01*
X405097722Y-227246592D02*
X405016910Y-227273529D01*
X404936097Y-227354341D01*
X404882223Y-227462091D01*
X404882223Y-227569841D01*
X404909160Y-227650653D01*
X404989972Y-227785340D01*
X405070784Y-227866152D01*
X405205471Y-227946964D01*
X405286284Y-227973902D01*
X405394033Y-227973902D01*
X405501783Y-227920027D01*
X405555658Y-227866152D01*
X405609532Y-227758402D01*
X405609532Y-227704528D01*
X405420971Y-227515966D01*
X405313221Y-227623715D01*
X405905844Y-227515966D02*
X405340158Y-226950280D01*
X405555658Y-226734781D01*
X405636470Y-226707844D01*
X405690345Y-226707844D01*
X405771157Y-226734781D01*
X405851969Y-226815593D01*
X405878906Y-226896406D01*
X405878906Y-226950280D01*
X405851969Y-227031093D01*
X405636470Y-227246592D01*
X405932781Y-226465407D02*
X405932781Y-226411532D01*
X405959719Y-226330720D01*
X406094406Y-226196033D01*
X406175218Y-226169096D01*
X406229093Y-226169096D01*
X406309905Y-226196033D01*
X406363780Y-226249908D01*
X406417654Y-226357658D01*
X406417654Y-227004155D01*
X406767841Y-226653969D01*
X406767841Y-226007471D02*
X406687028Y-226034409D01*
X406633154Y-226034409D01*
X406552341Y-226007471D01*
X406525404Y-225980534D01*
X406498467Y-225899722D01*
X406498467Y-225845847D01*
X406525404Y-225765035D01*
X406633154Y-225657285D01*
X406713966Y-225630348D01*
X406767841Y-225630348D01*
X406848653Y-225657285D01*
X406875590Y-225684223D01*
X406902528Y-225765035D01*
X406902528Y-225818910D01*
X406875590Y-225899722D01*
X406767841Y-226007471D01*
X406740903Y-226088284D01*
X406740903Y-226142158D01*
X406767841Y-226222971D01*
X406875590Y-226330720D01*
X406956402Y-226357658D01*
X407010277Y-226357658D01*
X407091089Y-226330720D01*
X407198839Y-226222971D01*
X407225776Y-226142158D01*
X407225776Y-226088284D01*
X407198839Y-226007471D01*
X407091089Y-225899722D01*
X407010277Y-225872784D01*
X406956402Y-225872784D01*
X406875590Y-225899722D01*
X405097722Y-232590592D02*
X405016910Y-232617529D01*
X404936097Y-232698341D01*
X404882223Y-232806091D01*
X404882223Y-232913841D01*
X404909160Y-232994653D01*
X404989972Y-233129340D01*
X405070784Y-233210152D01*
X405205471Y-233290964D01*
X405286284Y-233317902D01*
X405394033Y-233317902D01*
X405501783Y-233264027D01*
X405555658Y-233210152D01*
X405609532Y-233102402D01*
X405609532Y-233048528D01*
X405420971Y-232859966D01*
X405313221Y-232967715D01*
X405905844Y-232859966D02*
X405340158Y-232294280D01*
X405555658Y-232078781D01*
X405636470Y-232051844D01*
X405690345Y-232051844D01*
X405771157Y-232078781D01*
X405851969Y-232159593D01*
X405878906Y-232240406D01*
X405878906Y-232294280D01*
X405851969Y-232375093D01*
X405636470Y-232590592D01*
X405932781Y-231809407D02*
X405932781Y-231755532D01*
X405959719Y-231674720D01*
X406094406Y-231540033D01*
X406175218Y-231513096D01*
X406229093Y-231513096D01*
X406309905Y-231540033D01*
X406363780Y-231593908D01*
X406417654Y-231701658D01*
X406417654Y-232348155D01*
X406767841Y-231997969D01*
X406390717Y-231243722D02*
X406767841Y-230866598D01*
X407091089Y-231674720D01*
X405097722Y-235120592D02*
X405016910Y-235147529D01*
X404936097Y-235228341D01*
X404882223Y-235336091D01*
X404882223Y-235443841D01*
X404909160Y-235524653D01*
X404989972Y-235659340D01*
X405070784Y-235740152D01*
X405205471Y-235820964D01*
X405286284Y-235847902D01*
X405394033Y-235847902D01*
X405501783Y-235794027D01*
X405555658Y-235740152D01*
X405609532Y-235632402D01*
X405609532Y-235578528D01*
X405420971Y-235389966D01*
X405313221Y-235497715D01*
X405905844Y-235389966D02*
X405340158Y-234824280D01*
X405555658Y-234608781D01*
X405636470Y-234581844D01*
X405690345Y-234581844D01*
X405771157Y-234608781D01*
X405851969Y-234689593D01*
X405878906Y-234770406D01*
X405878906Y-234824280D01*
X405851969Y-234905093D01*
X405636470Y-235120592D01*
X405932781Y-234339407D02*
X405932781Y-234285532D01*
X405959719Y-234204720D01*
X406094406Y-234070033D01*
X406175218Y-234043096D01*
X406229093Y-234043096D01*
X406309905Y-234070033D01*
X406363780Y-234123908D01*
X406417654Y-234231658D01*
X406417654Y-234878155D01*
X406767841Y-234527969D01*
X406687028Y-233477410D02*
X406579279Y-233585160D01*
X406552341Y-233665972D01*
X406552341Y-233719847D01*
X406579279Y-233854534D01*
X406660091Y-233989221D01*
X406875590Y-234204720D01*
X406956402Y-234231658D01*
X407010277Y-234231658D01*
X407091089Y-234204720D01*
X407198839Y-234096971D01*
X407225776Y-234016158D01*
X407225776Y-233962284D01*
X407198839Y-233881471D01*
X407064152Y-233746784D01*
X406983340Y-233719847D01*
X406929465Y-233719847D01*
X406848653Y-233746784D01*
X406740903Y-233854534D01*
X406713966Y-233935346D01*
X406713966Y-233989221D01*
X406740903Y-234070033D01*
X405838375Y-237943435D02*
X405380439Y-237862622D01*
X405515126Y-238266683D02*
X404949441Y-237700998D01*
X405164940Y-237485499D01*
X405245752Y-237458561D01*
X405299627Y-237458561D01*
X405380439Y-237485499D01*
X405461251Y-237566311D01*
X405488189Y-237647123D01*
X405488189Y-237700998D01*
X405461251Y-237781810D01*
X405245752Y-237997309D01*
X405515126Y-237135312D02*
X405973062Y-237593248D01*
X406053874Y-237620186D01*
X406107749Y-237620186D01*
X406188561Y-237593248D01*
X406296311Y-237485499D01*
X406323248Y-237404687D01*
X406323248Y-237350812D01*
X406296311Y-237270000D01*
X405838375Y-236812064D01*
X406673435Y-237108375D02*
X406107749Y-236542690D01*
X406996683Y-236785126D01*
X406430998Y-236219441D01*
X405097722Y-240200592D02*
X405016910Y-240227529D01*
X404936097Y-240308341D01*
X404882223Y-240416091D01*
X404882223Y-240523841D01*
X404909160Y-240604653D01*
X404989972Y-240739340D01*
X405070784Y-240820152D01*
X405205471Y-240900964D01*
X405286284Y-240927902D01*
X405394033Y-240927902D01*
X405501783Y-240874027D01*
X405555658Y-240820152D01*
X405609532Y-240712402D01*
X405609532Y-240658528D01*
X405420971Y-240469966D01*
X405313221Y-240577715D01*
X405905844Y-240469966D02*
X405340158Y-239904280D01*
X405555658Y-239688781D01*
X405636470Y-239661844D01*
X405690345Y-239661844D01*
X405771157Y-239688781D01*
X405851969Y-239769593D01*
X405878906Y-239850406D01*
X405878906Y-239904280D01*
X405851969Y-239985093D01*
X405636470Y-240200592D01*
X405932781Y-239419407D02*
X405932781Y-239365532D01*
X405959719Y-239284720D01*
X406094406Y-239150033D01*
X406175218Y-239123096D01*
X406229093Y-239123096D01*
X406309905Y-239150033D01*
X406363780Y-239203908D01*
X406417654Y-239311658D01*
X406417654Y-239958155D01*
X406767841Y-239607969D01*
X406471529Y-238880659D02*
X406471529Y-238826784D01*
X406498467Y-238745972D01*
X406633154Y-238611285D01*
X406713966Y-238584348D01*
X406767841Y-238584348D01*
X406848653Y-238611285D01*
X406902528Y-238665160D01*
X406956402Y-238772910D01*
X406956402Y-239419407D01*
X407306589Y-239069221D01*
X405097722Y-245290592D02*
X405016910Y-245317529D01*
X404936097Y-245398341D01*
X404882223Y-245506091D01*
X404882223Y-245613841D01*
X404909160Y-245694653D01*
X404989972Y-245829340D01*
X405070784Y-245910152D01*
X405205471Y-245990964D01*
X405286284Y-246017902D01*
X405394033Y-246017902D01*
X405501783Y-245964027D01*
X405555658Y-245910152D01*
X405609532Y-245802402D01*
X405609532Y-245748528D01*
X405420971Y-245559966D01*
X405313221Y-245667715D01*
X405905844Y-245559966D02*
X405340158Y-244994280D01*
X405555658Y-244778781D01*
X405636470Y-244751844D01*
X405690345Y-244751844D01*
X405771157Y-244778781D01*
X405851969Y-244859593D01*
X405878906Y-244940406D01*
X405878906Y-244994280D01*
X405851969Y-245075093D01*
X405636470Y-245290592D01*
X405932781Y-244509407D02*
X405932781Y-244455532D01*
X405959719Y-244374720D01*
X406094406Y-244240033D01*
X406175218Y-244213096D01*
X406229093Y-244213096D01*
X406309905Y-244240033D01*
X406363780Y-244293908D01*
X406417654Y-244401658D01*
X406417654Y-245048155D01*
X406767841Y-244697969D01*
X407306589Y-244159221D02*
X406983340Y-244482470D01*
X407144964Y-244320845D02*
X406579279Y-243755160D01*
X406606216Y-243889847D01*
X406606216Y-243997597D01*
X406579279Y-244078409D01*
X405097722Y-247820592D02*
X405016910Y-247847529D01*
X404936097Y-247928341D01*
X404882223Y-248036091D01*
X404882223Y-248143841D01*
X404909160Y-248224653D01*
X404989972Y-248359340D01*
X405070784Y-248440152D01*
X405205471Y-248520964D01*
X405286284Y-248547902D01*
X405394033Y-248547902D01*
X405501783Y-248494027D01*
X405555658Y-248440152D01*
X405609532Y-248332402D01*
X405609532Y-248278528D01*
X405420971Y-248089966D01*
X405313221Y-248197715D01*
X405905844Y-248089966D02*
X405340158Y-247524280D01*
X405555658Y-247308781D01*
X405636470Y-247281844D01*
X405690345Y-247281844D01*
X405771157Y-247308781D01*
X405851969Y-247389593D01*
X405878906Y-247470406D01*
X405878906Y-247524280D01*
X405851969Y-247605093D01*
X405636470Y-247820592D01*
X405932781Y-247039407D02*
X405932781Y-246985532D01*
X405959719Y-246904720D01*
X406094406Y-246770033D01*
X406175218Y-246743096D01*
X406229093Y-246743096D01*
X406309905Y-246770033D01*
X406363780Y-246823908D01*
X406417654Y-246931658D01*
X406417654Y-247578155D01*
X406767841Y-247227969D01*
X406552341Y-246312097D02*
X406606216Y-246258223D01*
X406687028Y-246231285D01*
X406740903Y-246231285D01*
X406821715Y-246258223D01*
X406956402Y-246339035D01*
X407091089Y-246473722D01*
X407171902Y-246608409D01*
X407198839Y-246689221D01*
X407198839Y-246743096D01*
X407171902Y-246823908D01*
X407118027Y-246877783D01*
X407037215Y-246904720D01*
X406983340Y-246904720D01*
X406902528Y-246877783D01*
X406767841Y-246796971D01*
X406633154Y-246662284D01*
X406552341Y-246527597D01*
X406525404Y-246446784D01*
X406525404Y-246392910D01*
X406552341Y-246312097D01*
X405097722Y-250360592D02*
X405016910Y-250387529D01*
X404936097Y-250468341D01*
X404882223Y-250576091D01*
X404882223Y-250683841D01*
X404909160Y-250764653D01*
X404989972Y-250899340D01*
X405070784Y-250980152D01*
X405205471Y-251060964D01*
X405286284Y-251087902D01*
X405394033Y-251087902D01*
X405501783Y-251034027D01*
X405555658Y-250980152D01*
X405609532Y-250872402D01*
X405609532Y-250818528D01*
X405420971Y-250629966D01*
X405313221Y-250737715D01*
X405905844Y-250629966D02*
X405340158Y-250064280D01*
X405555658Y-249848781D01*
X405636470Y-249821844D01*
X405690345Y-249821844D01*
X405771157Y-249848781D01*
X405851969Y-249929593D01*
X405878906Y-250010406D01*
X405878906Y-250064280D01*
X405851969Y-250145093D01*
X405636470Y-250360592D01*
X406767841Y-249767969D02*
X406444592Y-250091218D01*
X406606216Y-249929593D02*
X406040531Y-249363908D01*
X406067468Y-249498595D01*
X406067468Y-249606345D01*
X406040531Y-249687157D01*
X407037215Y-249498595D02*
X407144964Y-249390845D01*
X407171902Y-249310033D01*
X407171902Y-249256158D01*
X407144964Y-249121471D01*
X407064152Y-248986784D01*
X406848653Y-248771285D01*
X406767841Y-248744348D01*
X406713966Y-248744348D01*
X406633154Y-248771285D01*
X406525404Y-248879035D01*
X406498467Y-248959847D01*
X406498467Y-249013722D01*
X406525404Y-249094534D01*
X406660091Y-249229221D01*
X406740903Y-249256158D01*
X406794778Y-249256158D01*
X406875590Y-249229221D01*
X406983340Y-249121471D01*
X407010277Y-249040659D01*
X407010277Y-248986784D01*
X406983340Y-248905972D01*
X405097722Y-252900592D02*
X405016910Y-252927529D01*
X404936097Y-253008341D01*
X404882223Y-253116091D01*
X404882223Y-253223841D01*
X404909160Y-253304653D01*
X404989972Y-253439340D01*
X405070784Y-253520152D01*
X405205471Y-253600964D01*
X405286284Y-253627902D01*
X405394033Y-253627902D01*
X405501783Y-253574027D01*
X405555658Y-253520152D01*
X405609532Y-253412402D01*
X405609532Y-253358528D01*
X405420971Y-253169966D01*
X405313221Y-253277715D01*
X405905844Y-253169966D02*
X405340158Y-252604280D01*
X405555658Y-252388781D01*
X405636470Y-252361844D01*
X405690345Y-252361844D01*
X405771157Y-252388781D01*
X405851969Y-252469593D01*
X405878906Y-252550406D01*
X405878906Y-252604280D01*
X405851969Y-252685093D01*
X405636470Y-252900592D01*
X406767841Y-252307969D02*
X406444592Y-252631218D01*
X406606216Y-252469593D02*
X406040531Y-251903908D01*
X406067468Y-252038595D01*
X406067468Y-252146345D01*
X406040531Y-252227157D01*
X406767841Y-251661471D02*
X406687028Y-251688409D01*
X406633154Y-251688409D01*
X406552341Y-251661471D01*
X406525404Y-251634534D01*
X406498467Y-251553722D01*
X406498467Y-251499847D01*
X406525404Y-251419035D01*
X406633154Y-251311285D01*
X406713966Y-251284348D01*
X406767841Y-251284348D01*
X406848653Y-251311285D01*
X406875590Y-251338223D01*
X406902528Y-251419035D01*
X406902528Y-251472910D01*
X406875590Y-251553722D01*
X406767841Y-251661471D01*
X406740903Y-251742284D01*
X406740903Y-251796158D01*
X406767841Y-251876971D01*
X406875590Y-251984720D01*
X406956402Y-252011658D01*
X407010277Y-252011658D01*
X407091089Y-251984720D01*
X407198839Y-251876971D01*
X407225776Y-251796158D01*
X407225776Y-251742284D01*
X407198839Y-251661471D01*
X407091089Y-251553722D01*
X407010277Y-251526784D01*
X406956402Y-251526784D01*
X406875590Y-251553722D01*
X405097722Y-257980592D02*
X405016910Y-258007529D01*
X404936097Y-258088341D01*
X404882223Y-258196091D01*
X404882223Y-258303841D01*
X404909160Y-258384653D01*
X404989972Y-258519340D01*
X405070784Y-258600152D01*
X405205471Y-258680964D01*
X405286284Y-258707902D01*
X405394033Y-258707902D01*
X405501783Y-258654027D01*
X405555658Y-258600152D01*
X405609532Y-258492402D01*
X405609532Y-258438528D01*
X405420971Y-258249966D01*
X405313221Y-258357715D01*
X405905844Y-258249966D02*
X405340158Y-257684280D01*
X405555658Y-257468781D01*
X405636470Y-257441844D01*
X405690345Y-257441844D01*
X405771157Y-257468781D01*
X405851969Y-257549593D01*
X405878906Y-257630406D01*
X405878906Y-257684280D01*
X405851969Y-257765093D01*
X405636470Y-257980592D01*
X406767841Y-257387969D02*
X406444592Y-257711218D01*
X406606216Y-257549593D02*
X406040531Y-256983908D01*
X406067468Y-257118595D01*
X406067468Y-257226345D01*
X406040531Y-257307157D01*
X406390717Y-256633722D02*
X406767841Y-256256598D01*
X407091089Y-257064720D01*
X405097722Y-260520592D02*
X405016910Y-260547529D01*
X404936097Y-260628341D01*
X404882223Y-260736091D01*
X404882223Y-260843841D01*
X404909160Y-260924653D01*
X404989972Y-261059340D01*
X405070784Y-261140152D01*
X405205471Y-261220964D01*
X405286284Y-261247902D01*
X405394033Y-261247902D01*
X405501783Y-261194027D01*
X405555658Y-261140152D01*
X405609532Y-261032402D01*
X405609532Y-260978528D01*
X405420971Y-260789966D01*
X405313221Y-260897715D01*
X405905844Y-260789966D02*
X405340158Y-260224280D01*
X405555658Y-260008781D01*
X405636470Y-259981844D01*
X405690345Y-259981844D01*
X405771157Y-260008781D01*
X405851969Y-260089593D01*
X405878906Y-260170406D01*
X405878906Y-260224280D01*
X405851969Y-260305093D01*
X405636470Y-260520592D01*
X406767841Y-259927969D02*
X406444592Y-260251218D01*
X406606216Y-260089593D02*
X406040531Y-259523908D01*
X406067468Y-259658595D01*
X406067468Y-259766345D01*
X406040531Y-259847157D01*
X406687028Y-258877410D02*
X406579279Y-258985160D01*
X406552341Y-259065972D01*
X406552341Y-259119847D01*
X406579279Y-259254534D01*
X406660091Y-259389221D01*
X406875590Y-259604720D01*
X406956402Y-259631658D01*
X407010277Y-259631658D01*
X407091089Y-259604720D01*
X407198839Y-259496971D01*
X407225776Y-259416158D01*
X407225776Y-259362284D01*
X407198839Y-259281471D01*
X407064152Y-259146784D01*
X406983340Y-259119847D01*
X406929465Y-259119847D01*
X406848653Y-259146784D01*
X406740903Y-259254534D01*
X406713966Y-259335346D01*
X406713966Y-259389221D01*
X406740903Y-259470033D01*
X378989722Y-260520592D02*
X378908910Y-260547529D01*
X378828097Y-260628341D01*
X378774223Y-260736091D01*
X378774223Y-260843841D01*
X378801160Y-260924653D01*
X378881972Y-261059340D01*
X378962784Y-261140152D01*
X379097471Y-261220964D01*
X379178284Y-261247902D01*
X379286033Y-261247902D01*
X379393783Y-261194027D01*
X379447658Y-261140152D01*
X379501532Y-261032402D01*
X379501532Y-260978528D01*
X379312971Y-260789966D01*
X379205221Y-260897715D01*
X379797844Y-260789966D02*
X379232158Y-260224280D01*
X379447658Y-260008781D01*
X379528470Y-259981844D01*
X379582345Y-259981844D01*
X379663157Y-260008781D01*
X379743969Y-260089593D01*
X379770906Y-260170406D01*
X379770906Y-260224280D01*
X379743969Y-260305093D01*
X379528470Y-260520592D01*
X380659841Y-259927969D02*
X380336592Y-260251218D01*
X380498216Y-260089593D02*
X379932531Y-259523908D01*
X379959468Y-259658595D01*
X379959468Y-259766345D01*
X379932531Y-259847157D01*
X380605966Y-258850473D02*
X380336592Y-259119847D01*
X380579028Y-259416158D01*
X380579028Y-259362284D01*
X380605966Y-259281471D01*
X380740653Y-259146784D01*
X380821465Y-259119847D01*
X380875340Y-259119847D01*
X380956152Y-259146784D01*
X381090839Y-259281471D01*
X381117776Y-259362284D01*
X381117776Y-259416158D01*
X381090839Y-259496971D01*
X380956152Y-259631658D01*
X380875340Y-259658595D01*
X380821465Y-259658595D01*
X378943722Y-257980592D02*
X378862910Y-258007529D01*
X378782097Y-258088341D01*
X378728223Y-258196091D01*
X378728223Y-258303841D01*
X378755160Y-258384653D01*
X378835972Y-258519340D01*
X378916784Y-258600152D01*
X379051471Y-258680964D01*
X379132284Y-258707902D01*
X379240033Y-258707902D01*
X379347783Y-258654027D01*
X379401658Y-258600152D01*
X379455532Y-258492402D01*
X379455532Y-258438528D01*
X379266971Y-258249966D01*
X379159221Y-258357715D01*
X379751844Y-258249966D02*
X379186158Y-257684280D01*
X379401658Y-257468781D01*
X379482470Y-257441844D01*
X379536345Y-257441844D01*
X379617157Y-257468781D01*
X379697969Y-257549593D01*
X379724906Y-257630406D01*
X379724906Y-257684280D01*
X379697969Y-257765093D01*
X379482470Y-257980592D01*
X380613841Y-257387969D02*
X380290592Y-257711218D01*
X380452216Y-257549593D02*
X379886531Y-256983908D01*
X379913468Y-257118595D01*
X379913468Y-257226345D01*
X379886531Y-257307157D01*
X380721590Y-256525972D02*
X381098714Y-256903096D01*
X380371404Y-256445160D02*
X380640778Y-256983908D01*
X380990964Y-256633722D01*
X378989722Y-252900592D02*
X378908910Y-252927529D01*
X378828097Y-253008341D01*
X378774223Y-253116091D01*
X378774223Y-253223841D01*
X378801160Y-253304653D01*
X378881972Y-253439340D01*
X378962784Y-253520152D01*
X379097471Y-253600964D01*
X379178284Y-253627902D01*
X379286033Y-253627902D01*
X379393783Y-253574027D01*
X379447658Y-253520152D01*
X379501532Y-253412402D01*
X379501532Y-253358528D01*
X379312971Y-253169966D01*
X379205221Y-253277715D01*
X379797844Y-253169966D02*
X379232158Y-252604280D01*
X379447658Y-252388781D01*
X379528470Y-252361844D01*
X379582345Y-252361844D01*
X379663157Y-252388781D01*
X379743969Y-252469593D01*
X379770906Y-252550406D01*
X379770906Y-252604280D01*
X379743969Y-252685093D01*
X379528470Y-252900592D01*
X380659841Y-252307969D02*
X380336592Y-252631218D01*
X380498216Y-252469593D02*
X379932531Y-251903908D01*
X379959468Y-252038595D01*
X379959468Y-252146345D01*
X379932531Y-252227157D01*
X380282717Y-251553722D02*
X380632903Y-251203536D01*
X380659841Y-251607597D01*
X380740653Y-251526784D01*
X380821465Y-251499847D01*
X380875340Y-251499847D01*
X380956152Y-251526784D01*
X381090839Y-251661471D01*
X381117776Y-251742284D01*
X381117776Y-251796158D01*
X381090839Y-251876971D01*
X380929215Y-252038595D01*
X380848402Y-252065532D01*
X380794528Y-252065532D01*
X378843722Y-250360592D02*
X378762910Y-250387529D01*
X378682097Y-250468341D01*
X378628223Y-250576091D01*
X378628223Y-250683841D01*
X378655160Y-250764653D01*
X378735972Y-250899340D01*
X378816784Y-250980152D01*
X378951471Y-251060964D01*
X379032284Y-251087902D01*
X379140033Y-251087902D01*
X379247783Y-251034027D01*
X379301658Y-250980152D01*
X379355532Y-250872402D01*
X379355532Y-250818528D01*
X379166971Y-250629966D01*
X379059221Y-250737715D01*
X379651844Y-250629966D02*
X379086158Y-250064280D01*
X379301658Y-249848781D01*
X379382470Y-249821844D01*
X379436345Y-249821844D01*
X379517157Y-249848781D01*
X379597969Y-249929593D01*
X379624906Y-250010406D01*
X379624906Y-250064280D01*
X379597969Y-250145093D01*
X379382470Y-250360592D01*
X380513841Y-249767969D02*
X380190592Y-250091218D01*
X380352216Y-249929593D02*
X379786531Y-249363908D01*
X379813468Y-249498595D01*
X379813468Y-249606345D01*
X379786531Y-249687157D01*
X380217529Y-249040659D02*
X380217529Y-248986784D01*
X380244467Y-248905972D01*
X380379154Y-248771285D01*
X380459966Y-248744348D01*
X380513841Y-248744348D01*
X380594653Y-248771285D01*
X380648528Y-248825160D01*
X380702402Y-248932910D01*
X380702402Y-249579407D01*
X381052589Y-249229221D01*
X378843722Y-247820592D02*
X378762910Y-247847529D01*
X378682097Y-247928341D01*
X378628223Y-248036091D01*
X378628223Y-248143841D01*
X378655160Y-248224653D01*
X378735972Y-248359340D01*
X378816784Y-248440152D01*
X378951471Y-248520964D01*
X379032284Y-248547902D01*
X379140033Y-248547902D01*
X379247783Y-248494027D01*
X379301658Y-248440152D01*
X379355532Y-248332402D01*
X379355532Y-248278528D01*
X379166971Y-248089966D01*
X379059221Y-248197715D01*
X379651844Y-248089966D02*
X379086158Y-247524280D01*
X379301658Y-247308781D01*
X379382470Y-247281844D01*
X379436345Y-247281844D01*
X379517157Y-247308781D01*
X379597969Y-247389593D01*
X379624906Y-247470406D01*
X379624906Y-247524280D01*
X379597969Y-247605093D01*
X379382470Y-247820592D01*
X380513841Y-247227969D02*
X380190592Y-247551218D01*
X380352216Y-247389593D02*
X379786531Y-246823908D01*
X379813468Y-246958595D01*
X379813468Y-247066345D01*
X379786531Y-247147157D01*
X381052589Y-246689221D02*
X380729340Y-247012470D01*
X380890964Y-246850845D02*
X380325279Y-246285160D01*
X380352216Y-246419847D01*
X380352216Y-246527597D01*
X380325279Y-246608409D01*
X378989722Y-245280592D02*
X378908910Y-245307529D01*
X378828097Y-245388341D01*
X378774223Y-245496091D01*
X378774223Y-245603841D01*
X378801160Y-245684653D01*
X378881972Y-245819340D01*
X378962784Y-245900152D01*
X379097471Y-245980964D01*
X379178284Y-246007902D01*
X379286033Y-246007902D01*
X379393783Y-245954027D01*
X379447658Y-245900152D01*
X379501532Y-245792402D01*
X379501532Y-245738528D01*
X379312971Y-245549966D01*
X379205221Y-245657715D01*
X379797844Y-245549966D02*
X379232158Y-244984280D01*
X379447658Y-244768781D01*
X379528470Y-244741844D01*
X379582345Y-244741844D01*
X379663157Y-244768781D01*
X379743969Y-244849593D01*
X379770906Y-244930406D01*
X379770906Y-244984280D01*
X379743969Y-245065093D01*
X379528470Y-245280592D01*
X380659841Y-244687969D02*
X380336592Y-245011218D01*
X380498216Y-244849593D02*
X379932531Y-244283908D01*
X379959468Y-244418595D01*
X379959468Y-244526345D01*
X379932531Y-244607157D01*
X380444341Y-243772097D02*
X380498216Y-243718223D01*
X380579028Y-243691285D01*
X380632903Y-243691285D01*
X380713715Y-243718223D01*
X380848402Y-243799035D01*
X380983089Y-243933722D01*
X381063902Y-244068409D01*
X381090839Y-244149221D01*
X381090839Y-244203096D01*
X381063902Y-244283908D01*
X381010027Y-244337783D01*
X380929215Y-244364720D01*
X380875340Y-244364720D01*
X380794528Y-244337783D01*
X380659841Y-244256971D01*
X380525154Y-244122284D01*
X380444341Y-243987597D01*
X380417404Y-243906784D01*
X380417404Y-243852910D01*
X380444341Y-243772097D01*
X379513096Y-239931218D02*
X379432284Y-239958155D01*
X379351471Y-240038967D01*
X379297597Y-240146717D01*
X379297597Y-240254467D01*
X379324534Y-240335279D01*
X379405346Y-240469966D01*
X379486158Y-240550778D01*
X379620845Y-240631590D01*
X379701658Y-240658528D01*
X379809407Y-240658528D01*
X379917157Y-240604653D01*
X379971032Y-240550778D01*
X380024906Y-240443028D01*
X380024906Y-240389154D01*
X379836345Y-240200592D01*
X379728595Y-240308341D01*
X380321218Y-240200592D02*
X379755532Y-239634906D01*
X379971032Y-239419407D01*
X380051844Y-239392470D01*
X380105719Y-239392470D01*
X380186531Y-239419407D01*
X380267343Y-239500219D01*
X380294280Y-239581032D01*
X380294280Y-239634906D01*
X380267343Y-239715719D01*
X380051844Y-239931218D01*
X380913841Y-239607969D02*
X381021590Y-239500219D01*
X381048528Y-239419407D01*
X381048528Y-239365532D01*
X381021590Y-239230845D01*
X380940778Y-239096158D01*
X380725279Y-238880659D01*
X380644467Y-238853722D01*
X380590592Y-238853722D01*
X380509780Y-238880659D01*
X380402030Y-238988409D01*
X380375093Y-239069221D01*
X380375093Y-239123096D01*
X380402030Y-239203908D01*
X380536717Y-239338595D01*
X380617529Y-239365532D01*
X380671404Y-239365532D01*
X380752216Y-239338595D01*
X380859966Y-239230845D01*
X380886903Y-239150033D01*
X380886903Y-239096158D01*
X380859966Y-239015346D01*
X379513096Y-237391218D02*
X379432284Y-237418155D01*
X379351471Y-237498967D01*
X379297597Y-237606717D01*
X379297597Y-237714467D01*
X379324534Y-237795279D01*
X379405346Y-237929966D01*
X379486158Y-238010778D01*
X379620845Y-238091590D01*
X379701658Y-238118528D01*
X379809407Y-238118528D01*
X379917157Y-238064653D01*
X379971032Y-238010778D01*
X380024906Y-237903028D01*
X380024906Y-237849154D01*
X379836345Y-237660592D01*
X379728595Y-237768341D01*
X380321218Y-237660592D02*
X379755532Y-237094906D01*
X379971032Y-236879407D01*
X380051844Y-236852470D01*
X380105719Y-236852470D01*
X380186531Y-236879407D01*
X380267343Y-236960219D01*
X380294280Y-237041032D01*
X380294280Y-237094906D01*
X380267343Y-237175719D01*
X380051844Y-237391218D01*
X380644467Y-236690845D02*
X380563654Y-236717783D01*
X380509780Y-236717783D01*
X380428967Y-236690845D01*
X380402030Y-236663908D01*
X380375093Y-236583096D01*
X380375093Y-236529221D01*
X380402030Y-236448409D01*
X380509780Y-236340659D01*
X380590592Y-236313722D01*
X380644467Y-236313722D01*
X380725279Y-236340659D01*
X380752216Y-236367597D01*
X380779154Y-236448409D01*
X380779154Y-236502284D01*
X380752216Y-236583096D01*
X380644467Y-236690845D01*
X380617529Y-236771658D01*
X380617529Y-236825532D01*
X380644467Y-236906345D01*
X380752216Y-237014094D01*
X380833028Y-237041032D01*
X380886903Y-237041032D01*
X380967715Y-237014094D01*
X381075465Y-236906345D01*
X381102402Y-236825532D01*
X381102402Y-236771658D01*
X381075465Y-236690845D01*
X380967715Y-236583096D01*
X380886903Y-236556158D01*
X380833028Y-236556158D01*
X380752216Y-236583096D01*
X379613096Y-234821218D02*
X379532284Y-234848155D01*
X379451471Y-234928967D01*
X379397597Y-235036717D01*
X379397597Y-235144467D01*
X379424534Y-235225279D01*
X379505346Y-235359966D01*
X379586158Y-235440778D01*
X379720845Y-235521590D01*
X379801658Y-235548528D01*
X379909407Y-235548528D01*
X380017157Y-235494653D01*
X380071032Y-235440778D01*
X380124906Y-235333028D01*
X380124906Y-235279154D01*
X379936345Y-235090592D01*
X379828595Y-235198341D01*
X380421218Y-235090592D02*
X379855532Y-234524906D01*
X380071032Y-234309407D01*
X380151844Y-234282470D01*
X380205719Y-234282470D01*
X380286531Y-234309407D01*
X380367343Y-234390219D01*
X380394280Y-234471032D01*
X380394280Y-234524906D01*
X380367343Y-234605719D01*
X380151844Y-234821218D01*
X380367343Y-234013096D02*
X380744467Y-233635972D01*
X381067715Y-234444094D01*
X379513096Y-232311218D02*
X379432284Y-232338155D01*
X379351471Y-232418967D01*
X379297597Y-232526717D01*
X379297597Y-232634467D01*
X379324534Y-232715279D01*
X379405346Y-232849966D01*
X379486158Y-232930778D01*
X379620845Y-233011590D01*
X379701658Y-233038528D01*
X379809407Y-233038528D01*
X379917157Y-232984653D01*
X379971032Y-232930778D01*
X380024906Y-232823028D01*
X380024906Y-232769154D01*
X379836345Y-232580592D01*
X379728595Y-232688341D01*
X380321218Y-232580592D02*
X379755532Y-232014906D01*
X379971032Y-231799407D01*
X380051844Y-231772470D01*
X380105719Y-231772470D01*
X380186531Y-231799407D01*
X380267343Y-231880219D01*
X380294280Y-231961032D01*
X380294280Y-232014906D01*
X380267343Y-232095719D01*
X380051844Y-232311218D01*
X380563654Y-231206784D02*
X380455905Y-231314534D01*
X380428967Y-231395346D01*
X380428967Y-231449221D01*
X380455905Y-231583908D01*
X380536717Y-231718595D01*
X380752216Y-231934094D01*
X380833028Y-231961032D01*
X380886903Y-231961032D01*
X380967715Y-231934094D01*
X381075465Y-231826345D01*
X381102402Y-231745532D01*
X381102402Y-231691658D01*
X381075465Y-231610845D01*
X380940778Y-231476158D01*
X380859966Y-231449221D01*
X380806091Y-231449221D01*
X380725279Y-231476158D01*
X380617529Y-231583908D01*
X380590592Y-231664720D01*
X380590592Y-231718595D01*
X380617529Y-231799407D01*
X379513096Y-227231218D02*
X379432284Y-227258155D01*
X379351471Y-227338967D01*
X379297597Y-227446717D01*
X379297597Y-227554467D01*
X379324534Y-227635279D01*
X379405346Y-227769966D01*
X379486158Y-227850778D01*
X379620845Y-227931590D01*
X379701658Y-227958528D01*
X379809407Y-227958528D01*
X379917157Y-227904653D01*
X379971032Y-227850778D01*
X380024906Y-227743028D01*
X380024906Y-227689154D01*
X379836345Y-227500592D01*
X379728595Y-227608341D01*
X380321218Y-227500592D02*
X379755532Y-226934906D01*
X379971032Y-226719407D01*
X380051844Y-226692470D01*
X380105719Y-226692470D01*
X380186531Y-226719407D01*
X380267343Y-226800219D01*
X380294280Y-226881032D01*
X380294280Y-226934906D01*
X380267343Y-227015719D01*
X380051844Y-227231218D01*
X380590592Y-226099847D02*
X380321218Y-226369221D01*
X380563654Y-226665532D01*
X380563654Y-226611658D01*
X380590592Y-226530845D01*
X380725279Y-226396158D01*
X380806091Y-226369221D01*
X380859966Y-226369221D01*
X380940778Y-226396158D01*
X381075465Y-226530845D01*
X381102402Y-226611658D01*
X381102402Y-226665532D01*
X381075465Y-226746345D01*
X380940778Y-226881032D01*
X380859966Y-226907969D01*
X380806091Y-226907969D01*
X379513096Y-224691218D02*
X379432284Y-224718155D01*
X379351471Y-224798967D01*
X379297597Y-224906717D01*
X379297597Y-225014467D01*
X379324534Y-225095279D01*
X379405346Y-225229966D01*
X379486158Y-225310778D01*
X379620845Y-225391590D01*
X379701658Y-225418528D01*
X379809407Y-225418528D01*
X379917157Y-225364653D01*
X379971032Y-225310778D01*
X380024906Y-225203028D01*
X380024906Y-225149154D01*
X379836345Y-224960592D01*
X379728595Y-225068341D01*
X380321218Y-224960592D02*
X379755532Y-224394906D01*
X379971032Y-224179407D01*
X380051844Y-224152470D01*
X380105719Y-224152470D01*
X380186531Y-224179407D01*
X380267343Y-224260219D01*
X380294280Y-224341032D01*
X380294280Y-224394906D01*
X380267343Y-224475719D01*
X380051844Y-224691218D01*
X380752216Y-223775346D02*
X381129340Y-224152470D01*
X380402030Y-223694534D02*
X380671404Y-224233282D01*
X381021590Y-223883096D01*
X379513096Y-222151218D02*
X379432284Y-222178155D01*
X379351471Y-222258967D01*
X379297597Y-222366717D01*
X379297597Y-222474467D01*
X379324534Y-222555279D01*
X379405346Y-222689966D01*
X379486158Y-222770778D01*
X379620845Y-222851590D01*
X379701658Y-222878528D01*
X379809407Y-222878528D01*
X379917157Y-222824653D01*
X379971032Y-222770778D01*
X380024906Y-222663028D01*
X380024906Y-222609154D01*
X379836345Y-222420592D01*
X379728595Y-222528341D01*
X380321218Y-222420592D02*
X379755532Y-221854906D01*
X379971032Y-221639407D01*
X380051844Y-221612470D01*
X380105719Y-221612470D01*
X380186531Y-221639407D01*
X380267343Y-221720219D01*
X380294280Y-221801032D01*
X380294280Y-221854906D01*
X380267343Y-221935719D01*
X380051844Y-222151218D01*
X380267343Y-221343096D02*
X380617529Y-220992910D01*
X380644467Y-221396971D01*
X380725279Y-221316158D01*
X380806091Y-221289221D01*
X380859966Y-221289221D01*
X380940778Y-221316158D01*
X381075465Y-221450845D01*
X381102402Y-221531658D01*
X381102402Y-221585532D01*
X381075465Y-221666345D01*
X380913841Y-221827969D01*
X380833028Y-221854906D01*
X380779154Y-221854906D01*
X379513096Y-211991218D02*
X379432284Y-212018155D01*
X379351471Y-212098967D01*
X379297597Y-212206717D01*
X379297597Y-212314467D01*
X379324534Y-212395279D01*
X379405346Y-212529966D01*
X379486158Y-212610778D01*
X379620845Y-212691590D01*
X379701658Y-212718528D01*
X379809407Y-212718528D01*
X379917157Y-212664653D01*
X379971032Y-212610778D01*
X380024906Y-212503028D01*
X380024906Y-212449154D01*
X379836345Y-212260592D01*
X379728595Y-212368341D01*
X380321218Y-212260592D02*
X379755532Y-211694906D01*
X379971032Y-211479407D01*
X380051844Y-211452470D01*
X380105719Y-211452470D01*
X380186531Y-211479407D01*
X380267343Y-211560219D01*
X380294280Y-211641032D01*
X380294280Y-211694906D01*
X380267343Y-211775719D01*
X380051844Y-211991218D01*
X380428967Y-211021471D02*
X380482842Y-210967597D01*
X380563654Y-210940659D01*
X380617529Y-210940659D01*
X380698341Y-210967597D01*
X380833028Y-211048409D01*
X380967715Y-211183096D01*
X381048528Y-211317783D01*
X381075465Y-211398595D01*
X381075465Y-211452470D01*
X381048528Y-211533282D01*
X380994653Y-211587157D01*
X380913841Y-211614094D01*
X380859966Y-211614094D01*
X380779154Y-211587157D01*
X380644467Y-211506345D01*
X380509780Y-211371658D01*
X380428967Y-211236971D01*
X380402030Y-211156158D01*
X380402030Y-211102284D01*
X380428967Y-211021471D01*
X379413096Y-219611218D02*
X379332284Y-219638155D01*
X379251471Y-219718967D01*
X379197597Y-219826717D01*
X379197597Y-219934467D01*
X379224534Y-220015279D01*
X379305346Y-220149966D01*
X379386158Y-220230778D01*
X379520845Y-220311590D01*
X379601658Y-220338528D01*
X379709407Y-220338528D01*
X379817157Y-220284653D01*
X379871032Y-220230778D01*
X379924906Y-220123028D01*
X379924906Y-220069154D01*
X379736345Y-219880592D01*
X379628595Y-219988341D01*
X380221218Y-219880592D02*
X379655532Y-219314906D01*
X379871032Y-219099407D01*
X379951844Y-219072470D01*
X380005719Y-219072470D01*
X380086531Y-219099407D01*
X380167343Y-219180219D01*
X380194280Y-219261032D01*
X380194280Y-219314906D01*
X380167343Y-219395719D01*
X379951844Y-219611218D01*
X380248155Y-218830033D02*
X380248155Y-218776158D01*
X380275093Y-218695346D01*
X380409780Y-218560659D01*
X380490592Y-218533722D01*
X380544467Y-218533722D01*
X380625279Y-218560659D01*
X380679154Y-218614534D01*
X380733028Y-218722284D01*
X380733028Y-219368781D01*
X381083215Y-219018595D01*
X379413096Y-214521218D02*
X379332284Y-214548155D01*
X379251471Y-214628967D01*
X379197597Y-214736717D01*
X379197597Y-214844467D01*
X379224534Y-214925279D01*
X379305346Y-215059966D01*
X379386158Y-215140778D01*
X379520845Y-215221590D01*
X379601658Y-215248528D01*
X379709407Y-215248528D01*
X379817157Y-215194653D01*
X379871032Y-215140778D01*
X379924906Y-215033028D01*
X379924906Y-214979154D01*
X379736345Y-214790592D01*
X379628595Y-214898341D01*
X380221218Y-214790592D02*
X379655532Y-214224906D01*
X379871032Y-214009407D01*
X379951844Y-213982470D01*
X380005719Y-213982470D01*
X380086531Y-214009407D01*
X380167343Y-214090219D01*
X380194280Y-214171032D01*
X380194280Y-214224906D01*
X380167343Y-214305719D01*
X379951844Y-214521218D01*
X381083215Y-213928595D02*
X380759966Y-214251844D01*
X380921590Y-214090219D02*
X380355905Y-213524534D01*
X380382842Y-213659221D01*
X380382842Y-213766971D01*
X380355905Y-213847783D01*
X431546666Y-268094761D02*
X431689523Y-268142380D01*
X431927619Y-268142380D01*
X432022857Y-268094761D01*
X432070476Y-268047142D01*
X432118095Y-267951904D01*
X432118095Y-267856666D01*
X432070476Y-267761428D01*
X432022857Y-267713809D01*
X431927619Y-267666190D01*
X431737142Y-267618571D01*
X431641904Y-267570952D01*
X431594285Y-267523333D01*
X431546666Y-267428095D01*
X431546666Y-267332857D01*
X431594285Y-267237619D01*
X431641904Y-267190000D01*
X431737142Y-267142380D01*
X431975238Y-267142380D01*
X432118095Y-267190000D01*
X432451428Y-267142380D02*
X432689523Y-268142380D01*
X432880000Y-267428095D01*
X433070476Y-268142380D01*
X433308571Y-267142380D01*
X434118095Y-267475714D02*
X434118095Y-268142380D01*
X433880000Y-267094761D02*
X433641904Y-267809047D01*
X434260952Y-267809047D01*
X431546666Y-252854761D02*
X431689523Y-252902380D01*
X431927619Y-252902380D01*
X432022857Y-252854761D01*
X432070476Y-252807142D01*
X432118095Y-252711904D01*
X432118095Y-252616666D01*
X432070476Y-252521428D01*
X432022857Y-252473809D01*
X431927619Y-252426190D01*
X431737142Y-252378571D01*
X431641904Y-252330952D01*
X431594285Y-252283333D01*
X431546666Y-252188095D01*
X431546666Y-252092857D01*
X431594285Y-251997619D01*
X431641904Y-251950000D01*
X431737142Y-251902380D01*
X431975238Y-251902380D01*
X432118095Y-251950000D01*
X432451428Y-251902380D02*
X432689523Y-252902380D01*
X432880000Y-252188095D01*
X433070476Y-252902380D01*
X433308571Y-251902380D01*
X433594285Y-251902380D02*
X434213333Y-251902380D01*
X433880000Y-252283333D01*
X434022857Y-252283333D01*
X434118095Y-252330952D01*
X434165714Y-252378571D01*
X434213333Y-252473809D01*
X434213333Y-252711904D01*
X434165714Y-252807142D01*
X434118095Y-252854761D01*
X434022857Y-252902380D01*
X433737142Y-252902380D01*
X433641904Y-252854761D01*
X433594285Y-252807142D01*
X431546666Y-222374761D02*
X431689523Y-222422380D01*
X431927619Y-222422380D01*
X432022857Y-222374761D01*
X432070476Y-222327142D01*
X432118095Y-222231904D01*
X432118095Y-222136666D01*
X432070476Y-222041428D01*
X432022857Y-221993809D01*
X431927619Y-221946190D01*
X431737142Y-221898571D01*
X431641904Y-221850952D01*
X431594285Y-221803333D01*
X431546666Y-221708095D01*
X431546666Y-221612857D01*
X431594285Y-221517619D01*
X431641904Y-221470000D01*
X431737142Y-221422380D01*
X431975238Y-221422380D01*
X432118095Y-221470000D01*
X432451428Y-221422380D02*
X432689523Y-222422380D01*
X432880000Y-221708095D01*
X433070476Y-222422380D01*
X433308571Y-221422380D01*
X434213333Y-222422380D02*
X433641904Y-222422380D01*
X433927619Y-222422380D02*
X433927619Y-221422380D01*
X433832380Y-221565238D01*
X433737142Y-221660476D01*
X433641904Y-221708095D01*
X427061333Y-198802380D02*
X426728000Y-198326190D01*
X426489904Y-198802380D02*
X426489904Y-197802380D01*
X426870857Y-197802380D01*
X426966095Y-197850000D01*
X427013714Y-197897619D01*
X427061333Y-197992857D01*
X427061333Y-198135714D01*
X427013714Y-198230952D01*
X426966095Y-198278571D01*
X426870857Y-198326190D01*
X426489904Y-198326190D01*
X427394666Y-197802380D02*
X428061333Y-197802380D01*
X427632761Y-198802380D01*
X429855333Y-202802380D02*
X429522000Y-202326190D01*
X429283904Y-202802380D02*
X429283904Y-201802380D01*
X429664857Y-201802380D01*
X429760095Y-201850000D01*
X429807714Y-201897619D01*
X429855333Y-201992857D01*
X429855333Y-202135714D01*
X429807714Y-202230952D01*
X429760095Y-202278571D01*
X429664857Y-202326190D01*
X429283904Y-202326190D01*
X430760095Y-201802380D02*
X430283904Y-201802380D01*
X430236285Y-202278571D01*
X430283904Y-202230952D01*
X430379142Y-202183333D01*
X430617238Y-202183333D01*
X430712476Y-202230952D01*
X430760095Y-202278571D01*
X430807714Y-202373809D01*
X430807714Y-202611904D01*
X430760095Y-202707142D01*
X430712476Y-202754761D01*
X430617238Y-202802380D01*
X430379142Y-202802380D01*
X430283904Y-202754761D01*
X430236285Y-202707142D01*
X419895833Y-271090380D02*
X419562500Y-270614190D01*
X419324404Y-271090380D02*
X419324404Y-270090380D01*
X419705357Y-270090380D01*
X419800595Y-270138000D01*
X419848214Y-270185619D01*
X419895833Y-270280857D01*
X419895833Y-270423714D01*
X419848214Y-270518952D01*
X419800595Y-270566571D01*
X419705357Y-270614190D01*
X419324404Y-270614190D01*
X420752976Y-270423714D02*
X420752976Y-271090380D01*
X420514880Y-270042761D02*
X420276785Y-270757047D01*
X420895833Y-270757047D01*
X419833333Y-255850380D02*
X419500000Y-255374190D01*
X419261904Y-255850380D02*
X419261904Y-254850380D01*
X419642857Y-254850380D01*
X419738095Y-254898000D01*
X419785714Y-254945619D01*
X419833333Y-255040857D01*
X419833333Y-255183714D01*
X419785714Y-255278952D01*
X419738095Y-255326571D01*
X419642857Y-255374190D01*
X419261904Y-255374190D01*
X420166666Y-254850380D02*
X420785714Y-254850380D01*
X420452380Y-255231333D01*
X420595238Y-255231333D01*
X420690476Y-255278952D01*
X420738095Y-255326571D01*
X420785714Y-255421809D01*
X420785714Y-255659904D01*
X420738095Y-255755142D01*
X420690476Y-255802761D01*
X420595238Y-255850380D01*
X420309523Y-255850380D01*
X420214285Y-255802761D01*
X420166666Y-255755142D01*
X419895833Y-240610380D02*
X419562500Y-240134190D01*
X419324404Y-240610380D02*
X419324404Y-239610380D01*
X419705357Y-239610380D01*
X419800595Y-239658000D01*
X419848214Y-239705619D01*
X419895833Y-239800857D01*
X419895833Y-239943714D01*
X419848214Y-240038952D01*
X419800595Y-240086571D01*
X419705357Y-240134190D01*
X419324404Y-240134190D01*
X420276785Y-239705619D02*
X420324404Y-239658000D01*
X420419642Y-239610380D01*
X420657738Y-239610380D01*
X420752976Y-239658000D01*
X420800595Y-239705619D01*
X420848214Y-239800857D01*
X420848214Y-239896095D01*
X420800595Y-240038952D01*
X420229166Y-240610380D01*
X420848214Y-240610380D01*
X420027833Y-225370380D02*
X419694500Y-224894190D01*
X419456404Y-225370380D02*
X419456404Y-224370380D01*
X419837357Y-224370380D01*
X419932595Y-224418000D01*
X419980214Y-224465619D01*
X420027833Y-224560857D01*
X420027833Y-224703714D01*
X419980214Y-224798952D01*
X419932595Y-224846571D01*
X419837357Y-224894190D01*
X419456404Y-224894190D01*
X420980214Y-225370380D02*
X420408785Y-225370380D01*
X420694500Y-225370380D02*
X420694500Y-224370380D01*
X420599261Y-224513238D01*
X420504023Y-224608476D01*
X420408785Y-224656095D01*
X426386666Y-189444380D02*
X426386666Y-190158666D01*
X426339047Y-190301523D01*
X426243809Y-190396761D01*
X426100952Y-190444380D01*
X426005714Y-190444380D01*
X426767619Y-189444380D02*
X427386666Y-189444380D01*
X427053333Y-189825333D01*
X427196190Y-189825333D01*
X427291428Y-189872952D01*
X427339047Y-189920571D01*
X427386666Y-190015809D01*
X427386666Y-190253904D01*
X427339047Y-190349142D01*
X427291428Y-190396761D01*
X427196190Y-190444380D01*
X426910476Y-190444380D01*
X426815238Y-190396761D01*
X426767619Y-190349142D01*
X335026095Y-243546380D02*
X335026095Y-244355904D01*
X335073714Y-244451142D01*
X335121333Y-244498761D01*
X335216571Y-244546380D01*
X335407047Y-244546380D01*
X335502285Y-244498761D01*
X335549904Y-244451142D01*
X335597523Y-244355904D01*
X335597523Y-243546380D01*
X336026095Y-243641619D02*
X336073714Y-243594000D01*
X336168952Y-243546380D01*
X336407047Y-243546380D01*
X336502285Y-243594000D01*
X336549904Y-243641619D01*
X336597523Y-243736857D01*
X336597523Y-243832095D01*
X336549904Y-243974952D01*
X335978476Y-244546380D01*
X336597523Y-244546380D01*
X335026095Y-228560380D02*
X335026095Y-229369904D01*
X335073714Y-229465142D01*
X335121333Y-229512761D01*
X335216571Y-229560380D01*
X335407047Y-229560380D01*
X335502285Y-229512761D01*
X335549904Y-229465142D01*
X335597523Y-229369904D01*
X335597523Y-228560380D01*
X336597523Y-229560380D02*
X336026095Y-229560380D01*
X336311809Y-229560380D02*
X336311809Y-228560380D01*
X336216571Y-228703238D01*
X336121333Y-228798476D01*
X336026095Y-228846095D01*
M02*
