M48
; DRILL file {KiCad 5.1.5+dfsg1-2build2} date Thu 10 Jun 2021 21:02:58 BST
; FORMAT={-:-/ absolute / inch / decimal}
; #@! TF.CreationDate,2021-06-10T21:02:58+01:00
; #@! TF.GenerationSoftware,Kicad,Pcbnew,5.1.5+dfsg1-2build2
; #@! TF.FileFunction,Plated,1,2,PTH
FMAT,2
INCH
T1C0.0157
T2C0.0394
T3C0.0402
T4C0.0512
%
G90
G05
T1
X13.18Y-9.13
X13.18Y-9.4941
X13.35Y-9.29
X13.4Y-9.09
X13.44Y-9.53
X13.45Y-9.21
X13.47Y-9.07
X13.6589Y-9.124
X13.66Y-9.5
X13.67Y-9.67
X13.8Y-9.43
X14.31Y-8.93
X14.31Y-9.13
X14.36Y-9.58
X14.37Y-9.1437
X14.42Y-8.9902
X14.42Y-9.55
X14.45Y-9.59
X14.48Y-8.96
X14.49Y-9.02
X14.49Y-9.34
X14.52Y-9.05
X14.52Y-9.52
X14.53Y-9.44
X14.5482Y-9.6628
X14.5528Y-9.0718
X14.57Y-9.63
X14.59Y-9.67
X14.5985Y-9.09
X14.64Y-9.04
X14.64Y-9.4985
X14.66Y-9.54
X14.7382Y-9.47
X14.7385Y-8.9285
X14.75Y-9.29
X14.77Y-8.14
X14.78Y-8.65
X14.78Y-9.6
X14.82Y-9.19
X14.82Y-9.94
X14.83Y-9.04
X14.8485Y-9.2228
X14.85Y-7.98
X14.85Y-10.14
X14.87Y-8.84
X14.87Y-8.99
X14.88Y-9.26
X14.88Y-10.24
X14.9Y-9.17
X14.91Y-8.75
X14.91Y-8.96
X15.49Y-8.94
X15.52Y-9.74
X15.5706Y-10.44
X15.6098Y-9.8202
X15.61Y-10.44
X15.62Y-10.62
X15.67Y-10.4
X15.7Y-10.74
X15.74Y-8.12
X15.74Y-10.46
X15.74Y-10.64
X15.78Y-10.83
X15.83Y-10.4
X15.86Y-10.76
X15.9Y-10.4
X15.91Y-10.44
X15.9218Y-10.3672
X15.98Y-7.92
X15.98Y-8.4
X15.98Y-10.54
X16.03Y-9.44
X16.07Y-9.64
X16.16Y-7.88
X16.2Y-10.14
X16.2287Y-10.2413
X16.27Y-8.04
X16.42Y-8.74
X16.42Y-8.92
X16.43Y-9.53
X16.43Y-10.12
X16.43Y-10.72
X16.44Y-8.55
X16.65Y-9.32
X16.67Y-9.26
X16.8Y-8.2
X16.92Y-8.4
T2
X15.48Y-7.88
X15.48Y-7.98
X12.7346Y-8.9575
X12.7346Y-9.0575
X12.7346Y-9.1575
X12.7346Y-9.2575
X12.7346Y-9.3575
X12.7346Y-9.4575
X12.7346Y-9.5575
X12.7346Y-9.6575
X12.8346Y-8.9606
X12.8346Y-9.0575
X12.8346Y-9.1575
X12.8346Y-9.2575
X12.8346Y-9.3575
X12.8346Y-9.4575
X12.8346Y-9.5575
X12.8346Y-9.6575
X16.6685Y-7.6378
X16.7685Y-7.6378
X16.8685Y-7.6378
X16.9685Y-7.6378
T3
X15.1224Y-8.3413
X15.1224Y-8.4413
X15.1224Y-8.5413
X15.1224Y-8.6413
X15.1224Y-8.7413
X15.1224Y-8.8413
X15.1224Y-8.9413
X15.1224Y-9.0413
X15.1224Y-9.1413
X15.1224Y-9.2413
X15.1224Y-9.3413
X15.1224Y-9.4413
X15.1224Y-9.5413
X15.1224Y-9.6413
X15.1224Y-9.7413
X15.1224Y-9.8413
X15.1224Y-9.9413
X15.1224Y-10.0413
X15.1224Y-10.1413
X15.1224Y-10.2413
X15.3724Y-10.2323
X15.4724Y-10.2323
X15.5724Y-10.2323
X15.8224Y-8.3413
X15.8224Y-8.4413
X15.8224Y-8.5413
X15.8224Y-8.6413
X15.8224Y-8.7413
X15.8224Y-8.8413
X15.8224Y-8.9413
X15.8224Y-9.0413
X15.8224Y-9.1413
X15.8224Y-9.2413
X15.8224Y-9.3413
X15.8224Y-9.4413
X15.8224Y-9.5413
X15.8224Y-9.6413
X15.8224Y-9.7413
X15.8224Y-9.8413
X15.8224Y-9.9413
X15.8224Y-10.0413
X15.8224Y-10.1413
X15.8224Y-10.2413
T4
X16.8031Y-8.9224
X16.8031Y-9.1193
X17.2953Y-8.9224
X17.2953Y-9.1193
X16.8031Y-9.5224
X16.8031Y-9.7193
X17.2953Y-9.5224
X17.2953Y-9.7193
X16.8031Y-10.7224
X16.8031Y-10.9193
X17.2953Y-10.7224
X17.2953Y-10.9193
X16.8031Y-10.1224
X16.8031Y-10.3193
X17.2953Y-10.1224
X17.2953Y-10.3193
T0
M30
