M48
; DRILL file {KiCad 5.1.5+dfsg1-2build2} date Sun 05 Sep 2021 22:16:51 BST
; FORMAT={-:-/ absolute / inch / decimal}
; #@! TF.CreationDate,2021-09-05T22:16:51+01:00
; #@! TF.GenerationSoftware,Kicad,Pcbnew,5.1.5+dfsg1-2build2
; #@! TF.FileFunction,Plated,1,2,PTH
FMAT,2
INCH
T1C0.0157
T2C0.0394
T3C0.0402
%
G90
G05
T1
X12.38Y-9.015
X12.38Y-9.66
X12.685Y-8.96
X12.69Y-9.575
X12.7135Y-9.0752
X12.72Y-9.515
X12.745Y-9.46
X12.75Y-9.205
X12.755Y-9.325
X12.76Y-9.61
X12.78Y-9.165
X12.795Y-9.4865
X12.8243Y-9.25
X12.825Y-9.45
X12.85Y-9.135
X12.855Y-9.225
X12.855Y-9.395
X12.915Y-9.015
X12.92Y-9.16
X12.99Y-9.38
X12.9902Y-9.0571
X12.998Y-9.4173
X13.02Y-9.5435
X13.0369Y-9.073
X13.2Y-9.615
X13.2205Y-9.0
X13.325Y-9.24
X13.34Y-9.09
X13.4252Y-9.0079
X13.62Y-9.305
X13.62Y-9.3711
X13.69Y-8.9222
X13.7Y-9.18
X13.878Y-9.1004
X13.9154Y-9.0531
X13.9213Y-9.0965
X14.0098Y-9.0138
X14.0157Y-9.2264
X14.0197Y-9.6201
X14.05Y-9.37
X14.08Y-9.025
X14.1083Y-8.9843
X14.1243Y-9.1434
X14.1732Y-9.1102
X14.1772Y-9.0157
X14.2677Y-9.0472
X14.46Y-9.67
X14.49Y-9.1865
X14.53Y-9.685
X14.5512Y-9.4646
X14.5512Y-9.6457
X14.5906Y-9.4409
X14.5984Y-9.6772
X14.6378Y-9.3177
X14.6457Y-9.4331
X14.71Y-10.49
X14.7323Y-9.6142
X14.7402Y-9.1388
X14.7559Y-10.2441
X14.7638Y-9.5669
X14.7638Y-10.1339
X14.8031Y-9.6457
X14.8031Y-9.8583
X14.811Y-9.5118
X14.8425Y-9.9213
X14.8504Y-9.2756
X14.8622Y-8.9567
X14.874Y-9.6457
X14.8757Y-9.3682
X14.8898Y-9.1969
X14.9016Y-8.9823
X14.9055Y-9.0315
X14.9213Y-9.3307
X14.94Y-9.2
X14.965Y-9.59
X14.9921Y-7.6299
X15.2047Y-7.5591
X15.2206Y-10.5356
X15.24Y-10.235
X15.2913Y-7.5827
X15.47Y-10.045
X15.5748Y-10.1575
X15.5827Y-7.5985
X15.61Y-8.24
X15.62Y-8.94
X15.62Y-10.625
X15.655Y-10.705
X15.695Y-8.32
X15.715Y-7.44
X15.73Y-10.085
X15.82Y-7.57
X15.92Y-8.035
X15.945Y-7.485
X16.02Y-10.14
X16.03Y-8.64
X16.04Y-8.26
X16.06Y-8.86
X16.08Y-7.53
X16.09Y-9.945
X16.09Y-10.5
X16.12Y-9.85
X16.135Y-10.4
X16.15Y-7.64
X16.15Y-9.34
X16.15Y-9.755
X16.16Y-10.325
X16.17Y-8.475
X16.19Y-10.795
X16.23Y-9.895
X16.23Y-10.84
X16.246Y-9.3591
X16.28Y-9.95
X16.29Y-9.315
X16.33Y-10.17
X16.335Y-9.285
X16.34Y-10.445
X16.3445Y-8.9252
X16.35Y-9.125
X16.3563Y-8.0866
X16.38Y-7.49
X16.39Y-9.905
X16.42Y-8.74
X16.42Y-8.92
X16.43Y-9.785
X16.435Y-7.42
X16.44Y-9.5161
X16.45Y-10.545
X16.455Y-10.59
X16.46Y-10.76
X16.51Y-10.1
X16.52Y-9.4591
X16.525Y-10.695
X16.525Y-10.9
X16.53Y-10.24
X16.55Y-10.585
X16.555Y-9.215
X16.5906Y-7.8307
X16.6Y-9.3591
X16.6Y-10.005
X16.605Y-9.445
X16.6289Y-9.3883
X16.63Y-9.315
X16.645Y-9.585
X16.6672Y-7.6378
X16.67Y-8.2
X16.695Y-9.38
X16.71Y-9.07
X16.71Y-9.31
X16.74Y-9.695
X16.745Y-9.29
X16.785Y-9.35
X16.785Y-9.565
X16.795Y-10.62
X16.8Y-10.445
X16.805Y-9.17
X16.805Y-9.26
X16.81Y-10.245
X16.8108Y-10.4829
X16.835Y-10.385
X16.84Y-9.125
X16.84Y-9.445
X16.8415Y-9.2434
X16.85Y-10.805
X16.855Y-10.43
X16.86Y-7.775
X16.87Y-9.0
X16.87Y-10.35
X16.89Y-9.9
X16.89Y-10.93
X16.91Y-9.625
X16.9435Y-10.1335
X16.945Y-10.285
X16.955Y-9.6
X16.955Y-9.805
X16.9615Y-9.45
X16.9829Y-10.4056
X16.99Y-9.25
X17.005Y-10.555
X17.005Y-10.645
X17.01Y-9.165
X17.015Y-10.105
X17.02Y-9.28
X17.025Y-9.32
X17.03Y-9.48
X17.0435Y-10.485
X17.045Y-9.735
X17.08Y-11.0
X17.09Y-9.26
X17.095Y-9.375
X17.095Y-10.36
X17.11Y-10.43
X17.11Y-10.67
X17.1181Y-10.5203
X17.13Y-9.075
X17.14Y-9.955
X17.155Y-10.2
X17.16Y-9.6715
X17.16Y-9.735
X17.18Y-8.925
X17.18Y-9.17
X17.1811Y-8.5413
X17.19Y-10.1285
X17.21Y-11.0
X17.215Y-10.745
X17.22Y-9.415
X17.2293Y-9.9057
X17.23Y-9.53
X17.2436Y-10.3757
X17.245Y-10.325
X17.25Y-10.505
X17.25Y-10.845
X17.285Y-9.63
X17.285Y-10.1
X17.285Y-10.76
X17.29Y-10.245
X17.295Y-10.36
X17.39Y-7.78
X17.4Y-8.535
T2
X17.4Y-10.1
X17.4Y-10.2
X17.4Y-10.3
X17.4Y-10.4
X17.4Y-10.5
X17.4Y-10.6
X17.4Y-10.7
X17.4Y-10.8
X17.4Y-10.9
X17.4Y-11.0
X13.3Y-9.65
X13.4Y-9.65
X15.8Y-11.0
X15.9Y-11.0
X16.0Y-11.0
X16.1Y-11.0
X16.2Y-11.0
X16.3Y-11.0
X14.8898Y-7.4252
X14.9898Y-7.4252
X15.0898Y-7.4252
X15.1898Y-7.4252
X15.2898Y-7.4252
X15.3898Y-7.4252
X14.8091Y-10.378
X14.8091Y-10.478
X14.8091Y-10.578
X14.8Y-11.0
X14.9Y-11.0
X15.0Y-11.0
X15.1Y-11.0
X15.2Y-11.0
X15.3Y-11.0
X15.4Y-11.0
X15.5Y-11.0
X15.6Y-11.0
X15.7Y-11.0
X14.8Y-10.8
X14.9Y-10.8
X15.0Y-10.8
X15.1Y-10.8
X15.2Y-10.8
X15.3Y-10.8
X15.4Y-10.8
X15.5Y-10.8
X15.6Y-10.8
X15.7Y-10.8
X12.47Y-8.9575
X12.47Y-9.0575
X12.47Y-9.1575
X12.47Y-9.2575
X12.47Y-9.3575
X12.47Y-9.4575
X12.47Y-9.5575
X12.47Y-9.6575
X12.57Y-8.9606
X12.57Y-9.0575
X12.57Y-9.1575
X12.57Y-9.2575
X12.57Y-9.3575
X12.57Y-9.4575
X12.57Y-9.5575
X12.57Y-9.6575
X15.8Y-11.1
X15.9Y-11.1
X16.0Y-11.1
X16.1Y-11.1
X16.2Y-11.1
X16.3Y-11.1
X17.2913Y-7.9094
X17.2913Y-8.0094
X17.2913Y-8.1094
X17.2913Y-8.2094
X14.8Y-11.1
X14.9Y-11.1
X15.0Y-11.1
X15.1Y-11.1
X15.2Y-11.1
X15.3Y-11.1
X15.4Y-11.1
X15.5Y-11.1
X15.6Y-11.1
X15.7Y-11.1
X16.7Y-9.9
X16.7Y-10.0
X16.7Y-10.1
X16.7Y-10.2
X16.7Y-10.3
X16.7Y-10.4
X16.7Y-10.5
X16.7Y-10.6
X16.7Y-10.7
X16.7Y-10.8
X16.7Y-10.9
X16.7Y-11.0
X14.8Y-10.9
X14.9Y-10.9
X15.0Y-10.9
X15.1Y-10.9
X15.2Y-10.9
X15.3Y-10.9
X15.4Y-10.9
X15.5Y-10.9
X15.6Y-10.9
X15.7Y-10.9
X17.4Y-9.0
X17.4Y-9.1
X17.4Y-9.2
X17.4Y-9.3
X17.4Y-9.4
X17.4Y-9.5
X17.4Y-9.6
X17.4Y-9.7
X17.4Y-9.8
X17.4Y-9.9
X15.785Y-10.41
X15.885Y-10.41
T3
X15.1224Y-8.3413
X15.1224Y-8.4413
X15.1224Y-8.5413
X15.1224Y-8.6413
X15.1224Y-8.7413
X15.1224Y-8.8413
X15.1224Y-8.9413
X15.1224Y-9.0413
X15.1224Y-9.1413
X15.1224Y-9.2413
X15.1224Y-9.3413
X15.1224Y-9.4413
X15.1224Y-9.5413
X15.1224Y-9.6413
X15.1224Y-9.7413
X15.1224Y-9.8413
X15.1224Y-9.9413
X15.1224Y-10.0413
X15.1224Y-10.1413
X15.1224Y-10.2413
X15.3724Y-10.2323
X15.4724Y-10.2323
X15.5724Y-10.2323
X15.8224Y-8.3413
X15.8224Y-8.4413
X15.8224Y-8.5413
X15.8224Y-8.6413
X15.8224Y-8.7413
X15.8224Y-8.8413
X15.8224Y-8.9413
X15.8224Y-9.0413
X15.8224Y-9.1413
X15.8224Y-9.2413
X15.8224Y-9.3413
X15.8224Y-9.4413
X15.8224Y-9.5413
X15.8224Y-9.6413
X15.8224Y-9.7413
X15.8224Y-9.8413
X15.8224Y-9.9413
X15.8224Y-10.0413
X15.8224Y-10.1413
X15.8224Y-10.2413
T0
M30
