G04 #@! TF.GenerationSoftware,KiCad,Pcbnew,5.1.5+dfsg1-2build2*
G04 #@! TF.CreationDate,2021-07-02T10:02:58+01:00*
G04 #@! TF.ProjectId,pak_breakout,70616b5f-6272-4656-916b-6f75742e6b69,rev?*
G04 #@! TF.SameCoordinates,Original*
G04 #@! TF.FileFunction,Paste,Bot*
G04 #@! TF.FilePolarity,Positive*
%FSLAX46Y46*%
G04 Gerber Fmt 4.6, Leading zero omitted, Abs format (unit mm)*
G04 Created by KiCad (PCBNEW 5.1.5+dfsg1-2build2) date 2021-07-02 10:02:58*
%MOMM*%
%LPD*%
G04 APERTURE LIST*
%ADD10C,0.100000*%
G04 APERTURE END LIST*
D10*
G36*
X339405142Y-228101174D02*
G01*
X339428803Y-228104684D01*
X339452007Y-228110496D01*
X339474529Y-228118554D01*
X339496153Y-228128782D01*
X339516670Y-228141079D01*
X339535883Y-228155329D01*
X339553607Y-228171393D01*
X339569671Y-228189117D01*
X339583921Y-228208330D01*
X339596218Y-228228847D01*
X339606446Y-228250471D01*
X339614504Y-228272993D01*
X339620316Y-228296197D01*
X339623826Y-228319858D01*
X339625000Y-228343750D01*
X339625000Y-229256250D01*
X339623826Y-229280142D01*
X339620316Y-229303803D01*
X339614504Y-229327007D01*
X339606446Y-229349529D01*
X339596218Y-229371153D01*
X339583921Y-229391670D01*
X339569671Y-229410883D01*
X339553607Y-229428607D01*
X339535883Y-229444671D01*
X339516670Y-229458921D01*
X339496153Y-229471218D01*
X339474529Y-229481446D01*
X339452007Y-229489504D01*
X339428803Y-229495316D01*
X339405142Y-229498826D01*
X339381250Y-229500000D01*
X338893750Y-229500000D01*
X338869858Y-229498826D01*
X338846197Y-229495316D01*
X338822993Y-229489504D01*
X338800471Y-229481446D01*
X338778847Y-229471218D01*
X338758330Y-229458921D01*
X338739117Y-229444671D01*
X338721393Y-229428607D01*
X338705329Y-229410883D01*
X338691079Y-229391670D01*
X338678782Y-229371153D01*
X338668554Y-229349529D01*
X338660496Y-229327007D01*
X338654684Y-229303803D01*
X338651174Y-229280142D01*
X338650000Y-229256250D01*
X338650000Y-228343750D01*
X338651174Y-228319858D01*
X338654684Y-228296197D01*
X338660496Y-228272993D01*
X338668554Y-228250471D01*
X338678782Y-228228847D01*
X338691079Y-228208330D01*
X338705329Y-228189117D01*
X338721393Y-228171393D01*
X338739117Y-228155329D01*
X338758330Y-228141079D01*
X338778847Y-228128782D01*
X338800471Y-228118554D01*
X338822993Y-228110496D01*
X338846197Y-228104684D01*
X338869858Y-228101174D01*
X338893750Y-228100000D01*
X339381250Y-228100000D01*
X339405142Y-228101174D01*
G37*
G36*
X337530142Y-228101174D02*
G01*
X337553803Y-228104684D01*
X337577007Y-228110496D01*
X337599529Y-228118554D01*
X337621153Y-228128782D01*
X337641670Y-228141079D01*
X337660883Y-228155329D01*
X337678607Y-228171393D01*
X337694671Y-228189117D01*
X337708921Y-228208330D01*
X337721218Y-228228847D01*
X337731446Y-228250471D01*
X337739504Y-228272993D01*
X337745316Y-228296197D01*
X337748826Y-228319858D01*
X337750000Y-228343750D01*
X337750000Y-229256250D01*
X337748826Y-229280142D01*
X337745316Y-229303803D01*
X337739504Y-229327007D01*
X337731446Y-229349529D01*
X337721218Y-229371153D01*
X337708921Y-229391670D01*
X337694671Y-229410883D01*
X337678607Y-229428607D01*
X337660883Y-229444671D01*
X337641670Y-229458921D01*
X337621153Y-229471218D01*
X337599529Y-229481446D01*
X337577007Y-229489504D01*
X337553803Y-229495316D01*
X337530142Y-229498826D01*
X337506250Y-229500000D01*
X337018750Y-229500000D01*
X336994858Y-229498826D01*
X336971197Y-229495316D01*
X336947993Y-229489504D01*
X336925471Y-229481446D01*
X336903847Y-229471218D01*
X336883330Y-229458921D01*
X336864117Y-229444671D01*
X336846393Y-229428607D01*
X336830329Y-229410883D01*
X336816079Y-229391670D01*
X336803782Y-229371153D01*
X336793554Y-229349529D01*
X336785496Y-229327007D01*
X336779684Y-229303803D01*
X336776174Y-229280142D01*
X336775000Y-229256250D01*
X336775000Y-228343750D01*
X336776174Y-228319858D01*
X336779684Y-228296197D01*
X336785496Y-228272993D01*
X336793554Y-228250471D01*
X336803782Y-228228847D01*
X336816079Y-228208330D01*
X336830329Y-228189117D01*
X336846393Y-228171393D01*
X336864117Y-228155329D01*
X336883330Y-228141079D01*
X336903847Y-228128782D01*
X336925471Y-228118554D01*
X336947993Y-228110496D01*
X336971197Y-228104684D01*
X336994858Y-228101174D01*
X337018750Y-228100000D01*
X337506250Y-228100000D01*
X337530142Y-228101174D01*
G37*
G36*
X401480142Y-272451174D02*
G01*
X401503803Y-272454684D01*
X401527007Y-272460496D01*
X401549529Y-272468554D01*
X401571153Y-272478782D01*
X401591670Y-272491079D01*
X401610883Y-272505329D01*
X401628607Y-272521393D01*
X401644671Y-272539117D01*
X401658921Y-272558330D01*
X401671218Y-272578847D01*
X401681446Y-272600471D01*
X401689504Y-272622993D01*
X401695316Y-272646197D01*
X401698826Y-272669858D01*
X401700000Y-272693750D01*
X401700000Y-273181250D01*
X401698826Y-273205142D01*
X401695316Y-273228803D01*
X401689504Y-273252007D01*
X401681446Y-273274529D01*
X401671218Y-273296153D01*
X401658921Y-273316670D01*
X401644671Y-273335883D01*
X401628607Y-273353607D01*
X401610883Y-273369671D01*
X401591670Y-273383921D01*
X401571153Y-273396218D01*
X401549529Y-273406446D01*
X401527007Y-273414504D01*
X401503803Y-273420316D01*
X401480142Y-273423826D01*
X401456250Y-273425000D01*
X400543750Y-273425000D01*
X400519858Y-273423826D01*
X400496197Y-273420316D01*
X400472993Y-273414504D01*
X400450471Y-273406446D01*
X400428847Y-273396218D01*
X400408330Y-273383921D01*
X400389117Y-273369671D01*
X400371393Y-273353607D01*
X400355329Y-273335883D01*
X400341079Y-273316670D01*
X400328782Y-273296153D01*
X400318554Y-273274529D01*
X400310496Y-273252007D01*
X400304684Y-273228803D01*
X400301174Y-273205142D01*
X400300000Y-273181250D01*
X400300000Y-272693750D01*
X400301174Y-272669858D01*
X400304684Y-272646197D01*
X400310496Y-272622993D01*
X400318554Y-272600471D01*
X400328782Y-272578847D01*
X400341079Y-272558330D01*
X400355329Y-272539117D01*
X400371393Y-272521393D01*
X400389117Y-272505329D01*
X400408330Y-272491079D01*
X400428847Y-272478782D01*
X400450471Y-272468554D01*
X400472993Y-272460496D01*
X400496197Y-272454684D01*
X400519858Y-272451174D01*
X400543750Y-272450000D01*
X401456250Y-272450000D01*
X401480142Y-272451174D01*
G37*
G36*
X401480142Y-270576174D02*
G01*
X401503803Y-270579684D01*
X401527007Y-270585496D01*
X401549529Y-270593554D01*
X401571153Y-270603782D01*
X401591670Y-270616079D01*
X401610883Y-270630329D01*
X401628607Y-270646393D01*
X401644671Y-270664117D01*
X401658921Y-270683330D01*
X401671218Y-270703847D01*
X401681446Y-270725471D01*
X401689504Y-270747993D01*
X401695316Y-270771197D01*
X401698826Y-270794858D01*
X401700000Y-270818750D01*
X401700000Y-271306250D01*
X401698826Y-271330142D01*
X401695316Y-271353803D01*
X401689504Y-271377007D01*
X401681446Y-271399529D01*
X401671218Y-271421153D01*
X401658921Y-271441670D01*
X401644671Y-271460883D01*
X401628607Y-271478607D01*
X401610883Y-271494671D01*
X401591670Y-271508921D01*
X401571153Y-271521218D01*
X401549529Y-271531446D01*
X401527007Y-271539504D01*
X401503803Y-271545316D01*
X401480142Y-271548826D01*
X401456250Y-271550000D01*
X400543750Y-271550000D01*
X400519858Y-271548826D01*
X400496197Y-271545316D01*
X400472993Y-271539504D01*
X400450471Y-271531446D01*
X400428847Y-271521218D01*
X400408330Y-271508921D01*
X400389117Y-271494671D01*
X400371393Y-271478607D01*
X400355329Y-271460883D01*
X400341079Y-271441670D01*
X400328782Y-271421153D01*
X400318554Y-271399529D01*
X400310496Y-271377007D01*
X400304684Y-271353803D01*
X400301174Y-271330142D01*
X400300000Y-271306250D01*
X400300000Y-270818750D01*
X400301174Y-270794858D01*
X400304684Y-270771197D01*
X400310496Y-270747993D01*
X400318554Y-270725471D01*
X400328782Y-270703847D01*
X400341079Y-270683330D01*
X400355329Y-270664117D01*
X400371393Y-270646393D01*
X400389117Y-270630329D01*
X400408330Y-270616079D01*
X400428847Y-270603782D01*
X400450471Y-270593554D01*
X400472993Y-270585496D01*
X400496197Y-270579684D01*
X400519858Y-270576174D01*
X400543750Y-270575000D01*
X401456250Y-270575000D01*
X401480142Y-270576174D01*
G37*
G36*
X397480142Y-270576174D02*
G01*
X397503803Y-270579684D01*
X397527007Y-270585496D01*
X397549529Y-270593554D01*
X397571153Y-270603782D01*
X397591670Y-270616079D01*
X397610883Y-270630329D01*
X397628607Y-270646393D01*
X397644671Y-270664117D01*
X397658921Y-270683330D01*
X397671218Y-270703847D01*
X397681446Y-270725471D01*
X397689504Y-270747993D01*
X397695316Y-270771197D01*
X397698826Y-270794858D01*
X397700000Y-270818750D01*
X397700000Y-271306250D01*
X397698826Y-271330142D01*
X397695316Y-271353803D01*
X397689504Y-271377007D01*
X397681446Y-271399529D01*
X397671218Y-271421153D01*
X397658921Y-271441670D01*
X397644671Y-271460883D01*
X397628607Y-271478607D01*
X397610883Y-271494671D01*
X397591670Y-271508921D01*
X397571153Y-271521218D01*
X397549529Y-271531446D01*
X397527007Y-271539504D01*
X397503803Y-271545316D01*
X397480142Y-271548826D01*
X397456250Y-271550000D01*
X396543750Y-271550000D01*
X396519858Y-271548826D01*
X396496197Y-271545316D01*
X396472993Y-271539504D01*
X396450471Y-271531446D01*
X396428847Y-271521218D01*
X396408330Y-271508921D01*
X396389117Y-271494671D01*
X396371393Y-271478607D01*
X396355329Y-271460883D01*
X396341079Y-271441670D01*
X396328782Y-271421153D01*
X396318554Y-271399529D01*
X396310496Y-271377007D01*
X396304684Y-271353803D01*
X396301174Y-271330142D01*
X396300000Y-271306250D01*
X396300000Y-270818750D01*
X396301174Y-270794858D01*
X396304684Y-270771197D01*
X396310496Y-270747993D01*
X396318554Y-270725471D01*
X396328782Y-270703847D01*
X396341079Y-270683330D01*
X396355329Y-270664117D01*
X396371393Y-270646393D01*
X396389117Y-270630329D01*
X396408330Y-270616079D01*
X396428847Y-270603782D01*
X396450471Y-270593554D01*
X396472993Y-270585496D01*
X396496197Y-270579684D01*
X396519858Y-270576174D01*
X396543750Y-270575000D01*
X397456250Y-270575000D01*
X397480142Y-270576174D01*
G37*
G36*
X397480142Y-272451174D02*
G01*
X397503803Y-272454684D01*
X397527007Y-272460496D01*
X397549529Y-272468554D01*
X397571153Y-272478782D01*
X397591670Y-272491079D01*
X397610883Y-272505329D01*
X397628607Y-272521393D01*
X397644671Y-272539117D01*
X397658921Y-272558330D01*
X397671218Y-272578847D01*
X397681446Y-272600471D01*
X397689504Y-272622993D01*
X397695316Y-272646197D01*
X397698826Y-272669858D01*
X397700000Y-272693750D01*
X397700000Y-273181250D01*
X397698826Y-273205142D01*
X397695316Y-273228803D01*
X397689504Y-273252007D01*
X397681446Y-273274529D01*
X397671218Y-273296153D01*
X397658921Y-273316670D01*
X397644671Y-273335883D01*
X397628607Y-273353607D01*
X397610883Y-273369671D01*
X397591670Y-273383921D01*
X397571153Y-273396218D01*
X397549529Y-273406446D01*
X397527007Y-273414504D01*
X397503803Y-273420316D01*
X397480142Y-273423826D01*
X397456250Y-273425000D01*
X396543750Y-273425000D01*
X396519858Y-273423826D01*
X396496197Y-273420316D01*
X396472993Y-273414504D01*
X396450471Y-273406446D01*
X396428847Y-273396218D01*
X396408330Y-273383921D01*
X396389117Y-273369671D01*
X396371393Y-273353607D01*
X396355329Y-273335883D01*
X396341079Y-273316670D01*
X396328782Y-273296153D01*
X396318554Y-273274529D01*
X396310496Y-273252007D01*
X396304684Y-273228803D01*
X396301174Y-273205142D01*
X396300000Y-273181250D01*
X396300000Y-272693750D01*
X396301174Y-272669858D01*
X396304684Y-272646197D01*
X396310496Y-272622993D01*
X396318554Y-272600471D01*
X396328782Y-272578847D01*
X396341079Y-272558330D01*
X396355329Y-272539117D01*
X396371393Y-272521393D01*
X396389117Y-272505329D01*
X396408330Y-272491079D01*
X396428847Y-272478782D01*
X396450471Y-272468554D01*
X396472993Y-272460496D01*
X396496197Y-272454684D01*
X396519858Y-272451174D01*
X396543750Y-272450000D01*
X397456250Y-272450000D01*
X397480142Y-272451174D01*
G37*
G36*
X405480142Y-270576174D02*
G01*
X405503803Y-270579684D01*
X405527007Y-270585496D01*
X405549529Y-270593554D01*
X405571153Y-270603782D01*
X405591670Y-270616079D01*
X405610883Y-270630329D01*
X405628607Y-270646393D01*
X405644671Y-270664117D01*
X405658921Y-270683330D01*
X405671218Y-270703847D01*
X405681446Y-270725471D01*
X405689504Y-270747993D01*
X405695316Y-270771197D01*
X405698826Y-270794858D01*
X405700000Y-270818750D01*
X405700000Y-271306250D01*
X405698826Y-271330142D01*
X405695316Y-271353803D01*
X405689504Y-271377007D01*
X405681446Y-271399529D01*
X405671218Y-271421153D01*
X405658921Y-271441670D01*
X405644671Y-271460883D01*
X405628607Y-271478607D01*
X405610883Y-271494671D01*
X405591670Y-271508921D01*
X405571153Y-271521218D01*
X405549529Y-271531446D01*
X405527007Y-271539504D01*
X405503803Y-271545316D01*
X405480142Y-271548826D01*
X405456250Y-271550000D01*
X404543750Y-271550000D01*
X404519858Y-271548826D01*
X404496197Y-271545316D01*
X404472993Y-271539504D01*
X404450471Y-271531446D01*
X404428847Y-271521218D01*
X404408330Y-271508921D01*
X404389117Y-271494671D01*
X404371393Y-271478607D01*
X404355329Y-271460883D01*
X404341079Y-271441670D01*
X404328782Y-271421153D01*
X404318554Y-271399529D01*
X404310496Y-271377007D01*
X404304684Y-271353803D01*
X404301174Y-271330142D01*
X404300000Y-271306250D01*
X404300000Y-270818750D01*
X404301174Y-270794858D01*
X404304684Y-270771197D01*
X404310496Y-270747993D01*
X404318554Y-270725471D01*
X404328782Y-270703847D01*
X404341079Y-270683330D01*
X404355329Y-270664117D01*
X404371393Y-270646393D01*
X404389117Y-270630329D01*
X404408330Y-270616079D01*
X404428847Y-270603782D01*
X404450471Y-270593554D01*
X404472993Y-270585496D01*
X404496197Y-270579684D01*
X404519858Y-270576174D01*
X404543750Y-270575000D01*
X405456250Y-270575000D01*
X405480142Y-270576174D01*
G37*
G36*
X405480142Y-272451174D02*
G01*
X405503803Y-272454684D01*
X405527007Y-272460496D01*
X405549529Y-272468554D01*
X405571153Y-272478782D01*
X405591670Y-272491079D01*
X405610883Y-272505329D01*
X405628607Y-272521393D01*
X405644671Y-272539117D01*
X405658921Y-272558330D01*
X405671218Y-272578847D01*
X405681446Y-272600471D01*
X405689504Y-272622993D01*
X405695316Y-272646197D01*
X405698826Y-272669858D01*
X405700000Y-272693750D01*
X405700000Y-273181250D01*
X405698826Y-273205142D01*
X405695316Y-273228803D01*
X405689504Y-273252007D01*
X405681446Y-273274529D01*
X405671218Y-273296153D01*
X405658921Y-273316670D01*
X405644671Y-273335883D01*
X405628607Y-273353607D01*
X405610883Y-273369671D01*
X405591670Y-273383921D01*
X405571153Y-273396218D01*
X405549529Y-273406446D01*
X405527007Y-273414504D01*
X405503803Y-273420316D01*
X405480142Y-273423826D01*
X405456250Y-273425000D01*
X404543750Y-273425000D01*
X404519858Y-273423826D01*
X404496197Y-273420316D01*
X404472993Y-273414504D01*
X404450471Y-273406446D01*
X404428847Y-273396218D01*
X404408330Y-273383921D01*
X404389117Y-273369671D01*
X404371393Y-273353607D01*
X404355329Y-273335883D01*
X404341079Y-273316670D01*
X404328782Y-273296153D01*
X404318554Y-273274529D01*
X404310496Y-273252007D01*
X404304684Y-273228803D01*
X404301174Y-273205142D01*
X404300000Y-273181250D01*
X404300000Y-272693750D01*
X404301174Y-272669858D01*
X404304684Y-272646197D01*
X404310496Y-272622993D01*
X404318554Y-272600471D01*
X404328782Y-272578847D01*
X404341079Y-272558330D01*
X404355329Y-272539117D01*
X404371393Y-272521393D01*
X404389117Y-272505329D01*
X404408330Y-272491079D01*
X404428847Y-272478782D01*
X404450471Y-272468554D01*
X404472993Y-272460496D01*
X404496197Y-272454684D01*
X404519858Y-272451174D01*
X404543750Y-272450000D01*
X405456250Y-272450000D01*
X405480142Y-272451174D01*
G37*
G36*
X399330142Y-263301174D02*
G01*
X399353803Y-263304684D01*
X399377007Y-263310496D01*
X399399529Y-263318554D01*
X399421153Y-263328782D01*
X399441670Y-263341079D01*
X399460883Y-263355329D01*
X399478607Y-263371393D01*
X399494671Y-263389117D01*
X399508921Y-263408330D01*
X399521218Y-263428847D01*
X399531446Y-263450471D01*
X399539504Y-263472993D01*
X399545316Y-263496197D01*
X399548826Y-263519858D01*
X399550000Y-263543750D01*
X399550000Y-264456250D01*
X399548826Y-264480142D01*
X399545316Y-264503803D01*
X399539504Y-264527007D01*
X399531446Y-264549529D01*
X399521218Y-264571153D01*
X399508921Y-264591670D01*
X399494671Y-264610883D01*
X399478607Y-264628607D01*
X399460883Y-264644671D01*
X399441670Y-264658921D01*
X399421153Y-264671218D01*
X399399529Y-264681446D01*
X399377007Y-264689504D01*
X399353803Y-264695316D01*
X399330142Y-264698826D01*
X399306250Y-264700000D01*
X398818750Y-264700000D01*
X398794858Y-264698826D01*
X398771197Y-264695316D01*
X398747993Y-264689504D01*
X398725471Y-264681446D01*
X398703847Y-264671218D01*
X398683330Y-264658921D01*
X398664117Y-264644671D01*
X398646393Y-264628607D01*
X398630329Y-264610883D01*
X398616079Y-264591670D01*
X398603782Y-264571153D01*
X398593554Y-264549529D01*
X398585496Y-264527007D01*
X398579684Y-264503803D01*
X398576174Y-264480142D01*
X398575000Y-264456250D01*
X398575000Y-263543750D01*
X398576174Y-263519858D01*
X398579684Y-263496197D01*
X398585496Y-263472993D01*
X398593554Y-263450471D01*
X398603782Y-263428847D01*
X398616079Y-263408330D01*
X398630329Y-263389117D01*
X398646393Y-263371393D01*
X398664117Y-263355329D01*
X398683330Y-263341079D01*
X398703847Y-263328782D01*
X398725471Y-263318554D01*
X398747993Y-263310496D01*
X398771197Y-263304684D01*
X398794858Y-263301174D01*
X398818750Y-263300000D01*
X399306250Y-263300000D01*
X399330142Y-263301174D01*
G37*
G36*
X401205142Y-263301174D02*
G01*
X401228803Y-263304684D01*
X401252007Y-263310496D01*
X401274529Y-263318554D01*
X401296153Y-263328782D01*
X401316670Y-263341079D01*
X401335883Y-263355329D01*
X401353607Y-263371393D01*
X401369671Y-263389117D01*
X401383921Y-263408330D01*
X401396218Y-263428847D01*
X401406446Y-263450471D01*
X401414504Y-263472993D01*
X401420316Y-263496197D01*
X401423826Y-263519858D01*
X401425000Y-263543750D01*
X401425000Y-264456250D01*
X401423826Y-264480142D01*
X401420316Y-264503803D01*
X401414504Y-264527007D01*
X401406446Y-264549529D01*
X401396218Y-264571153D01*
X401383921Y-264591670D01*
X401369671Y-264610883D01*
X401353607Y-264628607D01*
X401335883Y-264644671D01*
X401316670Y-264658921D01*
X401296153Y-264671218D01*
X401274529Y-264681446D01*
X401252007Y-264689504D01*
X401228803Y-264695316D01*
X401205142Y-264698826D01*
X401181250Y-264700000D01*
X400693750Y-264700000D01*
X400669858Y-264698826D01*
X400646197Y-264695316D01*
X400622993Y-264689504D01*
X400600471Y-264681446D01*
X400578847Y-264671218D01*
X400558330Y-264658921D01*
X400539117Y-264644671D01*
X400521393Y-264628607D01*
X400505329Y-264610883D01*
X400491079Y-264591670D01*
X400478782Y-264571153D01*
X400468554Y-264549529D01*
X400460496Y-264527007D01*
X400454684Y-264503803D01*
X400451174Y-264480142D01*
X400450000Y-264456250D01*
X400450000Y-263543750D01*
X400451174Y-263519858D01*
X400454684Y-263496197D01*
X400460496Y-263472993D01*
X400468554Y-263450471D01*
X400478782Y-263428847D01*
X400491079Y-263408330D01*
X400505329Y-263389117D01*
X400521393Y-263371393D01*
X400539117Y-263355329D01*
X400558330Y-263341079D01*
X400578847Y-263328782D01*
X400600471Y-263318554D01*
X400622993Y-263310496D01*
X400646197Y-263304684D01*
X400669858Y-263301174D01*
X400693750Y-263300000D01*
X401181250Y-263300000D01*
X401205142Y-263301174D01*
G37*
M02*
