G04 #@! TF.GenerationSoftware,KiCad,Pcbnew,5.1.5+dfsg1-2build2*
G04 #@! TF.CreationDate,2021-07-02T10:02:58+01:00*
G04 #@! TF.ProjectId,pak_breakout,70616b5f-6272-4656-916b-6f75742e6b69,rev?*
G04 #@! TF.SameCoordinates,Original*
G04 #@! TF.FileFunction,Legend,Bot*
G04 #@! TF.FilePolarity,Positive*
%FSLAX46Y46*%
G04 Gerber Fmt 4.6, Leading zero omitted, Abs format (unit mm)*
G04 Created by KiCad (PCBNEW 5.1.5+dfsg1-2build2) date 2021-07-02 10:02:58*
%MOMM*%
%LPD*%
G04 APERTURE LIST*
%ADD10C,0.150000*%
%ADD11C,0.120000*%
G04 APERTURE END LIST*
D10*
X420438095Y-198052380D02*
X419819047Y-198052380D01*
X420152380Y-198433333D01*
X420009523Y-198433333D01*
X419914285Y-198480952D01*
X419866666Y-198528571D01*
X419819047Y-198623809D01*
X419819047Y-198861904D01*
X419866666Y-198957142D01*
X419914285Y-199004761D01*
X420009523Y-199052380D01*
X420295238Y-199052380D01*
X420390476Y-199004761D01*
X420438095Y-198957142D01*
X419533333Y-198052380D02*
X419200000Y-199052380D01*
X418866666Y-198052380D01*
X418628571Y-198052380D02*
X418009523Y-198052380D01*
X418342857Y-198433333D01*
X418200000Y-198433333D01*
X418104761Y-198480952D01*
X418057142Y-198528571D01*
X418009523Y-198623809D01*
X418009523Y-198861904D01*
X418057142Y-198957142D01*
X418104761Y-199004761D01*
X418200000Y-199052380D01*
X418485714Y-199052380D01*
X418580952Y-199004761D01*
X418628571Y-198957142D01*
X425561904Y-186700000D02*
X425657142Y-186652380D01*
X425800000Y-186652380D01*
X425942857Y-186700000D01*
X426038095Y-186795238D01*
X426085714Y-186890476D01*
X426133333Y-187080952D01*
X426133333Y-187223809D01*
X426085714Y-187414285D01*
X426038095Y-187509523D01*
X425942857Y-187604761D01*
X425800000Y-187652380D01*
X425704761Y-187652380D01*
X425561904Y-187604761D01*
X425514285Y-187557142D01*
X425514285Y-187223809D01*
X425704761Y-187223809D01*
X425085714Y-187652380D02*
X425085714Y-186652380D01*
X424514285Y-187652380D01*
X424514285Y-186652380D01*
X424038095Y-187652380D02*
X424038095Y-186652380D01*
X423800000Y-186652380D01*
X423657142Y-186700000D01*
X423561904Y-186795238D01*
X423514285Y-186890476D01*
X423466666Y-187080952D01*
X423466666Y-187223809D01*
X423514285Y-187414285D01*
X423561904Y-187509523D01*
X423657142Y-187604761D01*
X423800000Y-187652380D01*
X424038095Y-187652380D01*
D11*
X337941422Y-228090000D02*
X338458578Y-228090000D01*
X337941422Y-229510000D02*
X338458578Y-229510000D01*
X424350000Y-198900000D02*
X424350000Y-197500000D01*
X423650000Y-196800000D02*
X423050000Y-196800000D01*
X422350000Y-197500000D02*
X422350000Y-198900000D01*
X423050000Y-199600000D02*
X423650000Y-199600000D01*
X423650000Y-199600000D02*
G75*
G03X424350000Y-198900000I0J700000D01*
G01*
X422350000Y-198900000D02*
G75*
G03X423050000Y-199600000I700000J0D01*
G01*
X423050000Y-196800000D02*
G75*
G03X422350000Y-197500000I0J-700000D01*
G01*
X424350000Y-197500000D02*
G75*
G03X423650000Y-196800000I-700000J0D01*
G01*
X424900000Y-197500000D02*
X424900000Y-198900000D01*
X425600000Y-199600000D02*
X426200000Y-199600000D01*
X426900000Y-198900000D02*
X426900000Y-197500000D01*
X426200000Y-196800000D02*
X425600000Y-196800000D01*
X425600000Y-196800000D02*
G75*
G03X424900000Y-197500000I0J-700000D01*
G01*
X426900000Y-197500000D02*
G75*
G03X426200000Y-196800000I-700000J0D01*
G01*
X426200000Y-199600000D02*
G75*
G03X426900000Y-198900000I0J700000D01*
G01*
X424900000Y-198900000D02*
G75*
G03X425600000Y-199600000I700000J0D01*
G01*
X424400000Y-190650000D02*
X424400000Y-189250000D01*
X423700000Y-188550000D02*
X423100000Y-188550000D01*
X422400000Y-189250000D02*
X422400000Y-190650000D01*
X423100000Y-191350000D02*
X423700000Y-191350000D01*
X423700000Y-191350000D02*
G75*
G03X424400000Y-190650000I0J700000D01*
G01*
X422400000Y-190650000D02*
G75*
G03X423100000Y-191350000I700000J0D01*
G01*
X423100000Y-188550000D02*
G75*
G03X422400000Y-189250000I0J-700000D01*
G01*
X424400000Y-189250000D02*
G75*
G03X423700000Y-188550000I-700000J0D01*
G01*
X426900000Y-190650000D02*
X426900000Y-189250000D01*
X426200000Y-188550000D02*
X425600000Y-188550000D01*
X424900000Y-189250000D02*
X424900000Y-190650000D01*
X425600000Y-191350000D02*
X426200000Y-191350000D01*
X426200000Y-191350000D02*
G75*
G03X426900000Y-190650000I0J700000D01*
G01*
X424900000Y-190650000D02*
G75*
G03X425600000Y-191350000I700000J0D01*
G01*
X425600000Y-188550000D02*
G75*
G03X424900000Y-189250000I0J-700000D01*
G01*
X426900000Y-189250000D02*
G75*
G03X426200000Y-188550000I-700000J0D01*
G01*
X401710000Y-271741422D02*
X401710000Y-272258578D01*
X400290000Y-271741422D02*
X400290000Y-272258578D01*
X396290000Y-272258578D02*
X396290000Y-271741422D01*
X397710000Y-272258578D02*
X397710000Y-271741422D01*
X404290000Y-272258578D02*
X404290000Y-271741422D01*
X405710000Y-272258578D02*
X405710000Y-271741422D01*
X400258578Y-264710000D02*
X399741422Y-264710000D01*
X400258578Y-263290000D02*
X399741422Y-263290000D01*
D10*
X338366666Y-230807142D02*
X338414285Y-230854761D01*
X338557142Y-230902380D01*
X338652380Y-230902380D01*
X338795238Y-230854761D01*
X338890476Y-230759523D01*
X338938095Y-230664285D01*
X338985714Y-230473809D01*
X338985714Y-230330952D01*
X338938095Y-230140476D01*
X338890476Y-230045238D01*
X338795238Y-229950000D01*
X338652380Y-229902380D01*
X338557142Y-229902380D01*
X338414285Y-229950000D01*
X338366666Y-229997619D01*
X337985714Y-229997619D02*
X337938095Y-229950000D01*
X337842857Y-229902380D01*
X337604761Y-229902380D01*
X337509523Y-229950000D01*
X337461904Y-229997619D01*
X337414285Y-230092857D01*
X337414285Y-230188095D01*
X337461904Y-230330952D01*
X338033333Y-230902380D01*
X337414285Y-230902380D01*
X422452380Y-201166666D02*
X423166666Y-201166666D01*
X423309523Y-201119047D01*
X423404761Y-201023809D01*
X423452380Y-200880952D01*
X423452380Y-200785714D01*
X423452380Y-201642857D02*
X422452380Y-201642857D01*
X422452380Y-202023809D01*
X422500000Y-202119047D01*
X422547619Y-202166666D01*
X422642857Y-202214285D01*
X422785714Y-202214285D01*
X422880952Y-202166666D01*
X422928571Y-202119047D01*
X422976190Y-202023809D01*
X422976190Y-201642857D01*
X422785714Y-203071428D02*
X423452380Y-203071428D01*
X422404761Y-202833333D02*
X423119047Y-202595238D01*
X423119047Y-203214285D01*
X425252380Y-200966666D02*
X425966666Y-200966666D01*
X426109523Y-200919047D01*
X426204761Y-200823809D01*
X426252380Y-200680952D01*
X426252380Y-200585714D01*
X426252380Y-201442857D02*
X425252380Y-201442857D01*
X425252380Y-201823809D01*
X425300000Y-201919047D01*
X425347619Y-201966666D01*
X425442857Y-202014285D01*
X425585714Y-202014285D01*
X425680952Y-201966666D01*
X425728571Y-201919047D01*
X425776190Y-201823809D01*
X425776190Y-201442857D01*
X425252380Y-202347619D02*
X425252380Y-202966666D01*
X425633333Y-202633333D01*
X425633333Y-202776190D01*
X425680952Y-202871428D01*
X425728571Y-202919047D01*
X425823809Y-202966666D01*
X426061904Y-202966666D01*
X426157142Y-202919047D01*
X426204761Y-202871428D01*
X426252380Y-202776190D01*
X426252380Y-202490476D01*
X426204761Y-202395238D01*
X426157142Y-202347619D01*
X420052380Y-188166666D02*
X420766666Y-188166666D01*
X420909523Y-188119047D01*
X421004761Y-188023809D01*
X421052380Y-187880952D01*
X421052380Y-187785714D01*
X421052380Y-188642857D02*
X420052380Y-188642857D01*
X420052380Y-189023809D01*
X420100000Y-189119047D01*
X420147619Y-189166666D01*
X420242857Y-189214285D01*
X420385714Y-189214285D01*
X420480952Y-189166666D01*
X420528571Y-189119047D01*
X420576190Y-189023809D01*
X420576190Y-188642857D01*
X420147619Y-189595238D02*
X420100000Y-189642857D01*
X420052380Y-189738095D01*
X420052380Y-189976190D01*
X420100000Y-190071428D01*
X420147619Y-190119047D01*
X420242857Y-190166666D01*
X420338095Y-190166666D01*
X420480952Y-190119047D01*
X421052380Y-189547619D01*
X421052380Y-190166666D01*
X428252380Y-188566666D02*
X428966666Y-188566666D01*
X429109523Y-188519047D01*
X429204761Y-188423809D01*
X429252380Y-188280952D01*
X429252380Y-188185714D01*
X429252380Y-189042857D02*
X428252380Y-189042857D01*
X428252380Y-189423809D01*
X428300000Y-189519047D01*
X428347619Y-189566666D01*
X428442857Y-189614285D01*
X428585714Y-189614285D01*
X428680952Y-189566666D01*
X428728571Y-189519047D01*
X428776190Y-189423809D01*
X428776190Y-189042857D01*
X429252380Y-190566666D02*
X429252380Y-189995238D01*
X429252380Y-190280952D02*
X428252380Y-190280952D01*
X428395238Y-190185714D01*
X428490476Y-190090476D01*
X428538095Y-189995238D01*
X401264380Y-276439333D02*
X400788190Y-276106000D01*
X401264380Y-275867904D02*
X400264380Y-275867904D01*
X400264380Y-276248857D01*
X400312000Y-276344095D01*
X400359619Y-276391714D01*
X400454857Y-276439333D01*
X400597714Y-276439333D01*
X400692952Y-276391714D01*
X400740571Y-276344095D01*
X400788190Y-276248857D01*
X400788190Y-275867904D01*
X401264380Y-276915523D02*
X401264380Y-277106000D01*
X401216761Y-277201238D01*
X401169142Y-277248857D01*
X401026285Y-277344095D01*
X400835809Y-277391714D01*
X400454857Y-277391714D01*
X400359619Y-277344095D01*
X400312000Y-277296476D01*
X400264380Y-277201238D01*
X400264380Y-277010761D01*
X400312000Y-276915523D01*
X400359619Y-276867904D01*
X400454857Y-276820285D01*
X400692952Y-276820285D01*
X400788190Y-276867904D01*
X400835809Y-276915523D01*
X400883428Y-277010761D01*
X400883428Y-277201238D01*
X400835809Y-277296476D01*
X400788190Y-277344095D01*
X400692952Y-277391714D01*
X397454380Y-275423333D02*
X396978190Y-275090000D01*
X397454380Y-274851904D02*
X396454380Y-274851904D01*
X396454380Y-275232857D01*
X396502000Y-275328095D01*
X396549619Y-275375714D01*
X396644857Y-275423333D01*
X396787714Y-275423333D01*
X396882952Y-275375714D01*
X396930571Y-275328095D01*
X396978190Y-275232857D01*
X396978190Y-274851904D01*
X396882952Y-275994761D02*
X396835333Y-275899523D01*
X396787714Y-275851904D01*
X396692476Y-275804285D01*
X396644857Y-275804285D01*
X396549619Y-275851904D01*
X396502000Y-275899523D01*
X396454380Y-275994761D01*
X396454380Y-276185238D01*
X396502000Y-276280476D01*
X396549619Y-276328095D01*
X396644857Y-276375714D01*
X396692476Y-276375714D01*
X396787714Y-276328095D01*
X396835333Y-276280476D01*
X396882952Y-276185238D01*
X396882952Y-275994761D01*
X396930571Y-275899523D01*
X396978190Y-275851904D01*
X397073428Y-275804285D01*
X397263904Y-275804285D01*
X397359142Y-275851904D01*
X397406761Y-275899523D01*
X397454380Y-275994761D01*
X397454380Y-276185238D01*
X397406761Y-276280476D01*
X397359142Y-276328095D01*
X397263904Y-276375714D01*
X397073428Y-276375714D01*
X396978190Y-276328095D01*
X396930571Y-276280476D01*
X396882952Y-276185238D01*
X404423619Y-276010666D02*
X404899809Y-276344000D01*
X404423619Y-276582095D02*
X405423619Y-276582095D01*
X405423619Y-276201142D01*
X405376000Y-276105904D01*
X405328380Y-276058285D01*
X405233142Y-276010666D01*
X405090285Y-276010666D01*
X404995047Y-276058285D01*
X404947428Y-276105904D01*
X404899809Y-276201142D01*
X404899809Y-276582095D01*
X405423619Y-275153523D02*
X405423619Y-275344000D01*
X405376000Y-275439238D01*
X405328380Y-275486857D01*
X405185523Y-275582095D01*
X404995047Y-275629714D01*
X404614095Y-275629714D01*
X404518857Y-275582095D01*
X404471238Y-275534476D01*
X404423619Y-275439238D01*
X404423619Y-275248761D01*
X404471238Y-275153523D01*
X404518857Y-275105904D01*
X404614095Y-275058285D01*
X404852190Y-275058285D01*
X404947428Y-275105904D01*
X404995047Y-275153523D01*
X405042666Y-275248761D01*
X405042666Y-275439238D01*
X404995047Y-275534476D01*
X404947428Y-275582095D01*
X404852190Y-275629714D01*
X400166666Y-262707142D02*
X400214285Y-262754761D01*
X400357142Y-262802380D01*
X400452380Y-262802380D01*
X400595238Y-262754761D01*
X400690476Y-262659523D01*
X400738095Y-262564285D01*
X400785714Y-262373809D01*
X400785714Y-262230952D01*
X400738095Y-262040476D01*
X400690476Y-261945238D01*
X400595238Y-261850000D01*
X400452380Y-261802380D01*
X400357142Y-261802380D01*
X400214285Y-261850000D01*
X400166666Y-261897619D01*
X399214285Y-262802380D02*
X399785714Y-262802380D01*
X399500000Y-262802380D02*
X399500000Y-261802380D01*
X399595238Y-261945238D01*
X399690476Y-262040476D01*
X399785714Y-262088095D01*
M02*
