G04 #@! TF.GenerationSoftware,KiCad,Pcbnew,5.1.5+dfsg1-2build2*
G04 #@! TF.CreationDate,2021-07-02T10:02:58+01:00*
G04 #@! TF.ProjectId,pak_breakout,70616b5f-6272-4656-916b-6f75742e6b69,rev?*
G04 #@! TF.SameCoordinates,Original*
G04 #@! TF.FileFunction,Soldermask,Bot*
G04 #@! TF.FilePolarity,Negative*
%FSLAX46Y46*%
G04 Gerber Fmt 4.6, Leading zero omitted, Abs format (unit mm)*
G04 Created by KiCad (PCBNEW 5.1.5+dfsg1-2build2) date 2021-07-02 10:02:58*
%MOMM*%
%LPD*%
G04 APERTURE LIST*
%ADD10C,0.100000*%
G04 APERTURE END LIST*
D10*
G36*
X439944739Y-276278707D02*
G01*
X440040329Y-276288122D01*
X440224306Y-276343931D01*
X440224309Y-276343932D01*
X440314225Y-276391994D01*
X440393860Y-276434559D01*
X440440035Y-276472454D01*
X440542476Y-276556524D01*
X440626546Y-276658965D01*
X440664441Y-276705140D01*
X440707006Y-276784775D01*
X440755068Y-276874691D01*
X440755069Y-276874694D01*
X440810878Y-277058671D01*
X440829722Y-277250000D01*
X440810878Y-277441329D01*
X440755069Y-277625306D01*
X440755068Y-277625309D01*
X440707006Y-277715225D01*
X440664441Y-277794860D01*
X440626546Y-277841035D01*
X440542476Y-277943476D01*
X440440035Y-278027546D01*
X440393860Y-278065441D01*
X440314225Y-278108006D01*
X440224309Y-278156068D01*
X440224306Y-278156069D01*
X440040329Y-278211878D01*
X439944739Y-278221293D01*
X439896945Y-278226000D01*
X438603055Y-278226000D01*
X438555261Y-278221293D01*
X438459671Y-278211878D01*
X438275694Y-278156069D01*
X438275691Y-278156068D01*
X438185775Y-278108006D01*
X438106140Y-278065441D01*
X438059965Y-278027546D01*
X437957524Y-277943476D01*
X437873454Y-277841035D01*
X437835559Y-277794860D01*
X437792994Y-277715225D01*
X437744932Y-277625309D01*
X437744931Y-277625306D01*
X437689122Y-277441329D01*
X437670278Y-277250000D01*
X437689122Y-277058671D01*
X437744931Y-276874694D01*
X437744932Y-276874691D01*
X437792994Y-276784775D01*
X437835559Y-276705140D01*
X437873454Y-276658965D01*
X437957524Y-276556524D01*
X438059965Y-276472454D01*
X438106140Y-276434559D01*
X438185775Y-276391994D01*
X438275691Y-276343932D01*
X438275694Y-276343931D01*
X438459671Y-276288122D01*
X438555261Y-276278707D01*
X438603055Y-276274000D01*
X439896945Y-276274000D01*
X439944739Y-276278707D01*
G37*
G36*
X427444739Y-276278707D02*
G01*
X427540329Y-276288122D01*
X427724306Y-276343931D01*
X427724309Y-276343932D01*
X427814225Y-276391994D01*
X427893860Y-276434559D01*
X427940035Y-276472454D01*
X428042476Y-276556524D01*
X428126546Y-276658965D01*
X428164441Y-276705140D01*
X428207006Y-276784775D01*
X428255068Y-276874691D01*
X428255069Y-276874694D01*
X428310878Y-277058671D01*
X428329722Y-277250000D01*
X428310878Y-277441329D01*
X428255069Y-277625306D01*
X428255068Y-277625309D01*
X428207006Y-277715225D01*
X428164441Y-277794860D01*
X428126546Y-277841035D01*
X428042476Y-277943476D01*
X427940035Y-278027546D01*
X427893860Y-278065441D01*
X427814225Y-278108006D01*
X427724309Y-278156068D01*
X427724306Y-278156069D01*
X427540329Y-278211878D01*
X427444739Y-278221293D01*
X427396945Y-278226000D01*
X426103055Y-278226000D01*
X426055261Y-278221293D01*
X425959671Y-278211878D01*
X425775694Y-278156069D01*
X425775691Y-278156068D01*
X425685775Y-278108006D01*
X425606140Y-278065441D01*
X425559965Y-278027546D01*
X425457524Y-277943476D01*
X425373454Y-277841035D01*
X425335559Y-277794860D01*
X425292994Y-277715225D01*
X425244932Y-277625309D01*
X425244931Y-277625306D01*
X425189122Y-277441329D01*
X425170278Y-277250000D01*
X425189122Y-277058671D01*
X425244931Y-276874694D01*
X425244932Y-276874691D01*
X425292994Y-276784775D01*
X425335559Y-276705140D01*
X425373454Y-276658965D01*
X425457524Y-276556524D01*
X425559965Y-276472454D01*
X425606140Y-276434559D01*
X425685775Y-276391994D01*
X425775691Y-276343932D01*
X425775694Y-276343931D01*
X425959671Y-276288122D01*
X426055261Y-276278707D01*
X426103055Y-276274000D01*
X427396945Y-276274000D01*
X427444739Y-276278707D01*
G37*
G36*
X401584468Y-272403565D02*
G01*
X401623138Y-272415296D01*
X401658777Y-272434346D01*
X401690017Y-272459983D01*
X401715654Y-272491223D01*
X401734704Y-272526862D01*
X401746435Y-272565532D01*
X401751000Y-272611888D01*
X401751000Y-273263112D01*
X401746435Y-273309468D01*
X401734704Y-273348138D01*
X401715654Y-273383777D01*
X401690017Y-273415017D01*
X401658777Y-273440654D01*
X401623138Y-273459704D01*
X401584468Y-273471435D01*
X401538112Y-273476000D01*
X400461888Y-273476000D01*
X400415532Y-273471435D01*
X400376862Y-273459704D01*
X400341223Y-273440654D01*
X400309983Y-273415017D01*
X400284346Y-273383777D01*
X400265296Y-273348138D01*
X400253565Y-273309468D01*
X400249000Y-273263112D01*
X400249000Y-272611888D01*
X400253565Y-272565532D01*
X400265296Y-272526862D01*
X400284346Y-272491223D01*
X400309983Y-272459983D01*
X400341223Y-272434346D01*
X400376862Y-272415296D01*
X400415532Y-272403565D01*
X400461888Y-272399000D01*
X401538112Y-272399000D01*
X401584468Y-272403565D01*
G37*
G36*
X405584468Y-272403565D02*
G01*
X405623138Y-272415296D01*
X405658777Y-272434346D01*
X405690017Y-272459983D01*
X405715654Y-272491223D01*
X405734704Y-272526862D01*
X405746435Y-272565532D01*
X405751000Y-272611888D01*
X405751000Y-273263112D01*
X405746435Y-273309468D01*
X405734704Y-273348138D01*
X405715654Y-273383777D01*
X405690017Y-273415017D01*
X405658777Y-273440654D01*
X405623138Y-273459704D01*
X405584468Y-273471435D01*
X405538112Y-273476000D01*
X404461888Y-273476000D01*
X404415532Y-273471435D01*
X404376862Y-273459704D01*
X404341223Y-273440654D01*
X404309983Y-273415017D01*
X404284346Y-273383777D01*
X404265296Y-273348138D01*
X404253565Y-273309468D01*
X404249000Y-273263112D01*
X404249000Y-272611888D01*
X404253565Y-272565532D01*
X404265296Y-272526862D01*
X404284346Y-272491223D01*
X404309983Y-272459983D01*
X404341223Y-272434346D01*
X404376862Y-272415296D01*
X404415532Y-272403565D01*
X404461888Y-272399000D01*
X405538112Y-272399000D01*
X405584468Y-272403565D01*
G37*
G36*
X397584468Y-272403565D02*
G01*
X397623138Y-272415296D01*
X397658777Y-272434346D01*
X397690017Y-272459983D01*
X397715654Y-272491223D01*
X397734704Y-272526862D01*
X397746435Y-272565532D01*
X397751000Y-272611888D01*
X397751000Y-273263112D01*
X397746435Y-273309468D01*
X397734704Y-273348138D01*
X397715654Y-273383777D01*
X397690017Y-273415017D01*
X397658777Y-273440654D01*
X397623138Y-273459704D01*
X397584468Y-273471435D01*
X397538112Y-273476000D01*
X396461888Y-273476000D01*
X396415532Y-273471435D01*
X396376862Y-273459704D01*
X396341223Y-273440654D01*
X396309983Y-273415017D01*
X396284346Y-273383777D01*
X396265296Y-273348138D01*
X396253565Y-273309468D01*
X396249000Y-273263112D01*
X396249000Y-272611888D01*
X396253565Y-272565532D01*
X396265296Y-272526862D01*
X396284346Y-272491223D01*
X396309983Y-272459983D01*
X396341223Y-272434346D01*
X396376862Y-272415296D01*
X396415532Y-272403565D01*
X396461888Y-272399000D01*
X397538112Y-272399000D01*
X397584468Y-272403565D01*
G37*
G36*
X427444739Y-271278707D02*
G01*
X427540329Y-271288122D01*
X427724306Y-271343931D01*
X427724309Y-271343932D01*
X427806963Y-271388112D01*
X427893860Y-271434559D01*
X427940035Y-271472454D01*
X428042476Y-271556524D01*
X428126546Y-271658965D01*
X428164441Y-271705140D01*
X428207006Y-271784775D01*
X428255068Y-271874691D01*
X428255069Y-271874694D01*
X428310878Y-272058671D01*
X428329722Y-272250000D01*
X428310878Y-272441329D01*
X428273298Y-272565212D01*
X428255068Y-272625309D01*
X428232115Y-272668250D01*
X428164441Y-272794860D01*
X428126546Y-272841035D01*
X428042476Y-272943476D01*
X427940035Y-273027546D01*
X427893860Y-273065441D01*
X427814225Y-273108006D01*
X427724309Y-273156068D01*
X427724306Y-273156069D01*
X427540329Y-273211878D01*
X427444739Y-273221293D01*
X427396945Y-273226000D01*
X426103055Y-273226000D01*
X426055261Y-273221293D01*
X425959671Y-273211878D01*
X425775694Y-273156069D01*
X425775691Y-273156068D01*
X425685775Y-273108006D01*
X425606140Y-273065441D01*
X425559965Y-273027546D01*
X425457524Y-272943476D01*
X425373454Y-272841035D01*
X425335559Y-272794860D01*
X425267885Y-272668250D01*
X425244932Y-272625309D01*
X425226702Y-272565212D01*
X425189122Y-272441329D01*
X425170278Y-272250000D01*
X425189122Y-272058671D01*
X425244931Y-271874694D01*
X425244932Y-271874691D01*
X425292994Y-271784775D01*
X425335559Y-271705140D01*
X425373454Y-271658965D01*
X425457524Y-271556524D01*
X425559965Y-271472454D01*
X425606140Y-271434559D01*
X425693037Y-271388112D01*
X425775691Y-271343932D01*
X425775694Y-271343931D01*
X425959671Y-271288122D01*
X426055261Y-271278707D01*
X426103055Y-271274000D01*
X427396945Y-271274000D01*
X427444739Y-271278707D01*
G37*
G36*
X439944739Y-271278707D02*
G01*
X440040329Y-271288122D01*
X440224306Y-271343931D01*
X440224309Y-271343932D01*
X440306963Y-271388112D01*
X440393860Y-271434559D01*
X440440035Y-271472454D01*
X440542476Y-271556524D01*
X440626546Y-271658965D01*
X440664441Y-271705140D01*
X440707006Y-271784775D01*
X440755068Y-271874691D01*
X440755069Y-271874694D01*
X440810878Y-272058671D01*
X440829722Y-272250000D01*
X440810878Y-272441329D01*
X440773298Y-272565212D01*
X440755068Y-272625309D01*
X440732115Y-272668250D01*
X440664441Y-272794860D01*
X440626546Y-272841035D01*
X440542476Y-272943476D01*
X440440035Y-273027546D01*
X440393860Y-273065441D01*
X440314225Y-273108006D01*
X440224309Y-273156068D01*
X440224306Y-273156069D01*
X440040329Y-273211878D01*
X439944739Y-273221293D01*
X439896945Y-273226000D01*
X438603055Y-273226000D01*
X438555261Y-273221293D01*
X438459671Y-273211878D01*
X438275694Y-273156069D01*
X438275691Y-273156068D01*
X438185775Y-273108006D01*
X438106140Y-273065441D01*
X438059965Y-273027546D01*
X437957524Y-272943476D01*
X437873454Y-272841035D01*
X437835559Y-272794860D01*
X437767885Y-272668250D01*
X437744932Y-272625309D01*
X437726702Y-272565212D01*
X437689122Y-272441329D01*
X437670278Y-272250000D01*
X437689122Y-272058671D01*
X437744931Y-271874694D01*
X437744932Y-271874691D01*
X437792994Y-271784775D01*
X437835559Y-271705140D01*
X437873454Y-271658965D01*
X437957524Y-271556524D01*
X438059965Y-271472454D01*
X438106140Y-271434559D01*
X438193037Y-271388112D01*
X438275691Y-271343932D01*
X438275694Y-271343931D01*
X438459671Y-271288122D01*
X438555261Y-271278707D01*
X438603055Y-271274000D01*
X439896945Y-271274000D01*
X439944739Y-271278707D01*
G37*
G36*
X397584468Y-270528565D02*
G01*
X397623138Y-270540296D01*
X397658777Y-270559346D01*
X397690017Y-270584983D01*
X397715654Y-270616223D01*
X397734704Y-270651862D01*
X397746435Y-270690532D01*
X397751000Y-270736888D01*
X397751000Y-271388112D01*
X397746435Y-271434468D01*
X397734704Y-271473138D01*
X397715654Y-271508777D01*
X397690017Y-271540017D01*
X397658777Y-271565654D01*
X397623138Y-271584704D01*
X397584468Y-271596435D01*
X397538112Y-271601000D01*
X396461888Y-271601000D01*
X396415532Y-271596435D01*
X396376862Y-271584704D01*
X396341223Y-271565654D01*
X396309983Y-271540017D01*
X396284346Y-271508777D01*
X396265296Y-271473138D01*
X396253565Y-271434468D01*
X396249000Y-271388112D01*
X396249000Y-270736888D01*
X396253565Y-270690532D01*
X396265296Y-270651862D01*
X396284346Y-270616223D01*
X396309983Y-270584983D01*
X396341223Y-270559346D01*
X396376862Y-270540296D01*
X396415532Y-270528565D01*
X396461888Y-270524000D01*
X397538112Y-270524000D01*
X397584468Y-270528565D01*
G37*
G36*
X405584468Y-270528565D02*
G01*
X405623138Y-270540296D01*
X405658777Y-270559346D01*
X405690017Y-270584983D01*
X405715654Y-270616223D01*
X405734704Y-270651862D01*
X405746435Y-270690532D01*
X405751000Y-270736888D01*
X405751000Y-271388112D01*
X405746435Y-271434468D01*
X405734704Y-271473138D01*
X405715654Y-271508777D01*
X405690017Y-271540017D01*
X405658777Y-271565654D01*
X405623138Y-271584704D01*
X405584468Y-271596435D01*
X405538112Y-271601000D01*
X404461888Y-271601000D01*
X404415532Y-271596435D01*
X404376862Y-271584704D01*
X404341223Y-271565654D01*
X404309983Y-271540017D01*
X404284346Y-271508777D01*
X404265296Y-271473138D01*
X404253565Y-271434468D01*
X404249000Y-271388112D01*
X404249000Y-270736888D01*
X404253565Y-270690532D01*
X404265296Y-270651862D01*
X404284346Y-270616223D01*
X404309983Y-270584983D01*
X404341223Y-270559346D01*
X404376862Y-270540296D01*
X404415532Y-270528565D01*
X404461888Y-270524000D01*
X405538112Y-270524000D01*
X405584468Y-270528565D01*
G37*
G36*
X401584468Y-270528565D02*
G01*
X401623138Y-270540296D01*
X401658777Y-270559346D01*
X401690017Y-270584983D01*
X401715654Y-270616223D01*
X401734704Y-270651862D01*
X401746435Y-270690532D01*
X401751000Y-270736888D01*
X401751000Y-271388112D01*
X401746435Y-271434468D01*
X401734704Y-271473138D01*
X401715654Y-271508777D01*
X401690017Y-271540017D01*
X401658777Y-271565654D01*
X401623138Y-271584704D01*
X401584468Y-271596435D01*
X401538112Y-271601000D01*
X400461888Y-271601000D01*
X400415532Y-271596435D01*
X400376862Y-271584704D01*
X400341223Y-271565654D01*
X400309983Y-271540017D01*
X400284346Y-271508777D01*
X400265296Y-271473138D01*
X400253565Y-271434468D01*
X400249000Y-271388112D01*
X400249000Y-270736888D01*
X400253565Y-270690532D01*
X400265296Y-270651862D01*
X400284346Y-270616223D01*
X400309983Y-270584983D01*
X400341223Y-270559346D01*
X400376862Y-270540296D01*
X400415532Y-270528565D01*
X400461888Y-270524000D01*
X401538112Y-270524000D01*
X401584468Y-270528565D01*
G37*
G36*
X377051000Y-269581000D02*
G01*
X375249000Y-269581000D01*
X375249000Y-267779000D01*
X377051000Y-267779000D01*
X377051000Y-269581000D01*
G37*
G36*
X376263512Y-265243927D02*
G01*
X376412812Y-265273624D01*
X376576784Y-265341544D01*
X376724354Y-265440147D01*
X376849853Y-265565646D01*
X376948456Y-265713216D01*
X377016376Y-265877188D01*
X377051000Y-266051259D01*
X377051000Y-266228741D01*
X377016376Y-266402812D01*
X376948456Y-266566784D01*
X376849853Y-266714354D01*
X376724354Y-266839853D01*
X376576784Y-266938456D01*
X376412812Y-267006376D01*
X376263512Y-267036073D01*
X376238742Y-267041000D01*
X376061258Y-267041000D01*
X376036488Y-267036073D01*
X375887188Y-267006376D01*
X375723216Y-266938456D01*
X375575646Y-266839853D01*
X375450147Y-266714354D01*
X375351544Y-266566784D01*
X375283624Y-266402812D01*
X375249000Y-266228741D01*
X375249000Y-266051259D01*
X375283624Y-265877188D01*
X375351544Y-265713216D01*
X375450147Y-265565646D01*
X375575646Y-265440147D01*
X375723216Y-265341544D01*
X375887188Y-265273624D01*
X376036488Y-265243927D01*
X376061258Y-265239000D01*
X376238742Y-265239000D01*
X376263512Y-265243927D01*
G37*
G36*
X399434468Y-263253565D02*
G01*
X399473138Y-263265296D01*
X399508777Y-263284346D01*
X399540017Y-263309983D01*
X399565654Y-263341223D01*
X399584704Y-263376862D01*
X399596435Y-263415532D01*
X399601000Y-263461888D01*
X399601000Y-264538112D01*
X399596435Y-264584468D01*
X399584704Y-264623138D01*
X399565654Y-264658777D01*
X399540017Y-264690017D01*
X399508777Y-264715654D01*
X399473138Y-264734704D01*
X399434468Y-264746435D01*
X399388112Y-264751000D01*
X398736888Y-264751000D01*
X398690532Y-264746435D01*
X398651862Y-264734704D01*
X398616223Y-264715654D01*
X398584983Y-264690017D01*
X398559346Y-264658777D01*
X398540296Y-264623138D01*
X398528565Y-264584468D01*
X398524000Y-264538112D01*
X398524000Y-263461888D01*
X398528565Y-263415532D01*
X398540296Y-263376862D01*
X398559346Y-263341223D01*
X398584983Y-263309983D01*
X398616223Y-263284346D01*
X398651862Y-263265296D01*
X398690532Y-263253565D01*
X398736888Y-263249000D01*
X399388112Y-263249000D01*
X399434468Y-263253565D01*
G37*
G36*
X401309468Y-263253565D02*
G01*
X401348138Y-263265296D01*
X401383777Y-263284346D01*
X401415017Y-263309983D01*
X401440654Y-263341223D01*
X401459704Y-263376862D01*
X401471435Y-263415532D01*
X401476000Y-263461888D01*
X401476000Y-264538112D01*
X401471435Y-264584468D01*
X401459704Y-264623138D01*
X401440654Y-264658777D01*
X401415017Y-264690017D01*
X401383777Y-264715654D01*
X401348138Y-264734704D01*
X401309468Y-264746435D01*
X401263112Y-264751000D01*
X400611888Y-264751000D01*
X400565532Y-264746435D01*
X400526862Y-264734704D01*
X400491223Y-264715654D01*
X400459983Y-264690017D01*
X400434346Y-264658777D01*
X400415296Y-264623138D01*
X400403565Y-264584468D01*
X400399000Y-264538112D01*
X400399000Y-263461888D01*
X400403565Y-263415532D01*
X400415296Y-263376862D01*
X400434346Y-263341223D01*
X400459983Y-263309983D01*
X400491223Y-263284346D01*
X400526862Y-263265296D01*
X400565532Y-263253565D01*
X400611888Y-263249000D01*
X401263112Y-263249000D01*
X401309468Y-263253565D01*
G37*
G36*
X376263512Y-262703927D02*
G01*
X376412812Y-262733624D01*
X376576784Y-262801544D01*
X376724354Y-262900147D01*
X376849853Y-263025646D01*
X376948456Y-263173216D01*
X377016376Y-263337188D01*
X377051000Y-263511259D01*
X377051000Y-263688741D01*
X377016376Y-263862812D01*
X376948456Y-264026784D01*
X376849853Y-264174354D01*
X376724354Y-264299853D01*
X376576784Y-264398456D01*
X376412812Y-264466376D01*
X376263512Y-264496073D01*
X376238742Y-264501000D01*
X376061258Y-264501000D01*
X376036488Y-264496073D01*
X375887188Y-264466376D01*
X375723216Y-264398456D01*
X375575646Y-264299853D01*
X375450147Y-264174354D01*
X375351544Y-264026784D01*
X375283624Y-263862812D01*
X375249000Y-263688741D01*
X375249000Y-263511259D01*
X375283624Y-263337188D01*
X375351544Y-263173216D01*
X375450147Y-263025646D01*
X375575646Y-262900147D01*
X375723216Y-262801544D01*
X375887188Y-262733624D01*
X376036488Y-262703927D01*
X376061258Y-262699000D01*
X376238742Y-262699000D01*
X376263512Y-262703927D01*
G37*
G36*
X427494739Y-261138707D02*
G01*
X427590329Y-261148122D01*
X427774306Y-261203931D01*
X427774309Y-261203932D01*
X427864225Y-261251994D01*
X427943860Y-261294559D01*
X427990035Y-261332454D01*
X428092476Y-261416524D01*
X428176546Y-261518965D01*
X428214441Y-261565140D01*
X428257006Y-261644775D01*
X428305068Y-261734691D01*
X428305069Y-261734694D01*
X428360878Y-261918671D01*
X428379722Y-262110000D01*
X428360878Y-262301329D01*
X428305069Y-262485306D01*
X428305068Y-262485309D01*
X428257006Y-262575225D01*
X428214441Y-262654860D01*
X428178216Y-262699000D01*
X428092476Y-262803476D01*
X427990035Y-262887546D01*
X427943860Y-262925441D01*
X427864225Y-262968006D01*
X427774309Y-263016068D01*
X427774306Y-263016069D01*
X427590329Y-263071878D01*
X427494739Y-263081293D01*
X427446945Y-263086000D01*
X426153055Y-263086000D01*
X426105261Y-263081293D01*
X426009671Y-263071878D01*
X425825694Y-263016069D01*
X425825691Y-263016068D01*
X425735775Y-262968006D01*
X425656140Y-262925441D01*
X425609965Y-262887546D01*
X425507524Y-262803476D01*
X425421784Y-262699000D01*
X425385559Y-262654860D01*
X425342994Y-262575225D01*
X425294932Y-262485309D01*
X425294931Y-262485306D01*
X425239122Y-262301329D01*
X425220278Y-262110000D01*
X425239122Y-261918671D01*
X425294931Y-261734694D01*
X425294932Y-261734691D01*
X425342994Y-261644775D01*
X425385559Y-261565140D01*
X425423454Y-261518965D01*
X425507524Y-261416524D01*
X425609965Y-261332454D01*
X425656140Y-261294559D01*
X425735775Y-261251994D01*
X425825691Y-261203932D01*
X425825694Y-261203931D01*
X426009671Y-261148122D01*
X426105261Y-261138707D01*
X426153055Y-261134000D01*
X427446945Y-261134000D01*
X427494739Y-261138707D01*
G37*
G36*
X439994739Y-261138707D02*
G01*
X440090329Y-261148122D01*
X440274306Y-261203931D01*
X440274309Y-261203932D01*
X440364225Y-261251994D01*
X440443860Y-261294559D01*
X440490035Y-261332454D01*
X440592476Y-261416524D01*
X440676546Y-261518965D01*
X440714441Y-261565140D01*
X440757006Y-261644775D01*
X440805068Y-261734691D01*
X440805069Y-261734694D01*
X440860878Y-261918671D01*
X440879722Y-262110000D01*
X440860878Y-262301329D01*
X440805069Y-262485306D01*
X440805068Y-262485309D01*
X440757006Y-262575225D01*
X440714441Y-262654860D01*
X440678216Y-262699000D01*
X440592476Y-262803476D01*
X440490035Y-262887546D01*
X440443860Y-262925441D01*
X440364225Y-262968006D01*
X440274309Y-263016068D01*
X440274306Y-263016069D01*
X440090329Y-263071878D01*
X439994739Y-263081293D01*
X439946945Y-263086000D01*
X438653055Y-263086000D01*
X438605261Y-263081293D01*
X438509671Y-263071878D01*
X438325694Y-263016069D01*
X438325691Y-263016068D01*
X438235775Y-262968006D01*
X438156140Y-262925441D01*
X438109965Y-262887546D01*
X438007524Y-262803476D01*
X437921784Y-262699000D01*
X437885559Y-262654860D01*
X437842994Y-262575225D01*
X437794932Y-262485309D01*
X437794931Y-262485306D01*
X437739122Y-262301329D01*
X437720278Y-262110000D01*
X437739122Y-261918671D01*
X437794931Y-261734694D01*
X437794932Y-261734691D01*
X437842994Y-261644775D01*
X437885559Y-261565140D01*
X437923454Y-261518965D01*
X438007524Y-261416524D01*
X438109965Y-261332454D01*
X438156140Y-261294559D01*
X438235775Y-261251994D01*
X438325691Y-261203932D01*
X438325694Y-261203931D01*
X438509671Y-261148122D01*
X438605261Y-261138707D01*
X438653055Y-261134000D01*
X439946945Y-261134000D01*
X439994739Y-261138707D01*
G37*
G36*
X402003512Y-259233927D02*
G01*
X402152812Y-259263624D01*
X402316784Y-259331544D01*
X402464354Y-259430147D01*
X402589853Y-259555646D01*
X402688456Y-259703216D01*
X402756376Y-259867188D01*
X402791000Y-260041259D01*
X402791000Y-260218741D01*
X402756376Y-260392812D01*
X402688456Y-260556784D01*
X402589853Y-260704354D01*
X402464354Y-260829853D01*
X402316784Y-260928456D01*
X402152812Y-260996376D01*
X402003512Y-261026073D01*
X401978742Y-261031000D01*
X401801258Y-261031000D01*
X401776488Y-261026073D01*
X401627188Y-260996376D01*
X401463216Y-260928456D01*
X401315646Y-260829853D01*
X401190147Y-260704354D01*
X401091544Y-260556784D01*
X401023624Y-260392812D01*
X400989000Y-260218741D01*
X400989000Y-260041259D01*
X401023624Y-259867188D01*
X401091544Y-259703216D01*
X401190147Y-259555646D01*
X401315646Y-259430147D01*
X401463216Y-259331544D01*
X401627188Y-259263624D01*
X401776488Y-259233927D01*
X401801258Y-259229000D01*
X401978742Y-259229000D01*
X402003512Y-259233927D01*
G37*
G36*
X384223512Y-259233927D02*
G01*
X384372812Y-259263624D01*
X384536784Y-259331544D01*
X384684354Y-259430147D01*
X384809853Y-259555646D01*
X384908456Y-259703216D01*
X384976376Y-259867188D01*
X385011000Y-260041259D01*
X385011000Y-260218741D01*
X384976376Y-260392812D01*
X384908456Y-260556784D01*
X384809853Y-260704354D01*
X384684354Y-260829853D01*
X384536784Y-260928456D01*
X384372812Y-260996376D01*
X384223512Y-261026073D01*
X384198742Y-261031000D01*
X384021258Y-261031000D01*
X383996488Y-261026073D01*
X383847188Y-260996376D01*
X383683216Y-260928456D01*
X383535646Y-260829853D01*
X383410147Y-260704354D01*
X383311544Y-260556784D01*
X383243624Y-260392812D01*
X383209000Y-260218741D01*
X383209000Y-260041259D01*
X383243624Y-259867188D01*
X383311544Y-259703216D01*
X383410147Y-259555646D01*
X383535646Y-259430147D01*
X383683216Y-259331544D01*
X383847188Y-259263624D01*
X383996488Y-259233927D01*
X384021258Y-259229000D01*
X384198742Y-259229000D01*
X384223512Y-259233927D01*
G37*
G36*
X395653512Y-259003927D02*
G01*
X395802812Y-259033624D01*
X395966784Y-259101544D01*
X396114354Y-259200147D01*
X396239853Y-259325646D01*
X396338456Y-259473216D01*
X396406376Y-259637188D01*
X396441000Y-259811259D01*
X396441000Y-259988741D01*
X396406376Y-260162812D01*
X396338456Y-260326784D01*
X396239853Y-260474354D01*
X396114354Y-260599853D01*
X395966784Y-260698456D01*
X395802812Y-260766376D01*
X395653512Y-260796073D01*
X395628742Y-260801000D01*
X395451258Y-260801000D01*
X395426488Y-260796073D01*
X395277188Y-260766376D01*
X395113216Y-260698456D01*
X394965646Y-260599853D01*
X394840147Y-260474354D01*
X394741544Y-260326784D01*
X394673624Y-260162812D01*
X394639000Y-259988741D01*
X394639000Y-259811259D01*
X394673624Y-259637188D01*
X394741544Y-259473216D01*
X394840147Y-259325646D01*
X394965646Y-259200147D01*
X395113216Y-259101544D01*
X395277188Y-259033624D01*
X395426488Y-259003927D01*
X395451258Y-258999000D01*
X395628742Y-258999000D01*
X395653512Y-259003927D01*
G37*
G36*
X390573512Y-259003927D02*
G01*
X390722812Y-259033624D01*
X390886784Y-259101544D01*
X391034354Y-259200147D01*
X391159853Y-259325646D01*
X391258456Y-259473216D01*
X391326376Y-259637188D01*
X391361000Y-259811259D01*
X391361000Y-259988741D01*
X391326376Y-260162812D01*
X391258456Y-260326784D01*
X391159853Y-260474354D01*
X391034354Y-260599853D01*
X390886784Y-260698456D01*
X390722812Y-260766376D01*
X390573512Y-260796073D01*
X390548742Y-260801000D01*
X390371258Y-260801000D01*
X390346488Y-260796073D01*
X390197188Y-260766376D01*
X390033216Y-260698456D01*
X389885646Y-260599853D01*
X389760147Y-260474354D01*
X389661544Y-260326784D01*
X389593624Y-260162812D01*
X389559000Y-259988741D01*
X389559000Y-259811259D01*
X389593624Y-259637188D01*
X389661544Y-259473216D01*
X389760147Y-259325646D01*
X389885646Y-259200147D01*
X390033216Y-259101544D01*
X390197188Y-259033624D01*
X390346488Y-259003927D01*
X390371258Y-258999000D01*
X390548742Y-258999000D01*
X390573512Y-259003927D01*
G37*
G36*
X393901000Y-260801000D02*
G01*
X392099000Y-260801000D01*
X392099000Y-258999000D01*
X393901000Y-258999000D01*
X393901000Y-260801000D01*
G37*
G36*
X384223512Y-256693927D02*
G01*
X384372812Y-256723624D01*
X384536784Y-256791544D01*
X384684354Y-256890147D01*
X384809853Y-257015646D01*
X384908456Y-257163216D01*
X384976376Y-257327188D01*
X385011000Y-257501259D01*
X385011000Y-257678741D01*
X384976376Y-257852812D01*
X384908456Y-258016784D01*
X384809853Y-258164354D01*
X384684354Y-258289853D01*
X384536784Y-258388456D01*
X384372812Y-258456376D01*
X384223512Y-258486073D01*
X384198742Y-258491000D01*
X384021258Y-258491000D01*
X383996488Y-258486073D01*
X383847188Y-258456376D01*
X383683216Y-258388456D01*
X383535646Y-258289853D01*
X383410147Y-258164354D01*
X383311544Y-258016784D01*
X383243624Y-257852812D01*
X383209000Y-257678741D01*
X383209000Y-257501259D01*
X383243624Y-257327188D01*
X383311544Y-257163216D01*
X383410147Y-257015646D01*
X383535646Y-256890147D01*
X383683216Y-256791544D01*
X383847188Y-256723624D01*
X383996488Y-256693927D01*
X384021258Y-256689000D01*
X384198742Y-256689000D01*
X384223512Y-256693927D01*
G37*
G36*
X402003512Y-256693927D02*
G01*
X402152812Y-256723624D01*
X402316784Y-256791544D01*
X402464354Y-256890147D01*
X402589853Y-257015646D01*
X402688456Y-257163216D01*
X402756376Y-257327188D01*
X402791000Y-257501259D01*
X402791000Y-257678741D01*
X402756376Y-257852812D01*
X402688456Y-258016784D01*
X402589853Y-258164354D01*
X402464354Y-258289853D01*
X402316784Y-258388456D01*
X402152812Y-258456376D01*
X402003512Y-258486073D01*
X401978742Y-258491000D01*
X401801258Y-258491000D01*
X401776488Y-258486073D01*
X401627188Y-258456376D01*
X401463216Y-258388456D01*
X401315646Y-258289853D01*
X401190147Y-258164354D01*
X401091544Y-258016784D01*
X401023624Y-257852812D01*
X400989000Y-257678741D01*
X400989000Y-257501259D01*
X401023624Y-257327188D01*
X401091544Y-257163216D01*
X401190147Y-257015646D01*
X401315646Y-256890147D01*
X401463216Y-256791544D01*
X401627188Y-256723624D01*
X401776488Y-256693927D01*
X401801258Y-256689000D01*
X401978742Y-256689000D01*
X402003512Y-256693927D01*
G37*
G36*
X427494739Y-256138707D02*
G01*
X427590329Y-256148122D01*
X427774306Y-256203931D01*
X427774309Y-256203932D01*
X427864225Y-256251994D01*
X427943860Y-256294559D01*
X427990035Y-256332454D01*
X428092476Y-256416524D01*
X428176546Y-256518965D01*
X428214441Y-256565140D01*
X428257006Y-256644775D01*
X428305068Y-256734691D01*
X428305069Y-256734694D01*
X428360878Y-256918671D01*
X428379722Y-257110000D01*
X428360878Y-257301329D01*
X428353033Y-257327189D01*
X428305068Y-257485309D01*
X428296543Y-257501258D01*
X428214441Y-257654860D01*
X428194842Y-257678741D01*
X428092476Y-257803476D01*
X427990035Y-257887546D01*
X427943860Y-257925441D01*
X427864225Y-257968006D01*
X427774309Y-258016068D01*
X427774306Y-258016069D01*
X427590329Y-258071878D01*
X427494739Y-258081293D01*
X427446945Y-258086000D01*
X426153055Y-258086000D01*
X426105261Y-258081293D01*
X426009671Y-258071878D01*
X425825694Y-258016069D01*
X425825691Y-258016068D01*
X425735775Y-257968006D01*
X425656140Y-257925441D01*
X425609965Y-257887546D01*
X425507524Y-257803476D01*
X425405158Y-257678741D01*
X425385559Y-257654860D01*
X425303457Y-257501258D01*
X425294932Y-257485309D01*
X425246967Y-257327189D01*
X425239122Y-257301329D01*
X425220278Y-257110000D01*
X425239122Y-256918671D01*
X425294931Y-256734694D01*
X425294932Y-256734691D01*
X425342994Y-256644775D01*
X425385559Y-256565140D01*
X425423454Y-256518965D01*
X425507524Y-256416524D01*
X425609965Y-256332454D01*
X425656140Y-256294559D01*
X425735775Y-256251994D01*
X425825691Y-256203932D01*
X425825694Y-256203931D01*
X426009671Y-256148122D01*
X426105261Y-256138707D01*
X426153055Y-256134000D01*
X427446945Y-256134000D01*
X427494739Y-256138707D01*
G37*
G36*
X439994739Y-256138707D02*
G01*
X440090329Y-256148122D01*
X440274306Y-256203931D01*
X440274309Y-256203932D01*
X440364225Y-256251994D01*
X440443860Y-256294559D01*
X440490035Y-256332454D01*
X440592476Y-256416524D01*
X440676546Y-256518965D01*
X440714441Y-256565140D01*
X440757006Y-256644775D01*
X440805068Y-256734691D01*
X440805069Y-256734694D01*
X440860878Y-256918671D01*
X440879722Y-257110000D01*
X440860878Y-257301329D01*
X440853033Y-257327189D01*
X440805068Y-257485309D01*
X440796543Y-257501258D01*
X440714441Y-257654860D01*
X440694842Y-257678741D01*
X440592476Y-257803476D01*
X440490035Y-257887546D01*
X440443860Y-257925441D01*
X440364225Y-257968006D01*
X440274309Y-258016068D01*
X440274306Y-258016069D01*
X440090329Y-258071878D01*
X439994739Y-258081293D01*
X439946945Y-258086000D01*
X438653055Y-258086000D01*
X438605261Y-258081293D01*
X438509671Y-258071878D01*
X438325694Y-258016069D01*
X438325691Y-258016068D01*
X438235775Y-257968006D01*
X438156140Y-257925441D01*
X438109965Y-257887546D01*
X438007524Y-257803476D01*
X437905158Y-257678741D01*
X437885559Y-257654860D01*
X437803457Y-257501258D01*
X437794932Y-257485309D01*
X437746967Y-257327189D01*
X437739122Y-257301329D01*
X437720278Y-257110000D01*
X437739122Y-256918671D01*
X437794931Y-256734694D01*
X437794932Y-256734691D01*
X437842994Y-256644775D01*
X437885559Y-256565140D01*
X437923454Y-256518965D01*
X438007524Y-256416524D01*
X438109965Y-256332454D01*
X438156140Y-256294559D01*
X438235775Y-256251994D01*
X438325691Y-256203932D01*
X438325694Y-256203931D01*
X438509671Y-256148122D01*
X438605261Y-256138707D01*
X438653055Y-256134000D01*
X439946945Y-256134000D01*
X439994739Y-256138707D01*
G37*
G36*
X402791000Y-255951000D02*
G01*
X400989000Y-255951000D01*
X400989000Y-254149000D01*
X402791000Y-254149000D01*
X402791000Y-255951000D01*
G37*
G36*
X385011000Y-255951000D02*
G01*
X383209000Y-255951000D01*
X383209000Y-254149000D01*
X385011000Y-254149000D01*
X385011000Y-255951000D01*
G37*
G36*
X402003512Y-251613927D02*
G01*
X402152812Y-251643624D01*
X402316784Y-251711544D01*
X402464354Y-251810147D01*
X402589853Y-251935646D01*
X402688456Y-252083216D01*
X402756376Y-252247188D01*
X402791000Y-252421259D01*
X402791000Y-252598741D01*
X402756376Y-252772812D01*
X402688456Y-252936784D01*
X402589853Y-253084354D01*
X402464354Y-253209853D01*
X402316784Y-253308456D01*
X402152812Y-253376376D01*
X402003512Y-253406073D01*
X401978742Y-253411000D01*
X401801258Y-253411000D01*
X401776488Y-253406073D01*
X401627188Y-253376376D01*
X401463216Y-253308456D01*
X401315646Y-253209853D01*
X401190147Y-253084354D01*
X401091544Y-252936784D01*
X401023624Y-252772812D01*
X400989000Y-252598741D01*
X400989000Y-252421259D01*
X401023624Y-252247188D01*
X401091544Y-252083216D01*
X401190147Y-251935646D01*
X401315646Y-251810147D01*
X401463216Y-251711544D01*
X401627188Y-251643624D01*
X401776488Y-251613927D01*
X401801258Y-251609000D01*
X401978742Y-251609000D01*
X402003512Y-251613927D01*
G37*
G36*
X384223512Y-251613927D02*
G01*
X384372812Y-251643624D01*
X384536784Y-251711544D01*
X384684354Y-251810147D01*
X384809853Y-251935646D01*
X384908456Y-252083216D01*
X384976376Y-252247188D01*
X385011000Y-252421259D01*
X385011000Y-252598741D01*
X384976376Y-252772812D01*
X384908456Y-252936784D01*
X384809853Y-253084354D01*
X384684354Y-253209853D01*
X384536784Y-253308456D01*
X384372812Y-253376376D01*
X384223512Y-253406073D01*
X384198742Y-253411000D01*
X384021258Y-253411000D01*
X383996488Y-253406073D01*
X383847188Y-253376376D01*
X383683216Y-253308456D01*
X383535646Y-253209853D01*
X383410147Y-253084354D01*
X383311544Y-252936784D01*
X383243624Y-252772812D01*
X383209000Y-252598741D01*
X383209000Y-252421259D01*
X383243624Y-252247188D01*
X383311544Y-252083216D01*
X383410147Y-251935646D01*
X383535646Y-251810147D01*
X383683216Y-251711544D01*
X383847188Y-251643624D01*
X383996488Y-251613927D01*
X384021258Y-251609000D01*
X384198742Y-251609000D01*
X384223512Y-251613927D01*
G37*
G36*
X402003512Y-249073927D02*
G01*
X402152812Y-249103624D01*
X402316784Y-249171544D01*
X402464354Y-249270147D01*
X402589853Y-249395646D01*
X402688456Y-249543216D01*
X402756376Y-249707188D01*
X402791000Y-249881259D01*
X402791000Y-250058741D01*
X402756376Y-250232812D01*
X402688456Y-250396784D01*
X402589853Y-250544354D01*
X402464354Y-250669853D01*
X402316784Y-250768456D01*
X402152812Y-250836376D01*
X402003512Y-250866073D01*
X401978742Y-250871000D01*
X401801258Y-250871000D01*
X401776488Y-250866073D01*
X401627188Y-250836376D01*
X401463216Y-250768456D01*
X401315646Y-250669853D01*
X401190147Y-250544354D01*
X401091544Y-250396784D01*
X401023624Y-250232812D01*
X400989000Y-250058741D01*
X400989000Y-249881259D01*
X401023624Y-249707188D01*
X401091544Y-249543216D01*
X401190147Y-249395646D01*
X401315646Y-249270147D01*
X401463216Y-249171544D01*
X401627188Y-249103624D01*
X401776488Y-249073927D01*
X401801258Y-249069000D01*
X401978742Y-249069000D01*
X402003512Y-249073927D01*
G37*
G36*
X384223512Y-249073927D02*
G01*
X384372812Y-249103624D01*
X384536784Y-249171544D01*
X384684354Y-249270147D01*
X384809853Y-249395646D01*
X384908456Y-249543216D01*
X384976376Y-249707188D01*
X385011000Y-249881259D01*
X385011000Y-250058741D01*
X384976376Y-250232812D01*
X384908456Y-250396784D01*
X384809853Y-250544354D01*
X384684354Y-250669853D01*
X384536784Y-250768456D01*
X384372812Y-250836376D01*
X384223512Y-250866073D01*
X384198742Y-250871000D01*
X384021258Y-250871000D01*
X383996488Y-250866073D01*
X383847188Y-250836376D01*
X383683216Y-250768456D01*
X383535646Y-250669853D01*
X383410147Y-250544354D01*
X383311544Y-250396784D01*
X383243624Y-250232812D01*
X383209000Y-250058741D01*
X383209000Y-249881259D01*
X383243624Y-249707188D01*
X383311544Y-249543216D01*
X383410147Y-249395646D01*
X383535646Y-249270147D01*
X383683216Y-249171544D01*
X383847188Y-249103624D01*
X383996488Y-249073927D01*
X384021258Y-249069000D01*
X384198742Y-249069000D01*
X384223512Y-249073927D01*
G37*
G36*
X402003512Y-246533927D02*
G01*
X402152812Y-246563624D01*
X402316784Y-246631544D01*
X402464354Y-246730147D01*
X402589853Y-246855646D01*
X402688456Y-247003216D01*
X402756376Y-247167188D01*
X402791000Y-247341259D01*
X402791000Y-247518741D01*
X402756376Y-247692812D01*
X402688456Y-247856784D01*
X402589853Y-248004354D01*
X402464354Y-248129853D01*
X402316784Y-248228456D01*
X402152812Y-248296376D01*
X402003512Y-248326073D01*
X401978742Y-248331000D01*
X401801258Y-248331000D01*
X401776488Y-248326073D01*
X401627188Y-248296376D01*
X401463216Y-248228456D01*
X401315646Y-248129853D01*
X401190147Y-248004354D01*
X401091544Y-247856784D01*
X401023624Y-247692812D01*
X400989000Y-247518741D01*
X400989000Y-247341259D01*
X401023624Y-247167188D01*
X401091544Y-247003216D01*
X401190147Y-246855646D01*
X401315646Y-246730147D01*
X401463216Y-246631544D01*
X401627188Y-246563624D01*
X401776488Y-246533927D01*
X401801258Y-246529000D01*
X401978742Y-246529000D01*
X402003512Y-246533927D01*
G37*
G36*
X384223512Y-246533927D02*
G01*
X384372812Y-246563624D01*
X384536784Y-246631544D01*
X384684354Y-246730147D01*
X384809853Y-246855646D01*
X384908456Y-247003216D01*
X384976376Y-247167188D01*
X385011000Y-247341259D01*
X385011000Y-247518741D01*
X384976376Y-247692812D01*
X384908456Y-247856784D01*
X384809853Y-248004354D01*
X384684354Y-248129853D01*
X384536784Y-248228456D01*
X384372812Y-248296376D01*
X384223512Y-248326073D01*
X384198742Y-248331000D01*
X384021258Y-248331000D01*
X383996488Y-248326073D01*
X383847188Y-248296376D01*
X383683216Y-248228456D01*
X383535646Y-248129853D01*
X383410147Y-248004354D01*
X383311544Y-247856784D01*
X383243624Y-247692812D01*
X383209000Y-247518741D01*
X383209000Y-247341259D01*
X383243624Y-247167188D01*
X383311544Y-247003216D01*
X383410147Y-246855646D01*
X383535646Y-246730147D01*
X383683216Y-246631544D01*
X383847188Y-246563624D01*
X383996488Y-246533927D01*
X384021258Y-246529000D01*
X384198742Y-246529000D01*
X384223512Y-246533927D01*
G37*
G36*
X427494739Y-245898707D02*
G01*
X427590329Y-245908122D01*
X427774306Y-245963931D01*
X427774309Y-245963932D01*
X427841510Y-245999852D01*
X427943860Y-246054559D01*
X427990035Y-246092454D01*
X428092476Y-246176524D01*
X428176546Y-246278965D01*
X428214441Y-246325140D01*
X428257006Y-246404775D01*
X428305068Y-246494691D01*
X428305069Y-246494694D01*
X428360878Y-246678671D01*
X428379722Y-246870000D01*
X428360878Y-247061329D01*
X428305069Y-247245306D01*
X428305068Y-247245309D01*
X428257006Y-247335225D01*
X428214441Y-247414860D01*
X428176546Y-247461035D01*
X428092476Y-247563476D01*
X427990035Y-247647546D01*
X427943860Y-247685441D01*
X427864225Y-247728006D01*
X427774309Y-247776068D01*
X427774306Y-247776069D01*
X427590329Y-247831878D01*
X427494739Y-247841293D01*
X427446945Y-247846000D01*
X426153055Y-247846000D01*
X426105261Y-247841293D01*
X426009671Y-247831878D01*
X425825694Y-247776069D01*
X425825691Y-247776068D01*
X425735775Y-247728006D01*
X425656140Y-247685441D01*
X425609965Y-247647546D01*
X425507524Y-247563476D01*
X425423454Y-247461035D01*
X425385559Y-247414860D01*
X425342994Y-247335225D01*
X425294932Y-247245309D01*
X425294931Y-247245306D01*
X425239122Y-247061329D01*
X425220278Y-246870000D01*
X425239122Y-246678671D01*
X425294931Y-246494694D01*
X425294932Y-246494691D01*
X425342994Y-246404775D01*
X425385559Y-246325140D01*
X425423454Y-246278965D01*
X425507524Y-246176524D01*
X425609965Y-246092454D01*
X425656140Y-246054559D01*
X425758490Y-245999852D01*
X425825691Y-245963932D01*
X425825694Y-245963931D01*
X426009671Y-245908122D01*
X426105261Y-245898707D01*
X426153055Y-245894000D01*
X427446945Y-245894000D01*
X427494739Y-245898707D01*
G37*
G36*
X439994739Y-245898707D02*
G01*
X440090329Y-245908122D01*
X440274306Y-245963931D01*
X440274309Y-245963932D01*
X440341510Y-245999852D01*
X440443860Y-246054559D01*
X440490035Y-246092454D01*
X440592476Y-246176524D01*
X440676546Y-246278965D01*
X440714441Y-246325140D01*
X440757006Y-246404775D01*
X440805068Y-246494691D01*
X440805069Y-246494694D01*
X440860878Y-246678671D01*
X440879722Y-246870000D01*
X440860878Y-247061329D01*
X440805069Y-247245306D01*
X440805068Y-247245309D01*
X440757006Y-247335225D01*
X440714441Y-247414860D01*
X440676546Y-247461035D01*
X440592476Y-247563476D01*
X440490035Y-247647546D01*
X440443860Y-247685441D01*
X440364225Y-247728006D01*
X440274309Y-247776068D01*
X440274306Y-247776069D01*
X440090329Y-247831878D01*
X439994739Y-247841293D01*
X439946945Y-247846000D01*
X438653055Y-247846000D01*
X438605261Y-247841293D01*
X438509671Y-247831878D01*
X438325694Y-247776069D01*
X438325691Y-247776068D01*
X438235775Y-247728006D01*
X438156140Y-247685441D01*
X438109965Y-247647546D01*
X438007524Y-247563476D01*
X437923454Y-247461035D01*
X437885559Y-247414860D01*
X437842994Y-247335225D01*
X437794932Y-247245309D01*
X437794931Y-247245306D01*
X437739122Y-247061329D01*
X437720278Y-246870000D01*
X437739122Y-246678671D01*
X437794931Y-246494694D01*
X437794932Y-246494691D01*
X437842994Y-246404775D01*
X437885559Y-246325140D01*
X437923454Y-246278965D01*
X438007524Y-246176524D01*
X438109965Y-246092454D01*
X438156140Y-246054559D01*
X438258490Y-245999852D01*
X438325691Y-245963932D01*
X438325694Y-245963931D01*
X438509671Y-245908122D01*
X438605261Y-245898707D01*
X438653055Y-245894000D01*
X439946945Y-245894000D01*
X439994739Y-245898707D01*
G37*
G36*
X323573512Y-244403927D02*
G01*
X323722812Y-244433624D01*
X323886784Y-244501544D01*
X324034354Y-244600147D01*
X324159853Y-244725646D01*
X324258456Y-244873216D01*
X324326376Y-245037188D01*
X324361000Y-245211259D01*
X324361000Y-245388741D01*
X324326376Y-245562812D01*
X324258456Y-245726784D01*
X324159853Y-245874354D01*
X324034354Y-245999853D01*
X323886784Y-246098456D01*
X323722812Y-246166376D01*
X323573512Y-246196073D01*
X323548742Y-246201000D01*
X323371258Y-246201000D01*
X323346488Y-246196073D01*
X323197188Y-246166376D01*
X323033216Y-246098456D01*
X322885646Y-245999853D01*
X322760147Y-245874354D01*
X322661544Y-245726784D01*
X322593624Y-245562812D01*
X322559000Y-245388741D01*
X322559000Y-245211259D01*
X322593624Y-245037188D01*
X322661544Y-244873216D01*
X322760147Y-244725646D01*
X322885646Y-244600147D01*
X323033216Y-244501544D01*
X323197188Y-244433624D01*
X323346488Y-244403927D01*
X323371258Y-244399000D01*
X323548742Y-244399000D01*
X323573512Y-244403927D01*
G37*
G36*
X326113512Y-244403927D02*
G01*
X326262812Y-244433624D01*
X326426784Y-244501544D01*
X326574354Y-244600147D01*
X326699853Y-244725646D01*
X326798456Y-244873216D01*
X326866376Y-245037188D01*
X326901000Y-245211259D01*
X326901000Y-245388741D01*
X326866376Y-245562812D01*
X326798456Y-245726784D01*
X326699853Y-245874354D01*
X326574354Y-245999853D01*
X326426784Y-246098456D01*
X326262812Y-246166376D01*
X326113512Y-246196073D01*
X326088742Y-246201000D01*
X325911258Y-246201000D01*
X325886488Y-246196073D01*
X325737188Y-246166376D01*
X325573216Y-246098456D01*
X325425646Y-245999853D01*
X325300147Y-245874354D01*
X325201544Y-245726784D01*
X325133624Y-245562812D01*
X325099000Y-245388741D01*
X325099000Y-245211259D01*
X325133624Y-245037188D01*
X325201544Y-244873216D01*
X325300147Y-244725646D01*
X325425646Y-244600147D01*
X325573216Y-244501544D01*
X325737188Y-244433624D01*
X325886488Y-244403927D01*
X325911258Y-244399000D01*
X326088742Y-244399000D01*
X326113512Y-244403927D01*
G37*
G36*
X402003512Y-243993927D02*
G01*
X402152812Y-244023624D01*
X402316784Y-244091544D01*
X402464354Y-244190147D01*
X402589853Y-244315646D01*
X402688456Y-244463216D01*
X402756376Y-244627188D01*
X402791000Y-244801259D01*
X402791000Y-244978741D01*
X402756376Y-245152812D01*
X402688456Y-245316784D01*
X402589853Y-245464354D01*
X402464354Y-245589853D01*
X402316784Y-245688456D01*
X402152812Y-245756376D01*
X402003512Y-245786073D01*
X401978742Y-245791000D01*
X401801258Y-245791000D01*
X401776488Y-245786073D01*
X401627188Y-245756376D01*
X401463216Y-245688456D01*
X401315646Y-245589853D01*
X401190147Y-245464354D01*
X401091544Y-245316784D01*
X401023624Y-245152812D01*
X400989000Y-244978741D01*
X400989000Y-244801259D01*
X401023624Y-244627188D01*
X401091544Y-244463216D01*
X401190147Y-244315646D01*
X401315646Y-244190147D01*
X401463216Y-244091544D01*
X401627188Y-244023624D01*
X401776488Y-243993927D01*
X401801258Y-243989000D01*
X401978742Y-243989000D01*
X402003512Y-243993927D01*
G37*
G36*
X384223512Y-243993927D02*
G01*
X384372812Y-244023624D01*
X384536784Y-244091544D01*
X384684354Y-244190147D01*
X384809853Y-244315646D01*
X384908456Y-244463216D01*
X384976376Y-244627188D01*
X385011000Y-244801259D01*
X385011000Y-244978741D01*
X384976376Y-245152812D01*
X384908456Y-245316784D01*
X384809853Y-245464354D01*
X384684354Y-245589853D01*
X384536784Y-245688456D01*
X384372812Y-245756376D01*
X384223512Y-245786073D01*
X384198742Y-245791000D01*
X384021258Y-245791000D01*
X383996488Y-245786073D01*
X383847188Y-245756376D01*
X383683216Y-245688456D01*
X383535646Y-245589853D01*
X383410147Y-245464354D01*
X383311544Y-245316784D01*
X383243624Y-245152812D01*
X383209000Y-244978741D01*
X383209000Y-244801259D01*
X383243624Y-244627188D01*
X383311544Y-244463216D01*
X383410147Y-244315646D01*
X383535646Y-244190147D01*
X383683216Y-244091544D01*
X383847188Y-244023624D01*
X383996488Y-243993927D01*
X384021258Y-243989000D01*
X384198742Y-243989000D01*
X384223512Y-243993927D01*
G37*
G36*
X326113512Y-241863927D02*
G01*
X326262812Y-241893624D01*
X326426784Y-241961544D01*
X326574354Y-242060147D01*
X326699853Y-242185646D01*
X326798456Y-242333216D01*
X326866376Y-242497188D01*
X326901000Y-242671259D01*
X326901000Y-242848741D01*
X326866376Y-243022812D01*
X326798456Y-243186784D01*
X326699853Y-243334354D01*
X326574354Y-243459853D01*
X326426784Y-243558456D01*
X326262812Y-243626376D01*
X326113512Y-243656073D01*
X326088742Y-243661000D01*
X325911258Y-243661000D01*
X325886488Y-243656073D01*
X325737188Y-243626376D01*
X325573216Y-243558456D01*
X325425646Y-243459853D01*
X325300147Y-243334354D01*
X325201544Y-243186784D01*
X325133624Y-243022812D01*
X325099000Y-242848741D01*
X325099000Y-242671259D01*
X325133624Y-242497188D01*
X325201544Y-242333216D01*
X325300147Y-242185646D01*
X325425646Y-242060147D01*
X325573216Y-241961544D01*
X325737188Y-241893624D01*
X325886488Y-241863927D01*
X325911258Y-241859000D01*
X326088742Y-241859000D01*
X326113512Y-241863927D01*
G37*
G36*
X323573512Y-241863927D02*
G01*
X323722812Y-241893624D01*
X323886784Y-241961544D01*
X324034354Y-242060147D01*
X324159853Y-242185646D01*
X324258456Y-242333216D01*
X324326376Y-242497188D01*
X324361000Y-242671259D01*
X324361000Y-242848741D01*
X324326376Y-243022812D01*
X324258456Y-243186784D01*
X324159853Y-243334354D01*
X324034354Y-243459853D01*
X323886784Y-243558456D01*
X323722812Y-243626376D01*
X323573512Y-243656073D01*
X323548742Y-243661000D01*
X323371258Y-243661000D01*
X323346488Y-243656073D01*
X323197188Y-243626376D01*
X323033216Y-243558456D01*
X322885646Y-243459853D01*
X322760147Y-243334354D01*
X322661544Y-243186784D01*
X322593624Y-243022812D01*
X322559000Y-242848741D01*
X322559000Y-242671259D01*
X322593624Y-242497188D01*
X322661544Y-242333216D01*
X322760147Y-242185646D01*
X322885646Y-242060147D01*
X323033216Y-241961544D01*
X323197188Y-241893624D01*
X323346488Y-241863927D01*
X323371258Y-241859000D01*
X323548742Y-241859000D01*
X323573512Y-241863927D01*
G37*
G36*
X385011000Y-243251000D02*
G01*
X383209000Y-243251000D01*
X383209000Y-241449000D01*
X385011000Y-241449000D01*
X385011000Y-243251000D01*
G37*
G36*
X402791000Y-243251000D02*
G01*
X400989000Y-243251000D01*
X400989000Y-241449000D01*
X402791000Y-241449000D01*
X402791000Y-243251000D01*
G37*
G36*
X439994739Y-240898707D02*
G01*
X440090329Y-240908122D01*
X440274306Y-240963931D01*
X440274309Y-240963932D01*
X440364225Y-241011994D01*
X440443860Y-241054559D01*
X440482629Y-241086376D01*
X440592476Y-241176524D01*
X440676546Y-241278965D01*
X440714441Y-241325140D01*
X440757006Y-241404775D01*
X440805068Y-241494691D01*
X440805069Y-241494694D01*
X440860878Y-241678671D01*
X440879722Y-241870000D01*
X440860878Y-242061329D01*
X440823166Y-242185647D01*
X440805068Y-242245309D01*
X440758080Y-242333216D01*
X440714441Y-242414860D01*
X440676546Y-242461035D01*
X440592476Y-242563476D01*
X440490035Y-242647546D01*
X440443860Y-242685441D01*
X440364225Y-242728006D01*
X440274309Y-242776068D01*
X440274306Y-242776069D01*
X440090329Y-242831878D01*
X439994739Y-242841293D01*
X439946945Y-242846000D01*
X438653055Y-242846000D01*
X438605261Y-242841293D01*
X438509671Y-242831878D01*
X438325694Y-242776069D01*
X438325691Y-242776068D01*
X438235775Y-242728006D01*
X438156140Y-242685441D01*
X438109965Y-242647546D01*
X438007524Y-242563476D01*
X437923454Y-242461035D01*
X437885559Y-242414860D01*
X437841920Y-242333216D01*
X437794932Y-242245309D01*
X437776834Y-242185647D01*
X437739122Y-242061329D01*
X437720278Y-241870000D01*
X437739122Y-241678671D01*
X437794931Y-241494694D01*
X437794932Y-241494691D01*
X437842994Y-241404775D01*
X437885559Y-241325140D01*
X437923454Y-241278965D01*
X438007524Y-241176524D01*
X438117371Y-241086376D01*
X438156140Y-241054559D01*
X438235775Y-241011994D01*
X438325691Y-240963932D01*
X438325694Y-240963931D01*
X438509671Y-240908122D01*
X438605261Y-240898707D01*
X438653055Y-240894000D01*
X439946945Y-240894000D01*
X439994739Y-240898707D01*
G37*
G36*
X427494739Y-240898707D02*
G01*
X427590329Y-240908122D01*
X427774306Y-240963931D01*
X427774309Y-240963932D01*
X427864225Y-241011994D01*
X427943860Y-241054559D01*
X427982629Y-241086376D01*
X428092476Y-241176524D01*
X428176546Y-241278965D01*
X428214441Y-241325140D01*
X428257006Y-241404775D01*
X428305068Y-241494691D01*
X428305069Y-241494694D01*
X428360878Y-241678671D01*
X428379722Y-241870000D01*
X428360878Y-242061329D01*
X428323166Y-242185647D01*
X428305068Y-242245309D01*
X428258080Y-242333216D01*
X428214441Y-242414860D01*
X428176546Y-242461035D01*
X428092476Y-242563476D01*
X427990035Y-242647546D01*
X427943860Y-242685441D01*
X427864225Y-242728006D01*
X427774309Y-242776068D01*
X427774306Y-242776069D01*
X427590329Y-242831878D01*
X427494739Y-242841293D01*
X427446945Y-242846000D01*
X426153055Y-242846000D01*
X426105261Y-242841293D01*
X426009671Y-242831878D01*
X425825694Y-242776069D01*
X425825691Y-242776068D01*
X425735775Y-242728006D01*
X425656140Y-242685441D01*
X425609965Y-242647546D01*
X425507524Y-242563476D01*
X425423454Y-242461035D01*
X425385559Y-242414860D01*
X425341920Y-242333216D01*
X425294932Y-242245309D01*
X425276834Y-242185647D01*
X425239122Y-242061329D01*
X425220278Y-241870000D01*
X425239122Y-241678671D01*
X425294931Y-241494694D01*
X425294932Y-241494691D01*
X425342994Y-241404775D01*
X425385559Y-241325140D01*
X425423454Y-241278965D01*
X425507524Y-241176524D01*
X425617371Y-241086376D01*
X425656140Y-241054559D01*
X425735775Y-241011994D01*
X425825691Y-240963932D01*
X425825694Y-240963931D01*
X426009671Y-240908122D01*
X426105261Y-240898707D01*
X426153055Y-240894000D01*
X427446945Y-240894000D01*
X427494739Y-240898707D01*
G37*
G36*
X323573512Y-239323927D02*
G01*
X323722812Y-239353624D01*
X323886784Y-239421544D01*
X324034354Y-239520147D01*
X324159853Y-239645646D01*
X324258456Y-239793216D01*
X324326376Y-239957188D01*
X324361000Y-240131259D01*
X324361000Y-240308741D01*
X324326376Y-240482812D01*
X324258456Y-240646784D01*
X324159853Y-240794354D01*
X324034354Y-240919853D01*
X323886784Y-241018456D01*
X323722812Y-241086376D01*
X323573512Y-241116073D01*
X323548742Y-241121000D01*
X323371258Y-241121000D01*
X323346488Y-241116073D01*
X323197188Y-241086376D01*
X323033216Y-241018456D01*
X322885646Y-240919853D01*
X322760147Y-240794354D01*
X322661544Y-240646784D01*
X322593624Y-240482812D01*
X322559000Y-240308741D01*
X322559000Y-240131259D01*
X322593624Y-239957188D01*
X322661544Y-239793216D01*
X322760147Y-239645646D01*
X322885646Y-239520147D01*
X323033216Y-239421544D01*
X323197188Y-239353624D01*
X323346488Y-239323927D01*
X323371258Y-239319000D01*
X323548742Y-239319000D01*
X323573512Y-239323927D01*
G37*
G36*
X326113512Y-239323927D02*
G01*
X326262812Y-239353624D01*
X326426784Y-239421544D01*
X326574354Y-239520147D01*
X326699853Y-239645646D01*
X326798456Y-239793216D01*
X326866376Y-239957188D01*
X326901000Y-240131259D01*
X326901000Y-240308741D01*
X326866376Y-240482812D01*
X326798456Y-240646784D01*
X326699853Y-240794354D01*
X326574354Y-240919853D01*
X326426784Y-241018456D01*
X326262812Y-241086376D01*
X326113512Y-241116073D01*
X326088742Y-241121000D01*
X325911258Y-241121000D01*
X325886488Y-241116073D01*
X325737188Y-241086376D01*
X325573216Y-241018456D01*
X325425646Y-240919853D01*
X325300147Y-240794354D01*
X325201544Y-240646784D01*
X325133624Y-240482812D01*
X325099000Y-240308741D01*
X325099000Y-240131259D01*
X325133624Y-239957188D01*
X325201544Y-239793216D01*
X325300147Y-239645646D01*
X325425646Y-239520147D01*
X325573216Y-239421544D01*
X325737188Y-239353624D01*
X325886488Y-239323927D01*
X325911258Y-239319000D01*
X326088742Y-239319000D01*
X326113512Y-239323927D01*
G37*
G36*
X402003512Y-238913927D02*
G01*
X402152812Y-238943624D01*
X402316784Y-239011544D01*
X402464354Y-239110147D01*
X402589853Y-239235646D01*
X402688456Y-239383216D01*
X402756376Y-239547188D01*
X402791000Y-239721259D01*
X402791000Y-239898741D01*
X402756376Y-240072812D01*
X402688456Y-240236784D01*
X402589853Y-240384354D01*
X402464354Y-240509853D01*
X402316784Y-240608456D01*
X402152812Y-240676376D01*
X402003512Y-240706073D01*
X401978742Y-240711000D01*
X401801258Y-240711000D01*
X401776488Y-240706073D01*
X401627188Y-240676376D01*
X401463216Y-240608456D01*
X401315646Y-240509853D01*
X401190147Y-240384354D01*
X401091544Y-240236784D01*
X401023624Y-240072812D01*
X400989000Y-239898741D01*
X400989000Y-239721259D01*
X401023624Y-239547188D01*
X401091544Y-239383216D01*
X401190147Y-239235646D01*
X401315646Y-239110147D01*
X401463216Y-239011544D01*
X401627188Y-238943624D01*
X401776488Y-238913927D01*
X401801258Y-238909000D01*
X401978742Y-238909000D01*
X402003512Y-238913927D01*
G37*
G36*
X384223512Y-238913927D02*
G01*
X384372812Y-238943624D01*
X384536784Y-239011544D01*
X384684354Y-239110147D01*
X384809853Y-239235646D01*
X384908456Y-239383216D01*
X384976376Y-239547188D01*
X385011000Y-239721259D01*
X385011000Y-239898741D01*
X384976376Y-240072812D01*
X384908456Y-240236784D01*
X384809853Y-240384354D01*
X384684354Y-240509853D01*
X384536784Y-240608456D01*
X384372812Y-240676376D01*
X384223512Y-240706073D01*
X384198742Y-240711000D01*
X384021258Y-240711000D01*
X383996488Y-240706073D01*
X383847188Y-240676376D01*
X383683216Y-240608456D01*
X383535646Y-240509853D01*
X383410147Y-240384354D01*
X383311544Y-240236784D01*
X383243624Y-240072812D01*
X383209000Y-239898741D01*
X383209000Y-239721259D01*
X383243624Y-239547188D01*
X383311544Y-239383216D01*
X383410147Y-239235646D01*
X383535646Y-239110147D01*
X383683216Y-239011544D01*
X383847188Y-238943624D01*
X383996488Y-238913927D01*
X384021258Y-238909000D01*
X384198742Y-238909000D01*
X384223512Y-238913927D01*
G37*
G36*
X323573512Y-236783927D02*
G01*
X323722812Y-236813624D01*
X323886784Y-236881544D01*
X324034354Y-236980147D01*
X324159853Y-237105646D01*
X324258456Y-237253216D01*
X324326376Y-237417188D01*
X324361000Y-237591259D01*
X324361000Y-237768741D01*
X324326376Y-237942812D01*
X324258456Y-238106784D01*
X324159853Y-238254354D01*
X324034354Y-238379853D01*
X323886784Y-238478456D01*
X323722812Y-238546376D01*
X323573512Y-238576073D01*
X323548742Y-238581000D01*
X323371258Y-238581000D01*
X323346488Y-238576073D01*
X323197188Y-238546376D01*
X323033216Y-238478456D01*
X322885646Y-238379853D01*
X322760147Y-238254354D01*
X322661544Y-238106784D01*
X322593624Y-237942812D01*
X322559000Y-237768741D01*
X322559000Y-237591259D01*
X322593624Y-237417188D01*
X322661544Y-237253216D01*
X322760147Y-237105646D01*
X322885646Y-236980147D01*
X323033216Y-236881544D01*
X323197188Y-236813624D01*
X323346488Y-236783927D01*
X323371258Y-236779000D01*
X323548742Y-236779000D01*
X323573512Y-236783927D01*
G37*
G36*
X326113512Y-236783927D02*
G01*
X326262812Y-236813624D01*
X326426784Y-236881544D01*
X326574354Y-236980147D01*
X326699853Y-237105646D01*
X326798456Y-237253216D01*
X326866376Y-237417188D01*
X326901000Y-237591259D01*
X326901000Y-237768741D01*
X326866376Y-237942812D01*
X326798456Y-238106784D01*
X326699853Y-238254354D01*
X326574354Y-238379853D01*
X326426784Y-238478456D01*
X326262812Y-238546376D01*
X326113512Y-238576073D01*
X326088742Y-238581000D01*
X325911258Y-238581000D01*
X325886488Y-238576073D01*
X325737188Y-238546376D01*
X325573216Y-238478456D01*
X325425646Y-238379853D01*
X325300147Y-238254354D01*
X325201544Y-238106784D01*
X325133624Y-237942812D01*
X325099000Y-237768741D01*
X325099000Y-237591259D01*
X325133624Y-237417188D01*
X325201544Y-237253216D01*
X325300147Y-237105646D01*
X325425646Y-236980147D01*
X325573216Y-236881544D01*
X325737188Y-236813624D01*
X325886488Y-236783927D01*
X325911258Y-236779000D01*
X326088742Y-236779000D01*
X326113512Y-236783927D01*
G37*
G36*
X402003512Y-236373927D02*
G01*
X402152812Y-236403624D01*
X402316784Y-236471544D01*
X402464354Y-236570147D01*
X402589853Y-236695646D01*
X402688456Y-236843216D01*
X402756376Y-237007188D01*
X402791000Y-237181259D01*
X402791000Y-237358741D01*
X402756376Y-237532812D01*
X402688456Y-237696784D01*
X402589853Y-237844354D01*
X402464354Y-237969853D01*
X402316784Y-238068456D01*
X402152812Y-238136376D01*
X402003512Y-238166073D01*
X401978742Y-238171000D01*
X401801258Y-238171000D01*
X401776488Y-238166073D01*
X401627188Y-238136376D01*
X401463216Y-238068456D01*
X401315646Y-237969853D01*
X401190147Y-237844354D01*
X401091544Y-237696784D01*
X401023624Y-237532812D01*
X400989000Y-237358741D01*
X400989000Y-237181259D01*
X401023624Y-237007188D01*
X401091544Y-236843216D01*
X401190147Y-236695646D01*
X401315646Y-236570147D01*
X401463216Y-236471544D01*
X401627188Y-236403624D01*
X401776488Y-236373927D01*
X401801258Y-236369000D01*
X401978742Y-236369000D01*
X402003512Y-236373927D01*
G37*
G36*
X384223512Y-236373927D02*
G01*
X384372812Y-236403624D01*
X384536784Y-236471544D01*
X384684354Y-236570147D01*
X384809853Y-236695646D01*
X384908456Y-236843216D01*
X384976376Y-237007188D01*
X385011000Y-237181259D01*
X385011000Y-237358741D01*
X384976376Y-237532812D01*
X384908456Y-237696784D01*
X384809853Y-237844354D01*
X384684354Y-237969853D01*
X384536784Y-238068456D01*
X384372812Y-238136376D01*
X384223512Y-238166073D01*
X384198742Y-238171000D01*
X384021258Y-238171000D01*
X383996488Y-238166073D01*
X383847188Y-238136376D01*
X383683216Y-238068456D01*
X383535646Y-237969853D01*
X383410147Y-237844354D01*
X383311544Y-237696784D01*
X383243624Y-237532812D01*
X383209000Y-237358741D01*
X383209000Y-237181259D01*
X383243624Y-237007188D01*
X383311544Y-236843216D01*
X383410147Y-236695646D01*
X383535646Y-236570147D01*
X383683216Y-236471544D01*
X383847188Y-236403624D01*
X383996488Y-236373927D01*
X384021258Y-236369000D01*
X384198742Y-236369000D01*
X384223512Y-236373927D01*
G37*
G36*
X323573512Y-234243927D02*
G01*
X323722812Y-234273624D01*
X323886784Y-234341544D01*
X324034354Y-234440147D01*
X324159853Y-234565646D01*
X324258456Y-234713216D01*
X324326376Y-234877188D01*
X324361000Y-235051259D01*
X324361000Y-235228741D01*
X324326376Y-235402812D01*
X324258456Y-235566784D01*
X324159853Y-235714354D01*
X324034354Y-235839853D01*
X323886784Y-235938456D01*
X323722812Y-236006376D01*
X323573512Y-236036073D01*
X323548742Y-236041000D01*
X323371258Y-236041000D01*
X323346488Y-236036073D01*
X323197188Y-236006376D01*
X323033216Y-235938456D01*
X322885646Y-235839853D01*
X322760147Y-235714354D01*
X322661544Y-235566784D01*
X322593624Y-235402812D01*
X322559000Y-235228741D01*
X322559000Y-235051259D01*
X322593624Y-234877188D01*
X322661544Y-234713216D01*
X322760147Y-234565646D01*
X322885646Y-234440147D01*
X323033216Y-234341544D01*
X323197188Y-234273624D01*
X323346488Y-234243927D01*
X323371258Y-234239000D01*
X323548742Y-234239000D01*
X323573512Y-234243927D01*
G37*
G36*
X326113512Y-234243927D02*
G01*
X326262812Y-234273624D01*
X326426784Y-234341544D01*
X326574354Y-234440147D01*
X326699853Y-234565646D01*
X326798456Y-234713216D01*
X326866376Y-234877188D01*
X326901000Y-235051259D01*
X326901000Y-235228741D01*
X326866376Y-235402812D01*
X326798456Y-235566784D01*
X326699853Y-235714354D01*
X326574354Y-235839853D01*
X326426784Y-235938456D01*
X326262812Y-236006376D01*
X326113512Y-236036073D01*
X326088742Y-236041000D01*
X325911258Y-236041000D01*
X325886488Y-236036073D01*
X325737188Y-236006376D01*
X325573216Y-235938456D01*
X325425646Y-235839853D01*
X325300147Y-235714354D01*
X325201544Y-235566784D01*
X325133624Y-235402812D01*
X325099000Y-235228741D01*
X325099000Y-235051259D01*
X325133624Y-234877188D01*
X325201544Y-234713216D01*
X325300147Y-234565646D01*
X325425646Y-234440147D01*
X325573216Y-234341544D01*
X325737188Y-234273624D01*
X325886488Y-234243927D01*
X325911258Y-234239000D01*
X326088742Y-234239000D01*
X326113512Y-234243927D01*
G37*
G36*
X402003512Y-233833927D02*
G01*
X402152812Y-233863624D01*
X402316784Y-233931544D01*
X402464354Y-234030147D01*
X402589853Y-234155646D01*
X402688456Y-234303216D01*
X402756376Y-234467188D01*
X402791000Y-234641259D01*
X402791000Y-234818741D01*
X402756376Y-234992812D01*
X402688456Y-235156784D01*
X402589853Y-235304354D01*
X402464354Y-235429853D01*
X402316784Y-235528456D01*
X402152812Y-235596376D01*
X402003512Y-235626073D01*
X401978742Y-235631000D01*
X401801258Y-235631000D01*
X401776488Y-235626073D01*
X401627188Y-235596376D01*
X401463216Y-235528456D01*
X401315646Y-235429853D01*
X401190147Y-235304354D01*
X401091544Y-235156784D01*
X401023624Y-234992812D01*
X400989000Y-234818741D01*
X400989000Y-234641259D01*
X401023624Y-234467188D01*
X401091544Y-234303216D01*
X401190147Y-234155646D01*
X401315646Y-234030147D01*
X401463216Y-233931544D01*
X401627188Y-233863624D01*
X401776488Y-233833927D01*
X401801258Y-233829000D01*
X401978742Y-233829000D01*
X402003512Y-233833927D01*
G37*
G36*
X384223512Y-233833927D02*
G01*
X384372812Y-233863624D01*
X384536784Y-233931544D01*
X384684354Y-234030147D01*
X384809853Y-234155646D01*
X384908456Y-234303216D01*
X384976376Y-234467188D01*
X385011000Y-234641259D01*
X385011000Y-234818741D01*
X384976376Y-234992812D01*
X384908456Y-235156784D01*
X384809853Y-235304354D01*
X384684354Y-235429853D01*
X384536784Y-235528456D01*
X384372812Y-235596376D01*
X384223512Y-235626073D01*
X384198742Y-235631000D01*
X384021258Y-235631000D01*
X383996488Y-235626073D01*
X383847188Y-235596376D01*
X383683216Y-235528456D01*
X383535646Y-235429853D01*
X383410147Y-235304354D01*
X383311544Y-235156784D01*
X383243624Y-234992812D01*
X383209000Y-234818741D01*
X383209000Y-234641259D01*
X383243624Y-234467188D01*
X383311544Y-234303216D01*
X383410147Y-234155646D01*
X383535646Y-234030147D01*
X383683216Y-233931544D01*
X383847188Y-233863624D01*
X383996488Y-233833927D01*
X384021258Y-233829000D01*
X384198742Y-233829000D01*
X384223512Y-233833927D01*
G37*
G36*
X323573512Y-231703927D02*
G01*
X323722812Y-231733624D01*
X323886784Y-231801544D01*
X324034354Y-231900147D01*
X324159853Y-232025646D01*
X324258456Y-232173216D01*
X324326376Y-232337188D01*
X324361000Y-232511259D01*
X324361000Y-232688741D01*
X324326376Y-232862812D01*
X324258456Y-233026784D01*
X324159853Y-233174354D01*
X324034354Y-233299853D01*
X323886784Y-233398456D01*
X323722812Y-233466376D01*
X323573512Y-233496073D01*
X323548742Y-233501000D01*
X323371258Y-233501000D01*
X323346488Y-233496073D01*
X323197188Y-233466376D01*
X323033216Y-233398456D01*
X322885646Y-233299853D01*
X322760147Y-233174354D01*
X322661544Y-233026784D01*
X322593624Y-232862812D01*
X322559000Y-232688741D01*
X322559000Y-232511259D01*
X322593624Y-232337188D01*
X322661544Y-232173216D01*
X322760147Y-232025646D01*
X322885646Y-231900147D01*
X323033216Y-231801544D01*
X323197188Y-231733624D01*
X323346488Y-231703927D01*
X323371258Y-231699000D01*
X323548742Y-231699000D01*
X323573512Y-231703927D01*
G37*
G36*
X326113512Y-231703927D02*
G01*
X326262812Y-231733624D01*
X326426784Y-231801544D01*
X326574354Y-231900147D01*
X326699853Y-232025646D01*
X326798456Y-232173216D01*
X326866376Y-232337188D01*
X326901000Y-232511259D01*
X326901000Y-232688741D01*
X326866376Y-232862812D01*
X326798456Y-233026784D01*
X326699853Y-233174354D01*
X326574354Y-233299853D01*
X326426784Y-233398456D01*
X326262812Y-233466376D01*
X326113512Y-233496073D01*
X326088742Y-233501000D01*
X325911258Y-233501000D01*
X325886488Y-233496073D01*
X325737188Y-233466376D01*
X325573216Y-233398456D01*
X325425646Y-233299853D01*
X325300147Y-233174354D01*
X325201544Y-233026784D01*
X325133624Y-232862812D01*
X325099000Y-232688741D01*
X325099000Y-232511259D01*
X325133624Y-232337188D01*
X325201544Y-232173216D01*
X325300147Y-232025646D01*
X325425646Y-231900147D01*
X325573216Y-231801544D01*
X325737188Y-231733624D01*
X325886488Y-231703927D01*
X325911258Y-231699000D01*
X326088742Y-231699000D01*
X326113512Y-231703927D01*
G37*
G36*
X384223512Y-231293927D02*
G01*
X384372812Y-231323624D01*
X384536784Y-231391544D01*
X384684354Y-231490147D01*
X384809853Y-231615646D01*
X384908456Y-231763216D01*
X384976376Y-231927188D01*
X385011000Y-232101259D01*
X385011000Y-232278741D01*
X384976376Y-232452812D01*
X384908456Y-232616784D01*
X384809853Y-232764354D01*
X384684354Y-232889853D01*
X384536784Y-232988456D01*
X384372812Y-233056376D01*
X384223512Y-233086073D01*
X384198742Y-233091000D01*
X384021258Y-233091000D01*
X383996488Y-233086073D01*
X383847188Y-233056376D01*
X383683216Y-232988456D01*
X383535646Y-232889853D01*
X383410147Y-232764354D01*
X383311544Y-232616784D01*
X383243624Y-232452812D01*
X383209000Y-232278741D01*
X383209000Y-232101259D01*
X383243624Y-231927188D01*
X383311544Y-231763216D01*
X383410147Y-231615646D01*
X383535646Y-231490147D01*
X383683216Y-231391544D01*
X383847188Y-231323624D01*
X383996488Y-231293927D01*
X384021258Y-231289000D01*
X384198742Y-231289000D01*
X384223512Y-231293927D01*
G37*
G36*
X402003512Y-231293927D02*
G01*
X402152812Y-231323624D01*
X402316784Y-231391544D01*
X402464354Y-231490147D01*
X402589853Y-231615646D01*
X402688456Y-231763216D01*
X402756376Y-231927188D01*
X402791000Y-232101259D01*
X402791000Y-232278741D01*
X402756376Y-232452812D01*
X402688456Y-232616784D01*
X402589853Y-232764354D01*
X402464354Y-232889853D01*
X402316784Y-232988456D01*
X402152812Y-233056376D01*
X402003512Y-233086073D01*
X401978742Y-233091000D01*
X401801258Y-233091000D01*
X401776488Y-233086073D01*
X401627188Y-233056376D01*
X401463216Y-232988456D01*
X401315646Y-232889853D01*
X401190147Y-232764354D01*
X401091544Y-232616784D01*
X401023624Y-232452812D01*
X400989000Y-232278741D01*
X400989000Y-232101259D01*
X401023624Y-231927188D01*
X401091544Y-231763216D01*
X401190147Y-231615646D01*
X401315646Y-231490147D01*
X401463216Y-231391544D01*
X401627188Y-231323624D01*
X401776488Y-231293927D01*
X401801258Y-231289000D01*
X401978742Y-231289000D01*
X402003512Y-231293927D01*
G37*
G36*
X439994739Y-230658707D02*
G01*
X440090329Y-230668122D01*
X440274306Y-230723931D01*
X440274309Y-230723932D01*
X440341510Y-230759852D01*
X440443860Y-230814559D01*
X440490035Y-230852454D01*
X440592476Y-230936524D01*
X440676546Y-231038965D01*
X440714441Y-231085140D01*
X440757006Y-231164775D01*
X440805068Y-231254691D01*
X440805069Y-231254694D01*
X440860878Y-231438671D01*
X440879722Y-231630000D01*
X440860878Y-231821329D01*
X440805069Y-232005306D01*
X440805068Y-232005309D01*
X440794197Y-232025647D01*
X440714441Y-232174860D01*
X440676546Y-232221035D01*
X440592476Y-232323476D01*
X440490035Y-232407546D01*
X440443860Y-232445441D01*
X440364225Y-232488006D01*
X440274309Y-232536068D01*
X440274306Y-232536069D01*
X440090329Y-232591878D01*
X439994739Y-232601293D01*
X439946945Y-232606000D01*
X438653055Y-232606000D01*
X438605261Y-232601293D01*
X438509671Y-232591878D01*
X438325694Y-232536069D01*
X438325691Y-232536068D01*
X438235775Y-232488006D01*
X438156140Y-232445441D01*
X438109965Y-232407546D01*
X438007524Y-232323476D01*
X437923454Y-232221035D01*
X437885559Y-232174860D01*
X437805803Y-232025647D01*
X437794932Y-232005309D01*
X437794931Y-232005306D01*
X437739122Y-231821329D01*
X437720278Y-231630000D01*
X437739122Y-231438671D01*
X437794931Y-231254694D01*
X437794932Y-231254691D01*
X437842994Y-231164775D01*
X437885559Y-231085140D01*
X437923454Y-231038965D01*
X438007524Y-230936524D01*
X438109965Y-230852454D01*
X438156140Y-230814559D01*
X438258490Y-230759852D01*
X438325691Y-230723932D01*
X438325694Y-230723931D01*
X438509671Y-230668122D01*
X438605261Y-230658707D01*
X438653055Y-230654000D01*
X439946945Y-230654000D01*
X439994739Y-230658707D01*
G37*
G36*
X427494739Y-230658707D02*
G01*
X427590329Y-230668122D01*
X427774306Y-230723931D01*
X427774309Y-230723932D01*
X427841510Y-230759852D01*
X427943860Y-230814559D01*
X427990035Y-230852454D01*
X428092476Y-230936524D01*
X428176546Y-231038965D01*
X428214441Y-231085140D01*
X428257006Y-231164775D01*
X428305068Y-231254691D01*
X428305069Y-231254694D01*
X428360878Y-231438671D01*
X428379722Y-231630000D01*
X428360878Y-231821329D01*
X428305069Y-232005306D01*
X428305068Y-232005309D01*
X428294197Y-232025647D01*
X428214441Y-232174860D01*
X428176546Y-232221035D01*
X428092476Y-232323476D01*
X427990035Y-232407546D01*
X427943860Y-232445441D01*
X427864225Y-232488006D01*
X427774309Y-232536068D01*
X427774306Y-232536069D01*
X427590329Y-232591878D01*
X427494739Y-232601293D01*
X427446945Y-232606000D01*
X426153055Y-232606000D01*
X426105261Y-232601293D01*
X426009671Y-232591878D01*
X425825694Y-232536069D01*
X425825691Y-232536068D01*
X425735775Y-232488006D01*
X425656140Y-232445441D01*
X425609965Y-232407546D01*
X425507524Y-232323476D01*
X425423454Y-232221035D01*
X425385559Y-232174860D01*
X425305803Y-232025647D01*
X425294932Y-232005309D01*
X425294931Y-232005306D01*
X425239122Y-231821329D01*
X425220278Y-231630000D01*
X425239122Y-231438671D01*
X425294931Y-231254694D01*
X425294932Y-231254691D01*
X425342994Y-231164775D01*
X425385559Y-231085140D01*
X425423454Y-231038965D01*
X425507524Y-230936524D01*
X425609965Y-230852454D01*
X425656140Y-230814559D01*
X425758490Y-230759852D01*
X425825691Y-230723932D01*
X425825694Y-230723931D01*
X426009671Y-230668122D01*
X426105261Y-230658707D01*
X426153055Y-230654000D01*
X427446945Y-230654000D01*
X427494739Y-230658707D01*
G37*
G36*
X326113512Y-229163927D02*
G01*
X326262812Y-229193624D01*
X326426784Y-229261544D01*
X326574354Y-229360147D01*
X326699853Y-229485646D01*
X326798456Y-229633216D01*
X326866376Y-229797188D01*
X326901000Y-229971259D01*
X326901000Y-230148741D01*
X326866376Y-230322812D01*
X326798456Y-230486784D01*
X326699853Y-230634354D01*
X326574354Y-230759853D01*
X326426784Y-230858456D01*
X326262812Y-230926376D01*
X326113512Y-230956073D01*
X326088742Y-230961000D01*
X325911258Y-230961000D01*
X325886488Y-230956073D01*
X325737188Y-230926376D01*
X325573216Y-230858456D01*
X325425646Y-230759853D01*
X325300147Y-230634354D01*
X325201544Y-230486784D01*
X325133624Y-230322812D01*
X325099000Y-230148741D01*
X325099000Y-229971259D01*
X325133624Y-229797188D01*
X325201544Y-229633216D01*
X325300147Y-229485646D01*
X325425646Y-229360147D01*
X325573216Y-229261544D01*
X325737188Y-229193624D01*
X325886488Y-229163927D01*
X325911258Y-229159000D01*
X326088742Y-229159000D01*
X326113512Y-229163927D01*
G37*
G36*
X323573512Y-229163927D02*
G01*
X323722812Y-229193624D01*
X323886784Y-229261544D01*
X324034354Y-229360147D01*
X324159853Y-229485646D01*
X324258456Y-229633216D01*
X324326376Y-229797188D01*
X324361000Y-229971259D01*
X324361000Y-230148741D01*
X324326376Y-230322812D01*
X324258456Y-230486784D01*
X324159853Y-230634354D01*
X324034354Y-230759853D01*
X323886784Y-230858456D01*
X323722812Y-230926376D01*
X323573512Y-230956073D01*
X323548742Y-230961000D01*
X323371258Y-230961000D01*
X323346488Y-230956073D01*
X323197188Y-230926376D01*
X323033216Y-230858456D01*
X322885646Y-230759853D01*
X322760147Y-230634354D01*
X322661544Y-230486784D01*
X322593624Y-230322812D01*
X322559000Y-230148741D01*
X322559000Y-229971259D01*
X322593624Y-229797188D01*
X322661544Y-229633216D01*
X322760147Y-229485646D01*
X322885646Y-229360147D01*
X323033216Y-229261544D01*
X323197188Y-229193624D01*
X323346488Y-229163927D01*
X323371258Y-229159000D01*
X323548742Y-229159000D01*
X323573512Y-229163927D01*
G37*
G36*
X385011000Y-230551000D02*
G01*
X383209000Y-230551000D01*
X383209000Y-228749000D01*
X385011000Y-228749000D01*
X385011000Y-230551000D01*
G37*
G36*
X402791000Y-230551000D02*
G01*
X400989000Y-230551000D01*
X400989000Y-228749000D01*
X402791000Y-228749000D01*
X402791000Y-230551000D01*
G37*
G36*
X337634468Y-228053565D02*
G01*
X337673138Y-228065296D01*
X337708777Y-228084346D01*
X337740017Y-228109983D01*
X337765654Y-228141223D01*
X337784704Y-228176862D01*
X337796435Y-228215532D01*
X337801000Y-228261888D01*
X337801000Y-229338112D01*
X337796435Y-229384468D01*
X337784704Y-229423138D01*
X337765654Y-229458777D01*
X337740017Y-229490017D01*
X337708777Y-229515654D01*
X337673138Y-229534704D01*
X337634468Y-229546435D01*
X337588112Y-229551000D01*
X336936888Y-229551000D01*
X336890532Y-229546435D01*
X336851862Y-229534704D01*
X336816223Y-229515654D01*
X336784983Y-229490017D01*
X336759346Y-229458777D01*
X336740296Y-229423138D01*
X336728565Y-229384468D01*
X336724000Y-229338112D01*
X336724000Y-228261888D01*
X336728565Y-228215532D01*
X336740296Y-228176862D01*
X336759346Y-228141223D01*
X336784983Y-228109983D01*
X336816223Y-228084346D01*
X336851862Y-228065296D01*
X336890532Y-228053565D01*
X336936888Y-228049000D01*
X337588112Y-228049000D01*
X337634468Y-228053565D01*
G37*
G36*
X339509468Y-228053565D02*
G01*
X339548138Y-228065296D01*
X339583777Y-228084346D01*
X339615017Y-228109983D01*
X339640654Y-228141223D01*
X339659704Y-228176862D01*
X339671435Y-228215532D01*
X339676000Y-228261888D01*
X339676000Y-229338112D01*
X339671435Y-229384468D01*
X339659704Y-229423138D01*
X339640654Y-229458777D01*
X339615017Y-229490017D01*
X339583777Y-229515654D01*
X339548138Y-229534704D01*
X339509468Y-229546435D01*
X339463112Y-229551000D01*
X338811888Y-229551000D01*
X338765532Y-229546435D01*
X338726862Y-229534704D01*
X338691223Y-229515654D01*
X338659983Y-229490017D01*
X338634346Y-229458777D01*
X338615296Y-229423138D01*
X338603565Y-229384468D01*
X338599000Y-229338112D01*
X338599000Y-228261888D01*
X338603565Y-228215532D01*
X338615296Y-228176862D01*
X338634346Y-228141223D01*
X338659983Y-228109983D01*
X338691223Y-228084346D01*
X338726862Y-228065296D01*
X338765532Y-228053565D01*
X338811888Y-228049000D01*
X339463112Y-228049000D01*
X339509468Y-228053565D01*
G37*
G36*
X326901000Y-228501000D02*
G01*
X325099000Y-228501000D01*
X325099000Y-226699000D01*
X326901000Y-226699000D01*
X326901000Y-228501000D01*
G37*
G36*
X323573512Y-226623927D02*
G01*
X323722812Y-226653624D01*
X323886784Y-226721544D01*
X324034354Y-226820147D01*
X324159853Y-226945646D01*
X324258456Y-227093216D01*
X324326376Y-227257188D01*
X324361000Y-227431259D01*
X324361000Y-227608741D01*
X324326376Y-227782812D01*
X324258456Y-227946784D01*
X324159853Y-228094354D01*
X324034354Y-228219853D01*
X323886784Y-228318456D01*
X323722812Y-228386376D01*
X323573512Y-228416073D01*
X323548742Y-228421000D01*
X323371258Y-228421000D01*
X323346488Y-228416073D01*
X323197188Y-228386376D01*
X323033216Y-228318456D01*
X322885646Y-228219853D01*
X322760147Y-228094354D01*
X322661544Y-227946784D01*
X322593624Y-227782812D01*
X322559000Y-227608741D01*
X322559000Y-227431259D01*
X322593624Y-227257188D01*
X322661544Y-227093216D01*
X322760147Y-226945646D01*
X322885646Y-226820147D01*
X323033216Y-226721544D01*
X323197188Y-226653624D01*
X323346488Y-226623927D01*
X323371258Y-226619000D01*
X323548742Y-226619000D01*
X323573512Y-226623927D01*
G37*
G36*
X402003512Y-226213927D02*
G01*
X402152812Y-226243624D01*
X402316784Y-226311544D01*
X402464354Y-226410147D01*
X402589853Y-226535646D01*
X402688456Y-226683216D01*
X402756376Y-226847188D01*
X402791000Y-227021259D01*
X402791000Y-227198741D01*
X402756376Y-227372812D01*
X402688456Y-227536784D01*
X402589853Y-227684354D01*
X402464354Y-227809853D01*
X402316784Y-227908456D01*
X402152812Y-227976376D01*
X402003512Y-228006073D01*
X401978742Y-228011000D01*
X401801258Y-228011000D01*
X401776488Y-228006073D01*
X401627188Y-227976376D01*
X401463216Y-227908456D01*
X401315646Y-227809853D01*
X401190147Y-227684354D01*
X401091544Y-227536784D01*
X401023624Y-227372812D01*
X400989000Y-227198741D01*
X400989000Y-227021259D01*
X401023624Y-226847188D01*
X401091544Y-226683216D01*
X401190147Y-226535646D01*
X401315646Y-226410147D01*
X401463216Y-226311544D01*
X401627188Y-226243624D01*
X401776488Y-226213927D01*
X401801258Y-226209000D01*
X401978742Y-226209000D01*
X402003512Y-226213927D01*
G37*
G36*
X384223512Y-226213927D02*
G01*
X384372812Y-226243624D01*
X384536784Y-226311544D01*
X384684354Y-226410147D01*
X384809853Y-226535646D01*
X384908456Y-226683216D01*
X384976376Y-226847188D01*
X385011000Y-227021259D01*
X385011000Y-227198741D01*
X384976376Y-227372812D01*
X384908456Y-227536784D01*
X384809853Y-227684354D01*
X384684354Y-227809853D01*
X384536784Y-227908456D01*
X384372812Y-227976376D01*
X384223512Y-228006073D01*
X384198742Y-228011000D01*
X384021258Y-228011000D01*
X383996488Y-228006073D01*
X383847188Y-227976376D01*
X383683216Y-227908456D01*
X383535646Y-227809853D01*
X383410147Y-227684354D01*
X383311544Y-227536784D01*
X383243624Y-227372812D01*
X383209000Y-227198741D01*
X383209000Y-227021259D01*
X383243624Y-226847188D01*
X383311544Y-226683216D01*
X383410147Y-226535646D01*
X383535646Y-226410147D01*
X383683216Y-226311544D01*
X383847188Y-226243624D01*
X383996488Y-226213927D01*
X384021258Y-226209000D01*
X384198742Y-226209000D01*
X384223512Y-226213927D01*
G37*
G36*
X439994739Y-225658707D02*
G01*
X440090329Y-225668122D01*
X440274306Y-225723931D01*
X440274309Y-225723932D01*
X440364225Y-225771994D01*
X440443860Y-225814559D01*
X440490035Y-225852454D01*
X440592476Y-225936524D01*
X440676546Y-226038965D01*
X440714441Y-226085140D01*
X440757006Y-226164775D01*
X440805068Y-226254691D01*
X440805069Y-226254694D01*
X440860878Y-226438671D01*
X440879722Y-226630000D01*
X440860878Y-226821329D01*
X440823166Y-226945647D01*
X440805068Y-227005309D01*
X440796543Y-227021258D01*
X440714441Y-227174860D01*
X440694842Y-227198741D01*
X440592476Y-227323476D01*
X440490035Y-227407546D01*
X440443860Y-227445441D01*
X440364225Y-227488006D01*
X440274309Y-227536068D01*
X440274306Y-227536069D01*
X440090329Y-227591878D01*
X439994739Y-227601293D01*
X439946945Y-227606000D01*
X438653055Y-227606000D01*
X438605261Y-227601293D01*
X438509671Y-227591878D01*
X438325694Y-227536069D01*
X438325691Y-227536068D01*
X438235775Y-227488006D01*
X438156140Y-227445441D01*
X438109965Y-227407546D01*
X438007524Y-227323476D01*
X437905158Y-227198741D01*
X437885559Y-227174860D01*
X437803457Y-227021258D01*
X437794932Y-227005309D01*
X437776834Y-226945647D01*
X437739122Y-226821329D01*
X437720278Y-226630000D01*
X437739122Y-226438671D01*
X437794931Y-226254694D01*
X437794932Y-226254691D01*
X437842994Y-226164775D01*
X437885559Y-226085140D01*
X437923454Y-226038965D01*
X438007524Y-225936524D01*
X438109965Y-225852454D01*
X438156140Y-225814559D01*
X438235775Y-225771994D01*
X438325691Y-225723932D01*
X438325694Y-225723931D01*
X438509671Y-225668122D01*
X438605261Y-225658707D01*
X438653055Y-225654000D01*
X439946945Y-225654000D01*
X439994739Y-225658707D01*
G37*
G36*
X427494739Y-225658707D02*
G01*
X427590329Y-225668122D01*
X427774306Y-225723931D01*
X427774309Y-225723932D01*
X427864225Y-225771994D01*
X427943860Y-225814559D01*
X427990035Y-225852454D01*
X428092476Y-225936524D01*
X428176546Y-226038965D01*
X428214441Y-226085140D01*
X428257006Y-226164775D01*
X428305068Y-226254691D01*
X428305069Y-226254694D01*
X428360878Y-226438671D01*
X428379722Y-226630000D01*
X428360878Y-226821329D01*
X428323166Y-226945647D01*
X428305068Y-227005309D01*
X428296543Y-227021258D01*
X428214441Y-227174860D01*
X428194842Y-227198741D01*
X428092476Y-227323476D01*
X427990035Y-227407546D01*
X427943860Y-227445441D01*
X427864225Y-227488006D01*
X427774309Y-227536068D01*
X427774306Y-227536069D01*
X427590329Y-227591878D01*
X427494739Y-227601293D01*
X427446945Y-227606000D01*
X426153055Y-227606000D01*
X426105261Y-227601293D01*
X426009671Y-227591878D01*
X425825694Y-227536069D01*
X425825691Y-227536068D01*
X425735775Y-227488006D01*
X425656140Y-227445441D01*
X425609965Y-227407546D01*
X425507524Y-227323476D01*
X425405158Y-227198741D01*
X425385559Y-227174860D01*
X425303457Y-227021258D01*
X425294932Y-227005309D01*
X425276834Y-226945647D01*
X425239122Y-226821329D01*
X425220278Y-226630000D01*
X425239122Y-226438671D01*
X425294931Y-226254694D01*
X425294932Y-226254691D01*
X425342994Y-226164775D01*
X425385559Y-226085140D01*
X425423454Y-226038965D01*
X425507524Y-225936524D01*
X425609965Y-225852454D01*
X425656140Y-225814559D01*
X425735775Y-225771994D01*
X425825691Y-225723932D01*
X425825694Y-225723931D01*
X426009671Y-225668122D01*
X426105261Y-225658707D01*
X426153055Y-225654000D01*
X427446945Y-225654000D01*
X427494739Y-225658707D01*
G37*
G36*
X384223512Y-223673927D02*
G01*
X384372812Y-223703624D01*
X384536784Y-223771544D01*
X384684354Y-223870147D01*
X384809853Y-223995646D01*
X384908456Y-224143216D01*
X384976376Y-224307188D01*
X385011000Y-224481259D01*
X385011000Y-224658741D01*
X384976376Y-224832812D01*
X384908456Y-224996784D01*
X384809853Y-225144354D01*
X384684354Y-225269853D01*
X384536784Y-225368456D01*
X384372812Y-225436376D01*
X384223512Y-225466073D01*
X384198742Y-225471000D01*
X384021258Y-225471000D01*
X383996488Y-225466073D01*
X383847188Y-225436376D01*
X383683216Y-225368456D01*
X383535646Y-225269853D01*
X383410147Y-225144354D01*
X383311544Y-224996784D01*
X383243624Y-224832812D01*
X383209000Y-224658741D01*
X383209000Y-224481259D01*
X383243624Y-224307188D01*
X383311544Y-224143216D01*
X383410147Y-223995646D01*
X383535646Y-223870147D01*
X383683216Y-223771544D01*
X383847188Y-223703624D01*
X383996488Y-223673927D01*
X384021258Y-223669000D01*
X384198742Y-223669000D01*
X384223512Y-223673927D01*
G37*
G36*
X402003512Y-223673927D02*
G01*
X402152812Y-223703624D01*
X402316784Y-223771544D01*
X402464354Y-223870147D01*
X402589853Y-223995646D01*
X402688456Y-224143216D01*
X402756376Y-224307188D01*
X402791000Y-224481259D01*
X402791000Y-224658741D01*
X402756376Y-224832812D01*
X402688456Y-224996784D01*
X402589853Y-225144354D01*
X402464354Y-225269853D01*
X402316784Y-225368456D01*
X402152812Y-225436376D01*
X402003512Y-225466073D01*
X401978742Y-225471000D01*
X401801258Y-225471000D01*
X401776488Y-225466073D01*
X401627188Y-225436376D01*
X401463216Y-225368456D01*
X401315646Y-225269853D01*
X401190147Y-225144354D01*
X401091544Y-224996784D01*
X401023624Y-224832812D01*
X400989000Y-224658741D01*
X400989000Y-224481259D01*
X401023624Y-224307188D01*
X401091544Y-224143216D01*
X401190147Y-223995646D01*
X401315646Y-223870147D01*
X401463216Y-223771544D01*
X401627188Y-223703624D01*
X401776488Y-223673927D01*
X401801258Y-223669000D01*
X401978742Y-223669000D01*
X402003512Y-223673927D01*
G37*
G36*
X402003512Y-221133927D02*
G01*
X402152812Y-221163624D01*
X402316784Y-221231544D01*
X402464354Y-221330147D01*
X402589853Y-221455646D01*
X402688456Y-221603216D01*
X402756376Y-221767188D01*
X402791000Y-221941259D01*
X402791000Y-222118741D01*
X402756376Y-222292812D01*
X402688456Y-222456784D01*
X402589853Y-222604354D01*
X402464354Y-222729853D01*
X402316784Y-222828456D01*
X402152812Y-222896376D01*
X402003512Y-222926073D01*
X401978742Y-222931000D01*
X401801258Y-222931000D01*
X401776488Y-222926073D01*
X401627188Y-222896376D01*
X401463216Y-222828456D01*
X401315646Y-222729853D01*
X401190147Y-222604354D01*
X401091544Y-222456784D01*
X401023624Y-222292812D01*
X400989000Y-222118741D01*
X400989000Y-221941259D01*
X401023624Y-221767188D01*
X401091544Y-221603216D01*
X401190147Y-221455646D01*
X401315646Y-221330147D01*
X401463216Y-221231544D01*
X401627188Y-221163624D01*
X401776488Y-221133927D01*
X401801258Y-221129000D01*
X401978742Y-221129000D01*
X402003512Y-221133927D01*
G37*
G36*
X384223512Y-221133927D02*
G01*
X384372812Y-221163624D01*
X384536784Y-221231544D01*
X384684354Y-221330147D01*
X384809853Y-221455646D01*
X384908456Y-221603216D01*
X384976376Y-221767188D01*
X385011000Y-221941259D01*
X385011000Y-222118741D01*
X384976376Y-222292812D01*
X384908456Y-222456784D01*
X384809853Y-222604354D01*
X384684354Y-222729853D01*
X384536784Y-222828456D01*
X384372812Y-222896376D01*
X384223512Y-222926073D01*
X384198742Y-222931000D01*
X384021258Y-222931000D01*
X383996488Y-222926073D01*
X383847188Y-222896376D01*
X383683216Y-222828456D01*
X383535646Y-222729853D01*
X383410147Y-222604354D01*
X383311544Y-222456784D01*
X383243624Y-222292812D01*
X383209000Y-222118741D01*
X383209000Y-221941259D01*
X383243624Y-221767188D01*
X383311544Y-221603216D01*
X383410147Y-221455646D01*
X383535646Y-221330147D01*
X383683216Y-221231544D01*
X383847188Y-221163624D01*
X383996488Y-221133927D01*
X384021258Y-221129000D01*
X384198742Y-221129000D01*
X384223512Y-221133927D01*
G37*
G36*
X384223512Y-218593927D02*
G01*
X384372812Y-218623624D01*
X384536784Y-218691544D01*
X384684354Y-218790147D01*
X384809853Y-218915646D01*
X384908456Y-219063216D01*
X384976376Y-219227188D01*
X385011000Y-219401259D01*
X385011000Y-219578741D01*
X384976376Y-219752812D01*
X384908456Y-219916784D01*
X384809853Y-220064354D01*
X384684354Y-220189853D01*
X384536784Y-220288456D01*
X384372812Y-220356376D01*
X384223512Y-220386073D01*
X384198742Y-220391000D01*
X384021258Y-220391000D01*
X383996488Y-220386073D01*
X383847188Y-220356376D01*
X383683216Y-220288456D01*
X383535646Y-220189853D01*
X383410147Y-220064354D01*
X383311544Y-219916784D01*
X383243624Y-219752812D01*
X383209000Y-219578741D01*
X383209000Y-219401259D01*
X383243624Y-219227188D01*
X383311544Y-219063216D01*
X383410147Y-218915646D01*
X383535646Y-218790147D01*
X383683216Y-218691544D01*
X383847188Y-218623624D01*
X383996488Y-218593927D01*
X384021258Y-218589000D01*
X384198742Y-218589000D01*
X384223512Y-218593927D01*
G37*
G36*
X402003512Y-218593927D02*
G01*
X402152812Y-218623624D01*
X402316784Y-218691544D01*
X402464354Y-218790147D01*
X402589853Y-218915646D01*
X402688456Y-219063216D01*
X402756376Y-219227188D01*
X402791000Y-219401259D01*
X402791000Y-219578741D01*
X402756376Y-219752812D01*
X402688456Y-219916784D01*
X402589853Y-220064354D01*
X402464354Y-220189853D01*
X402316784Y-220288456D01*
X402152812Y-220356376D01*
X402003512Y-220386073D01*
X401978742Y-220391000D01*
X401801258Y-220391000D01*
X401776488Y-220386073D01*
X401627188Y-220356376D01*
X401463216Y-220288456D01*
X401315646Y-220189853D01*
X401190147Y-220064354D01*
X401091544Y-219916784D01*
X401023624Y-219752812D01*
X400989000Y-219578741D01*
X400989000Y-219401259D01*
X401023624Y-219227188D01*
X401091544Y-219063216D01*
X401190147Y-218915646D01*
X401315646Y-218790147D01*
X401463216Y-218691544D01*
X401627188Y-218623624D01*
X401776488Y-218593927D01*
X401801258Y-218589000D01*
X401978742Y-218589000D01*
X402003512Y-218593927D01*
G37*
G36*
X385011000Y-217851000D02*
G01*
X383209000Y-217851000D01*
X383209000Y-216049000D01*
X385011000Y-216049000D01*
X385011000Y-217851000D01*
G37*
G36*
X402791000Y-217851000D02*
G01*
X400989000Y-217851000D01*
X400989000Y-216049000D01*
X402791000Y-216049000D01*
X402791000Y-217851000D01*
G37*
G36*
X395658642Y-214259781D02*
G01*
X395804414Y-214320162D01*
X395804416Y-214320163D01*
X395935608Y-214407822D01*
X396047178Y-214519392D01*
X396134837Y-214650584D01*
X396134838Y-214650586D01*
X396195219Y-214796358D01*
X396226000Y-214951107D01*
X396226000Y-215108893D01*
X396195219Y-215263642D01*
X396134838Y-215409414D01*
X396134837Y-215409416D01*
X396047178Y-215540608D01*
X395935608Y-215652178D01*
X395804416Y-215739837D01*
X395804415Y-215739838D01*
X395804414Y-215739838D01*
X395658642Y-215800219D01*
X395503893Y-215831000D01*
X395346107Y-215831000D01*
X395191358Y-215800219D01*
X395045586Y-215739838D01*
X395045585Y-215739838D01*
X395045584Y-215739837D01*
X394914392Y-215652178D01*
X394802822Y-215540608D01*
X394715163Y-215409416D01*
X394715162Y-215409414D01*
X394654781Y-215263642D01*
X394624000Y-215108893D01*
X394624000Y-214951107D01*
X394654781Y-214796358D01*
X394715162Y-214650586D01*
X394715163Y-214650584D01*
X394802822Y-214519392D01*
X394914392Y-214407822D01*
X395045584Y-214320163D01*
X395045586Y-214320162D01*
X395191358Y-214259781D01*
X395346107Y-214229000D01*
X395503893Y-214229000D01*
X395658642Y-214259781D01*
G37*
G36*
X390808642Y-214259781D02*
G01*
X390954414Y-214320162D01*
X390954416Y-214320163D01*
X391085608Y-214407822D01*
X391197178Y-214519392D01*
X391284837Y-214650584D01*
X391284838Y-214650586D01*
X391345219Y-214796358D01*
X391376000Y-214951107D01*
X391376000Y-215108893D01*
X391345219Y-215263642D01*
X391284838Y-215409414D01*
X391284837Y-215409416D01*
X391197178Y-215540608D01*
X391085608Y-215652178D01*
X390954416Y-215739837D01*
X390954415Y-215739838D01*
X390954414Y-215739838D01*
X390808642Y-215800219D01*
X390653893Y-215831000D01*
X390496107Y-215831000D01*
X390341358Y-215800219D01*
X390195586Y-215739838D01*
X390195585Y-215739838D01*
X390195584Y-215739837D01*
X390064392Y-215652178D01*
X389952822Y-215540608D01*
X389865163Y-215409416D01*
X389865162Y-215409414D01*
X389804781Y-215263642D01*
X389774000Y-215108893D01*
X389774000Y-214951107D01*
X389804781Y-214796358D01*
X389865162Y-214650586D01*
X389865163Y-214650584D01*
X389952822Y-214519392D01*
X390064392Y-214407822D01*
X390195584Y-214320163D01*
X390195586Y-214320162D01*
X390341358Y-214259781D01*
X390496107Y-214229000D01*
X390653893Y-214229000D01*
X390808642Y-214259781D01*
G37*
G36*
X384223512Y-213513927D02*
G01*
X384372812Y-213543624D01*
X384536784Y-213611544D01*
X384684354Y-213710147D01*
X384809853Y-213835646D01*
X384908456Y-213983216D01*
X384976376Y-214147188D01*
X385011000Y-214321259D01*
X385011000Y-214498741D01*
X384976376Y-214672812D01*
X384908456Y-214836784D01*
X384809853Y-214984354D01*
X384684354Y-215109853D01*
X384536784Y-215208456D01*
X384372812Y-215276376D01*
X384223512Y-215306073D01*
X384198742Y-215311000D01*
X384021258Y-215311000D01*
X383996488Y-215306073D01*
X383847188Y-215276376D01*
X383683216Y-215208456D01*
X383535646Y-215109853D01*
X383410147Y-214984354D01*
X383311544Y-214836784D01*
X383243624Y-214672812D01*
X383209000Y-214498741D01*
X383209000Y-214321259D01*
X383243624Y-214147188D01*
X383311544Y-213983216D01*
X383410147Y-213835646D01*
X383535646Y-213710147D01*
X383683216Y-213611544D01*
X383847188Y-213543624D01*
X383996488Y-213513927D01*
X384021258Y-213509000D01*
X384198742Y-213509000D01*
X384223512Y-213513927D01*
G37*
G36*
X402003512Y-213513927D02*
G01*
X402152812Y-213543624D01*
X402316784Y-213611544D01*
X402464354Y-213710147D01*
X402589853Y-213835646D01*
X402688456Y-213983216D01*
X402756376Y-214147188D01*
X402791000Y-214321259D01*
X402791000Y-214498741D01*
X402756376Y-214672812D01*
X402688456Y-214836784D01*
X402589853Y-214984354D01*
X402464354Y-215109853D01*
X402316784Y-215208456D01*
X402152812Y-215276376D01*
X402003512Y-215306073D01*
X401978742Y-215311000D01*
X401801258Y-215311000D01*
X401776488Y-215306073D01*
X401627188Y-215276376D01*
X401463216Y-215208456D01*
X401315646Y-215109853D01*
X401190147Y-214984354D01*
X401091544Y-214836784D01*
X401023624Y-214672812D01*
X400989000Y-214498741D01*
X400989000Y-214321259D01*
X401023624Y-214147188D01*
X401091544Y-213983216D01*
X401190147Y-213835646D01*
X401315646Y-213710147D01*
X401463216Y-213611544D01*
X401627188Y-213543624D01*
X401776488Y-213513927D01*
X401801258Y-213509000D01*
X401978742Y-213509000D01*
X402003512Y-213513927D01*
G37*
G36*
X390552395Y-211085546D02*
G01*
X390725466Y-211157234D01*
X390744793Y-211170148D01*
X390881227Y-211261310D01*
X391013690Y-211393773D01*
X391046728Y-211443218D01*
X391117766Y-211549534D01*
X391189454Y-211722605D01*
X391226000Y-211906333D01*
X391226000Y-212093667D01*
X391189454Y-212277395D01*
X391117766Y-212450466D01*
X391117765Y-212450467D01*
X391013690Y-212606227D01*
X390881227Y-212738690D01*
X390832871Y-212771000D01*
X390725466Y-212842766D01*
X390552395Y-212914454D01*
X390368667Y-212951000D01*
X390181333Y-212951000D01*
X389997605Y-212914454D01*
X389824534Y-212842766D01*
X389717129Y-212771000D01*
X389668773Y-212738690D01*
X389536310Y-212606227D01*
X389432235Y-212450467D01*
X389432234Y-212450466D01*
X389360546Y-212277395D01*
X389324000Y-212093667D01*
X389324000Y-211906333D01*
X389360546Y-211722605D01*
X389432234Y-211549534D01*
X389503272Y-211443218D01*
X389536310Y-211393773D01*
X389668773Y-211261310D01*
X389805207Y-211170148D01*
X389824534Y-211157234D01*
X389997605Y-211085546D01*
X390181333Y-211049000D01*
X390368667Y-211049000D01*
X390552395Y-211085546D01*
G37*
G36*
X396002395Y-211085546D02*
G01*
X396175466Y-211157234D01*
X396194793Y-211170148D01*
X396331227Y-211261310D01*
X396463690Y-211393773D01*
X396496728Y-211443218D01*
X396567766Y-211549534D01*
X396639454Y-211722605D01*
X396676000Y-211906333D01*
X396676000Y-212093667D01*
X396639454Y-212277395D01*
X396567766Y-212450466D01*
X396567765Y-212450467D01*
X396463690Y-212606227D01*
X396331227Y-212738690D01*
X396282871Y-212771000D01*
X396175466Y-212842766D01*
X396002395Y-212914454D01*
X395818667Y-212951000D01*
X395631333Y-212951000D01*
X395447605Y-212914454D01*
X395274534Y-212842766D01*
X395167129Y-212771000D01*
X395118773Y-212738690D01*
X394986310Y-212606227D01*
X394882235Y-212450467D01*
X394882234Y-212450466D01*
X394810546Y-212277395D01*
X394774000Y-212093667D01*
X394774000Y-211906333D01*
X394810546Y-211722605D01*
X394882234Y-211549534D01*
X394953272Y-211443218D01*
X394986310Y-211393773D01*
X395118773Y-211261310D01*
X395255207Y-211170148D01*
X395274534Y-211157234D01*
X395447605Y-211085546D01*
X395631333Y-211049000D01*
X395818667Y-211049000D01*
X396002395Y-211085546D01*
G37*
G36*
X384223512Y-210973927D02*
G01*
X384372812Y-211003624D01*
X384536784Y-211071544D01*
X384684354Y-211170147D01*
X384809853Y-211295646D01*
X384908456Y-211443216D01*
X384976376Y-211607188D01*
X385011000Y-211781259D01*
X385011000Y-211958741D01*
X384976376Y-212132812D01*
X384908456Y-212296784D01*
X384809853Y-212444354D01*
X384684354Y-212569853D01*
X384536784Y-212668456D01*
X384372812Y-212736376D01*
X384223512Y-212766073D01*
X384198742Y-212771000D01*
X384021258Y-212771000D01*
X383996488Y-212766073D01*
X383847188Y-212736376D01*
X383683216Y-212668456D01*
X383535646Y-212569853D01*
X383410147Y-212444354D01*
X383311544Y-212296784D01*
X383243624Y-212132812D01*
X383209000Y-211958741D01*
X383209000Y-211781259D01*
X383243624Y-211607188D01*
X383311544Y-211443216D01*
X383410147Y-211295646D01*
X383535646Y-211170147D01*
X383683216Y-211071544D01*
X383847188Y-211003624D01*
X383996488Y-210973927D01*
X384021258Y-210969000D01*
X384198742Y-210969000D01*
X384223512Y-210973927D01*
G37*
G36*
X402003512Y-210973927D02*
G01*
X402152812Y-211003624D01*
X402316784Y-211071544D01*
X402464354Y-211170147D01*
X402589853Y-211295646D01*
X402688456Y-211443216D01*
X402756376Y-211607188D01*
X402791000Y-211781259D01*
X402791000Y-211958741D01*
X402756376Y-212132812D01*
X402688456Y-212296784D01*
X402589853Y-212444354D01*
X402464354Y-212569853D01*
X402316784Y-212668456D01*
X402152812Y-212736376D01*
X402003512Y-212766073D01*
X401978742Y-212771000D01*
X401801258Y-212771000D01*
X401776488Y-212766073D01*
X401627188Y-212736376D01*
X401463216Y-212668456D01*
X401315646Y-212569853D01*
X401190147Y-212444354D01*
X401091544Y-212296784D01*
X401023624Y-212132812D01*
X400989000Y-211958741D01*
X400989000Y-211781259D01*
X401023624Y-211607188D01*
X401091544Y-211443216D01*
X401190147Y-211295646D01*
X401315646Y-211170147D01*
X401463216Y-211071544D01*
X401627188Y-211003624D01*
X401776488Y-210973927D01*
X401801258Y-210969000D01*
X401978742Y-210969000D01*
X402003512Y-210973927D01*
G37*
G36*
X394093000Y-203593000D02*
G01*
X392291000Y-203593000D01*
X392291000Y-201791000D01*
X394093000Y-201791000D01*
X394093000Y-203593000D01*
G37*
G36*
X393305512Y-199255927D02*
G01*
X393454812Y-199285624D01*
X393618784Y-199353544D01*
X393766354Y-199452147D01*
X393891853Y-199577646D01*
X393990456Y-199725216D01*
X394058376Y-199889188D01*
X394093000Y-200063259D01*
X394093000Y-200240741D01*
X394058376Y-200414812D01*
X393990456Y-200578784D01*
X393891853Y-200726354D01*
X393766354Y-200851853D01*
X393618784Y-200950456D01*
X393454812Y-201018376D01*
X393305512Y-201048073D01*
X393280742Y-201053000D01*
X393103258Y-201053000D01*
X393078488Y-201048073D01*
X392929188Y-201018376D01*
X392765216Y-200950456D01*
X392617646Y-200851853D01*
X392492147Y-200726354D01*
X392393544Y-200578784D01*
X392325624Y-200414812D01*
X392291000Y-200240741D01*
X392291000Y-200063259D01*
X392325624Y-199889188D01*
X392393544Y-199725216D01*
X392492147Y-199577646D01*
X392617646Y-199452147D01*
X392765216Y-199353544D01*
X392929188Y-199285624D01*
X393078488Y-199255927D01*
X393103258Y-199251000D01*
X393280742Y-199251000D01*
X393305512Y-199255927D01*
G37*
G36*
X426162199Y-196999954D02*
G01*
X426174450Y-197000556D01*
X426192869Y-197000556D01*
X426215149Y-197002750D01*
X426299233Y-197019476D01*
X426320660Y-197025976D01*
X426399858Y-197058780D01*
X426405303Y-197061691D01*
X426405309Y-197061693D01*
X426414169Y-197066429D01*
X426414173Y-197066432D01*
X426419614Y-197069340D01*
X426490899Y-197116971D01*
X426508204Y-197131172D01*
X426568828Y-197191796D01*
X426583029Y-197209101D01*
X426630660Y-197280386D01*
X426633568Y-197285827D01*
X426633571Y-197285831D01*
X426638307Y-197294691D01*
X426638309Y-197294697D01*
X426641220Y-197300142D01*
X426674024Y-197379340D01*
X426680524Y-197400767D01*
X426697250Y-197484851D01*
X426699444Y-197507131D01*
X426699444Y-197525550D01*
X426700046Y-197537801D01*
X426701852Y-197556139D01*
X426701852Y-198043860D01*
X426700263Y-198059999D01*
X426697348Y-198069608D01*
X426692610Y-198078472D01*
X426686237Y-198086237D01*
X426673794Y-198096448D01*
X426663425Y-198103378D01*
X426646098Y-198120705D01*
X426632485Y-198141080D01*
X426623109Y-198163720D01*
X426618329Y-198187753D01*
X426618330Y-198212257D01*
X426623112Y-198236290D01*
X426632490Y-198258929D01*
X426646105Y-198279302D01*
X426663432Y-198296629D01*
X426673802Y-198303558D01*
X426686237Y-198313763D01*
X426692610Y-198321528D01*
X426697348Y-198330392D01*
X426700263Y-198340001D01*
X426701852Y-198356140D01*
X426701852Y-198843862D01*
X426700046Y-198862199D01*
X426699444Y-198874450D01*
X426699444Y-198892869D01*
X426697250Y-198915149D01*
X426680524Y-198999233D01*
X426674024Y-199020660D01*
X426641220Y-199099858D01*
X426638309Y-199105303D01*
X426638307Y-199105309D01*
X426633571Y-199114169D01*
X426633568Y-199114173D01*
X426630660Y-199119614D01*
X426583029Y-199190899D01*
X426568828Y-199208204D01*
X426508204Y-199268828D01*
X426490899Y-199283029D01*
X426419614Y-199330660D01*
X426414173Y-199333568D01*
X426414169Y-199333571D01*
X426405309Y-199338307D01*
X426405303Y-199338309D01*
X426399858Y-199341220D01*
X426320660Y-199374024D01*
X426299233Y-199380524D01*
X426215149Y-199397250D01*
X426192869Y-199399444D01*
X426174450Y-199399444D01*
X426162199Y-199400046D01*
X426143862Y-199401852D01*
X425656138Y-199401852D01*
X425637801Y-199400046D01*
X425625550Y-199399444D01*
X425607131Y-199399444D01*
X425584851Y-199397250D01*
X425500767Y-199380524D01*
X425479340Y-199374024D01*
X425400142Y-199341220D01*
X425394697Y-199338309D01*
X425394691Y-199338307D01*
X425385831Y-199333571D01*
X425385827Y-199333568D01*
X425380386Y-199330660D01*
X425309101Y-199283029D01*
X425291796Y-199268828D01*
X425231172Y-199208204D01*
X425216971Y-199190899D01*
X425169340Y-199119614D01*
X425166432Y-199114173D01*
X425166429Y-199114169D01*
X425161693Y-199105309D01*
X425161691Y-199105303D01*
X425158780Y-199099858D01*
X425125976Y-199020660D01*
X425119476Y-198999233D01*
X425102750Y-198915149D01*
X425100556Y-198892869D01*
X425100556Y-198874450D01*
X425099954Y-198862199D01*
X425098148Y-198843862D01*
X425098148Y-198356140D01*
X425099737Y-198340001D01*
X425102652Y-198330392D01*
X425107390Y-198321528D01*
X425113763Y-198313763D01*
X425126206Y-198303552D01*
X425136575Y-198296622D01*
X425153902Y-198279295D01*
X425167515Y-198258920D01*
X425176891Y-198236280D01*
X425181671Y-198212247D01*
X425181670Y-198187743D01*
X425176888Y-198163710D01*
X425167510Y-198141071D01*
X425153895Y-198120698D01*
X425136568Y-198103371D01*
X425126198Y-198096442D01*
X425113763Y-198086237D01*
X425107390Y-198078472D01*
X425102652Y-198069608D01*
X425099737Y-198059999D01*
X425098148Y-198043860D01*
X425098148Y-197556139D01*
X425099954Y-197537801D01*
X425100556Y-197525550D01*
X425100556Y-197507131D01*
X425102750Y-197484851D01*
X425119476Y-197400767D01*
X425125976Y-197379340D01*
X425158780Y-197300142D01*
X425161691Y-197294697D01*
X425161693Y-197294691D01*
X425166429Y-197285831D01*
X425166432Y-197285827D01*
X425169340Y-197280386D01*
X425216971Y-197209101D01*
X425231172Y-197191796D01*
X425291796Y-197131172D01*
X425309101Y-197116971D01*
X425380386Y-197069340D01*
X425385827Y-197066432D01*
X425385831Y-197066429D01*
X425394691Y-197061693D01*
X425394697Y-197061691D01*
X425400142Y-197058780D01*
X425479340Y-197025976D01*
X425500767Y-197019476D01*
X425584851Y-197002750D01*
X425607131Y-197000556D01*
X425625550Y-197000556D01*
X425637801Y-196999954D01*
X425656139Y-196998148D01*
X426143861Y-196998148D01*
X426162199Y-196999954D01*
G37*
G36*
X423612199Y-196999954D02*
G01*
X423624450Y-197000556D01*
X423642869Y-197000556D01*
X423665149Y-197002750D01*
X423749233Y-197019476D01*
X423770660Y-197025976D01*
X423849858Y-197058780D01*
X423855303Y-197061691D01*
X423855309Y-197061693D01*
X423864169Y-197066429D01*
X423864173Y-197066432D01*
X423869614Y-197069340D01*
X423940899Y-197116971D01*
X423958204Y-197131172D01*
X424018828Y-197191796D01*
X424033029Y-197209101D01*
X424080660Y-197280386D01*
X424083568Y-197285827D01*
X424083571Y-197285831D01*
X424088307Y-197294691D01*
X424088309Y-197294697D01*
X424091220Y-197300142D01*
X424124024Y-197379340D01*
X424130524Y-197400767D01*
X424147250Y-197484851D01*
X424149444Y-197507131D01*
X424149444Y-197525550D01*
X424150046Y-197537801D01*
X424151852Y-197556139D01*
X424151852Y-198043860D01*
X424150263Y-198059999D01*
X424147348Y-198069608D01*
X424142610Y-198078472D01*
X424136237Y-198086237D01*
X424123794Y-198096448D01*
X424113425Y-198103378D01*
X424096098Y-198120705D01*
X424082485Y-198141080D01*
X424073109Y-198163720D01*
X424068329Y-198187753D01*
X424068330Y-198212257D01*
X424073112Y-198236290D01*
X424082490Y-198258929D01*
X424096105Y-198279302D01*
X424113432Y-198296629D01*
X424123802Y-198303558D01*
X424136237Y-198313763D01*
X424142610Y-198321528D01*
X424147348Y-198330392D01*
X424150263Y-198340001D01*
X424151852Y-198356140D01*
X424151852Y-198843862D01*
X424150046Y-198862199D01*
X424149444Y-198874450D01*
X424149444Y-198892869D01*
X424147250Y-198915149D01*
X424130524Y-198999233D01*
X424124024Y-199020660D01*
X424091220Y-199099858D01*
X424088309Y-199105303D01*
X424088307Y-199105309D01*
X424083571Y-199114169D01*
X424083568Y-199114173D01*
X424080660Y-199119614D01*
X424033029Y-199190899D01*
X424018828Y-199208204D01*
X423958204Y-199268828D01*
X423940899Y-199283029D01*
X423869614Y-199330660D01*
X423864173Y-199333568D01*
X423864169Y-199333571D01*
X423855309Y-199338307D01*
X423855303Y-199338309D01*
X423849858Y-199341220D01*
X423770660Y-199374024D01*
X423749233Y-199380524D01*
X423665149Y-199397250D01*
X423642869Y-199399444D01*
X423624450Y-199399444D01*
X423612199Y-199400046D01*
X423593862Y-199401852D01*
X423106138Y-199401852D01*
X423087801Y-199400046D01*
X423075550Y-199399444D01*
X423057131Y-199399444D01*
X423034851Y-199397250D01*
X422950767Y-199380524D01*
X422929340Y-199374024D01*
X422850142Y-199341220D01*
X422844697Y-199338309D01*
X422844691Y-199338307D01*
X422835831Y-199333571D01*
X422835827Y-199333568D01*
X422830386Y-199330660D01*
X422759101Y-199283029D01*
X422741796Y-199268828D01*
X422681172Y-199208204D01*
X422666971Y-199190899D01*
X422619340Y-199119614D01*
X422616432Y-199114173D01*
X422616429Y-199114169D01*
X422611693Y-199105309D01*
X422611691Y-199105303D01*
X422608780Y-199099858D01*
X422575976Y-199020660D01*
X422569476Y-198999233D01*
X422552750Y-198915149D01*
X422550556Y-198892869D01*
X422550556Y-198874450D01*
X422549954Y-198862199D01*
X422548148Y-198843862D01*
X422548148Y-198356140D01*
X422549737Y-198340001D01*
X422552652Y-198330392D01*
X422557390Y-198321528D01*
X422563763Y-198313763D01*
X422576206Y-198303552D01*
X422586575Y-198296622D01*
X422603902Y-198279295D01*
X422617515Y-198258920D01*
X422626891Y-198236280D01*
X422631671Y-198212247D01*
X422631670Y-198187743D01*
X422626888Y-198163710D01*
X422617510Y-198141071D01*
X422603895Y-198120698D01*
X422586568Y-198103371D01*
X422576198Y-198096442D01*
X422563763Y-198086237D01*
X422557390Y-198078472D01*
X422552652Y-198069608D01*
X422549737Y-198059999D01*
X422548148Y-198043860D01*
X422548148Y-197556138D01*
X422549954Y-197537801D01*
X422550556Y-197525550D01*
X422550556Y-197507131D01*
X422552750Y-197484851D01*
X422569476Y-197400767D01*
X422575976Y-197379340D01*
X422608780Y-197300142D01*
X422611691Y-197294697D01*
X422611693Y-197294691D01*
X422616429Y-197285831D01*
X422616432Y-197285827D01*
X422619340Y-197280386D01*
X422666971Y-197209101D01*
X422681172Y-197191796D01*
X422741796Y-197131172D01*
X422759101Y-197116971D01*
X422830386Y-197069340D01*
X422835827Y-197066432D01*
X422835831Y-197066429D01*
X422844691Y-197061693D01*
X422844697Y-197061691D01*
X422850142Y-197058780D01*
X422929340Y-197025976D01*
X422950767Y-197019476D01*
X423034851Y-197002750D01*
X423057131Y-197000556D01*
X423075550Y-197000556D01*
X423087801Y-196999954D01*
X423106139Y-196998148D01*
X423593861Y-196998148D01*
X423612199Y-196999954D01*
G37*
G36*
X423493512Y-193103927D02*
G01*
X423642812Y-193133624D01*
X423806784Y-193201544D01*
X423954354Y-193300147D01*
X424079853Y-193425646D01*
X424178456Y-193573216D01*
X424246376Y-193737188D01*
X424281000Y-193911259D01*
X424281000Y-194088741D01*
X424246376Y-194262812D01*
X424178456Y-194426784D01*
X424079853Y-194574354D01*
X423954354Y-194699853D01*
X423806784Y-194798456D01*
X423642812Y-194866376D01*
X423493512Y-194896073D01*
X423468742Y-194901000D01*
X423291258Y-194901000D01*
X423266488Y-194896073D01*
X423117188Y-194866376D01*
X422953216Y-194798456D01*
X422805646Y-194699853D01*
X422680147Y-194574354D01*
X422581544Y-194426784D01*
X422513624Y-194262812D01*
X422479000Y-194088741D01*
X422479000Y-193911259D01*
X422513624Y-193737188D01*
X422581544Y-193573216D01*
X422680147Y-193425646D01*
X422805646Y-193300147D01*
X422953216Y-193201544D01*
X423117188Y-193133624D01*
X423266488Y-193103927D01*
X423291258Y-193099000D01*
X423468742Y-193099000D01*
X423493512Y-193103927D01*
G37*
G36*
X426033512Y-193103927D02*
G01*
X426182812Y-193133624D01*
X426346784Y-193201544D01*
X426494354Y-193300147D01*
X426619853Y-193425646D01*
X426718456Y-193573216D01*
X426786376Y-193737188D01*
X426821000Y-193911259D01*
X426821000Y-194088741D01*
X426786376Y-194262812D01*
X426718456Y-194426784D01*
X426619853Y-194574354D01*
X426494354Y-194699853D01*
X426346784Y-194798456D01*
X426182812Y-194866376D01*
X426033512Y-194896073D01*
X426008742Y-194901000D01*
X425831258Y-194901000D01*
X425806488Y-194896073D01*
X425657188Y-194866376D01*
X425493216Y-194798456D01*
X425345646Y-194699853D01*
X425220147Y-194574354D01*
X425121544Y-194426784D01*
X425053624Y-194262812D01*
X425019000Y-194088741D01*
X425019000Y-193911259D01*
X425053624Y-193737188D01*
X425121544Y-193573216D01*
X425220147Y-193425646D01*
X425345646Y-193300147D01*
X425493216Y-193201544D01*
X425657188Y-193133624D01*
X425806488Y-193103927D01*
X425831258Y-193099000D01*
X426008742Y-193099000D01*
X426033512Y-193103927D01*
G37*
G36*
X431901000Y-194901000D02*
G01*
X430099000Y-194901000D01*
X430099000Y-193099000D01*
X431901000Y-193099000D01*
X431901000Y-194901000D01*
G37*
G36*
X428573512Y-193103927D02*
G01*
X428722812Y-193133624D01*
X428886784Y-193201544D01*
X429034354Y-193300147D01*
X429159853Y-193425646D01*
X429258456Y-193573216D01*
X429326376Y-193737188D01*
X429361000Y-193911259D01*
X429361000Y-194088741D01*
X429326376Y-194262812D01*
X429258456Y-194426784D01*
X429159853Y-194574354D01*
X429034354Y-194699853D01*
X428886784Y-194798456D01*
X428722812Y-194866376D01*
X428573512Y-194896073D01*
X428548742Y-194901000D01*
X428371258Y-194901000D01*
X428346488Y-194896073D01*
X428197188Y-194866376D01*
X428033216Y-194798456D01*
X427885646Y-194699853D01*
X427760147Y-194574354D01*
X427661544Y-194426784D01*
X427593624Y-194262812D01*
X427559000Y-194088741D01*
X427559000Y-193911259D01*
X427593624Y-193737188D01*
X427661544Y-193573216D01*
X427760147Y-193425646D01*
X427885646Y-193300147D01*
X428033216Y-193201544D01*
X428197188Y-193133624D01*
X428346488Y-193103927D01*
X428371258Y-193099000D01*
X428548742Y-193099000D01*
X428573512Y-193103927D01*
G37*
G36*
X426162199Y-188749954D02*
G01*
X426174450Y-188750556D01*
X426192869Y-188750556D01*
X426215149Y-188752750D01*
X426299233Y-188769476D01*
X426320660Y-188775976D01*
X426399858Y-188808780D01*
X426405303Y-188811691D01*
X426405309Y-188811693D01*
X426414169Y-188816429D01*
X426414173Y-188816432D01*
X426419614Y-188819340D01*
X426490899Y-188866971D01*
X426508204Y-188881172D01*
X426568828Y-188941796D01*
X426583029Y-188959101D01*
X426630660Y-189030386D01*
X426633568Y-189035827D01*
X426633571Y-189035831D01*
X426638307Y-189044691D01*
X426638309Y-189044697D01*
X426641220Y-189050142D01*
X426674024Y-189129340D01*
X426680524Y-189150767D01*
X426697250Y-189234851D01*
X426699444Y-189257131D01*
X426699444Y-189275550D01*
X426700046Y-189287801D01*
X426701852Y-189306139D01*
X426701852Y-189793860D01*
X426700263Y-189809999D01*
X426697348Y-189819608D01*
X426692610Y-189828472D01*
X426686237Y-189836237D01*
X426673794Y-189846448D01*
X426663425Y-189853378D01*
X426646098Y-189870705D01*
X426632485Y-189891080D01*
X426623109Y-189913720D01*
X426618329Y-189937753D01*
X426618330Y-189962257D01*
X426623112Y-189986290D01*
X426632490Y-190008929D01*
X426646105Y-190029302D01*
X426663432Y-190046629D01*
X426673802Y-190053558D01*
X426686237Y-190063763D01*
X426692610Y-190071528D01*
X426697348Y-190080392D01*
X426700263Y-190090001D01*
X426701852Y-190106140D01*
X426701852Y-190593862D01*
X426700046Y-190612199D01*
X426699444Y-190624450D01*
X426699444Y-190642869D01*
X426697250Y-190665149D01*
X426680524Y-190749233D01*
X426674024Y-190770660D01*
X426641220Y-190849858D01*
X426638309Y-190855303D01*
X426638307Y-190855309D01*
X426633571Y-190864169D01*
X426633568Y-190864173D01*
X426630660Y-190869614D01*
X426583029Y-190940899D01*
X426568828Y-190958204D01*
X426508204Y-191018828D01*
X426490899Y-191033029D01*
X426419614Y-191080660D01*
X426414173Y-191083568D01*
X426414169Y-191083571D01*
X426405309Y-191088307D01*
X426405303Y-191088309D01*
X426399858Y-191091220D01*
X426320660Y-191124024D01*
X426299233Y-191130524D01*
X426215149Y-191147250D01*
X426192869Y-191149444D01*
X426174450Y-191149444D01*
X426162199Y-191150046D01*
X426143862Y-191151852D01*
X425656138Y-191151852D01*
X425637801Y-191150046D01*
X425625550Y-191149444D01*
X425607131Y-191149444D01*
X425584851Y-191147250D01*
X425500767Y-191130524D01*
X425479340Y-191124024D01*
X425400142Y-191091220D01*
X425394697Y-191088309D01*
X425394691Y-191088307D01*
X425385831Y-191083571D01*
X425385827Y-191083568D01*
X425380386Y-191080660D01*
X425309101Y-191033029D01*
X425291796Y-191018828D01*
X425231172Y-190958204D01*
X425216971Y-190940899D01*
X425169340Y-190869614D01*
X425166432Y-190864173D01*
X425166429Y-190864169D01*
X425161693Y-190855309D01*
X425161691Y-190855303D01*
X425158780Y-190849858D01*
X425125976Y-190770660D01*
X425119476Y-190749233D01*
X425102750Y-190665149D01*
X425100556Y-190642869D01*
X425100556Y-190624450D01*
X425099954Y-190612199D01*
X425098148Y-190593862D01*
X425098148Y-190106140D01*
X425099737Y-190090001D01*
X425102652Y-190080392D01*
X425107390Y-190071528D01*
X425113763Y-190063763D01*
X425126206Y-190053552D01*
X425136575Y-190046622D01*
X425153902Y-190029295D01*
X425167515Y-190008920D01*
X425176891Y-189986280D01*
X425181671Y-189962247D01*
X425181670Y-189937743D01*
X425176888Y-189913710D01*
X425167510Y-189891071D01*
X425153895Y-189870698D01*
X425136568Y-189853371D01*
X425126198Y-189846442D01*
X425113763Y-189836237D01*
X425107390Y-189828472D01*
X425102652Y-189819608D01*
X425099737Y-189809999D01*
X425098148Y-189793860D01*
X425098148Y-189306139D01*
X425099954Y-189287801D01*
X425100556Y-189275550D01*
X425100556Y-189257131D01*
X425102750Y-189234851D01*
X425119476Y-189150767D01*
X425125976Y-189129340D01*
X425158780Y-189050142D01*
X425161691Y-189044697D01*
X425161693Y-189044691D01*
X425166429Y-189035831D01*
X425166432Y-189035827D01*
X425169340Y-189030386D01*
X425216971Y-188959101D01*
X425231172Y-188941796D01*
X425291796Y-188881172D01*
X425309101Y-188866971D01*
X425380386Y-188819340D01*
X425385827Y-188816432D01*
X425385831Y-188816429D01*
X425394691Y-188811693D01*
X425394697Y-188811691D01*
X425400142Y-188808780D01*
X425479340Y-188775976D01*
X425500767Y-188769476D01*
X425584851Y-188752750D01*
X425607131Y-188750556D01*
X425625550Y-188750556D01*
X425637801Y-188749954D01*
X425656139Y-188748148D01*
X426143861Y-188748148D01*
X426162199Y-188749954D01*
G37*
G36*
X423662199Y-188749954D02*
G01*
X423674450Y-188750556D01*
X423692869Y-188750556D01*
X423715149Y-188752750D01*
X423799233Y-188769476D01*
X423820660Y-188775976D01*
X423899858Y-188808780D01*
X423905303Y-188811691D01*
X423905309Y-188811693D01*
X423914169Y-188816429D01*
X423914173Y-188816432D01*
X423919614Y-188819340D01*
X423990899Y-188866971D01*
X424008204Y-188881172D01*
X424068828Y-188941796D01*
X424083029Y-188959101D01*
X424130660Y-189030386D01*
X424133568Y-189035827D01*
X424133571Y-189035831D01*
X424138307Y-189044691D01*
X424138309Y-189044697D01*
X424141220Y-189050142D01*
X424174024Y-189129340D01*
X424180524Y-189150767D01*
X424197250Y-189234851D01*
X424199444Y-189257131D01*
X424199444Y-189275550D01*
X424200046Y-189287801D01*
X424201852Y-189306139D01*
X424201852Y-189793860D01*
X424200263Y-189809999D01*
X424197348Y-189819608D01*
X424192610Y-189828472D01*
X424186237Y-189836237D01*
X424173794Y-189846448D01*
X424163425Y-189853378D01*
X424146098Y-189870705D01*
X424132485Y-189891080D01*
X424123109Y-189913720D01*
X424118329Y-189937753D01*
X424118330Y-189962257D01*
X424123112Y-189986290D01*
X424132490Y-190008929D01*
X424146105Y-190029302D01*
X424163432Y-190046629D01*
X424173802Y-190053558D01*
X424186237Y-190063763D01*
X424192610Y-190071528D01*
X424197348Y-190080392D01*
X424200263Y-190090001D01*
X424201852Y-190106140D01*
X424201852Y-190593862D01*
X424200046Y-190612199D01*
X424199444Y-190624450D01*
X424199444Y-190642869D01*
X424197250Y-190665149D01*
X424180524Y-190749233D01*
X424174024Y-190770660D01*
X424141220Y-190849858D01*
X424138309Y-190855303D01*
X424138307Y-190855309D01*
X424133571Y-190864169D01*
X424133568Y-190864173D01*
X424130660Y-190869614D01*
X424083029Y-190940899D01*
X424068828Y-190958204D01*
X424008204Y-191018828D01*
X423990899Y-191033029D01*
X423919614Y-191080660D01*
X423914173Y-191083568D01*
X423914169Y-191083571D01*
X423905309Y-191088307D01*
X423905303Y-191088309D01*
X423899858Y-191091220D01*
X423820660Y-191124024D01*
X423799233Y-191130524D01*
X423715149Y-191147250D01*
X423692869Y-191149444D01*
X423674450Y-191149444D01*
X423662199Y-191150046D01*
X423643862Y-191151852D01*
X423156138Y-191151852D01*
X423137801Y-191150046D01*
X423125550Y-191149444D01*
X423107131Y-191149444D01*
X423084851Y-191147250D01*
X423000767Y-191130524D01*
X422979340Y-191124024D01*
X422900142Y-191091220D01*
X422894697Y-191088309D01*
X422894691Y-191088307D01*
X422885831Y-191083571D01*
X422885827Y-191083568D01*
X422880386Y-191080660D01*
X422809101Y-191033029D01*
X422791796Y-191018828D01*
X422731172Y-190958204D01*
X422716971Y-190940899D01*
X422669340Y-190869614D01*
X422666432Y-190864173D01*
X422666429Y-190864169D01*
X422661693Y-190855309D01*
X422661691Y-190855303D01*
X422658780Y-190849858D01*
X422625976Y-190770660D01*
X422619476Y-190749233D01*
X422602750Y-190665149D01*
X422600556Y-190642869D01*
X422600556Y-190624450D01*
X422599954Y-190612199D01*
X422598148Y-190593862D01*
X422598148Y-190106140D01*
X422599737Y-190090001D01*
X422602652Y-190080392D01*
X422607390Y-190071528D01*
X422613763Y-190063763D01*
X422626206Y-190053552D01*
X422636575Y-190046622D01*
X422653902Y-190029295D01*
X422667515Y-190008920D01*
X422676891Y-189986280D01*
X422681671Y-189962247D01*
X422681670Y-189937743D01*
X422676888Y-189913710D01*
X422667510Y-189891071D01*
X422653895Y-189870698D01*
X422636568Y-189853371D01*
X422626198Y-189846442D01*
X422613763Y-189836237D01*
X422607390Y-189828472D01*
X422602652Y-189819608D01*
X422599737Y-189809999D01*
X422598148Y-189793860D01*
X422598148Y-189306138D01*
X422599954Y-189287801D01*
X422600556Y-189275550D01*
X422600556Y-189257131D01*
X422602750Y-189234851D01*
X422619476Y-189150767D01*
X422625976Y-189129340D01*
X422658780Y-189050142D01*
X422661691Y-189044697D01*
X422661693Y-189044691D01*
X422666429Y-189035831D01*
X422666432Y-189035827D01*
X422669340Y-189030386D01*
X422716971Y-188959101D01*
X422731172Y-188941796D01*
X422791796Y-188881172D01*
X422809101Y-188866971D01*
X422880386Y-188819340D01*
X422885827Y-188816432D01*
X422885831Y-188816429D01*
X422894691Y-188811693D01*
X422894697Y-188811691D01*
X422900142Y-188808780D01*
X422979340Y-188775976D01*
X423000767Y-188769476D01*
X423084851Y-188752750D01*
X423107131Y-188750556D01*
X423125550Y-188750556D01*
X423137801Y-188749954D01*
X423156139Y-188748148D01*
X423643861Y-188748148D01*
X423662199Y-188749954D01*
G37*
G36*
X379101000Y-189501000D02*
G01*
X377299000Y-189501000D01*
X377299000Y-187699000D01*
X379101000Y-187699000D01*
X379101000Y-189501000D01*
G37*
G36*
X385933512Y-187703927D02*
G01*
X386082812Y-187733624D01*
X386246784Y-187801544D01*
X386394354Y-187900147D01*
X386519853Y-188025646D01*
X386618456Y-188173216D01*
X386686376Y-188337188D01*
X386721000Y-188511259D01*
X386721000Y-188688741D01*
X386686376Y-188862812D01*
X386618456Y-189026784D01*
X386519853Y-189174354D01*
X386394354Y-189299853D01*
X386246784Y-189398456D01*
X386082812Y-189466376D01*
X385933512Y-189496073D01*
X385908742Y-189501000D01*
X385731258Y-189501000D01*
X385706488Y-189496073D01*
X385557188Y-189466376D01*
X385393216Y-189398456D01*
X385245646Y-189299853D01*
X385120147Y-189174354D01*
X385021544Y-189026784D01*
X384953624Y-188862812D01*
X384919000Y-188688741D01*
X384919000Y-188511259D01*
X384953624Y-188337188D01*
X385021544Y-188173216D01*
X385120147Y-188025646D01*
X385245646Y-187900147D01*
X385393216Y-187801544D01*
X385557188Y-187733624D01*
X385706488Y-187703927D01*
X385731258Y-187699000D01*
X385908742Y-187699000D01*
X385933512Y-187703927D01*
G37*
G36*
X391013512Y-187703927D02*
G01*
X391162812Y-187733624D01*
X391326784Y-187801544D01*
X391474354Y-187900147D01*
X391599853Y-188025646D01*
X391698456Y-188173216D01*
X391766376Y-188337188D01*
X391801000Y-188511259D01*
X391801000Y-188688741D01*
X391766376Y-188862812D01*
X391698456Y-189026784D01*
X391599853Y-189174354D01*
X391474354Y-189299853D01*
X391326784Y-189398456D01*
X391162812Y-189466376D01*
X391013512Y-189496073D01*
X390988742Y-189501000D01*
X390811258Y-189501000D01*
X390786488Y-189496073D01*
X390637188Y-189466376D01*
X390473216Y-189398456D01*
X390325646Y-189299853D01*
X390200147Y-189174354D01*
X390101544Y-189026784D01*
X390033624Y-188862812D01*
X389999000Y-188688741D01*
X389999000Y-188511259D01*
X390033624Y-188337188D01*
X390101544Y-188173216D01*
X390200147Y-188025646D01*
X390325646Y-187900147D01*
X390473216Y-187801544D01*
X390637188Y-187733624D01*
X390786488Y-187703927D01*
X390811258Y-187699000D01*
X390988742Y-187699000D01*
X391013512Y-187703927D01*
G37*
G36*
X388473512Y-187703927D02*
G01*
X388622812Y-187733624D01*
X388786784Y-187801544D01*
X388934354Y-187900147D01*
X389059853Y-188025646D01*
X389158456Y-188173216D01*
X389226376Y-188337188D01*
X389261000Y-188511259D01*
X389261000Y-188688741D01*
X389226376Y-188862812D01*
X389158456Y-189026784D01*
X389059853Y-189174354D01*
X388934354Y-189299853D01*
X388786784Y-189398456D01*
X388622812Y-189466376D01*
X388473512Y-189496073D01*
X388448742Y-189501000D01*
X388271258Y-189501000D01*
X388246488Y-189496073D01*
X388097188Y-189466376D01*
X387933216Y-189398456D01*
X387785646Y-189299853D01*
X387660147Y-189174354D01*
X387561544Y-189026784D01*
X387493624Y-188862812D01*
X387459000Y-188688741D01*
X387459000Y-188511259D01*
X387493624Y-188337188D01*
X387561544Y-188173216D01*
X387660147Y-188025646D01*
X387785646Y-187900147D01*
X387933216Y-187801544D01*
X388097188Y-187733624D01*
X388246488Y-187703927D01*
X388271258Y-187699000D01*
X388448742Y-187699000D01*
X388473512Y-187703927D01*
G37*
G36*
X383393512Y-187703927D02*
G01*
X383542812Y-187733624D01*
X383706784Y-187801544D01*
X383854354Y-187900147D01*
X383979853Y-188025646D01*
X384078456Y-188173216D01*
X384146376Y-188337188D01*
X384181000Y-188511259D01*
X384181000Y-188688741D01*
X384146376Y-188862812D01*
X384078456Y-189026784D01*
X383979853Y-189174354D01*
X383854354Y-189299853D01*
X383706784Y-189398456D01*
X383542812Y-189466376D01*
X383393512Y-189496073D01*
X383368742Y-189501000D01*
X383191258Y-189501000D01*
X383166488Y-189496073D01*
X383017188Y-189466376D01*
X382853216Y-189398456D01*
X382705646Y-189299853D01*
X382580147Y-189174354D01*
X382481544Y-189026784D01*
X382413624Y-188862812D01*
X382379000Y-188688741D01*
X382379000Y-188511259D01*
X382413624Y-188337188D01*
X382481544Y-188173216D01*
X382580147Y-188025646D01*
X382705646Y-187900147D01*
X382853216Y-187801544D01*
X383017188Y-187733624D01*
X383166488Y-187703927D01*
X383191258Y-187699000D01*
X383368742Y-187699000D01*
X383393512Y-187703927D01*
G37*
G36*
X380853512Y-187703927D02*
G01*
X381002812Y-187733624D01*
X381166784Y-187801544D01*
X381314354Y-187900147D01*
X381439853Y-188025646D01*
X381538456Y-188173216D01*
X381606376Y-188337188D01*
X381641000Y-188511259D01*
X381641000Y-188688741D01*
X381606376Y-188862812D01*
X381538456Y-189026784D01*
X381439853Y-189174354D01*
X381314354Y-189299853D01*
X381166784Y-189398456D01*
X381002812Y-189466376D01*
X380853512Y-189496073D01*
X380828742Y-189501000D01*
X380651258Y-189501000D01*
X380626488Y-189496073D01*
X380477188Y-189466376D01*
X380313216Y-189398456D01*
X380165646Y-189299853D01*
X380040147Y-189174354D01*
X379941544Y-189026784D01*
X379873624Y-188862812D01*
X379839000Y-188688741D01*
X379839000Y-188511259D01*
X379873624Y-188337188D01*
X379941544Y-188173216D01*
X380040147Y-188025646D01*
X380165646Y-187900147D01*
X380313216Y-187801544D01*
X380477188Y-187733624D01*
X380626488Y-187703927D01*
X380651258Y-187699000D01*
X380828742Y-187699000D01*
X380853512Y-187703927D01*
G37*
M02*
