M48
; DRILL file {KiCad 5.1.5+dfsg1-2build2} date Fri 02 Jul 2021 10:02:57 BST
; FORMAT={-:-/ absolute / inch / decimal}
; #@! TF.CreationDate,2021-07-02T10:02:57+01:00
; #@! TF.GenerationSoftware,Kicad,Pcbnew,5.1.5+dfsg1-2build2
; #@! TF.FileFunction,Plated,1,2,PTH
FMAT,2
INCH
T1C0.0157
T2C0.0394
T3C0.0402
T4C0.0512
%
G90
G05
T1
X12.9902Y-9.0571
X12.998Y-9.4173
X13.2205Y-9.0
X13.4252Y-9.0079
X13.5098Y-9.5482
X13.561Y-9.5197
X13.6791Y-9.4744
X13.687Y-9.6002
X13.7067Y-9.5197
X13.7185Y-9.2854
X13.7441Y-9.435
X13.7461Y-9.6319
X13.7549Y-9.2692
X13.7579Y-9.372
X13.7657Y-9.3071
X13.878Y-9.1004
X13.9154Y-9.0531
X13.9213Y-9.0965
X14.0098Y-9.0138
X14.0157Y-9.2264
X14.0197Y-9.6201
X14.1083Y-8.9843
X14.1243Y-9.1434
X14.1732Y-9.1102
X14.1772Y-9.0157
X14.2677Y-9.0472
X14.5512Y-9.4646
X14.5512Y-9.6457
X14.5906Y-9.4409
X14.5984Y-9.6772
X14.6378Y-9.3177
X14.6457Y-9.4331
X14.7323Y-9.6142
X14.7402Y-9.1388
X14.7559Y-10.2441
X14.7638Y-9.5669
X14.7638Y-10.1339
X14.8031Y-9.6457
X14.8031Y-9.8583
X14.811Y-9.5118
X14.8248Y-8.9291
X14.8425Y-9.9213
X14.85Y-7.98
X14.8504Y-9.2756
X14.8622Y-8.9567
X14.874Y-9.6457
X14.8757Y-9.3682
X14.8839Y-9.4094
X14.8898Y-9.1969
X14.9016Y-8.9823
X14.9055Y-9.0315
X14.9213Y-9.3307
X14.9921Y-7.6299
X15.2047Y-7.5591
X15.2913Y-7.5827
X15.5748Y-10.1575
X15.5827Y-7.5985
X15.5906Y-10.3701
X15.6063Y-10.4331
X15.61Y-8.24
X15.62Y-10.62
X15.622Y-8.9449
X15.67Y-10.4
X15.7Y-10.74
X15.74Y-10.64
X15.748Y-10.4488
X15.78Y-10.83
X15.82Y-7.57
X15.83Y-10.4
X15.8583Y-10.3307
X15.86Y-10.76
X15.91Y-10.44
X15.9213Y-10.3858
X15.9528Y-10.5984
X15.98Y-7.92
X15.98Y-8.4
X15.98Y-10.54
X16.03Y-8.64
X16.0394Y-10.4567
X16.04Y-8.26
X16.06Y-8.86
X16.07Y-9.64
X16.08Y-7.53
X16.1024Y-9.7323
X16.15Y-7.64
X16.15Y-9.34
X16.16Y-7.88
X16.2Y-10.14
X16.3445Y-8.9252
X16.3563Y-8.0866
X16.3622Y-10.5118
X16.42Y-8.74
X16.42Y-8.92
X16.43Y-9.53
X16.43Y-10.12
X16.43Y-10.72
X16.5906Y-7.8307
X16.67Y-9.26
X16.7323Y-7.8898
X16.8Y-8.2
X16.92Y-8.4
X17.1831Y-8.5394
T2
X12.7346Y-8.9575
X12.7346Y-9.0575
X12.7346Y-9.1575
X12.7346Y-9.2575
X12.7346Y-9.3575
X12.7346Y-9.4575
X12.7346Y-9.5575
X12.7346Y-9.6575
X12.8346Y-8.9606
X12.8346Y-9.0575
X12.8346Y-9.1575
X12.8346Y-9.2575
X12.8346Y-9.3575
X12.8346Y-9.4575
X12.8346Y-9.5575
X12.8346Y-9.6575
X16.6685Y-7.6378
X16.7685Y-7.6378
X16.8685Y-7.6378
X16.9685Y-7.6378
X15.48Y-7.88
X15.48Y-7.98
X14.8091Y-10.378
X14.8091Y-10.478
X14.8091Y-10.578
X14.8898Y-7.4252
X14.9898Y-7.4252
X15.0898Y-7.4252
X15.1898Y-7.4252
X15.2898Y-7.4252
X15.3898Y-7.4252
T3
X15.1224Y-8.3413
X15.1224Y-8.4413
X15.1224Y-8.5413
X15.1224Y-8.6413
X15.1224Y-8.7413
X15.1224Y-8.8413
X15.1224Y-8.9413
X15.1224Y-9.0413
X15.1224Y-9.1413
X15.1224Y-9.2413
X15.1224Y-9.3413
X15.1224Y-9.4413
X15.1224Y-9.5413
X15.1224Y-9.6413
X15.1224Y-9.7413
X15.1224Y-9.8413
X15.1224Y-9.9413
X15.1224Y-10.0413
X15.1224Y-10.1413
X15.1224Y-10.2413
X15.3724Y-10.2323
X15.4724Y-10.2323
X15.5724Y-10.2323
X15.8224Y-8.3413
X15.8224Y-8.4413
X15.8224Y-8.5413
X15.8224Y-8.6413
X15.8224Y-8.7413
X15.8224Y-8.8413
X15.8224Y-8.9413
X15.8224Y-9.0413
X15.8224Y-9.1413
X15.8224Y-9.2413
X15.8224Y-9.3413
X15.8224Y-9.4413
X15.8224Y-9.5413
X15.8224Y-9.6413
X15.8224Y-9.7413
X15.8224Y-9.8413
X15.8224Y-9.9413
X15.8224Y-10.0413
X15.8224Y-10.1413
X15.8224Y-10.2413
T4
X16.8031Y-10.1224
X16.8031Y-10.3193
X17.2953Y-10.1224
X17.2953Y-10.3193
X16.8031Y-9.5224
X16.8031Y-9.7193
X17.2953Y-9.5224
X17.2953Y-9.7193
X16.8012Y-10.7185
X16.8012Y-10.9154
X17.2933Y-10.7185
X17.2933Y-10.9154
X16.8031Y-8.9224
X16.8031Y-9.1193
X17.2953Y-8.9224
X17.2953Y-9.1193
T0
M30
