G04 #@! TF.GenerationSoftware,KiCad,Pcbnew,5.1.5+dfsg1-2build2*
G04 #@! TF.CreationDate,2021-07-02T10:02:58+01:00*
G04 #@! TF.ProjectId,pak_breakout,70616b5f-6272-4656-916b-6f75742e6b69,rev?*
G04 #@! TF.SameCoordinates,Original*
G04 #@! TF.FileFunction,Paste,Top*
G04 #@! TF.FilePolarity,Positive*
%FSLAX46Y46*%
G04 Gerber Fmt 4.6, Leading zero omitted, Abs format (unit mm)*
G04 Created by KiCad (PCBNEW 5.1.5+dfsg1-2build2) date 2021-07-02 10:02:58*
%MOMM*%
%LPD*%
G04 APERTURE LIST*
%ADD10C,0.100000*%
%ADD11R,0.900000X1.200000*%
%ADD12R,1.200000X2.200000*%
%ADD13R,1.600000X1.400000*%
%ADD14R,1.200000X1.400000*%
%ADD15R,0.700000X1.600000*%
G04 APERTURE END LIST*
D10*
G36*
X361389703Y-232660722D02*
G01*
X361404264Y-232662882D01*
X361418543Y-232666459D01*
X361432403Y-232671418D01*
X361445710Y-232677712D01*
X361458336Y-232685280D01*
X361470159Y-232694048D01*
X361481066Y-232703934D01*
X361490952Y-232714841D01*
X361499720Y-232726664D01*
X361507288Y-232739290D01*
X361513582Y-232752597D01*
X361518541Y-232766457D01*
X361522118Y-232780736D01*
X361524278Y-232795297D01*
X361525000Y-232810000D01*
X361525000Y-233110000D01*
X361524278Y-233124703D01*
X361522118Y-233139264D01*
X361518541Y-233153543D01*
X361513582Y-233167403D01*
X361507288Y-233180710D01*
X361499720Y-233193336D01*
X361490952Y-233205159D01*
X361481066Y-233216066D01*
X361470159Y-233225952D01*
X361458336Y-233234720D01*
X361445710Y-233242288D01*
X361432403Y-233248582D01*
X361418543Y-233253541D01*
X361404264Y-233257118D01*
X361389703Y-233259278D01*
X361375000Y-233260000D01*
X359625000Y-233260000D01*
X359610297Y-233259278D01*
X359595736Y-233257118D01*
X359581457Y-233253541D01*
X359567597Y-233248582D01*
X359554290Y-233242288D01*
X359541664Y-233234720D01*
X359529841Y-233225952D01*
X359518934Y-233216066D01*
X359509048Y-233205159D01*
X359500280Y-233193336D01*
X359492712Y-233180710D01*
X359486418Y-233167403D01*
X359481459Y-233153543D01*
X359477882Y-233139264D01*
X359475722Y-233124703D01*
X359475000Y-233110000D01*
X359475000Y-232810000D01*
X359475722Y-232795297D01*
X359477882Y-232780736D01*
X359481459Y-232766457D01*
X359486418Y-232752597D01*
X359492712Y-232739290D01*
X359500280Y-232726664D01*
X359509048Y-232714841D01*
X359518934Y-232703934D01*
X359529841Y-232694048D01*
X359541664Y-232685280D01*
X359554290Y-232677712D01*
X359567597Y-232671418D01*
X359581457Y-232666459D01*
X359595736Y-232662882D01*
X359610297Y-232660722D01*
X359625000Y-232660000D01*
X361375000Y-232660000D01*
X361389703Y-232660722D01*
G37*
G36*
X361389703Y-233930722D02*
G01*
X361404264Y-233932882D01*
X361418543Y-233936459D01*
X361432403Y-233941418D01*
X361445710Y-233947712D01*
X361458336Y-233955280D01*
X361470159Y-233964048D01*
X361481066Y-233973934D01*
X361490952Y-233984841D01*
X361499720Y-233996664D01*
X361507288Y-234009290D01*
X361513582Y-234022597D01*
X361518541Y-234036457D01*
X361522118Y-234050736D01*
X361524278Y-234065297D01*
X361525000Y-234080000D01*
X361525000Y-234380000D01*
X361524278Y-234394703D01*
X361522118Y-234409264D01*
X361518541Y-234423543D01*
X361513582Y-234437403D01*
X361507288Y-234450710D01*
X361499720Y-234463336D01*
X361490952Y-234475159D01*
X361481066Y-234486066D01*
X361470159Y-234495952D01*
X361458336Y-234504720D01*
X361445710Y-234512288D01*
X361432403Y-234518582D01*
X361418543Y-234523541D01*
X361404264Y-234527118D01*
X361389703Y-234529278D01*
X361375000Y-234530000D01*
X359625000Y-234530000D01*
X359610297Y-234529278D01*
X359595736Y-234527118D01*
X359581457Y-234523541D01*
X359567597Y-234518582D01*
X359554290Y-234512288D01*
X359541664Y-234504720D01*
X359529841Y-234495952D01*
X359518934Y-234486066D01*
X359509048Y-234475159D01*
X359500280Y-234463336D01*
X359492712Y-234450710D01*
X359486418Y-234437403D01*
X359481459Y-234423543D01*
X359477882Y-234409264D01*
X359475722Y-234394703D01*
X359475000Y-234380000D01*
X359475000Y-234080000D01*
X359475722Y-234065297D01*
X359477882Y-234050736D01*
X359481459Y-234036457D01*
X359486418Y-234022597D01*
X359492712Y-234009290D01*
X359500280Y-233996664D01*
X359509048Y-233984841D01*
X359518934Y-233973934D01*
X359529841Y-233964048D01*
X359541664Y-233955280D01*
X359554290Y-233947712D01*
X359567597Y-233941418D01*
X359581457Y-233936459D01*
X359595736Y-233932882D01*
X359610297Y-233930722D01*
X359625000Y-233930000D01*
X361375000Y-233930000D01*
X361389703Y-233930722D01*
G37*
G36*
X361389703Y-235200722D02*
G01*
X361404264Y-235202882D01*
X361418543Y-235206459D01*
X361432403Y-235211418D01*
X361445710Y-235217712D01*
X361458336Y-235225280D01*
X361470159Y-235234048D01*
X361481066Y-235243934D01*
X361490952Y-235254841D01*
X361499720Y-235266664D01*
X361507288Y-235279290D01*
X361513582Y-235292597D01*
X361518541Y-235306457D01*
X361522118Y-235320736D01*
X361524278Y-235335297D01*
X361525000Y-235350000D01*
X361525000Y-235650000D01*
X361524278Y-235664703D01*
X361522118Y-235679264D01*
X361518541Y-235693543D01*
X361513582Y-235707403D01*
X361507288Y-235720710D01*
X361499720Y-235733336D01*
X361490952Y-235745159D01*
X361481066Y-235756066D01*
X361470159Y-235765952D01*
X361458336Y-235774720D01*
X361445710Y-235782288D01*
X361432403Y-235788582D01*
X361418543Y-235793541D01*
X361404264Y-235797118D01*
X361389703Y-235799278D01*
X361375000Y-235800000D01*
X359625000Y-235800000D01*
X359610297Y-235799278D01*
X359595736Y-235797118D01*
X359581457Y-235793541D01*
X359567597Y-235788582D01*
X359554290Y-235782288D01*
X359541664Y-235774720D01*
X359529841Y-235765952D01*
X359518934Y-235756066D01*
X359509048Y-235745159D01*
X359500280Y-235733336D01*
X359492712Y-235720710D01*
X359486418Y-235707403D01*
X359481459Y-235693543D01*
X359477882Y-235679264D01*
X359475722Y-235664703D01*
X359475000Y-235650000D01*
X359475000Y-235350000D01*
X359475722Y-235335297D01*
X359477882Y-235320736D01*
X359481459Y-235306457D01*
X359486418Y-235292597D01*
X359492712Y-235279290D01*
X359500280Y-235266664D01*
X359509048Y-235254841D01*
X359518934Y-235243934D01*
X359529841Y-235234048D01*
X359541664Y-235225280D01*
X359554290Y-235217712D01*
X359567597Y-235211418D01*
X359581457Y-235206459D01*
X359595736Y-235202882D01*
X359610297Y-235200722D01*
X359625000Y-235200000D01*
X361375000Y-235200000D01*
X361389703Y-235200722D01*
G37*
G36*
X361389703Y-236470722D02*
G01*
X361404264Y-236472882D01*
X361418543Y-236476459D01*
X361432403Y-236481418D01*
X361445710Y-236487712D01*
X361458336Y-236495280D01*
X361470159Y-236504048D01*
X361481066Y-236513934D01*
X361490952Y-236524841D01*
X361499720Y-236536664D01*
X361507288Y-236549290D01*
X361513582Y-236562597D01*
X361518541Y-236576457D01*
X361522118Y-236590736D01*
X361524278Y-236605297D01*
X361525000Y-236620000D01*
X361525000Y-236920000D01*
X361524278Y-236934703D01*
X361522118Y-236949264D01*
X361518541Y-236963543D01*
X361513582Y-236977403D01*
X361507288Y-236990710D01*
X361499720Y-237003336D01*
X361490952Y-237015159D01*
X361481066Y-237026066D01*
X361470159Y-237035952D01*
X361458336Y-237044720D01*
X361445710Y-237052288D01*
X361432403Y-237058582D01*
X361418543Y-237063541D01*
X361404264Y-237067118D01*
X361389703Y-237069278D01*
X361375000Y-237070000D01*
X359625000Y-237070000D01*
X359610297Y-237069278D01*
X359595736Y-237067118D01*
X359581457Y-237063541D01*
X359567597Y-237058582D01*
X359554290Y-237052288D01*
X359541664Y-237044720D01*
X359529841Y-237035952D01*
X359518934Y-237026066D01*
X359509048Y-237015159D01*
X359500280Y-237003336D01*
X359492712Y-236990710D01*
X359486418Y-236977403D01*
X359481459Y-236963543D01*
X359477882Y-236949264D01*
X359475722Y-236934703D01*
X359475000Y-236920000D01*
X359475000Y-236620000D01*
X359475722Y-236605297D01*
X359477882Y-236590736D01*
X359481459Y-236576457D01*
X359486418Y-236562597D01*
X359492712Y-236549290D01*
X359500280Y-236536664D01*
X359509048Y-236524841D01*
X359518934Y-236513934D01*
X359529841Y-236504048D01*
X359541664Y-236495280D01*
X359554290Y-236487712D01*
X359567597Y-236481418D01*
X359581457Y-236476459D01*
X359595736Y-236472882D01*
X359610297Y-236470722D01*
X359625000Y-236470000D01*
X361375000Y-236470000D01*
X361389703Y-236470722D01*
G37*
G36*
X361389703Y-237740722D02*
G01*
X361404264Y-237742882D01*
X361418543Y-237746459D01*
X361432403Y-237751418D01*
X361445710Y-237757712D01*
X361458336Y-237765280D01*
X361470159Y-237774048D01*
X361481066Y-237783934D01*
X361490952Y-237794841D01*
X361499720Y-237806664D01*
X361507288Y-237819290D01*
X361513582Y-237832597D01*
X361518541Y-237846457D01*
X361522118Y-237860736D01*
X361524278Y-237875297D01*
X361525000Y-237890000D01*
X361525000Y-238190000D01*
X361524278Y-238204703D01*
X361522118Y-238219264D01*
X361518541Y-238233543D01*
X361513582Y-238247403D01*
X361507288Y-238260710D01*
X361499720Y-238273336D01*
X361490952Y-238285159D01*
X361481066Y-238296066D01*
X361470159Y-238305952D01*
X361458336Y-238314720D01*
X361445710Y-238322288D01*
X361432403Y-238328582D01*
X361418543Y-238333541D01*
X361404264Y-238337118D01*
X361389703Y-238339278D01*
X361375000Y-238340000D01*
X359625000Y-238340000D01*
X359610297Y-238339278D01*
X359595736Y-238337118D01*
X359581457Y-238333541D01*
X359567597Y-238328582D01*
X359554290Y-238322288D01*
X359541664Y-238314720D01*
X359529841Y-238305952D01*
X359518934Y-238296066D01*
X359509048Y-238285159D01*
X359500280Y-238273336D01*
X359492712Y-238260710D01*
X359486418Y-238247403D01*
X359481459Y-238233543D01*
X359477882Y-238219264D01*
X359475722Y-238204703D01*
X359475000Y-238190000D01*
X359475000Y-237890000D01*
X359475722Y-237875297D01*
X359477882Y-237860736D01*
X359481459Y-237846457D01*
X359486418Y-237832597D01*
X359492712Y-237819290D01*
X359500280Y-237806664D01*
X359509048Y-237794841D01*
X359518934Y-237783934D01*
X359529841Y-237774048D01*
X359541664Y-237765280D01*
X359554290Y-237757712D01*
X359567597Y-237751418D01*
X359581457Y-237746459D01*
X359595736Y-237742882D01*
X359610297Y-237740722D01*
X359625000Y-237740000D01*
X361375000Y-237740000D01*
X361389703Y-237740722D01*
G37*
G36*
X361389703Y-239010722D02*
G01*
X361404264Y-239012882D01*
X361418543Y-239016459D01*
X361432403Y-239021418D01*
X361445710Y-239027712D01*
X361458336Y-239035280D01*
X361470159Y-239044048D01*
X361481066Y-239053934D01*
X361490952Y-239064841D01*
X361499720Y-239076664D01*
X361507288Y-239089290D01*
X361513582Y-239102597D01*
X361518541Y-239116457D01*
X361522118Y-239130736D01*
X361524278Y-239145297D01*
X361525000Y-239160000D01*
X361525000Y-239460000D01*
X361524278Y-239474703D01*
X361522118Y-239489264D01*
X361518541Y-239503543D01*
X361513582Y-239517403D01*
X361507288Y-239530710D01*
X361499720Y-239543336D01*
X361490952Y-239555159D01*
X361481066Y-239566066D01*
X361470159Y-239575952D01*
X361458336Y-239584720D01*
X361445710Y-239592288D01*
X361432403Y-239598582D01*
X361418543Y-239603541D01*
X361404264Y-239607118D01*
X361389703Y-239609278D01*
X361375000Y-239610000D01*
X359625000Y-239610000D01*
X359610297Y-239609278D01*
X359595736Y-239607118D01*
X359581457Y-239603541D01*
X359567597Y-239598582D01*
X359554290Y-239592288D01*
X359541664Y-239584720D01*
X359529841Y-239575952D01*
X359518934Y-239566066D01*
X359509048Y-239555159D01*
X359500280Y-239543336D01*
X359492712Y-239530710D01*
X359486418Y-239517403D01*
X359481459Y-239503543D01*
X359477882Y-239489264D01*
X359475722Y-239474703D01*
X359475000Y-239460000D01*
X359475000Y-239160000D01*
X359475722Y-239145297D01*
X359477882Y-239130736D01*
X359481459Y-239116457D01*
X359486418Y-239102597D01*
X359492712Y-239089290D01*
X359500280Y-239076664D01*
X359509048Y-239064841D01*
X359518934Y-239053934D01*
X359529841Y-239044048D01*
X359541664Y-239035280D01*
X359554290Y-239027712D01*
X359567597Y-239021418D01*
X359581457Y-239016459D01*
X359595736Y-239012882D01*
X359610297Y-239010722D01*
X359625000Y-239010000D01*
X361375000Y-239010000D01*
X361389703Y-239010722D01*
G37*
G36*
X361389703Y-240280722D02*
G01*
X361404264Y-240282882D01*
X361418543Y-240286459D01*
X361432403Y-240291418D01*
X361445710Y-240297712D01*
X361458336Y-240305280D01*
X361470159Y-240314048D01*
X361481066Y-240323934D01*
X361490952Y-240334841D01*
X361499720Y-240346664D01*
X361507288Y-240359290D01*
X361513582Y-240372597D01*
X361518541Y-240386457D01*
X361522118Y-240400736D01*
X361524278Y-240415297D01*
X361525000Y-240430000D01*
X361525000Y-240730000D01*
X361524278Y-240744703D01*
X361522118Y-240759264D01*
X361518541Y-240773543D01*
X361513582Y-240787403D01*
X361507288Y-240800710D01*
X361499720Y-240813336D01*
X361490952Y-240825159D01*
X361481066Y-240836066D01*
X361470159Y-240845952D01*
X361458336Y-240854720D01*
X361445710Y-240862288D01*
X361432403Y-240868582D01*
X361418543Y-240873541D01*
X361404264Y-240877118D01*
X361389703Y-240879278D01*
X361375000Y-240880000D01*
X359625000Y-240880000D01*
X359610297Y-240879278D01*
X359595736Y-240877118D01*
X359581457Y-240873541D01*
X359567597Y-240868582D01*
X359554290Y-240862288D01*
X359541664Y-240854720D01*
X359529841Y-240845952D01*
X359518934Y-240836066D01*
X359509048Y-240825159D01*
X359500280Y-240813336D01*
X359492712Y-240800710D01*
X359486418Y-240787403D01*
X359481459Y-240773543D01*
X359477882Y-240759264D01*
X359475722Y-240744703D01*
X359475000Y-240730000D01*
X359475000Y-240430000D01*
X359475722Y-240415297D01*
X359477882Y-240400736D01*
X359481459Y-240386457D01*
X359486418Y-240372597D01*
X359492712Y-240359290D01*
X359500280Y-240346664D01*
X359509048Y-240334841D01*
X359518934Y-240323934D01*
X359529841Y-240314048D01*
X359541664Y-240305280D01*
X359554290Y-240297712D01*
X359567597Y-240291418D01*
X359581457Y-240286459D01*
X359595736Y-240282882D01*
X359610297Y-240280722D01*
X359625000Y-240280000D01*
X361375000Y-240280000D01*
X361389703Y-240280722D01*
G37*
G36*
X361389703Y-241550722D02*
G01*
X361404264Y-241552882D01*
X361418543Y-241556459D01*
X361432403Y-241561418D01*
X361445710Y-241567712D01*
X361458336Y-241575280D01*
X361470159Y-241584048D01*
X361481066Y-241593934D01*
X361490952Y-241604841D01*
X361499720Y-241616664D01*
X361507288Y-241629290D01*
X361513582Y-241642597D01*
X361518541Y-241656457D01*
X361522118Y-241670736D01*
X361524278Y-241685297D01*
X361525000Y-241700000D01*
X361525000Y-242000000D01*
X361524278Y-242014703D01*
X361522118Y-242029264D01*
X361518541Y-242043543D01*
X361513582Y-242057403D01*
X361507288Y-242070710D01*
X361499720Y-242083336D01*
X361490952Y-242095159D01*
X361481066Y-242106066D01*
X361470159Y-242115952D01*
X361458336Y-242124720D01*
X361445710Y-242132288D01*
X361432403Y-242138582D01*
X361418543Y-242143541D01*
X361404264Y-242147118D01*
X361389703Y-242149278D01*
X361375000Y-242150000D01*
X359625000Y-242150000D01*
X359610297Y-242149278D01*
X359595736Y-242147118D01*
X359581457Y-242143541D01*
X359567597Y-242138582D01*
X359554290Y-242132288D01*
X359541664Y-242124720D01*
X359529841Y-242115952D01*
X359518934Y-242106066D01*
X359509048Y-242095159D01*
X359500280Y-242083336D01*
X359492712Y-242070710D01*
X359486418Y-242057403D01*
X359481459Y-242043543D01*
X359477882Y-242029264D01*
X359475722Y-242014703D01*
X359475000Y-242000000D01*
X359475000Y-241700000D01*
X359475722Y-241685297D01*
X359477882Y-241670736D01*
X359481459Y-241656457D01*
X359486418Y-241642597D01*
X359492712Y-241629290D01*
X359500280Y-241616664D01*
X359509048Y-241604841D01*
X359518934Y-241593934D01*
X359529841Y-241584048D01*
X359541664Y-241575280D01*
X359554290Y-241567712D01*
X359567597Y-241561418D01*
X359581457Y-241556459D01*
X359595736Y-241552882D01*
X359610297Y-241550722D01*
X359625000Y-241550000D01*
X361375000Y-241550000D01*
X361389703Y-241550722D01*
G37*
G36*
X361389703Y-242820722D02*
G01*
X361404264Y-242822882D01*
X361418543Y-242826459D01*
X361432403Y-242831418D01*
X361445710Y-242837712D01*
X361458336Y-242845280D01*
X361470159Y-242854048D01*
X361481066Y-242863934D01*
X361490952Y-242874841D01*
X361499720Y-242886664D01*
X361507288Y-242899290D01*
X361513582Y-242912597D01*
X361518541Y-242926457D01*
X361522118Y-242940736D01*
X361524278Y-242955297D01*
X361525000Y-242970000D01*
X361525000Y-243270000D01*
X361524278Y-243284703D01*
X361522118Y-243299264D01*
X361518541Y-243313543D01*
X361513582Y-243327403D01*
X361507288Y-243340710D01*
X361499720Y-243353336D01*
X361490952Y-243365159D01*
X361481066Y-243376066D01*
X361470159Y-243385952D01*
X361458336Y-243394720D01*
X361445710Y-243402288D01*
X361432403Y-243408582D01*
X361418543Y-243413541D01*
X361404264Y-243417118D01*
X361389703Y-243419278D01*
X361375000Y-243420000D01*
X359625000Y-243420000D01*
X359610297Y-243419278D01*
X359595736Y-243417118D01*
X359581457Y-243413541D01*
X359567597Y-243408582D01*
X359554290Y-243402288D01*
X359541664Y-243394720D01*
X359529841Y-243385952D01*
X359518934Y-243376066D01*
X359509048Y-243365159D01*
X359500280Y-243353336D01*
X359492712Y-243340710D01*
X359486418Y-243327403D01*
X359481459Y-243313543D01*
X359477882Y-243299264D01*
X359475722Y-243284703D01*
X359475000Y-243270000D01*
X359475000Y-242970000D01*
X359475722Y-242955297D01*
X359477882Y-242940736D01*
X359481459Y-242926457D01*
X359486418Y-242912597D01*
X359492712Y-242899290D01*
X359500280Y-242886664D01*
X359509048Y-242874841D01*
X359518934Y-242863934D01*
X359529841Y-242854048D01*
X359541664Y-242845280D01*
X359554290Y-242837712D01*
X359567597Y-242831418D01*
X359581457Y-242826459D01*
X359595736Y-242822882D01*
X359610297Y-242820722D01*
X359625000Y-242820000D01*
X361375000Y-242820000D01*
X361389703Y-242820722D01*
G37*
G36*
X361389703Y-244090722D02*
G01*
X361404264Y-244092882D01*
X361418543Y-244096459D01*
X361432403Y-244101418D01*
X361445710Y-244107712D01*
X361458336Y-244115280D01*
X361470159Y-244124048D01*
X361481066Y-244133934D01*
X361490952Y-244144841D01*
X361499720Y-244156664D01*
X361507288Y-244169290D01*
X361513582Y-244182597D01*
X361518541Y-244196457D01*
X361522118Y-244210736D01*
X361524278Y-244225297D01*
X361525000Y-244240000D01*
X361525000Y-244540000D01*
X361524278Y-244554703D01*
X361522118Y-244569264D01*
X361518541Y-244583543D01*
X361513582Y-244597403D01*
X361507288Y-244610710D01*
X361499720Y-244623336D01*
X361490952Y-244635159D01*
X361481066Y-244646066D01*
X361470159Y-244655952D01*
X361458336Y-244664720D01*
X361445710Y-244672288D01*
X361432403Y-244678582D01*
X361418543Y-244683541D01*
X361404264Y-244687118D01*
X361389703Y-244689278D01*
X361375000Y-244690000D01*
X359625000Y-244690000D01*
X359610297Y-244689278D01*
X359595736Y-244687118D01*
X359581457Y-244683541D01*
X359567597Y-244678582D01*
X359554290Y-244672288D01*
X359541664Y-244664720D01*
X359529841Y-244655952D01*
X359518934Y-244646066D01*
X359509048Y-244635159D01*
X359500280Y-244623336D01*
X359492712Y-244610710D01*
X359486418Y-244597403D01*
X359481459Y-244583543D01*
X359477882Y-244569264D01*
X359475722Y-244554703D01*
X359475000Y-244540000D01*
X359475000Y-244240000D01*
X359475722Y-244225297D01*
X359477882Y-244210736D01*
X359481459Y-244196457D01*
X359486418Y-244182597D01*
X359492712Y-244169290D01*
X359500280Y-244156664D01*
X359509048Y-244144841D01*
X359518934Y-244133934D01*
X359529841Y-244124048D01*
X359541664Y-244115280D01*
X359554290Y-244107712D01*
X359567597Y-244101418D01*
X359581457Y-244096459D01*
X359595736Y-244092882D01*
X359610297Y-244090722D01*
X359625000Y-244090000D01*
X361375000Y-244090000D01*
X361389703Y-244090722D01*
G37*
G36*
X352089703Y-244090722D02*
G01*
X352104264Y-244092882D01*
X352118543Y-244096459D01*
X352132403Y-244101418D01*
X352145710Y-244107712D01*
X352158336Y-244115280D01*
X352170159Y-244124048D01*
X352181066Y-244133934D01*
X352190952Y-244144841D01*
X352199720Y-244156664D01*
X352207288Y-244169290D01*
X352213582Y-244182597D01*
X352218541Y-244196457D01*
X352222118Y-244210736D01*
X352224278Y-244225297D01*
X352225000Y-244240000D01*
X352225000Y-244540000D01*
X352224278Y-244554703D01*
X352222118Y-244569264D01*
X352218541Y-244583543D01*
X352213582Y-244597403D01*
X352207288Y-244610710D01*
X352199720Y-244623336D01*
X352190952Y-244635159D01*
X352181066Y-244646066D01*
X352170159Y-244655952D01*
X352158336Y-244664720D01*
X352145710Y-244672288D01*
X352132403Y-244678582D01*
X352118543Y-244683541D01*
X352104264Y-244687118D01*
X352089703Y-244689278D01*
X352075000Y-244690000D01*
X350325000Y-244690000D01*
X350310297Y-244689278D01*
X350295736Y-244687118D01*
X350281457Y-244683541D01*
X350267597Y-244678582D01*
X350254290Y-244672288D01*
X350241664Y-244664720D01*
X350229841Y-244655952D01*
X350218934Y-244646066D01*
X350209048Y-244635159D01*
X350200280Y-244623336D01*
X350192712Y-244610710D01*
X350186418Y-244597403D01*
X350181459Y-244583543D01*
X350177882Y-244569264D01*
X350175722Y-244554703D01*
X350175000Y-244540000D01*
X350175000Y-244240000D01*
X350175722Y-244225297D01*
X350177882Y-244210736D01*
X350181459Y-244196457D01*
X350186418Y-244182597D01*
X350192712Y-244169290D01*
X350200280Y-244156664D01*
X350209048Y-244144841D01*
X350218934Y-244133934D01*
X350229841Y-244124048D01*
X350241664Y-244115280D01*
X350254290Y-244107712D01*
X350267597Y-244101418D01*
X350281457Y-244096459D01*
X350295736Y-244092882D01*
X350310297Y-244090722D01*
X350325000Y-244090000D01*
X352075000Y-244090000D01*
X352089703Y-244090722D01*
G37*
G36*
X352089703Y-242820722D02*
G01*
X352104264Y-242822882D01*
X352118543Y-242826459D01*
X352132403Y-242831418D01*
X352145710Y-242837712D01*
X352158336Y-242845280D01*
X352170159Y-242854048D01*
X352181066Y-242863934D01*
X352190952Y-242874841D01*
X352199720Y-242886664D01*
X352207288Y-242899290D01*
X352213582Y-242912597D01*
X352218541Y-242926457D01*
X352222118Y-242940736D01*
X352224278Y-242955297D01*
X352225000Y-242970000D01*
X352225000Y-243270000D01*
X352224278Y-243284703D01*
X352222118Y-243299264D01*
X352218541Y-243313543D01*
X352213582Y-243327403D01*
X352207288Y-243340710D01*
X352199720Y-243353336D01*
X352190952Y-243365159D01*
X352181066Y-243376066D01*
X352170159Y-243385952D01*
X352158336Y-243394720D01*
X352145710Y-243402288D01*
X352132403Y-243408582D01*
X352118543Y-243413541D01*
X352104264Y-243417118D01*
X352089703Y-243419278D01*
X352075000Y-243420000D01*
X350325000Y-243420000D01*
X350310297Y-243419278D01*
X350295736Y-243417118D01*
X350281457Y-243413541D01*
X350267597Y-243408582D01*
X350254290Y-243402288D01*
X350241664Y-243394720D01*
X350229841Y-243385952D01*
X350218934Y-243376066D01*
X350209048Y-243365159D01*
X350200280Y-243353336D01*
X350192712Y-243340710D01*
X350186418Y-243327403D01*
X350181459Y-243313543D01*
X350177882Y-243299264D01*
X350175722Y-243284703D01*
X350175000Y-243270000D01*
X350175000Y-242970000D01*
X350175722Y-242955297D01*
X350177882Y-242940736D01*
X350181459Y-242926457D01*
X350186418Y-242912597D01*
X350192712Y-242899290D01*
X350200280Y-242886664D01*
X350209048Y-242874841D01*
X350218934Y-242863934D01*
X350229841Y-242854048D01*
X350241664Y-242845280D01*
X350254290Y-242837712D01*
X350267597Y-242831418D01*
X350281457Y-242826459D01*
X350295736Y-242822882D01*
X350310297Y-242820722D01*
X350325000Y-242820000D01*
X352075000Y-242820000D01*
X352089703Y-242820722D01*
G37*
G36*
X352089703Y-241550722D02*
G01*
X352104264Y-241552882D01*
X352118543Y-241556459D01*
X352132403Y-241561418D01*
X352145710Y-241567712D01*
X352158336Y-241575280D01*
X352170159Y-241584048D01*
X352181066Y-241593934D01*
X352190952Y-241604841D01*
X352199720Y-241616664D01*
X352207288Y-241629290D01*
X352213582Y-241642597D01*
X352218541Y-241656457D01*
X352222118Y-241670736D01*
X352224278Y-241685297D01*
X352225000Y-241700000D01*
X352225000Y-242000000D01*
X352224278Y-242014703D01*
X352222118Y-242029264D01*
X352218541Y-242043543D01*
X352213582Y-242057403D01*
X352207288Y-242070710D01*
X352199720Y-242083336D01*
X352190952Y-242095159D01*
X352181066Y-242106066D01*
X352170159Y-242115952D01*
X352158336Y-242124720D01*
X352145710Y-242132288D01*
X352132403Y-242138582D01*
X352118543Y-242143541D01*
X352104264Y-242147118D01*
X352089703Y-242149278D01*
X352075000Y-242150000D01*
X350325000Y-242150000D01*
X350310297Y-242149278D01*
X350295736Y-242147118D01*
X350281457Y-242143541D01*
X350267597Y-242138582D01*
X350254290Y-242132288D01*
X350241664Y-242124720D01*
X350229841Y-242115952D01*
X350218934Y-242106066D01*
X350209048Y-242095159D01*
X350200280Y-242083336D01*
X350192712Y-242070710D01*
X350186418Y-242057403D01*
X350181459Y-242043543D01*
X350177882Y-242029264D01*
X350175722Y-242014703D01*
X350175000Y-242000000D01*
X350175000Y-241700000D01*
X350175722Y-241685297D01*
X350177882Y-241670736D01*
X350181459Y-241656457D01*
X350186418Y-241642597D01*
X350192712Y-241629290D01*
X350200280Y-241616664D01*
X350209048Y-241604841D01*
X350218934Y-241593934D01*
X350229841Y-241584048D01*
X350241664Y-241575280D01*
X350254290Y-241567712D01*
X350267597Y-241561418D01*
X350281457Y-241556459D01*
X350295736Y-241552882D01*
X350310297Y-241550722D01*
X350325000Y-241550000D01*
X352075000Y-241550000D01*
X352089703Y-241550722D01*
G37*
G36*
X352089703Y-240280722D02*
G01*
X352104264Y-240282882D01*
X352118543Y-240286459D01*
X352132403Y-240291418D01*
X352145710Y-240297712D01*
X352158336Y-240305280D01*
X352170159Y-240314048D01*
X352181066Y-240323934D01*
X352190952Y-240334841D01*
X352199720Y-240346664D01*
X352207288Y-240359290D01*
X352213582Y-240372597D01*
X352218541Y-240386457D01*
X352222118Y-240400736D01*
X352224278Y-240415297D01*
X352225000Y-240430000D01*
X352225000Y-240730000D01*
X352224278Y-240744703D01*
X352222118Y-240759264D01*
X352218541Y-240773543D01*
X352213582Y-240787403D01*
X352207288Y-240800710D01*
X352199720Y-240813336D01*
X352190952Y-240825159D01*
X352181066Y-240836066D01*
X352170159Y-240845952D01*
X352158336Y-240854720D01*
X352145710Y-240862288D01*
X352132403Y-240868582D01*
X352118543Y-240873541D01*
X352104264Y-240877118D01*
X352089703Y-240879278D01*
X352075000Y-240880000D01*
X350325000Y-240880000D01*
X350310297Y-240879278D01*
X350295736Y-240877118D01*
X350281457Y-240873541D01*
X350267597Y-240868582D01*
X350254290Y-240862288D01*
X350241664Y-240854720D01*
X350229841Y-240845952D01*
X350218934Y-240836066D01*
X350209048Y-240825159D01*
X350200280Y-240813336D01*
X350192712Y-240800710D01*
X350186418Y-240787403D01*
X350181459Y-240773543D01*
X350177882Y-240759264D01*
X350175722Y-240744703D01*
X350175000Y-240730000D01*
X350175000Y-240430000D01*
X350175722Y-240415297D01*
X350177882Y-240400736D01*
X350181459Y-240386457D01*
X350186418Y-240372597D01*
X350192712Y-240359290D01*
X350200280Y-240346664D01*
X350209048Y-240334841D01*
X350218934Y-240323934D01*
X350229841Y-240314048D01*
X350241664Y-240305280D01*
X350254290Y-240297712D01*
X350267597Y-240291418D01*
X350281457Y-240286459D01*
X350295736Y-240282882D01*
X350310297Y-240280722D01*
X350325000Y-240280000D01*
X352075000Y-240280000D01*
X352089703Y-240280722D01*
G37*
G36*
X352089703Y-239010722D02*
G01*
X352104264Y-239012882D01*
X352118543Y-239016459D01*
X352132403Y-239021418D01*
X352145710Y-239027712D01*
X352158336Y-239035280D01*
X352170159Y-239044048D01*
X352181066Y-239053934D01*
X352190952Y-239064841D01*
X352199720Y-239076664D01*
X352207288Y-239089290D01*
X352213582Y-239102597D01*
X352218541Y-239116457D01*
X352222118Y-239130736D01*
X352224278Y-239145297D01*
X352225000Y-239160000D01*
X352225000Y-239460000D01*
X352224278Y-239474703D01*
X352222118Y-239489264D01*
X352218541Y-239503543D01*
X352213582Y-239517403D01*
X352207288Y-239530710D01*
X352199720Y-239543336D01*
X352190952Y-239555159D01*
X352181066Y-239566066D01*
X352170159Y-239575952D01*
X352158336Y-239584720D01*
X352145710Y-239592288D01*
X352132403Y-239598582D01*
X352118543Y-239603541D01*
X352104264Y-239607118D01*
X352089703Y-239609278D01*
X352075000Y-239610000D01*
X350325000Y-239610000D01*
X350310297Y-239609278D01*
X350295736Y-239607118D01*
X350281457Y-239603541D01*
X350267597Y-239598582D01*
X350254290Y-239592288D01*
X350241664Y-239584720D01*
X350229841Y-239575952D01*
X350218934Y-239566066D01*
X350209048Y-239555159D01*
X350200280Y-239543336D01*
X350192712Y-239530710D01*
X350186418Y-239517403D01*
X350181459Y-239503543D01*
X350177882Y-239489264D01*
X350175722Y-239474703D01*
X350175000Y-239460000D01*
X350175000Y-239160000D01*
X350175722Y-239145297D01*
X350177882Y-239130736D01*
X350181459Y-239116457D01*
X350186418Y-239102597D01*
X350192712Y-239089290D01*
X350200280Y-239076664D01*
X350209048Y-239064841D01*
X350218934Y-239053934D01*
X350229841Y-239044048D01*
X350241664Y-239035280D01*
X350254290Y-239027712D01*
X350267597Y-239021418D01*
X350281457Y-239016459D01*
X350295736Y-239012882D01*
X350310297Y-239010722D01*
X350325000Y-239010000D01*
X352075000Y-239010000D01*
X352089703Y-239010722D01*
G37*
G36*
X352089703Y-237740722D02*
G01*
X352104264Y-237742882D01*
X352118543Y-237746459D01*
X352132403Y-237751418D01*
X352145710Y-237757712D01*
X352158336Y-237765280D01*
X352170159Y-237774048D01*
X352181066Y-237783934D01*
X352190952Y-237794841D01*
X352199720Y-237806664D01*
X352207288Y-237819290D01*
X352213582Y-237832597D01*
X352218541Y-237846457D01*
X352222118Y-237860736D01*
X352224278Y-237875297D01*
X352225000Y-237890000D01*
X352225000Y-238190000D01*
X352224278Y-238204703D01*
X352222118Y-238219264D01*
X352218541Y-238233543D01*
X352213582Y-238247403D01*
X352207288Y-238260710D01*
X352199720Y-238273336D01*
X352190952Y-238285159D01*
X352181066Y-238296066D01*
X352170159Y-238305952D01*
X352158336Y-238314720D01*
X352145710Y-238322288D01*
X352132403Y-238328582D01*
X352118543Y-238333541D01*
X352104264Y-238337118D01*
X352089703Y-238339278D01*
X352075000Y-238340000D01*
X350325000Y-238340000D01*
X350310297Y-238339278D01*
X350295736Y-238337118D01*
X350281457Y-238333541D01*
X350267597Y-238328582D01*
X350254290Y-238322288D01*
X350241664Y-238314720D01*
X350229841Y-238305952D01*
X350218934Y-238296066D01*
X350209048Y-238285159D01*
X350200280Y-238273336D01*
X350192712Y-238260710D01*
X350186418Y-238247403D01*
X350181459Y-238233543D01*
X350177882Y-238219264D01*
X350175722Y-238204703D01*
X350175000Y-238190000D01*
X350175000Y-237890000D01*
X350175722Y-237875297D01*
X350177882Y-237860736D01*
X350181459Y-237846457D01*
X350186418Y-237832597D01*
X350192712Y-237819290D01*
X350200280Y-237806664D01*
X350209048Y-237794841D01*
X350218934Y-237783934D01*
X350229841Y-237774048D01*
X350241664Y-237765280D01*
X350254290Y-237757712D01*
X350267597Y-237751418D01*
X350281457Y-237746459D01*
X350295736Y-237742882D01*
X350310297Y-237740722D01*
X350325000Y-237740000D01*
X352075000Y-237740000D01*
X352089703Y-237740722D01*
G37*
G36*
X352089703Y-236470722D02*
G01*
X352104264Y-236472882D01*
X352118543Y-236476459D01*
X352132403Y-236481418D01*
X352145710Y-236487712D01*
X352158336Y-236495280D01*
X352170159Y-236504048D01*
X352181066Y-236513934D01*
X352190952Y-236524841D01*
X352199720Y-236536664D01*
X352207288Y-236549290D01*
X352213582Y-236562597D01*
X352218541Y-236576457D01*
X352222118Y-236590736D01*
X352224278Y-236605297D01*
X352225000Y-236620000D01*
X352225000Y-236920000D01*
X352224278Y-236934703D01*
X352222118Y-236949264D01*
X352218541Y-236963543D01*
X352213582Y-236977403D01*
X352207288Y-236990710D01*
X352199720Y-237003336D01*
X352190952Y-237015159D01*
X352181066Y-237026066D01*
X352170159Y-237035952D01*
X352158336Y-237044720D01*
X352145710Y-237052288D01*
X352132403Y-237058582D01*
X352118543Y-237063541D01*
X352104264Y-237067118D01*
X352089703Y-237069278D01*
X352075000Y-237070000D01*
X350325000Y-237070000D01*
X350310297Y-237069278D01*
X350295736Y-237067118D01*
X350281457Y-237063541D01*
X350267597Y-237058582D01*
X350254290Y-237052288D01*
X350241664Y-237044720D01*
X350229841Y-237035952D01*
X350218934Y-237026066D01*
X350209048Y-237015159D01*
X350200280Y-237003336D01*
X350192712Y-236990710D01*
X350186418Y-236977403D01*
X350181459Y-236963543D01*
X350177882Y-236949264D01*
X350175722Y-236934703D01*
X350175000Y-236920000D01*
X350175000Y-236620000D01*
X350175722Y-236605297D01*
X350177882Y-236590736D01*
X350181459Y-236576457D01*
X350186418Y-236562597D01*
X350192712Y-236549290D01*
X350200280Y-236536664D01*
X350209048Y-236524841D01*
X350218934Y-236513934D01*
X350229841Y-236504048D01*
X350241664Y-236495280D01*
X350254290Y-236487712D01*
X350267597Y-236481418D01*
X350281457Y-236476459D01*
X350295736Y-236472882D01*
X350310297Y-236470722D01*
X350325000Y-236470000D01*
X352075000Y-236470000D01*
X352089703Y-236470722D01*
G37*
G36*
X352089703Y-235200722D02*
G01*
X352104264Y-235202882D01*
X352118543Y-235206459D01*
X352132403Y-235211418D01*
X352145710Y-235217712D01*
X352158336Y-235225280D01*
X352170159Y-235234048D01*
X352181066Y-235243934D01*
X352190952Y-235254841D01*
X352199720Y-235266664D01*
X352207288Y-235279290D01*
X352213582Y-235292597D01*
X352218541Y-235306457D01*
X352222118Y-235320736D01*
X352224278Y-235335297D01*
X352225000Y-235350000D01*
X352225000Y-235650000D01*
X352224278Y-235664703D01*
X352222118Y-235679264D01*
X352218541Y-235693543D01*
X352213582Y-235707403D01*
X352207288Y-235720710D01*
X352199720Y-235733336D01*
X352190952Y-235745159D01*
X352181066Y-235756066D01*
X352170159Y-235765952D01*
X352158336Y-235774720D01*
X352145710Y-235782288D01*
X352132403Y-235788582D01*
X352118543Y-235793541D01*
X352104264Y-235797118D01*
X352089703Y-235799278D01*
X352075000Y-235800000D01*
X350325000Y-235800000D01*
X350310297Y-235799278D01*
X350295736Y-235797118D01*
X350281457Y-235793541D01*
X350267597Y-235788582D01*
X350254290Y-235782288D01*
X350241664Y-235774720D01*
X350229841Y-235765952D01*
X350218934Y-235756066D01*
X350209048Y-235745159D01*
X350200280Y-235733336D01*
X350192712Y-235720710D01*
X350186418Y-235707403D01*
X350181459Y-235693543D01*
X350177882Y-235679264D01*
X350175722Y-235664703D01*
X350175000Y-235650000D01*
X350175000Y-235350000D01*
X350175722Y-235335297D01*
X350177882Y-235320736D01*
X350181459Y-235306457D01*
X350186418Y-235292597D01*
X350192712Y-235279290D01*
X350200280Y-235266664D01*
X350209048Y-235254841D01*
X350218934Y-235243934D01*
X350229841Y-235234048D01*
X350241664Y-235225280D01*
X350254290Y-235217712D01*
X350267597Y-235211418D01*
X350281457Y-235206459D01*
X350295736Y-235202882D01*
X350310297Y-235200722D01*
X350325000Y-235200000D01*
X352075000Y-235200000D01*
X352089703Y-235200722D01*
G37*
G36*
X352089703Y-233930722D02*
G01*
X352104264Y-233932882D01*
X352118543Y-233936459D01*
X352132403Y-233941418D01*
X352145710Y-233947712D01*
X352158336Y-233955280D01*
X352170159Y-233964048D01*
X352181066Y-233973934D01*
X352190952Y-233984841D01*
X352199720Y-233996664D01*
X352207288Y-234009290D01*
X352213582Y-234022597D01*
X352218541Y-234036457D01*
X352222118Y-234050736D01*
X352224278Y-234065297D01*
X352225000Y-234080000D01*
X352225000Y-234380000D01*
X352224278Y-234394703D01*
X352222118Y-234409264D01*
X352218541Y-234423543D01*
X352213582Y-234437403D01*
X352207288Y-234450710D01*
X352199720Y-234463336D01*
X352190952Y-234475159D01*
X352181066Y-234486066D01*
X352170159Y-234495952D01*
X352158336Y-234504720D01*
X352145710Y-234512288D01*
X352132403Y-234518582D01*
X352118543Y-234523541D01*
X352104264Y-234527118D01*
X352089703Y-234529278D01*
X352075000Y-234530000D01*
X350325000Y-234530000D01*
X350310297Y-234529278D01*
X350295736Y-234527118D01*
X350281457Y-234523541D01*
X350267597Y-234518582D01*
X350254290Y-234512288D01*
X350241664Y-234504720D01*
X350229841Y-234495952D01*
X350218934Y-234486066D01*
X350209048Y-234475159D01*
X350200280Y-234463336D01*
X350192712Y-234450710D01*
X350186418Y-234437403D01*
X350181459Y-234423543D01*
X350177882Y-234409264D01*
X350175722Y-234394703D01*
X350175000Y-234380000D01*
X350175000Y-234080000D01*
X350175722Y-234065297D01*
X350177882Y-234050736D01*
X350181459Y-234036457D01*
X350186418Y-234022597D01*
X350192712Y-234009290D01*
X350200280Y-233996664D01*
X350209048Y-233984841D01*
X350218934Y-233973934D01*
X350229841Y-233964048D01*
X350241664Y-233955280D01*
X350254290Y-233947712D01*
X350267597Y-233941418D01*
X350281457Y-233936459D01*
X350295736Y-233932882D01*
X350310297Y-233930722D01*
X350325000Y-233930000D01*
X352075000Y-233930000D01*
X352089703Y-233930722D01*
G37*
G36*
X352089703Y-232660722D02*
G01*
X352104264Y-232662882D01*
X352118543Y-232666459D01*
X352132403Y-232671418D01*
X352145710Y-232677712D01*
X352158336Y-232685280D01*
X352170159Y-232694048D01*
X352181066Y-232703934D01*
X352190952Y-232714841D01*
X352199720Y-232726664D01*
X352207288Y-232739290D01*
X352213582Y-232752597D01*
X352218541Y-232766457D01*
X352222118Y-232780736D01*
X352224278Y-232795297D01*
X352225000Y-232810000D01*
X352225000Y-233110000D01*
X352224278Y-233124703D01*
X352222118Y-233139264D01*
X352218541Y-233153543D01*
X352213582Y-233167403D01*
X352207288Y-233180710D01*
X352199720Y-233193336D01*
X352190952Y-233205159D01*
X352181066Y-233216066D01*
X352170159Y-233225952D01*
X352158336Y-233234720D01*
X352145710Y-233242288D01*
X352132403Y-233248582D01*
X352118543Y-233253541D01*
X352104264Y-233257118D01*
X352089703Y-233259278D01*
X352075000Y-233260000D01*
X350325000Y-233260000D01*
X350310297Y-233259278D01*
X350295736Y-233257118D01*
X350281457Y-233253541D01*
X350267597Y-233248582D01*
X350254290Y-233242288D01*
X350241664Y-233234720D01*
X350229841Y-233225952D01*
X350218934Y-233216066D01*
X350209048Y-233205159D01*
X350200280Y-233193336D01*
X350192712Y-233180710D01*
X350186418Y-233167403D01*
X350181459Y-233153543D01*
X350177882Y-233139264D01*
X350175722Y-233124703D01*
X350175000Y-233110000D01*
X350175000Y-232810000D01*
X350175722Y-232795297D01*
X350177882Y-232780736D01*
X350181459Y-232766457D01*
X350186418Y-232752597D01*
X350192712Y-232739290D01*
X350200280Y-232726664D01*
X350209048Y-232714841D01*
X350218934Y-232703934D01*
X350229841Y-232694048D01*
X350241664Y-232685280D01*
X350254290Y-232677712D01*
X350267597Y-232671418D01*
X350281457Y-232666459D01*
X350295736Y-232662882D01*
X350310297Y-232660722D01*
X350325000Y-232660000D01*
X352075000Y-232660000D01*
X352089703Y-232660722D01*
G37*
G36*
X344039703Y-227485722D02*
G01*
X344054264Y-227487882D01*
X344068543Y-227491459D01*
X344082403Y-227496418D01*
X344095710Y-227502712D01*
X344108336Y-227510280D01*
X344120159Y-227519048D01*
X344131066Y-227528934D01*
X344140952Y-227539841D01*
X344149720Y-227551664D01*
X344157288Y-227564290D01*
X344163582Y-227577597D01*
X344168541Y-227591457D01*
X344172118Y-227605736D01*
X344174278Y-227620297D01*
X344175000Y-227635000D01*
X344175000Y-227935000D01*
X344174278Y-227949703D01*
X344172118Y-227964264D01*
X344168541Y-227978543D01*
X344163582Y-227992403D01*
X344157288Y-228005710D01*
X344149720Y-228018336D01*
X344140952Y-228030159D01*
X344131066Y-228041066D01*
X344120159Y-228050952D01*
X344108336Y-228059720D01*
X344095710Y-228067288D01*
X344082403Y-228073582D01*
X344068543Y-228078541D01*
X344054264Y-228082118D01*
X344039703Y-228084278D01*
X344025000Y-228085000D01*
X342275000Y-228085000D01*
X342260297Y-228084278D01*
X342245736Y-228082118D01*
X342231457Y-228078541D01*
X342217597Y-228073582D01*
X342204290Y-228067288D01*
X342191664Y-228059720D01*
X342179841Y-228050952D01*
X342168934Y-228041066D01*
X342159048Y-228030159D01*
X342150280Y-228018336D01*
X342142712Y-228005710D01*
X342136418Y-227992403D01*
X342131459Y-227978543D01*
X342127882Y-227964264D01*
X342125722Y-227949703D01*
X342125000Y-227935000D01*
X342125000Y-227635000D01*
X342125722Y-227620297D01*
X342127882Y-227605736D01*
X342131459Y-227591457D01*
X342136418Y-227577597D01*
X342142712Y-227564290D01*
X342150280Y-227551664D01*
X342159048Y-227539841D01*
X342168934Y-227528934D01*
X342179841Y-227519048D01*
X342191664Y-227510280D01*
X342204290Y-227502712D01*
X342217597Y-227496418D01*
X342231457Y-227491459D01*
X342245736Y-227487882D01*
X342260297Y-227485722D01*
X342275000Y-227485000D01*
X344025000Y-227485000D01*
X344039703Y-227485722D01*
G37*
G36*
X344039703Y-228755722D02*
G01*
X344054264Y-228757882D01*
X344068543Y-228761459D01*
X344082403Y-228766418D01*
X344095710Y-228772712D01*
X344108336Y-228780280D01*
X344120159Y-228789048D01*
X344131066Y-228798934D01*
X344140952Y-228809841D01*
X344149720Y-228821664D01*
X344157288Y-228834290D01*
X344163582Y-228847597D01*
X344168541Y-228861457D01*
X344172118Y-228875736D01*
X344174278Y-228890297D01*
X344175000Y-228905000D01*
X344175000Y-229205000D01*
X344174278Y-229219703D01*
X344172118Y-229234264D01*
X344168541Y-229248543D01*
X344163582Y-229262403D01*
X344157288Y-229275710D01*
X344149720Y-229288336D01*
X344140952Y-229300159D01*
X344131066Y-229311066D01*
X344120159Y-229320952D01*
X344108336Y-229329720D01*
X344095710Y-229337288D01*
X344082403Y-229343582D01*
X344068543Y-229348541D01*
X344054264Y-229352118D01*
X344039703Y-229354278D01*
X344025000Y-229355000D01*
X342275000Y-229355000D01*
X342260297Y-229354278D01*
X342245736Y-229352118D01*
X342231457Y-229348541D01*
X342217597Y-229343582D01*
X342204290Y-229337288D01*
X342191664Y-229329720D01*
X342179841Y-229320952D01*
X342168934Y-229311066D01*
X342159048Y-229300159D01*
X342150280Y-229288336D01*
X342142712Y-229275710D01*
X342136418Y-229262403D01*
X342131459Y-229248543D01*
X342127882Y-229234264D01*
X342125722Y-229219703D01*
X342125000Y-229205000D01*
X342125000Y-228905000D01*
X342125722Y-228890297D01*
X342127882Y-228875736D01*
X342131459Y-228861457D01*
X342136418Y-228847597D01*
X342142712Y-228834290D01*
X342150280Y-228821664D01*
X342159048Y-228809841D01*
X342168934Y-228798934D01*
X342179841Y-228789048D01*
X342191664Y-228780280D01*
X342204290Y-228772712D01*
X342217597Y-228766418D01*
X342231457Y-228761459D01*
X342245736Y-228757882D01*
X342260297Y-228755722D01*
X342275000Y-228755000D01*
X344025000Y-228755000D01*
X344039703Y-228755722D01*
G37*
G36*
X344039703Y-230025722D02*
G01*
X344054264Y-230027882D01*
X344068543Y-230031459D01*
X344082403Y-230036418D01*
X344095710Y-230042712D01*
X344108336Y-230050280D01*
X344120159Y-230059048D01*
X344131066Y-230068934D01*
X344140952Y-230079841D01*
X344149720Y-230091664D01*
X344157288Y-230104290D01*
X344163582Y-230117597D01*
X344168541Y-230131457D01*
X344172118Y-230145736D01*
X344174278Y-230160297D01*
X344175000Y-230175000D01*
X344175000Y-230475000D01*
X344174278Y-230489703D01*
X344172118Y-230504264D01*
X344168541Y-230518543D01*
X344163582Y-230532403D01*
X344157288Y-230545710D01*
X344149720Y-230558336D01*
X344140952Y-230570159D01*
X344131066Y-230581066D01*
X344120159Y-230590952D01*
X344108336Y-230599720D01*
X344095710Y-230607288D01*
X344082403Y-230613582D01*
X344068543Y-230618541D01*
X344054264Y-230622118D01*
X344039703Y-230624278D01*
X344025000Y-230625000D01*
X342275000Y-230625000D01*
X342260297Y-230624278D01*
X342245736Y-230622118D01*
X342231457Y-230618541D01*
X342217597Y-230613582D01*
X342204290Y-230607288D01*
X342191664Y-230599720D01*
X342179841Y-230590952D01*
X342168934Y-230581066D01*
X342159048Y-230570159D01*
X342150280Y-230558336D01*
X342142712Y-230545710D01*
X342136418Y-230532403D01*
X342131459Y-230518543D01*
X342127882Y-230504264D01*
X342125722Y-230489703D01*
X342125000Y-230475000D01*
X342125000Y-230175000D01*
X342125722Y-230160297D01*
X342127882Y-230145736D01*
X342131459Y-230131457D01*
X342136418Y-230117597D01*
X342142712Y-230104290D01*
X342150280Y-230091664D01*
X342159048Y-230079841D01*
X342168934Y-230068934D01*
X342179841Y-230059048D01*
X342191664Y-230050280D01*
X342204290Y-230042712D01*
X342217597Y-230036418D01*
X342231457Y-230031459D01*
X342245736Y-230027882D01*
X342260297Y-230025722D01*
X342275000Y-230025000D01*
X344025000Y-230025000D01*
X344039703Y-230025722D01*
G37*
G36*
X344039703Y-231295722D02*
G01*
X344054264Y-231297882D01*
X344068543Y-231301459D01*
X344082403Y-231306418D01*
X344095710Y-231312712D01*
X344108336Y-231320280D01*
X344120159Y-231329048D01*
X344131066Y-231338934D01*
X344140952Y-231349841D01*
X344149720Y-231361664D01*
X344157288Y-231374290D01*
X344163582Y-231387597D01*
X344168541Y-231401457D01*
X344172118Y-231415736D01*
X344174278Y-231430297D01*
X344175000Y-231445000D01*
X344175000Y-231745000D01*
X344174278Y-231759703D01*
X344172118Y-231774264D01*
X344168541Y-231788543D01*
X344163582Y-231802403D01*
X344157288Y-231815710D01*
X344149720Y-231828336D01*
X344140952Y-231840159D01*
X344131066Y-231851066D01*
X344120159Y-231860952D01*
X344108336Y-231869720D01*
X344095710Y-231877288D01*
X344082403Y-231883582D01*
X344068543Y-231888541D01*
X344054264Y-231892118D01*
X344039703Y-231894278D01*
X344025000Y-231895000D01*
X342275000Y-231895000D01*
X342260297Y-231894278D01*
X342245736Y-231892118D01*
X342231457Y-231888541D01*
X342217597Y-231883582D01*
X342204290Y-231877288D01*
X342191664Y-231869720D01*
X342179841Y-231860952D01*
X342168934Y-231851066D01*
X342159048Y-231840159D01*
X342150280Y-231828336D01*
X342142712Y-231815710D01*
X342136418Y-231802403D01*
X342131459Y-231788543D01*
X342127882Y-231774264D01*
X342125722Y-231759703D01*
X342125000Y-231745000D01*
X342125000Y-231445000D01*
X342125722Y-231430297D01*
X342127882Y-231415736D01*
X342131459Y-231401457D01*
X342136418Y-231387597D01*
X342142712Y-231374290D01*
X342150280Y-231361664D01*
X342159048Y-231349841D01*
X342168934Y-231338934D01*
X342179841Y-231329048D01*
X342191664Y-231320280D01*
X342204290Y-231312712D01*
X342217597Y-231306418D01*
X342231457Y-231301459D01*
X342245736Y-231297882D01*
X342260297Y-231295722D01*
X342275000Y-231295000D01*
X344025000Y-231295000D01*
X344039703Y-231295722D01*
G37*
G36*
X344039703Y-232565722D02*
G01*
X344054264Y-232567882D01*
X344068543Y-232571459D01*
X344082403Y-232576418D01*
X344095710Y-232582712D01*
X344108336Y-232590280D01*
X344120159Y-232599048D01*
X344131066Y-232608934D01*
X344140952Y-232619841D01*
X344149720Y-232631664D01*
X344157288Y-232644290D01*
X344163582Y-232657597D01*
X344168541Y-232671457D01*
X344172118Y-232685736D01*
X344174278Y-232700297D01*
X344175000Y-232715000D01*
X344175000Y-233015000D01*
X344174278Y-233029703D01*
X344172118Y-233044264D01*
X344168541Y-233058543D01*
X344163582Y-233072403D01*
X344157288Y-233085710D01*
X344149720Y-233098336D01*
X344140952Y-233110159D01*
X344131066Y-233121066D01*
X344120159Y-233130952D01*
X344108336Y-233139720D01*
X344095710Y-233147288D01*
X344082403Y-233153582D01*
X344068543Y-233158541D01*
X344054264Y-233162118D01*
X344039703Y-233164278D01*
X344025000Y-233165000D01*
X342275000Y-233165000D01*
X342260297Y-233164278D01*
X342245736Y-233162118D01*
X342231457Y-233158541D01*
X342217597Y-233153582D01*
X342204290Y-233147288D01*
X342191664Y-233139720D01*
X342179841Y-233130952D01*
X342168934Y-233121066D01*
X342159048Y-233110159D01*
X342150280Y-233098336D01*
X342142712Y-233085710D01*
X342136418Y-233072403D01*
X342131459Y-233058543D01*
X342127882Y-233044264D01*
X342125722Y-233029703D01*
X342125000Y-233015000D01*
X342125000Y-232715000D01*
X342125722Y-232700297D01*
X342127882Y-232685736D01*
X342131459Y-232671457D01*
X342136418Y-232657597D01*
X342142712Y-232644290D01*
X342150280Y-232631664D01*
X342159048Y-232619841D01*
X342168934Y-232608934D01*
X342179841Y-232599048D01*
X342191664Y-232590280D01*
X342204290Y-232582712D01*
X342217597Y-232576418D01*
X342231457Y-232571459D01*
X342245736Y-232567882D01*
X342260297Y-232565722D01*
X342275000Y-232565000D01*
X344025000Y-232565000D01*
X344039703Y-232565722D01*
G37*
G36*
X344039703Y-233835722D02*
G01*
X344054264Y-233837882D01*
X344068543Y-233841459D01*
X344082403Y-233846418D01*
X344095710Y-233852712D01*
X344108336Y-233860280D01*
X344120159Y-233869048D01*
X344131066Y-233878934D01*
X344140952Y-233889841D01*
X344149720Y-233901664D01*
X344157288Y-233914290D01*
X344163582Y-233927597D01*
X344168541Y-233941457D01*
X344172118Y-233955736D01*
X344174278Y-233970297D01*
X344175000Y-233985000D01*
X344175000Y-234285000D01*
X344174278Y-234299703D01*
X344172118Y-234314264D01*
X344168541Y-234328543D01*
X344163582Y-234342403D01*
X344157288Y-234355710D01*
X344149720Y-234368336D01*
X344140952Y-234380159D01*
X344131066Y-234391066D01*
X344120159Y-234400952D01*
X344108336Y-234409720D01*
X344095710Y-234417288D01*
X344082403Y-234423582D01*
X344068543Y-234428541D01*
X344054264Y-234432118D01*
X344039703Y-234434278D01*
X344025000Y-234435000D01*
X342275000Y-234435000D01*
X342260297Y-234434278D01*
X342245736Y-234432118D01*
X342231457Y-234428541D01*
X342217597Y-234423582D01*
X342204290Y-234417288D01*
X342191664Y-234409720D01*
X342179841Y-234400952D01*
X342168934Y-234391066D01*
X342159048Y-234380159D01*
X342150280Y-234368336D01*
X342142712Y-234355710D01*
X342136418Y-234342403D01*
X342131459Y-234328543D01*
X342127882Y-234314264D01*
X342125722Y-234299703D01*
X342125000Y-234285000D01*
X342125000Y-233985000D01*
X342125722Y-233970297D01*
X342127882Y-233955736D01*
X342131459Y-233941457D01*
X342136418Y-233927597D01*
X342142712Y-233914290D01*
X342150280Y-233901664D01*
X342159048Y-233889841D01*
X342168934Y-233878934D01*
X342179841Y-233869048D01*
X342191664Y-233860280D01*
X342204290Y-233852712D01*
X342217597Y-233846418D01*
X342231457Y-233841459D01*
X342245736Y-233837882D01*
X342260297Y-233835722D01*
X342275000Y-233835000D01*
X344025000Y-233835000D01*
X344039703Y-233835722D01*
G37*
G36*
X344039703Y-235105722D02*
G01*
X344054264Y-235107882D01*
X344068543Y-235111459D01*
X344082403Y-235116418D01*
X344095710Y-235122712D01*
X344108336Y-235130280D01*
X344120159Y-235139048D01*
X344131066Y-235148934D01*
X344140952Y-235159841D01*
X344149720Y-235171664D01*
X344157288Y-235184290D01*
X344163582Y-235197597D01*
X344168541Y-235211457D01*
X344172118Y-235225736D01*
X344174278Y-235240297D01*
X344175000Y-235255000D01*
X344175000Y-235555000D01*
X344174278Y-235569703D01*
X344172118Y-235584264D01*
X344168541Y-235598543D01*
X344163582Y-235612403D01*
X344157288Y-235625710D01*
X344149720Y-235638336D01*
X344140952Y-235650159D01*
X344131066Y-235661066D01*
X344120159Y-235670952D01*
X344108336Y-235679720D01*
X344095710Y-235687288D01*
X344082403Y-235693582D01*
X344068543Y-235698541D01*
X344054264Y-235702118D01*
X344039703Y-235704278D01*
X344025000Y-235705000D01*
X342275000Y-235705000D01*
X342260297Y-235704278D01*
X342245736Y-235702118D01*
X342231457Y-235698541D01*
X342217597Y-235693582D01*
X342204290Y-235687288D01*
X342191664Y-235679720D01*
X342179841Y-235670952D01*
X342168934Y-235661066D01*
X342159048Y-235650159D01*
X342150280Y-235638336D01*
X342142712Y-235625710D01*
X342136418Y-235612403D01*
X342131459Y-235598543D01*
X342127882Y-235584264D01*
X342125722Y-235569703D01*
X342125000Y-235555000D01*
X342125000Y-235255000D01*
X342125722Y-235240297D01*
X342127882Y-235225736D01*
X342131459Y-235211457D01*
X342136418Y-235197597D01*
X342142712Y-235184290D01*
X342150280Y-235171664D01*
X342159048Y-235159841D01*
X342168934Y-235148934D01*
X342179841Y-235139048D01*
X342191664Y-235130280D01*
X342204290Y-235122712D01*
X342217597Y-235116418D01*
X342231457Y-235111459D01*
X342245736Y-235107882D01*
X342260297Y-235105722D01*
X342275000Y-235105000D01*
X344025000Y-235105000D01*
X344039703Y-235105722D01*
G37*
G36*
X344039703Y-236375722D02*
G01*
X344054264Y-236377882D01*
X344068543Y-236381459D01*
X344082403Y-236386418D01*
X344095710Y-236392712D01*
X344108336Y-236400280D01*
X344120159Y-236409048D01*
X344131066Y-236418934D01*
X344140952Y-236429841D01*
X344149720Y-236441664D01*
X344157288Y-236454290D01*
X344163582Y-236467597D01*
X344168541Y-236481457D01*
X344172118Y-236495736D01*
X344174278Y-236510297D01*
X344175000Y-236525000D01*
X344175000Y-236825000D01*
X344174278Y-236839703D01*
X344172118Y-236854264D01*
X344168541Y-236868543D01*
X344163582Y-236882403D01*
X344157288Y-236895710D01*
X344149720Y-236908336D01*
X344140952Y-236920159D01*
X344131066Y-236931066D01*
X344120159Y-236940952D01*
X344108336Y-236949720D01*
X344095710Y-236957288D01*
X344082403Y-236963582D01*
X344068543Y-236968541D01*
X344054264Y-236972118D01*
X344039703Y-236974278D01*
X344025000Y-236975000D01*
X342275000Y-236975000D01*
X342260297Y-236974278D01*
X342245736Y-236972118D01*
X342231457Y-236968541D01*
X342217597Y-236963582D01*
X342204290Y-236957288D01*
X342191664Y-236949720D01*
X342179841Y-236940952D01*
X342168934Y-236931066D01*
X342159048Y-236920159D01*
X342150280Y-236908336D01*
X342142712Y-236895710D01*
X342136418Y-236882403D01*
X342131459Y-236868543D01*
X342127882Y-236854264D01*
X342125722Y-236839703D01*
X342125000Y-236825000D01*
X342125000Y-236525000D01*
X342125722Y-236510297D01*
X342127882Y-236495736D01*
X342131459Y-236481457D01*
X342136418Y-236467597D01*
X342142712Y-236454290D01*
X342150280Y-236441664D01*
X342159048Y-236429841D01*
X342168934Y-236418934D01*
X342179841Y-236409048D01*
X342191664Y-236400280D01*
X342204290Y-236392712D01*
X342217597Y-236386418D01*
X342231457Y-236381459D01*
X342245736Y-236377882D01*
X342260297Y-236375722D01*
X342275000Y-236375000D01*
X344025000Y-236375000D01*
X344039703Y-236375722D01*
G37*
G36*
X344039703Y-237645722D02*
G01*
X344054264Y-237647882D01*
X344068543Y-237651459D01*
X344082403Y-237656418D01*
X344095710Y-237662712D01*
X344108336Y-237670280D01*
X344120159Y-237679048D01*
X344131066Y-237688934D01*
X344140952Y-237699841D01*
X344149720Y-237711664D01*
X344157288Y-237724290D01*
X344163582Y-237737597D01*
X344168541Y-237751457D01*
X344172118Y-237765736D01*
X344174278Y-237780297D01*
X344175000Y-237795000D01*
X344175000Y-238095000D01*
X344174278Y-238109703D01*
X344172118Y-238124264D01*
X344168541Y-238138543D01*
X344163582Y-238152403D01*
X344157288Y-238165710D01*
X344149720Y-238178336D01*
X344140952Y-238190159D01*
X344131066Y-238201066D01*
X344120159Y-238210952D01*
X344108336Y-238219720D01*
X344095710Y-238227288D01*
X344082403Y-238233582D01*
X344068543Y-238238541D01*
X344054264Y-238242118D01*
X344039703Y-238244278D01*
X344025000Y-238245000D01*
X342275000Y-238245000D01*
X342260297Y-238244278D01*
X342245736Y-238242118D01*
X342231457Y-238238541D01*
X342217597Y-238233582D01*
X342204290Y-238227288D01*
X342191664Y-238219720D01*
X342179841Y-238210952D01*
X342168934Y-238201066D01*
X342159048Y-238190159D01*
X342150280Y-238178336D01*
X342142712Y-238165710D01*
X342136418Y-238152403D01*
X342131459Y-238138543D01*
X342127882Y-238124264D01*
X342125722Y-238109703D01*
X342125000Y-238095000D01*
X342125000Y-237795000D01*
X342125722Y-237780297D01*
X342127882Y-237765736D01*
X342131459Y-237751457D01*
X342136418Y-237737597D01*
X342142712Y-237724290D01*
X342150280Y-237711664D01*
X342159048Y-237699841D01*
X342168934Y-237688934D01*
X342179841Y-237679048D01*
X342191664Y-237670280D01*
X342204290Y-237662712D01*
X342217597Y-237656418D01*
X342231457Y-237651459D01*
X342245736Y-237647882D01*
X342260297Y-237645722D01*
X342275000Y-237645000D01*
X344025000Y-237645000D01*
X344039703Y-237645722D01*
G37*
G36*
X344039703Y-238915722D02*
G01*
X344054264Y-238917882D01*
X344068543Y-238921459D01*
X344082403Y-238926418D01*
X344095710Y-238932712D01*
X344108336Y-238940280D01*
X344120159Y-238949048D01*
X344131066Y-238958934D01*
X344140952Y-238969841D01*
X344149720Y-238981664D01*
X344157288Y-238994290D01*
X344163582Y-239007597D01*
X344168541Y-239021457D01*
X344172118Y-239035736D01*
X344174278Y-239050297D01*
X344175000Y-239065000D01*
X344175000Y-239365000D01*
X344174278Y-239379703D01*
X344172118Y-239394264D01*
X344168541Y-239408543D01*
X344163582Y-239422403D01*
X344157288Y-239435710D01*
X344149720Y-239448336D01*
X344140952Y-239460159D01*
X344131066Y-239471066D01*
X344120159Y-239480952D01*
X344108336Y-239489720D01*
X344095710Y-239497288D01*
X344082403Y-239503582D01*
X344068543Y-239508541D01*
X344054264Y-239512118D01*
X344039703Y-239514278D01*
X344025000Y-239515000D01*
X342275000Y-239515000D01*
X342260297Y-239514278D01*
X342245736Y-239512118D01*
X342231457Y-239508541D01*
X342217597Y-239503582D01*
X342204290Y-239497288D01*
X342191664Y-239489720D01*
X342179841Y-239480952D01*
X342168934Y-239471066D01*
X342159048Y-239460159D01*
X342150280Y-239448336D01*
X342142712Y-239435710D01*
X342136418Y-239422403D01*
X342131459Y-239408543D01*
X342127882Y-239394264D01*
X342125722Y-239379703D01*
X342125000Y-239365000D01*
X342125000Y-239065000D01*
X342125722Y-239050297D01*
X342127882Y-239035736D01*
X342131459Y-239021457D01*
X342136418Y-239007597D01*
X342142712Y-238994290D01*
X342150280Y-238981664D01*
X342159048Y-238969841D01*
X342168934Y-238958934D01*
X342179841Y-238949048D01*
X342191664Y-238940280D01*
X342204290Y-238932712D01*
X342217597Y-238926418D01*
X342231457Y-238921459D01*
X342245736Y-238917882D01*
X342260297Y-238915722D01*
X342275000Y-238915000D01*
X344025000Y-238915000D01*
X344039703Y-238915722D01*
G37*
G36*
X334739703Y-238915722D02*
G01*
X334754264Y-238917882D01*
X334768543Y-238921459D01*
X334782403Y-238926418D01*
X334795710Y-238932712D01*
X334808336Y-238940280D01*
X334820159Y-238949048D01*
X334831066Y-238958934D01*
X334840952Y-238969841D01*
X334849720Y-238981664D01*
X334857288Y-238994290D01*
X334863582Y-239007597D01*
X334868541Y-239021457D01*
X334872118Y-239035736D01*
X334874278Y-239050297D01*
X334875000Y-239065000D01*
X334875000Y-239365000D01*
X334874278Y-239379703D01*
X334872118Y-239394264D01*
X334868541Y-239408543D01*
X334863582Y-239422403D01*
X334857288Y-239435710D01*
X334849720Y-239448336D01*
X334840952Y-239460159D01*
X334831066Y-239471066D01*
X334820159Y-239480952D01*
X334808336Y-239489720D01*
X334795710Y-239497288D01*
X334782403Y-239503582D01*
X334768543Y-239508541D01*
X334754264Y-239512118D01*
X334739703Y-239514278D01*
X334725000Y-239515000D01*
X332975000Y-239515000D01*
X332960297Y-239514278D01*
X332945736Y-239512118D01*
X332931457Y-239508541D01*
X332917597Y-239503582D01*
X332904290Y-239497288D01*
X332891664Y-239489720D01*
X332879841Y-239480952D01*
X332868934Y-239471066D01*
X332859048Y-239460159D01*
X332850280Y-239448336D01*
X332842712Y-239435710D01*
X332836418Y-239422403D01*
X332831459Y-239408543D01*
X332827882Y-239394264D01*
X332825722Y-239379703D01*
X332825000Y-239365000D01*
X332825000Y-239065000D01*
X332825722Y-239050297D01*
X332827882Y-239035736D01*
X332831459Y-239021457D01*
X332836418Y-239007597D01*
X332842712Y-238994290D01*
X332850280Y-238981664D01*
X332859048Y-238969841D01*
X332868934Y-238958934D01*
X332879841Y-238949048D01*
X332891664Y-238940280D01*
X332904290Y-238932712D01*
X332917597Y-238926418D01*
X332931457Y-238921459D01*
X332945736Y-238917882D01*
X332960297Y-238915722D01*
X332975000Y-238915000D01*
X334725000Y-238915000D01*
X334739703Y-238915722D01*
G37*
G36*
X334739703Y-237645722D02*
G01*
X334754264Y-237647882D01*
X334768543Y-237651459D01*
X334782403Y-237656418D01*
X334795710Y-237662712D01*
X334808336Y-237670280D01*
X334820159Y-237679048D01*
X334831066Y-237688934D01*
X334840952Y-237699841D01*
X334849720Y-237711664D01*
X334857288Y-237724290D01*
X334863582Y-237737597D01*
X334868541Y-237751457D01*
X334872118Y-237765736D01*
X334874278Y-237780297D01*
X334875000Y-237795000D01*
X334875000Y-238095000D01*
X334874278Y-238109703D01*
X334872118Y-238124264D01*
X334868541Y-238138543D01*
X334863582Y-238152403D01*
X334857288Y-238165710D01*
X334849720Y-238178336D01*
X334840952Y-238190159D01*
X334831066Y-238201066D01*
X334820159Y-238210952D01*
X334808336Y-238219720D01*
X334795710Y-238227288D01*
X334782403Y-238233582D01*
X334768543Y-238238541D01*
X334754264Y-238242118D01*
X334739703Y-238244278D01*
X334725000Y-238245000D01*
X332975000Y-238245000D01*
X332960297Y-238244278D01*
X332945736Y-238242118D01*
X332931457Y-238238541D01*
X332917597Y-238233582D01*
X332904290Y-238227288D01*
X332891664Y-238219720D01*
X332879841Y-238210952D01*
X332868934Y-238201066D01*
X332859048Y-238190159D01*
X332850280Y-238178336D01*
X332842712Y-238165710D01*
X332836418Y-238152403D01*
X332831459Y-238138543D01*
X332827882Y-238124264D01*
X332825722Y-238109703D01*
X332825000Y-238095000D01*
X332825000Y-237795000D01*
X332825722Y-237780297D01*
X332827882Y-237765736D01*
X332831459Y-237751457D01*
X332836418Y-237737597D01*
X332842712Y-237724290D01*
X332850280Y-237711664D01*
X332859048Y-237699841D01*
X332868934Y-237688934D01*
X332879841Y-237679048D01*
X332891664Y-237670280D01*
X332904290Y-237662712D01*
X332917597Y-237656418D01*
X332931457Y-237651459D01*
X332945736Y-237647882D01*
X332960297Y-237645722D01*
X332975000Y-237645000D01*
X334725000Y-237645000D01*
X334739703Y-237645722D01*
G37*
G36*
X334739703Y-236375722D02*
G01*
X334754264Y-236377882D01*
X334768543Y-236381459D01*
X334782403Y-236386418D01*
X334795710Y-236392712D01*
X334808336Y-236400280D01*
X334820159Y-236409048D01*
X334831066Y-236418934D01*
X334840952Y-236429841D01*
X334849720Y-236441664D01*
X334857288Y-236454290D01*
X334863582Y-236467597D01*
X334868541Y-236481457D01*
X334872118Y-236495736D01*
X334874278Y-236510297D01*
X334875000Y-236525000D01*
X334875000Y-236825000D01*
X334874278Y-236839703D01*
X334872118Y-236854264D01*
X334868541Y-236868543D01*
X334863582Y-236882403D01*
X334857288Y-236895710D01*
X334849720Y-236908336D01*
X334840952Y-236920159D01*
X334831066Y-236931066D01*
X334820159Y-236940952D01*
X334808336Y-236949720D01*
X334795710Y-236957288D01*
X334782403Y-236963582D01*
X334768543Y-236968541D01*
X334754264Y-236972118D01*
X334739703Y-236974278D01*
X334725000Y-236975000D01*
X332975000Y-236975000D01*
X332960297Y-236974278D01*
X332945736Y-236972118D01*
X332931457Y-236968541D01*
X332917597Y-236963582D01*
X332904290Y-236957288D01*
X332891664Y-236949720D01*
X332879841Y-236940952D01*
X332868934Y-236931066D01*
X332859048Y-236920159D01*
X332850280Y-236908336D01*
X332842712Y-236895710D01*
X332836418Y-236882403D01*
X332831459Y-236868543D01*
X332827882Y-236854264D01*
X332825722Y-236839703D01*
X332825000Y-236825000D01*
X332825000Y-236525000D01*
X332825722Y-236510297D01*
X332827882Y-236495736D01*
X332831459Y-236481457D01*
X332836418Y-236467597D01*
X332842712Y-236454290D01*
X332850280Y-236441664D01*
X332859048Y-236429841D01*
X332868934Y-236418934D01*
X332879841Y-236409048D01*
X332891664Y-236400280D01*
X332904290Y-236392712D01*
X332917597Y-236386418D01*
X332931457Y-236381459D01*
X332945736Y-236377882D01*
X332960297Y-236375722D01*
X332975000Y-236375000D01*
X334725000Y-236375000D01*
X334739703Y-236375722D01*
G37*
G36*
X334739703Y-235105722D02*
G01*
X334754264Y-235107882D01*
X334768543Y-235111459D01*
X334782403Y-235116418D01*
X334795710Y-235122712D01*
X334808336Y-235130280D01*
X334820159Y-235139048D01*
X334831066Y-235148934D01*
X334840952Y-235159841D01*
X334849720Y-235171664D01*
X334857288Y-235184290D01*
X334863582Y-235197597D01*
X334868541Y-235211457D01*
X334872118Y-235225736D01*
X334874278Y-235240297D01*
X334875000Y-235255000D01*
X334875000Y-235555000D01*
X334874278Y-235569703D01*
X334872118Y-235584264D01*
X334868541Y-235598543D01*
X334863582Y-235612403D01*
X334857288Y-235625710D01*
X334849720Y-235638336D01*
X334840952Y-235650159D01*
X334831066Y-235661066D01*
X334820159Y-235670952D01*
X334808336Y-235679720D01*
X334795710Y-235687288D01*
X334782403Y-235693582D01*
X334768543Y-235698541D01*
X334754264Y-235702118D01*
X334739703Y-235704278D01*
X334725000Y-235705000D01*
X332975000Y-235705000D01*
X332960297Y-235704278D01*
X332945736Y-235702118D01*
X332931457Y-235698541D01*
X332917597Y-235693582D01*
X332904290Y-235687288D01*
X332891664Y-235679720D01*
X332879841Y-235670952D01*
X332868934Y-235661066D01*
X332859048Y-235650159D01*
X332850280Y-235638336D01*
X332842712Y-235625710D01*
X332836418Y-235612403D01*
X332831459Y-235598543D01*
X332827882Y-235584264D01*
X332825722Y-235569703D01*
X332825000Y-235555000D01*
X332825000Y-235255000D01*
X332825722Y-235240297D01*
X332827882Y-235225736D01*
X332831459Y-235211457D01*
X332836418Y-235197597D01*
X332842712Y-235184290D01*
X332850280Y-235171664D01*
X332859048Y-235159841D01*
X332868934Y-235148934D01*
X332879841Y-235139048D01*
X332891664Y-235130280D01*
X332904290Y-235122712D01*
X332917597Y-235116418D01*
X332931457Y-235111459D01*
X332945736Y-235107882D01*
X332960297Y-235105722D01*
X332975000Y-235105000D01*
X334725000Y-235105000D01*
X334739703Y-235105722D01*
G37*
G36*
X334739703Y-233835722D02*
G01*
X334754264Y-233837882D01*
X334768543Y-233841459D01*
X334782403Y-233846418D01*
X334795710Y-233852712D01*
X334808336Y-233860280D01*
X334820159Y-233869048D01*
X334831066Y-233878934D01*
X334840952Y-233889841D01*
X334849720Y-233901664D01*
X334857288Y-233914290D01*
X334863582Y-233927597D01*
X334868541Y-233941457D01*
X334872118Y-233955736D01*
X334874278Y-233970297D01*
X334875000Y-233985000D01*
X334875000Y-234285000D01*
X334874278Y-234299703D01*
X334872118Y-234314264D01*
X334868541Y-234328543D01*
X334863582Y-234342403D01*
X334857288Y-234355710D01*
X334849720Y-234368336D01*
X334840952Y-234380159D01*
X334831066Y-234391066D01*
X334820159Y-234400952D01*
X334808336Y-234409720D01*
X334795710Y-234417288D01*
X334782403Y-234423582D01*
X334768543Y-234428541D01*
X334754264Y-234432118D01*
X334739703Y-234434278D01*
X334725000Y-234435000D01*
X332975000Y-234435000D01*
X332960297Y-234434278D01*
X332945736Y-234432118D01*
X332931457Y-234428541D01*
X332917597Y-234423582D01*
X332904290Y-234417288D01*
X332891664Y-234409720D01*
X332879841Y-234400952D01*
X332868934Y-234391066D01*
X332859048Y-234380159D01*
X332850280Y-234368336D01*
X332842712Y-234355710D01*
X332836418Y-234342403D01*
X332831459Y-234328543D01*
X332827882Y-234314264D01*
X332825722Y-234299703D01*
X332825000Y-234285000D01*
X332825000Y-233985000D01*
X332825722Y-233970297D01*
X332827882Y-233955736D01*
X332831459Y-233941457D01*
X332836418Y-233927597D01*
X332842712Y-233914290D01*
X332850280Y-233901664D01*
X332859048Y-233889841D01*
X332868934Y-233878934D01*
X332879841Y-233869048D01*
X332891664Y-233860280D01*
X332904290Y-233852712D01*
X332917597Y-233846418D01*
X332931457Y-233841459D01*
X332945736Y-233837882D01*
X332960297Y-233835722D01*
X332975000Y-233835000D01*
X334725000Y-233835000D01*
X334739703Y-233835722D01*
G37*
G36*
X334739703Y-232565722D02*
G01*
X334754264Y-232567882D01*
X334768543Y-232571459D01*
X334782403Y-232576418D01*
X334795710Y-232582712D01*
X334808336Y-232590280D01*
X334820159Y-232599048D01*
X334831066Y-232608934D01*
X334840952Y-232619841D01*
X334849720Y-232631664D01*
X334857288Y-232644290D01*
X334863582Y-232657597D01*
X334868541Y-232671457D01*
X334872118Y-232685736D01*
X334874278Y-232700297D01*
X334875000Y-232715000D01*
X334875000Y-233015000D01*
X334874278Y-233029703D01*
X334872118Y-233044264D01*
X334868541Y-233058543D01*
X334863582Y-233072403D01*
X334857288Y-233085710D01*
X334849720Y-233098336D01*
X334840952Y-233110159D01*
X334831066Y-233121066D01*
X334820159Y-233130952D01*
X334808336Y-233139720D01*
X334795710Y-233147288D01*
X334782403Y-233153582D01*
X334768543Y-233158541D01*
X334754264Y-233162118D01*
X334739703Y-233164278D01*
X334725000Y-233165000D01*
X332975000Y-233165000D01*
X332960297Y-233164278D01*
X332945736Y-233162118D01*
X332931457Y-233158541D01*
X332917597Y-233153582D01*
X332904290Y-233147288D01*
X332891664Y-233139720D01*
X332879841Y-233130952D01*
X332868934Y-233121066D01*
X332859048Y-233110159D01*
X332850280Y-233098336D01*
X332842712Y-233085710D01*
X332836418Y-233072403D01*
X332831459Y-233058543D01*
X332827882Y-233044264D01*
X332825722Y-233029703D01*
X332825000Y-233015000D01*
X332825000Y-232715000D01*
X332825722Y-232700297D01*
X332827882Y-232685736D01*
X332831459Y-232671457D01*
X332836418Y-232657597D01*
X332842712Y-232644290D01*
X332850280Y-232631664D01*
X332859048Y-232619841D01*
X332868934Y-232608934D01*
X332879841Y-232599048D01*
X332891664Y-232590280D01*
X332904290Y-232582712D01*
X332917597Y-232576418D01*
X332931457Y-232571459D01*
X332945736Y-232567882D01*
X332960297Y-232565722D01*
X332975000Y-232565000D01*
X334725000Y-232565000D01*
X334739703Y-232565722D01*
G37*
G36*
X334739703Y-231295722D02*
G01*
X334754264Y-231297882D01*
X334768543Y-231301459D01*
X334782403Y-231306418D01*
X334795710Y-231312712D01*
X334808336Y-231320280D01*
X334820159Y-231329048D01*
X334831066Y-231338934D01*
X334840952Y-231349841D01*
X334849720Y-231361664D01*
X334857288Y-231374290D01*
X334863582Y-231387597D01*
X334868541Y-231401457D01*
X334872118Y-231415736D01*
X334874278Y-231430297D01*
X334875000Y-231445000D01*
X334875000Y-231745000D01*
X334874278Y-231759703D01*
X334872118Y-231774264D01*
X334868541Y-231788543D01*
X334863582Y-231802403D01*
X334857288Y-231815710D01*
X334849720Y-231828336D01*
X334840952Y-231840159D01*
X334831066Y-231851066D01*
X334820159Y-231860952D01*
X334808336Y-231869720D01*
X334795710Y-231877288D01*
X334782403Y-231883582D01*
X334768543Y-231888541D01*
X334754264Y-231892118D01*
X334739703Y-231894278D01*
X334725000Y-231895000D01*
X332975000Y-231895000D01*
X332960297Y-231894278D01*
X332945736Y-231892118D01*
X332931457Y-231888541D01*
X332917597Y-231883582D01*
X332904290Y-231877288D01*
X332891664Y-231869720D01*
X332879841Y-231860952D01*
X332868934Y-231851066D01*
X332859048Y-231840159D01*
X332850280Y-231828336D01*
X332842712Y-231815710D01*
X332836418Y-231802403D01*
X332831459Y-231788543D01*
X332827882Y-231774264D01*
X332825722Y-231759703D01*
X332825000Y-231745000D01*
X332825000Y-231445000D01*
X332825722Y-231430297D01*
X332827882Y-231415736D01*
X332831459Y-231401457D01*
X332836418Y-231387597D01*
X332842712Y-231374290D01*
X332850280Y-231361664D01*
X332859048Y-231349841D01*
X332868934Y-231338934D01*
X332879841Y-231329048D01*
X332891664Y-231320280D01*
X332904290Y-231312712D01*
X332917597Y-231306418D01*
X332931457Y-231301459D01*
X332945736Y-231297882D01*
X332960297Y-231295722D01*
X332975000Y-231295000D01*
X334725000Y-231295000D01*
X334739703Y-231295722D01*
G37*
G36*
X334739703Y-230025722D02*
G01*
X334754264Y-230027882D01*
X334768543Y-230031459D01*
X334782403Y-230036418D01*
X334795710Y-230042712D01*
X334808336Y-230050280D01*
X334820159Y-230059048D01*
X334831066Y-230068934D01*
X334840952Y-230079841D01*
X334849720Y-230091664D01*
X334857288Y-230104290D01*
X334863582Y-230117597D01*
X334868541Y-230131457D01*
X334872118Y-230145736D01*
X334874278Y-230160297D01*
X334875000Y-230175000D01*
X334875000Y-230475000D01*
X334874278Y-230489703D01*
X334872118Y-230504264D01*
X334868541Y-230518543D01*
X334863582Y-230532403D01*
X334857288Y-230545710D01*
X334849720Y-230558336D01*
X334840952Y-230570159D01*
X334831066Y-230581066D01*
X334820159Y-230590952D01*
X334808336Y-230599720D01*
X334795710Y-230607288D01*
X334782403Y-230613582D01*
X334768543Y-230618541D01*
X334754264Y-230622118D01*
X334739703Y-230624278D01*
X334725000Y-230625000D01*
X332975000Y-230625000D01*
X332960297Y-230624278D01*
X332945736Y-230622118D01*
X332931457Y-230618541D01*
X332917597Y-230613582D01*
X332904290Y-230607288D01*
X332891664Y-230599720D01*
X332879841Y-230590952D01*
X332868934Y-230581066D01*
X332859048Y-230570159D01*
X332850280Y-230558336D01*
X332842712Y-230545710D01*
X332836418Y-230532403D01*
X332831459Y-230518543D01*
X332827882Y-230504264D01*
X332825722Y-230489703D01*
X332825000Y-230475000D01*
X332825000Y-230175000D01*
X332825722Y-230160297D01*
X332827882Y-230145736D01*
X332831459Y-230131457D01*
X332836418Y-230117597D01*
X332842712Y-230104290D01*
X332850280Y-230091664D01*
X332859048Y-230079841D01*
X332868934Y-230068934D01*
X332879841Y-230059048D01*
X332891664Y-230050280D01*
X332904290Y-230042712D01*
X332917597Y-230036418D01*
X332931457Y-230031459D01*
X332945736Y-230027882D01*
X332960297Y-230025722D01*
X332975000Y-230025000D01*
X334725000Y-230025000D01*
X334739703Y-230025722D01*
G37*
G36*
X334739703Y-228755722D02*
G01*
X334754264Y-228757882D01*
X334768543Y-228761459D01*
X334782403Y-228766418D01*
X334795710Y-228772712D01*
X334808336Y-228780280D01*
X334820159Y-228789048D01*
X334831066Y-228798934D01*
X334840952Y-228809841D01*
X334849720Y-228821664D01*
X334857288Y-228834290D01*
X334863582Y-228847597D01*
X334868541Y-228861457D01*
X334872118Y-228875736D01*
X334874278Y-228890297D01*
X334875000Y-228905000D01*
X334875000Y-229205000D01*
X334874278Y-229219703D01*
X334872118Y-229234264D01*
X334868541Y-229248543D01*
X334863582Y-229262403D01*
X334857288Y-229275710D01*
X334849720Y-229288336D01*
X334840952Y-229300159D01*
X334831066Y-229311066D01*
X334820159Y-229320952D01*
X334808336Y-229329720D01*
X334795710Y-229337288D01*
X334782403Y-229343582D01*
X334768543Y-229348541D01*
X334754264Y-229352118D01*
X334739703Y-229354278D01*
X334725000Y-229355000D01*
X332975000Y-229355000D01*
X332960297Y-229354278D01*
X332945736Y-229352118D01*
X332931457Y-229348541D01*
X332917597Y-229343582D01*
X332904290Y-229337288D01*
X332891664Y-229329720D01*
X332879841Y-229320952D01*
X332868934Y-229311066D01*
X332859048Y-229300159D01*
X332850280Y-229288336D01*
X332842712Y-229275710D01*
X332836418Y-229262403D01*
X332831459Y-229248543D01*
X332827882Y-229234264D01*
X332825722Y-229219703D01*
X332825000Y-229205000D01*
X332825000Y-228905000D01*
X332825722Y-228890297D01*
X332827882Y-228875736D01*
X332831459Y-228861457D01*
X332836418Y-228847597D01*
X332842712Y-228834290D01*
X332850280Y-228821664D01*
X332859048Y-228809841D01*
X332868934Y-228798934D01*
X332879841Y-228789048D01*
X332891664Y-228780280D01*
X332904290Y-228772712D01*
X332917597Y-228766418D01*
X332931457Y-228761459D01*
X332945736Y-228757882D01*
X332960297Y-228755722D01*
X332975000Y-228755000D01*
X334725000Y-228755000D01*
X334739703Y-228755722D01*
G37*
G36*
X334739703Y-227485722D02*
G01*
X334754264Y-227487882D01*
X334768543Y-227491459D01*
X334782403Y-227496418D01*
X334795710Y-227502712D01*
X334808336Y-227510280D01*
X334820159Y-227519048D01*
X334831066Y-227528934D01*
X334840952Y-227539841D01*
X334849720Y-227551664D01*
X334857288Y-227564290D01*
X334863582Y-227577597D01*
X334868541Y-227591457D01*
X334872118Y-227605736D01*
X334874278Y-227620297D01*
X334875000Y-227635000D01*
X334875000Y-227935000D01*
X334874278Y-227949703D01*
X334872118Y-227964264D01*
X334868541Y-227978543D01*
X334863582Y-227992403D01*
X334857288Y-228005710D01*
X334849720Y-228018336D01*
X334840952Y-228030159D01*
X334831066Y-228041066D01*
X334820159Y-228050952D01*
X334808336Y-228059720D01*
X334795710Y-228067288D01*
X334782403Y-228073582D01*
X334768543Y-228078541D01*
X334754264Y-228082118D01*
X334739703Y-228084278D01*
X334725000Y-228085000D01*
X332975000Y-228085000D01*
X332960297Y-228084278D01*
X332945736Y-228082118D01*
X332931457Y-228078541D01*
X332917597Y-228073582D01*
X332904290Y-228067288D01*
X332891664Y-228059720D01*
X332879841Y-228050952D01*
X332868934Y-228041066D01*
X332859048Y-228030159D01*
X332850280Y-228018336D01*
X332842712Y-228005710D01*
X332836418Y-227992403D01*
X332831459Y-227978543D01*
X332827882Y-227964264D01*
X332825722Y-227949703D01*
X332825000Y-227935000D01*
X332825000Y-227635000D01*
X332825722Y-227620297D01*
X332827882Y-227605736D01*
X332831459Y-227591457D01*
X332836418Y-227577597D01*
X332842712Y-227564290D01*
X332850280Y-227551664D01*
X332859048Y-227539841D01*
X332868934Y-227528934D01*
X332879841Y-227519048D01*
X332891664Y-227510280D01*
X332904290Y-227502712D01*
X332917597Y-227496418D01*
X332931457Y-227491459D01*
X332945736Y-227487882D01*
X332960297Y-227485722D01*
X332975000Y-227485000D01*
X334725000Y-227485000D01*
X334739703Y-227485722D01*
G37*
G36*
X421267642Y-271551174D02*
G01*
X421291303Y-271554684D01*
X421314507Y-271560496D01*
X421337029Y-271568554D01*
X421358653Y-271578782D01*
X421379170Y-271591079D01*
X421398383Y-271605329D01*
X421416107Y-271621393D01*
X421432171Y-271639117D01*
X421446421Y-271658330D01*
X421458718Y-271678847D01*
X421468946Y-271700471D01*
X421477004Y-271722993D01*
X421482816Y-271746197D01*
X421486326Y-271769858D01*
X421487500Y-271793750D01*
X421487500Y-272706250D01*
X421486326Y-272730142D01*
X421482816Y-272753803D01*
X421477004Y-272777007D01*
X421468946Y-272799529D01*
X421458718Y-272821153D01*
X421446421Y-272841670D01*
X421432171Y-272860883D01*
X421416107Y-272878607D01*
X421398383Y-272894671D01*
X421379170Y-272908921D01*
X421358653Y-272921218D01*
X421337029Y-272931446D01*
X421314507Y-272939504D01*
X421291303Y-272945316D01*
X421267642Y-272948826D01*
X421243750Y-272950000D01*
X420756250Y-272950000D01*
X420732358Y-272948826D01*
X420708697Y-272945316D01*
X420685493Y-272939504D01*
X420662971Y-272931446D01*
X420641347Y-272921218D01*
X420620830Y-272908921D01*
X420601617Y-272894671D01*
X420583893Y-272878607D01*
X420567829Y-272860883D01*
X420553579Y-272841670D01*
X420541282Y-272821153D01*
X420531054Y-272799529D01*
X420522996Y-272777007D01*
X420517184Y-272753803D01*
X420513674Y-272730142D01*
X420512500Y-272706250D01*
X420512500Y-271793750D01*
X420513674Y-271769858D01*
X420517184Y-271746197D01*
X420522996Y-271722993D01*
X420531054Y-271700471D01*
X420541282Y-271678847D01*
X420553579Y-271658330D01*
X420567829Y-271639117D01*
X420583893Y-271621393D01*
X420601617Y-271605329D01*
X420620830Y-271591079D01*
X420641347Y-271578782D01*
X420662971Y-271568554D01*
X420685493Y-271560496D01*
X420708697Y-271554684D01*
X420732358Y-271551174D01*
X420756250Y-271550000D01*
X421243750Y-271550000D01*
X421267642Y-271551174D01*
G37*
G36*
X419392642Y-271551174D02*
G01*
X419416303Y-271554684D01*
X419439507Y-271560496D01*
X419462029Y-271568554D01*
X419483653Y-271578782D01*
X419504170Y-271591079D01*
X419523383Y-271605329D01*
X419541107Y-271621393D01*
X419557171Y-271639117D01*
X419571421Y-271658330D01*
X419583718Y-271678847D01*
X419593946Y-271700471D01*
X419602004Y-271722993D01*
X419607816Y-271746197D01*
X419611326Y-271769858D01*
X419612500Y-271793750D01*
X419612500Y-272706250D01*
X419611326Y-272730142D01*
X419607816Y-272753803D01*
X419602004Y-272777007D01*
X419593946Y-272799529D01*
X419583718Y-272821153D01*
X419571421Y-272841670D01*
X419557171Y-272860883D01*
X419541107Y-272878607D01*
X419523383Y-272894671D01*
X419504170Y-272908921D01*
X419483653Y-272921218D01*
X419462029Y-272931446D01*
X419439507Y-272939504D01*
X419416303Y-272945316D01*
X419392642Y-272948826D01*
X419368750Y-272950000D01*
X418881250Y-272950000D01*
X418857358Y-272948826D01*
X418833697Y-272945316D01*
X418810493Y-272939504D01*
X418787971Y-272931446D01*
X418766347Y-272921218D01*
X418745830Y-272908921D01*
X418726617Y-272894671D01*
X418708893Y-272878607D01*
X418692829Y-272860883D01*
X418678579Y-272841670D01*
X418666282Y-272821153D01*
X418656054Y-272799529D01*
X418647996Y-272777007D01*
X418642184Y-272753803D01*
X418638674Y-272730142D01*
X418637500Y-272706250D01*
X418637500Y-271793750D01*
X418638674Y-271769858D01*
X418642184Y-271746197D01*
X418647996Y-271722993D01*
X418656054Y-271700471D01*
X418666282Y-271678847D01*
X418678579Y-271658330D01*
X418692829Y-271639117D01*
X418708893Y-271621393D01*
X418726617Y-271605329D01*
X418745830Y-271591079D01*
X418766347Y-271578782D01*
X418787971Y-271568554D01*
X418810493Y-271560496D01*
X418833697Y-271554684D01*
X418857358Y-271551174D01*
X418881250Y-271550000D01*
X419368750Y-271550000D01*
X419392642Y-271551174D01*
G37*
G36*
X355080142Y-230201174D02*
G01*
X355103803Y-230204684D01*
X355127007Y-230210496D01*
X355149529Y-230218554D01*
X355171153Y-230228782D01*
X355191670Y-230241079D01*
X355210883Y-230255329D01*
X355228607Y-230271393D01*
X355244671Y-230289117D01*
X355258921Y-230308330D01*
X355271218Y-230328847D01*
X355281446Y-230350471D01*
X355289504Y-230372993D01*
X355295316Y-230396197D01*
X355298826Y-230419858D01*
X355300000Y-230443750D01*
X355300000Y-231356250D01*
X355298826Y-231380142D01*
X355295316Y-231403803D01*
X355289504Y-231427007D01*
X355281446Y-231449529D01*
X355271218Y-231471153D01*
X355258921Y-231491670D01*
X355244671Y-231510883D01*
X355228607Y-231528607D01*
X355210883Y-231544671D01*
X355191670Y-231558921D01*
X355171153Y-231571218D01*
X355149529Y-231581446D01*
X355127007Y-231589504D01*
X355103803Y-231595316D01*
X355080142Y-231598826D01*
X355056250Y-231600000D01*
X354568750Y-231600000D01*
X354544858Y-231598826D01*
X354521197Y-231595316D01*
X354497993Y-231589504D01*
X354475471Y-231581446D01*
X354453847Y-231571218D01*
X354433330Y-231558921D01*
X354414117Y-231544671D01*
X354396393Y-231528607D01*
X354380329Y-231510883D01*
X354366079Y-231491670D01*
X354353782Y-231471153D01*
X354343554Y-231449529D01*
X354335496Y-231427007D01*
X354329684Y-231403803D01*
X354326174Y-231380142D01*
X354325000Y-231356250D01*
X354325000Y-230443750D01*
X354326174Y-230419858D01*
X354329684Y-230396197D01*
X354335496Y-230372993D01*
X354343554Y-230350471D01*
X354353782Y-230328847D01*
X354366079Y-230308330D01*
X354380329Y-230289117D01*
X354396393Y-230271393D01*
X354414117Y-230255329D01*
X354433330Y-230241079D01*
X354453847Y-230228782D01*
X354475471Y-230218554D01*
X354497993Y-230210496D01*
X354521197Y-230204684D01*
X354544858Y-230201174D01*
X354568750Y-230200000D01*
X355056250Y-230200000D01*
X355080142Y-230201174D01*
G37*
G36*
X356955142Y-230201174D02*
G01*
X356978803Y-230204684D01*
X357002007Y-230210496D01*
X357024529Y-230218554D01*
X357046153Y-230228782D01*
X357066670Y-230241079D01*
X357085883Y-230255329D01*
X357103607Y-230271393D01*
X357119671Y-230289117D01*
X357133921Y-230308330D01*
X357146218Y-230328847D01*
X357156446Y-230350471D01*
X357164504Y-230372993D01*
X357170316Y-230396197D01*
X357173826Y-230419858D01*
X357175000Y-230443750D01*
X357175000Y-231356250D01*
X357173826Y-231380142D01*
X357170316Y-231403803D01*
X357164504Y-231427007D01*
X357156446Y-231449529D01*
X357146218Y-231471153D01*
X357133921Y-231491670D01*
X357119671Y-231510883D01*
X357103607Y-231528607D01*
X357085883Y-231544671D01*
X357066670Y-231558921D01*
X357046153Y-231571218D01*
X357024529Y-231581446D01*
X357002007Y-231589504D01*
X356978803Y-231595316D01*
X356955142Y-231598826D01*
X356931250Y-231600000D01*
X356443750Y-231600000D01*
X356419858Y-231598826D01*
X356396197Y-231595316D01*
X356372993Y-231589504D01*
X356350471Y-231581446D01*
X356328847Y-231571218D01*
X356308330Y-231558921D01*
X356289117Y-231544671D01*
X356271393Y-231528607D01*
X356255329Y-231510883D01*
X356241079Y-231491670D01*
X356228782Y-231471153D01*
X356218554Y-231449529D01*
X356210496Y-231427007D01*
X356204684Y-231403803D01*
X356201174Y-231380142D01*
X356200000Y-231356250D01*
X356200000Y-230443750D01*
X356201174Y-230419858D01*
X356204684Y-230396197D01*
X356210496Y-230372993D01*
X356218554Y-230350471D01*
X356228782Y-230328847D01*
X356241079Y-230308330D01*
X356255329Y-230289117D01*
X356271393Y-230271393D01*
X356289117Y-230255329D01*
X356308330Y-230241079D01*
X356328847Y-230228782D01*
X356350471Y-230218554D01*
X356372993Y-230210496D01*
X356396197Y-230204684D01*
X356419858Y-230201174D01*
X356443750Y-230200000D01*
X356931250Y-230200000D01*
X356955142Y-230201174D01*
G37*
D11*
X398146000Y-200406000D03*
X401446000Y-200406000D03*
D10*
G36*
X364980142Y-233701174D02*
G01*
X365003803Y-233704684D01*
X365027007Y-233710496D01*
X365049529Y-233718554D01*
X365071153Y-233728782D01*
X365091670Y-233741079D01*
X365110883Y-233755329D01*
X365128607Y-233771393D01*
X365144671Y-233789117D01*
X365158921Y-233808330D01*
X365171218Y-233828847D01*
X365181446Y-233850471D01*
X365189504Y-233872993D01*
X365195316Y-233896197D01*
X365198826Y-233919858D01*
X365200000Y-233943750D01*
X365200000Y-234431250D01*
X365198826Y-234455142D01*
X365195316Y-234478803D01*
X365189504Y-234502007D01*
X365181446Y-234524529D01*
X365171218Y-234546153D01*
X365158921Y-234566670D01*
X365144671Y-234585883D01*
X365128607Y-234603607D01*
X365110883Y-234619671D01*
X365091670Y-234633921D01*
X365071153Y-234646218D01*
X365049529Y-234656446D01*
X365027007Y-234664504D01*
X365003803Y-234670316D01*
X364980142Y-234673826D01*
X364956250Y-234675000D01*
X364043750Y-234675000D01*
X364019858Y-234673826D01*
X363996197Y-234670316D01*
X363972993Y-234664504D01*
X363950471Y-234656446D01*
X363928847Y-234646218D01*
X363908330Y-234633921D01*
X363889117Y-234619671D01*
X363871393Y-234603607D01*
X363855329Y-234585883D01*
X363841079Y-234566670D01*
X363828782Y-234546153D01*
X363818554Y-234524529D01*
X363810496Y-234502007D01*
X363804684Y-234478803D01*
X363801174Y-234455142D01*
X363800000Y-234431250D01*
X363800000Y-233943750D01*
X363801174Y-233919858D01*
X363804684Y-233896197D01*
X363810496Y-233872993D01*
X363818554Y-233850471D01*
X363828782Y-233828847D01*
X363841079Y-233808330D01*
X363855329Y-233789117D01*
X363871393Y-233771393D01*
X363889117Y-233755329D01*
X363908330Y-233741079D01*
X363928847Y-233728782D01*
X363950471Y-233718554D01*
X363972993Y-233710496D01*
X363996197Y-233704684D01*
X364019858Y-233701174D01*
X364043750Y-233700000D01*
X364956250Y-233700000D01*
X364980142Y-233701174D01*
G37*
G36*
X364980142Y-231826174D02*
G01*
X365003803Y-231829684D01*
X365027007Y-231835496D01*
X365049529Y-231843554D01*
X365071153Y-231853782D01*
X365091670Y-231866079D01*
X365110883Y-231880329D01*
X365128607Y-231896393D01*
X365144671Y-231914117D01*
X365158921Y-231933330D01*
X365171218Y-231953847D01*
X365181446Y-231975471D01*
X365189504Y-231997993D01*
X365195316Y-232021197D01*
X365198826Y-232044858D01*
X365200000Y-232068750D01*
X365200000Y-232556250D01*
X365198826Y-232580142D01*
X365195316Y-232603803D01*
X365189504Y-232627007D01*
X365181446Y-232649529D01*
X365171218Y-232671153D01*
X365158921Y-232691670D01*
X365144671Y-232710883D01*
X365128607Y-232728607D01*
X365110883Y-232744671D01*
X365091670Y-232758921D01*
X365071153Y-232771218D01*
X365049529Y-232781446D01*
X365027007Y-232789504D01*
X365003803Y-232795316D01*
X364980142Y-232798826D01*
X364956250Y-232800000D01*
X364043750Y-232800000D01*
X364019858Y-232798826D01*
X363996197Y-232795316D01*
X363972993Y-232789504D01*
X363950471Y-232781446D01*
X363928847Y-232771218D01*
X363908330Y-232758921D01*
X363889117Y-232744671D01*
X363871393Y-232728607D01*
X363855329Y-232710883D01*
X363841079Y-232691670D01*
X363828782Y-232671153D01*
X363818554Y-232649529D01*
X363810496Y-232627007D01*
X363804684Y-232603803D01*
X363801174Y-232580142D01*
X363800000Y-232556250D01*
X363800000Y-232068750D01*
X363801174Y-232044858D01*
X363804684Y-232021197D01*
X363810496Y-231997993D01*
X363818554Y-231975471D01*
X363828782Y-231953847D01*
X363841079Y-231933330D01*
X363855329Y-231914117D01*
X363871393Y-231896393D01*
X363889117Y-231880329D01*
X363908330Y-231866079D01*
X363928847Y-231853782D01*
X363950471Y-231843554D01*
X363972993Y-231835496D01*
X363996197Y-231829684D01*
X364019858Y-231826174D01*
X364043750Y-231825000D01*
X364956250Y-231825000D01*
X364980142Y-231826174D01*
G37*
D12*
X409750000Y-277600000D03*
X394250000Y-277600000D03*
D13*
X408850000Y-268000000D03*
D14*
X394250000Y-268000000D03*
D15*
X395400000Y-267500000D03*
X397600000Y-267500000D03*
X396500000Y-267500000D03*
X398700000Y-267500000D03*
X399800000Y-267500000D03*
X400900000Y-267500000D03*
X404200000Y-267500000D03*
X403100000Y-267500000D03*
X402000000Y-267500000D03*
D10*
G36*
X428433142Y-199301174D02*
G01*
X428456803Y-199304684D01*
X428480007Y-199310496D01*
X428502529Y-199318554D01*
X428524153Y-199328782D01*
X428544670Y-199341079D01*
X428563883Y-199355329D01*
X428581607Y-199371393D01*
X428597671Y-199389117D01*
X428611921Y-199408330D01*
X428624218Y-199428847D01*
X428634446Y-199450471D01*
X428642504Y-199472993D01*
X428648316Y-199496197D01*
X428651826Y-199519858D01*
X428653000Y-199543750D01*
X428653000Y-200456250D01*
X428651826Y-200480142D01*
X428648316Y-200503803D01*
X428642504Y-200527007D01*
X428634446Y-200549529D01*
X428624218Y-200571153D01*
X428611921Y-200591670D01*
X428597671Y-200610883D01*
X428581607Y-200628607D01*
X428563883Y-200644671D01*
X428544670Y-200658921D01*
X428524153Y-200671218D01*
X428502529Y-200681446D01*
X428480007Y-200689504D01*
X428456803Y-200695316D01*
X428433142Y-200698826D01*
X428409250Y-200700000D01*
X427921750Y-200700000D01*
X427897858Y-200698826D01*
X427874197Y-200695316D01*
X427850993Y-200689504D01*
X427828471Y-200681446D01*
X427806847Y-200671218D01*
X427786330Y-200658921D01*
X427767117Y-200644671D01*
X427749393Y-200628607D01*
X427733329Y-200610883D01*
X427719079Y-200591670D01*
X427706782Y-200571153D01*
X427696554Y-200549529D01*
X427688496Y-200527007D01*
X427682684Y-200503803D01*
X427679174Y-200480142D01*
X427678000Y-200456250D01*
X427678000Y-199543750D01*
X427679174Y-199519858D01*
X427682684Y-199496197D01*
X427688496Y-199472993D01*
X427696554Y-199450471D01*
X427706782Y-199428847D01*
X427719079Y-199408330D01*
X427733329Y-199389117D01*
X427749393Y-199371393D01*
X427767117Y-199355329D01*
X427786330Y-199341079D01*
X427806847Y-199328782D01*
X427828471Y-199318554D01*
X427850993Y-199310496D01*
X427874197Y-199304684D01*
X427897858Y-199301174D01*
X427921750Y-199300000D01*
X428409250Y-199300000D01*
X428433142Y-199301174D01*
G37*
G36*
X426558142Y-199301174D02*
G01*
X426581803Y-199304684D01*
X426605007Y-199310496D01*
X426627529Y-199318554D01*
X426649153Y-199328782D01*
X426669670Y-199341079D01*
X426688883Y-199355329D01*
X426706607Y-199371393D01*
X426722671Y-199389117D01*
X426736921Y-199408330D01*
X426749218Y-199428847D01*
X426759446Y-199450471D01*
X426767504Y-199472993D01*
X426773316Y-199496197D01*
X426776826Y-199519858D01*
X426778000Y-199543750D01*
X426778000Y-200456250D01*
X426776826Y-200480142D01*
X426773316Y-200503803D01*
X426767504Y-200527007D01*
X426759446Y-200549529D01*
X426749218Y-200571153D01*
X426736921Y-200591670D01*
X426722671Y-200610883D01*
X426706607Y-200628607D01*
X426688883Y-200644671D01*
X426669670Y-200658921D01*
X426649153Y-200671218D01*
X426627529Y-200681446D01*
X426605007Y-200689504D01*
X426581803Y-200695316D01*
X426558142Y-200698826D01*
X426534250Y-200700000D01*
X426046750Y-200700000D01*
X426022858Y-200698826D01*
X425999197Y-200695316D01*
X425975993Y-200689504D01*
X425953471Y-200681446D01*
X425931847Y-200671218D01*
X425911330Y-200658921D01*
X425892117Y-200644671D01*
X425874393Y-200628607D01*
X425858329Y-200610883D01*
X425844079Y-200591670D01*
X425831782Y-200571153D01*
X425821554Y-200549529D01*
X425813496Y-200527007D01*
X425807684Y-200503803D01*
X425804174Y-200480142D01*
X425803000Y-200456250D01*
X425803000Y-199543750D01*
X425804174Y-199519858D01*
X425807684Y-199496197D01*
X425813496Y-199472993D01*
X425821554Y-199450471D01*
X425831782Y-199428847D01*
X425844079Y-199408330D01*
X425858329Y-199389117D01*
X425874393Y-199371393D01*
X425892117Y-199355329D01*
X425911330Y-199341079D01*
X425931847Y-199328782D01*
X425953471Y-199318554D01*
X425975993Y-199310496D01*
X425999197Y-199304684D01*
X426022858Y-199301174D01*
X426046750Y-199300000D01*
X426534250Y-199300000D01*
X426558142Y-199301174D01*
G37*
G36*
X431227142Y-203301174D02*
G01*
X431250803Y-203304684D01*
X431274007Y-203310496D01*
X431296529Y-203318554D01*
X431318153Y-203328782D01*
X431338670Y-203341079D01*
X431357883Y-203355329D01*
X431375607Y-203371393D01*
X431391671Y-203389117D01*
X431405921Y-203408330D01*
X431418218Y-203428847D01*
X431428446Y-203450471D01*
X431436504Y-203472993D01*
X431442316Y-203496197D01*
X431445826Y-203519858D01*
X431447000Y-203543750D01*
X431447000Y-204456250D01*
X431445826Y-204480142D01*
X431442316Y-204503803D01*
X431436504Y-204527007D01*
X431428446Y-204549529D01*
X431418218Y-204571153D01*
X431405921Y-204591670D01*
X431391671Y-204610883D01*
X431375607Y-204628607D01*
X431357883Y-204644671D01*
X431338670Y-204658921D01*
X431318153Y-204671218D01*
X431296529Y-204681446D01*
X431274007Y-204689504D01*
X431250803Y-204695316D01*
X431227142Y-204698826D01*
X431203250Y-204700000D01*
X430715750Y-204700000D01*
X430691858Y-204698826D01*
X430668197Y-204695316D01*
X430644993Y-204689504D01*
X430622471Y-204681446D01*
X430600847Y-204671218D01*
X430580330Y-204658921D01*
X430561117Y-204644671D01*
X430543393Y-204628607D01*
X430527329Y-204610883D01*
X430513079Y-204591670D01*
X430500782Y-204571153D01*
X430490554Y-204549529D01*
X430482496Y-204527007D01*
X430476684Y-204503803D01*
X430473174Y-204480142D01*
X430472000Y-204456250D01*
X430472000Y-203543750D01*
X430473174Y-203519858D01*
X430476684Y-203496197D01*
X430482496Y-203472993D01*
X430490554Y-203450471D01*
X430500782Y-203428847D01*
X430513079Y-203408330D01*
X430527329Y-203389117D01*
X430543393Y-203371393D01*
X430561117Y-203355329D01*
X430580330Y-203341079D01*
X430600847Y-203328782D01*
X430622471Y-203318554D01*
X430644993Y-203310496D01*
X430668197Y-203304684D01*
X430691858Y-203301174D01*
X430715750Y-203300000D01*
X431203250Y-203300000D01*
X431227142Y-203301174D01*
G37*
G36*
X429352142Y-203301174D02*
G01*
X429375803Y-203304684D01*
X429399007Y-203310496D01*
X429421529Y-203318554D01*
X429443153Y-203328782D01*
X429463670Y-203341079D01*
X429482883Y-203355329D01*
X429500607Y-203371393D01*
X429516671Y-203389117D01*
X429530921Y-203408330D01*
X429543218Y-203428847D01*
X429553446Y-203450471D01*
X429561504Y-203472993D01*
X429567316Y-203496197D01*
X429570826Y-203519858D01*
X429572000Y-203543750D01*
X429572000Y-204456250D01*
X429570826Y-204480142D01*
X429567316Y-204503803D01*
X429561504Y-204527007D01*
X429553446Y-204549529D01*
X429543218Y-204571153D01*
X429530921Y-204591670D01*
X429516671Y-204610883D01*
X429500607Y-204628607D01*
X429482883Y-204644671D01*
X429463670Y-204658921D01*
X429443153Y-204671218D01*
X429421529Y-204681446D01*
X429399007Y-204689504D01*
X429375803Y-204695316D01*
X429352142Y-204698826D01*
X429328250Y-204700000D01*
X428840750Y-204700000D01*
X428816858Y-204698826D01*
X428793197Y-204695316D01*
X428769993Y-204689504D01*
X428747471Y-204681446D01*
X428725847Y-204671218D01*
X428705330Y-204658921D01*
X428686117Y-204644671D01*
X428668393Y-204628607D01*
X428652329Y-204610883D01*
X428638079Y-204591670D01*
X428625782Y-204571153D01*
X428615554Y-204549529D01*
X428607496Y-204527007D01*
X428601684Y-204503803D01*
X428598174Y-204480142D01*
X428597000Y-204456250D01*
X428597000Y-203543750D01*
X428598174Y-203519858D01*
X428601684Y-203496197D01*
X428607496Y-203472993D01*
X428615554Y-203450471D01*
X428625782Y-203428847D01*
X428638079Y-203408330D01*
X428652329Y-203389117D01*
X428668393Y-203371393D01*
X428686117Y-203355329D01*
X428705330Y-203341079D01*
X428725847Y-203328782D01*
X428747471Y-203318554D01*
X428769993Y-203310496D01*
X428793197Y-203304684D01*
X428816858Y-203301174D01*
X428840750Y-203300000D01*
X429328250Y-203300000D01*
X429352142Y-203301174D01*
G37*
G36*
X421205142Y-256349174D02*
G01*
X421228803Y-256352684D01*
X421252007Y-256358496D01*
X421274529Y-256366554D01*
X421296153Y-256376782D01*
X421316670Y-256389079D01*
X421335883Y-256403329D01*
X421353607Y-256419393D01*
X421369671Y-256437117D01*
X421383921Y-256456330D01*
X421396218Y-256476847D01*
X421406446Y-256498471D01*
X421414504Y-256520993D01*
X421420316Y-256544197D01*
X421423826Y-256567858D01*
X421425000Y-256591750D01*
X421425000Y-257504250D01*
X421423826Y-257528142D01*
X421420316Y-257551803D01*
X421414504Y-257575007D01*
X421406446Y-257597529D01*
X421396218Y-257619153D01*
X421383921Y-257639670D01*
X421369671Y-257658883D01*
X421353607Y-257676607D01*
X421335883Y-257692671D01*
X421316670Y-257706921D01*
X421296153Y-257719218D01*
X421274529Y-257729446D01*
X421252007Y-257737504D01*
X421228803Y-257743316D01*
X421205142Y-257746826D01*
X421181250Y-257748000D01*
X420693750Y-257748000D01*
X420669858Y-257746826D01*
X420646197Y-257743316D01*
X420622993Y-257737504D01*
X420600471Y-257729446D01*
X420578847Y-257719218D01*
X420558330Y-257706921D01*
X420539117Y-257692671D01*
X420521393Y-257676607D01*
X420505329Y-257658883D01*
X420491079Y-257639670D01*
X420478782Y-257619153D01*
X420468554Y-257597529D01*
X420460496Y-257575007D01*
X420454684Y-257551803D01*
X420451174Y-257528142D01*
X420450000Y-257504250D01*
X420450000Y-256591750D01*
X420451174Y-256567858D01*
X420454684Y-256544197D01*
X420460496Y-256520993D01*
X420468554Y-256498471D01*
X420478782Y-256476847D01*
X420491079Y-256456330D01*
X420505329Y-256437117D01*
X420521393Y-256419393D01*
X420539117Y-256403329D01*
X420558330Y-256389079D01*
X420578847Y-256376782D01*
X420600471Y-256366554D01*
X420622993Y-256358496D01*
X420646197Y-256352684D01*
X420669858Y-256349174D01*
X420693750Y-256348000D01*
X421181250Y-256348000D01*
X421205142Y-256349174D01*
G37*
G36*
X419330142Y-256349174D02*
G01*
X419353803Y-256352684D01*
X419377007Y-256358496D01*
X419399529Y-256366554D01*
X419421153Y-256376782D01*
X419441670Y-256389079D01*
X419460883Y-256403329D01*
X419478607Y-256419393D01*
X419494671Y-256437117D01*
X419508921Y-256456330D01*
X419521218Y-256476847D01*
X419531446Y-256498471D01*
X419539504Y-256520993D01*
X419545316Y-256544197D01*
X419548826Y-256567858D01*
X419550000Y-256591750D01*
X419550000Y-257504250D01*
X419548826Y-257528142D01*
X419545316Y-257551803D01*
X419539504Y-257575007D01*
X419531446Y-257597529D01*
X419521218Y-257619153D01*
X419508921Y-257639670D01*
X419494671Y-257658883D01*
X419478607Y-257676607D01*
X419460883Y-257692671D01*
X419441670Y-257706921D01*
X419421153Y-257719218D01*
X419399529Y-257729446D01*
X419377007Y-257737504D01*
X419353803Y-257743316D01*
X419330142Y-257746826D01*
X419306250Y-257748000D01*
X418818750Y-257748000D01*
X418794858Y-257746826D01*
X418771197Y-257743316D01*
X418747993Y-257737504D01*
X418725471Y-257729446D01*
X418703847Y-257719218D01*
X418683330Y-257706921D01*
X418664117Y-257692671D01*
X418646393Y-257676607D01*
X418630329Y-257658883D01*
X418616079Y-257639670D01*
X418603782Y-257619153D01*
X418593554Y-257597529D01*
X418585496Y-257575007D01*
X418579684Y-257551803D01*
X418576174Y-257528142D01*
X418575000Y-257504250D01*
X418575000Y-256591750D01*
X418576174Y-256567858D01*
X418579684Y-256544197D01*
X418585496Y-256520993D01*
X418593554Y-256498471D01*
X418603782Y-256476847D01*
X418616079Y-256456330D01*
X418630329Y-256437117D01*
X418646393Y-256419393D01*
X418664117Y-256403329D01*
X418683330Y-256389079D01*
X418703847Y-256376782D01*
X418725471Y-256366554D01*
X418747993Y-256358496D01*
X418771197Y-256352684D01*
X418794858Y-256349174D01*
X418818750Y-256348000D01*
X419306250Y-256348000D01*
X419330142Y-256349174D01*
G37*
G36*
X421267642Y-241109174D02*
G01*
X421291303Y-241112684D01*
X421314507Y-241118496D01*
X421337029Y-241126554D01*
X421358653Y-241136782D01*
X421379170Y-241149079D01*
X421398383Y-241163329D01*
X421416107Y-241179393D01*
X421432171Y-241197117D01*
X421446421Y-241216330D01*
X421458718Y-241236847D01*
X421468946Y-241258471D01*
X421477004Y-241280993D01*
X421482816Y-241304197D01*
X421486326Y-241327858D01*
X421487500Y-241351750D01*
X421487500Y-242264250D01*
X421486326Y-242288142D01*
X421482816Y-242311803D01*
X421477004Y-242335007D01*
X421468946Y-242357529D01*
X421458718Y-242379153D01*
X421446421Y-242399670D01*
X421432171Y-242418883D01*
X421416107Y-242436607D01*
X421398383Y-242452671D01*
X421379170Y-242466921D01*
X421358653Y-242479218D01*
X421337029Y-242489446D01*
X421314507Y-242497504D01*
X421291303Y-242503316D01*
X421267642Y-242506826D01*
X421243750Y-242508000D01*
X420756250Y-242508000D01*
X420732358Y-242506826D01*
X420708697Y-242503316D01*
X420685493Y-242497504D01*
X420662971Y-242489446D01*
X420641347Y-242479218D01*
X420620830Y-242466921D01*
X420601617Y-242452671D01*
X420583893Y-242436607D01*
X420567829Y-242418883D01*
X420553579Y-242399670D01*
X420541282Y-242379153D01*
X420531054Y-242357529D01*
X420522996Y-242335007D01*
X420517184Y-242311803D01*
X420513674Y-242288142D01*
X420512500Y-242264250D01*
X420512500Y-241351750D01*
X420513674Y-241327858D01*
X420517184Y-241304197D01*
X420522996Y-241280993D01*
X420531054Y-241258471D01*
X420541282Y-241236847D01*
X420553579Y-241216330D01*
X420567829Y-241197117D01*
X420583893Y-241179393D01*
X420601617Y-241163329D01*
X420620830Y-241149079D01*
X420641347Y-241136782D01*
X420662971Y-241126554D01*
X420685493Y-241118496D01*
X420708697Y-241112684D01*
X420732358Y-241109174D01*
X420756250Y-241108000D01*
X421243750Y-241108000D01*
X421267642Y-241109174D01*
G37*
G36*
X419392642Y-241109174D02*
G01*
X419416303Y-241112684D01*
X419439507Y-241118496D01*
X419462029Y-241126554D01*
X419483653Y-241136782D01*
X419504170Y-241149079D01*
X419523383Y-241163329D01*
X419541107Y-241179393D01*
X419557171Y-241197117D01*
X419571421Y-241216330D01*
X419583718Y-241236847D01*
X419593946Y-241258471D01*
X419602004Y-241280993D01*
X419607816Y-241304197D01*
X419611326Y-241327858D01*
X419612500Y-241351750D01*
X419612500Y-242264250D01*
X419611326Y-242288142D01*
X419607816Y-242311803D01*
X419602004Y-242335007D01*
X419593946Y-242357529D01*
X419583718Y-242379153D01*
X419571421Y-242399670D01*
X419557171Y-242418883D01*
X419541107Y-242436607D01*
X419523383Y-242452671D01*
X419504170Y-242466921D01*
X419483653Y-242479218D01*
X419462029Y-242489446D01*
X419439507Y-242497504D01*
X419416303Y-242503316D01*
X419392642Y-242506826D01*
X419368750Y-242508000D01*
X418881250Y-242508000D01*
X418857358Y-242506826D01*
X418833697Y-242503316D01*
X418810493Y-242497504D01*
X418787971Y-242489446D01*
X418766347Y-242479218D01*
X418745830Y-242466921D01*
X418726617Y-242452671D01*
X418708893Y-242436607D01*
X418692829Y-242418883D01*
X418678579Y-242399670D01*
X418666282Y-242379153D01*
X418656054Y-242357529D01*
X418647996Y-242335007D01*
X418642184Y-242311803D01*
X418638674Y-242288142D01*
X418637500Y-242264250D01*
X418637500Y-241351750D01*
X418638674Y-241327858D01*
X418642184Y-241304197D01*
X418647996Y-241280993D01*
X418656054Y-241258471D01*
X418666282Y-241236847D01*
X418678579Y-241216330D01*
X418692829Y-241197117D01*
X418708893Y-241179393D01*
X418726617Y-241163329D01*
X418745830Y-241149079D01*
X418766347Y-241136782D01*
X418787971Y-241126554D01*
X418810493Y-241118496D01*
X418833697Y-241112684D01*
X418857358Y-241109174D01*
X418881250Y-241108000D01*
X419368750Y-241108000D01*
X419392642Y-241109174D01*
G37*
G36*
X421399642Y-225869174D02*
G01*
X421423303Y-225872684D01*
X421446507Y-225878496D01*
X421469029Y-225886554D01*
X421490653Y-225896782D01*
X421511170Y-225909079D01*
X421530383Y-225923329D01*
X421548107Y-225939393D01*
X421564171Y-225957117D01*
X421578421Y-225976330D01*
X421590718Y-225996847D01*
X421600946Y-226018471D01*
X421609004Y-226040993D01*
X421614816Y-226064197D01*
X421618326Y-226087858D01*
X421619500Y-226111750D01*
X421619500Y-227024250D01*
X421618326Y-227048142D01*
X421614816Y-227071803D01*
X421609004Y-227095007D01*
X421600946Y-227117529D01*
X421590718Y-227139153D01*
X421578421Y-227159670D01*
X421564171Y-227178883D01*
X421548107Y-227196607D01*
X421530383Y-227212671D01*
X421511170Y-227226921D01*
X421490653Y-227239218D01*
X421469029Y-227249446D01*
X421446507Y-227257504D01*
X421423303Y-227263316D01*
X421399642Y-227266826D01*
X421375750Y-227268000D01*
X420888250Y-227268000D01*
X420864358Y-227266826D01*
X420840697Y-227263316D01*
X420817493Y-227257504D01*
X420794971Y-227249446D01*
X420773347Y-227239218D01*
X420752830Y-227226921D01*
X420733617Y-227212671D01*
X420715893Y-227196607D01*
X420699829Y-227178883D01*
X420685579Y-227159670D01*
X420673282Y-227139153D01*
X420663054Y-227117529D01*
X420654996Y-227095007D01*
X420649184Y-227071803D01*
X420645674Y-227048142D01*
X420644500Y-227024250D01*
X420644500Y-226111750D01*
X420645674Y-226087858D01*
X420649184Y-226064197D01*
X420654996Y-226040993D01*
X420663054Y-226018471D01*
X420673282Y-225996847D01*
X420685579Y-225976330D01*
X420699829Y-225957117D01*
X420715893Y-225939393D01*
X420733617Y-225923329D01*
X420752830Y-225909079D01*
X420773347Y-225896782D01*
X420794971Y-225886554D01*
X420817493Y-225878496D01*
X420840697Y-225872684D01*
X420864358Y-225869174D01*
X420888250Y-225868000D01*
X421375750Y-225868000D01*
X421399642Y-225869174D01*
G37*
G36*
X419524642Y-225869174D02*
G01*
X419548303Y-225872684D01*
X419571507Y-225878496D01*
X419594029Y-225886554D01*
X419615653Y-225896782D01*
X419636170Y-225909079D01*
X419655383Y-225923329D01*
X419673107Y-225939393D01*
X419689171Y-225957117D01*
X419703421Y-225976330D01*
X419715718Y-225996847D01*
X419725946Y-226018471D01*
X419734004Y-226040993D01*
X419739816Y-226064197D01*
X419743326Y-226087858D01*
X419744500Y-226111750D01*
X419744500Y-227024250D01*
X419743326Y-227048142D01*
X419739816Y-227071803D01*
X419734004Y-227095007D01*
X419725946Y-227117529D01*
X419715718Y-227139153D01*
X419703421Y-227159670D01*
X419689171Y-227178883D01*
X419673107Y-227196607D01*
X419655383Y-227212671D01*
X419636170Y-227226921D01*
X419615653Y-227239218D01*
X419594029Y-227249446D01*
X419571507Y-227257504D01*
X419548303Y-227263316D01*
X419524642Y-227266826D01*
X419500750Y-227268000D01*
X419013250Y-227268000D01*
X418989358Y-227266826D01*
X418965697Y-227263316D01*
X418942493Y-227257504D01*
X418919971Y-227249446D01*
X418898347Y-227239218D01*
X418877830Y-227226921D01*
X418858617Y-227212671D01*
X418840893Y-227196607D01*
X418824829Y-227178883D01*
X418810579Y-227159670D01*
X418798282Y-227139153D01*
X418788054Y-227117529D01*
X418779996Y-227095007D01*
X418774184Y-227071803D01*
X418770674Y-227048142D01*
X418769500Y-227024250D01*
X418769500Y-226111750D01*
X418770674Y-226087858D01*
X418774184Y-226064197D01*
X418779996Y-226040993D01*
X418788054Y-226018471D01*
X418798282Y-225996847D01*
X418810579Y-225976330D01*
X418824829Y-225957117D01*
X418840893Y-225939393D01*
X418858617Y-225923329D01*
X418877830Y-225909079D01*
X418898347Y-225896782D01*
X418919971Y-225886554D01*
X418942493Y-225878496D01*
X418965697Y-225872684D01*
X418989358Y-225869174D01*
X419013250Y-225868000D01*
X419500750Y-225868000D01*
X419524642Y-225869174D01*
G37*
M02*
